<svg width="50" height="66" viewBox="0 0 50 66" fill="none" xmlns="http://www.w3.org/2000/svg">
<path d="M39.5582 37.1251L45.0161 6.76378C45.1204 6.18148 45.0954 5.58344 44.9428 5.01188C44.7903 4.44031 44.5139 3.90925 44.1333 3.45635C43.7528 3.00346 43.2773 2.63978 42.7405 2.39107C42.2038 2.14237 41.6189 2.01468 41.0273 2.01712H8.73153C8.13997 2.01468 7.55508 2.14237 7.01833 2.39107C6.48159 2.63978 6.0061 3.00346 5.62552 3.45635C5.24494 3.90925 4.96858 4.44031 4.81603 5.01188C4.66348 5.58344 4.63847 6.18148 4.74275 6.76378L10.2007 37.1251H6.03242C5.23472 37.1257 4.45514 37.3626 3.79206 37.806C3.12897 38.2495 2.61217 38.8795 2.30698 39.6165C2.00179 40.3535 1.92193 41.1645 2.0774 41.9469C2.23287 42.7293 2.61672 43.448 3.1805 44.0124L22.0075 62.8395C22.7642 63.5954 23.79 64.0199 24.8595 64.0199C25.929 64.0199 26.9549 63.5954 27.7115 62.8395L46.5385 44.0124C47.1023 43.448 47.4862 42.7293 47.6416 41.9469C47.7971 41.1645 47.7172 40.3535 47.4121 39.6165C47.1069 38.8795 46.5901 38.2495 45.927 37.806C45.2639 37.3626 44.4842 37.1257 43.6865 37.1251H39.5582Z" fill="#54C4DB" stroke="#1D1D1B" stroke-width="3" stroke-miterlimit="10"/>
</svg>
