<svg xmlns="http://www.w3.org/2000/svg" viewBox="0 0 596 904" width="596" height="904" preserveAspectRatio="xMidYMid meet" style="width: 100%; height: 100%; transform: translate3d(0px, 0px, 0px); content-visibility: visible;"><defs><clipPath id="__lottie_element_10"><rect width="596" height="904" x="0" y="0"></rect></clipPath></defs><g clip-path="url(#__lottie_element_10)"><g transform="matrix(0.9995366930961609,-0.030436700209975243,0.030436700209975243,0.9995366930961609,304.6290588378906,458.3844909667969)" opacity="1" style="display: block;"><g opacity="1" transform="matrix(1,0,0,1,0,0)"><g opacity="1" transform="matrix(1,0,0,1,-0.1459999978542328,-271.56201171875)"><path fill="rgb(245,203,28)" fill-opacity="1" d=" M0,-30.424999237060547 C10.815308570861816,-30.424999237060547 19.596500396728516,-16.79155731201172 19.596500396728516,0 C19.596500396728516,16.79155731201172 10.815308570861816,30.424999237060547 0,30.424999237060547 C-10.815308570861816,30.424999237060547 -19.596500396728516,16.79155731201172 -19.596500396728516,0 C-19.596500396728516,-16.79155731201172 -10.815308570861816,-30.424999237060547 0,-30.424999237060547z"></path><path stroke-linecap="butt" stroke-linejoin="miter" fill-opacity="0" stroke-miterlimit="4" stroke="rgb(29,29,27)" stroke-opacity="1" stroke-width="3" d=" M0,-30.424999237060547 C10.815308570861816,-30.424999237060547 19.596500396728516,-16.79155731201172 19.596500396728516,0 C19.596500396728516,16.79155731201172 10.815308570861816,30.424999237060547 0,30.424999237060547 C-10.815308570861816,30.424999237060547 -19.596500396728516,16.79155731201172 -19.596500396728516,0 C-19.596500396728516,-16.79155731201172 -10.815308570861816,-30.424999237060547 0,-30.424999237060547z"></path></g></g><g opacity="1" transform="matrix(0.8412560820579529,0.5406368374824524,-0.5406368374824524,0.8412560820579529,-107.58672332763672,-31.590042114257812)"><g opacity="1" transform="matrix(1,0,0,1,-0.1459999978542328,-271.56201171875)"><path fill="rgb(245,203,28)" fill-opacity="1" d=" M0,-30.424999237060547 C10.815308570861816,-30.424999237060547 19.596500396728516,-16.79155731201172 19.596500396728516,0 C19.596500396728516,16.79155731201172 10.815308570861816,30.424999237060547 0,30.424999237060547 C-10.815308570861816,30.424999237060547 -19.596500396728516,16.79155731201172 -19.596500396728516,0 C-19.596500396728516,-16.79155731201172 -10.815308570861816,-30.424999237060547 0,-30.424999237060547z"></path><path stroke-linecap="butt" stroke-linejoin="miter" fill-opacity="0" stroke-miterlimit="4" stroke="rgb(29,29,27)" stroke-opacity="1" stroke-width="3" d=" M0,-30.424999237060547 C10.815308570861816,-30.424999237060547 19.596500396728516,-16.79155731201172 19.596500396728516,0 C19.596500396728516,16.79155731201172 10.815308570861816,30.424999237060547 0,30.424999237060547 C-10.815308570861816,30.424999237060547 -19.596500396728516,16.79155731201172 -19.596500396728516,0 C-19.596500396728516,-16.79155731201172 -10.815308570861816,-30.424999237060547 0,-30.424999237060547z"></path></g></g><g opacity="1" transform="matrix(0.4154236316680908,0.9096280336380005,-0.9096280336380005,0.4154236316680908,-181.01597595214844,-116.33069610595703)"><g opacity="1" transform="matrix(1,0,0,1,-0.1459999978542328,-271.56201171875)"><path fill="rgb(245,203,28)" fill-opacity="1" d=" M0,-30.424999237060547 C10.815308570861816,-30.424999237060547 19.596500396728516,-16.79155731201172 19.596500396728516,0 C19.596500396728516,16.79155731201172 10.815308570861816,30.424999237060547 0,30.424999237060547 C-10.815308570861816,30.424999237060547 -19.596500396728516,16.79155731201172 -19.596500396728516,0 C-19.596500396728516,-16.79155731201172 -10.815308570861816,-30.424999237060547 0,-30.424999237060547z"></path><path stroke-linecap="butt" stroke-linejoin="miter" fill-opacity="0" stroke-miterlimit="4" stroke="rgb(29,29,27)" stroke-opacity="1" stroke-width="3" d=" M0,-30.424999237060547 C10.815308570861816,-30.424999237060547 19.596500396728516,-16.79155731201172 19.596500396728516,0 C19.596500396728516,16.79155731201172 10.815308570861816,30.424999237060547 0,30.424999237060547 C-10.815308570861816,30.424999237060547 -19.596500396728516,16.79155731201172 -19.596500396728516,0 C-19.596500396728516,-16.79155731201172 -10.815308570861816,-30.424999237060547 0,-30.424999237060547z"></path></g></g><g opacity="1" transform="matrix(-0.14230073988437653,0.9898234605789185,-0.9898234605789185,-0.14230073988437653,-196.97486877441406,-227.31784057617188)"><g opacity="1" transform="matrix(1,0,0,1,-0.1459999978542328,-271.56201171875)"><path fill="rgb(245,203,28)" fill-opacity="1" d=" M0,-30.424999237060547 C10.815308570861816,-30.424999237060547 19.596500396728516,-16.79155731201172 19.596500396728516,0 C19.596500396728516,16.79155731201172 10.815308570861816,30.424999237060547 0,30.424999237060547 C-10.815308570861816,30.424999237060547 -19.596500396728516,16.79155731201172 -19.596500396728516,0 C-19.596500396728516,-16.79155731201172 -10.815308570861816,-30.424999237060547 0,-30.424999237060547z"></path><path stroke-linecap="butt" stroke-linejoin="miter" fill-opacity="0" stroke-miterlimit="4" stroke="rgb(29,29,27)" stroke-opacity="1" stroke-width="3" d=" M0,-30.424999237060547 C10.815308570861816,-30.424999237060547 19.596500396728516,-16.79155731201172 19.596500396728516,0 C19.596500396728516,16.79155731201172 10.815308570861816,30.424999237060547 0,30.424999237060547 C-10.815308570861816,30.424999237060547 -19.596500396728516,16.79155731201172 -19.596500396728516,0 C-19.596500396728516,-16.79155731201172 -10.815308570861816,-30.424999237060547 0,-30.424999237060547z"></path></g></g><g opacity="1" transform="matrix(-0.6548463702201843,0.7557620406150818,-0.7557620406150818,-0.6548463702201843,-150.39663696289062,-329.3144226074219)"><g opacity="1" transform="matrix(1,0,0,1,-0.1459999978542328,-271.56201171875)"><path fill="rgb(245,203,28)" fill-opacity="1" d=" M0,-30.424999237060547 C10.815308570861816,-30.424999237060547 19.596500396728516,-16.79155731201172 19.596500396728516,0 C19.596500396728516,16.79155731201172 10.815308570861816,30.424999237060547 0,30.424999237060547 C-10.815308570861816,30.424999237060547 -19.596500396728516,16.79155731201172 -19.596500396728516,0 C-19.596500396728516,-16.79155731201172 -10.815308570861816,-30.424999237060547 0,-30.424999237060547z"></path><path stroke-linecap="butt" stroke-linejoin="miter" fill-opacity="0" stroke-miterlimit="4" stroke="rgb(29,29,27)" stroke-opacity="1" stroke-width="3" d=" M0,-30.424999237060547 C10.815308570861816,-30.424999237060547 19.596500396728516,-16.79155731201172 19.596500396728516,0 C19.596500396728516,16.79155731201172 10.815308570861816,30.424999237060547 0,30.424999237060547 C-10.815308570861816,30.424999237060547 -19.596500396728516,16.79155731201172 -19.596500396728516,0 C-19.596500396728516,-16.79155731201172 -10.815308570861816,-30.424999237060547 0,-30.424999237060547z"></path></g></g><g opacity="1" transform="matrix(-0.9594863057136536,0.28175538778305054,-0.28175538778305054,-0.9594863057136536,-56.06931686401367,-389.937744140625)"><g opacity="1" transform="matrix(1,0,0,1,-0.1459999978542328,-271.56201171875)"><path fill="rgb(245,203,28)" fill-opacity="1" d=" M0,-30.424999237060547 C10.815308570861816,-30.424999237060547 19.596500396728516,-16.79155731201172 19.596500396728516,0 C19.596500396728516,16.79155731201172 10.815308570861816,30.424999237060547 0,30.424999237060547 C-10.815308570861816,30.424999237060547 -19.596500396728516,16.79155731201172 -19.596500396728516,0 C-19.596500396728516,-16.79155731201172 -10.815308570861816,-30.424999237060547 0,-30.424999237060547z"></path><path stroke-linecap="butt" stroke-linejoin="miter" fill-opacity="0" stroke-miterlimit="4" stroke="rgb(29,29,27)" stroke-opacity="1" stroke-width="3" d=" M0,-30.424999237060547 C10.815308570861816,-30.424999237060547 19.596500396728516,-16.79155731201172 19.596500396728516,0 C19.596500396728516,16.79155731201172 10.815308570861816,30.424999237060547 0,30.424999237060547 C-10.815308570861816,30.424999237060547 -19.596500396728516,16.79155731201172 -19.596500396728516,0 C-19.596500396728516,-16.79155731201172 -10.815308570861816,-30.424999237060547 0,-30.424999237060547z"></path></g></g><g opacity="1" transform="matrix(-0.9595010280609131,-0.28170517086982727,0.28170517086982727,-0.9595010280609131,56.05931854248047,-389.940673828125)"><g opacity="1" transform="matrix(1,0,0,1,-0.1459999978542328,-271.56201171875)"><path fill="rgb(245,203,28)" fill-opacity="1" d=" M0,-30.424999237060547 C10.815308570861816,-30.424999237060547 19.596500396728516,-16.79155731201172 19.596500396728516,0 C19.596500396728516,16.79155731201172 10.815308570861816,30.424999237060547 0,30.424999237060547 C-10.815308570861816,30.424999237060547 -19.596500396728516,16.79155731201172 -19.596500396728516,0 C-19.596500396728516,-16.79155731201172 -10.815308570861816,-30.424999237060547 0,-30.424999237060547z"></path><path stroke-linecap="butt" stroke-linejoin="miter" fill-opacity="0" stroke-miterlimit="4" stroke="rgb(29,29,27)" stroke-opacity="1" stroke-width="3" d=" M0,-30.424999237060547 C10.815308570861816,-30.424999237060547 19.596500396728516,-16.79155731201172 19.596500396728516,0 C19.596500396728516,16.79155731201172 10.815308570861816,30.424999237060547 0,30.424999237060547 C-10.815308570861816,30.424999237060547 -19.596500396728516,16.79155731201172 -19.596500396728516,0 C-19.596500396728516,-16.79155731201172 -10.815308570861816,-30.424999237060547 0,-30.424999237060547z"></path></g></g><g opacity="1" transform="matrix(-0.6548858880996704,-0.7557277679443359,0.7557277679443359,-0.6548858880996704,150.38980102539062,-329.322265625)"><g opacity="1" transform="matrix(1,0,0,1,-0.1459999978542328,-271.56201171875)"><path fill="rgb(245,203,28)" fill-opacity="1" d=" M0,-30.424999237060547 C10.815308570861816,-30.424999237060547 19.596500396728516,-16.79155731201172 19.596500396728516,0 C19.596500396728516,16.79155731201172 10.815308570861816,30.424999237060547 0,30.424999237060547 C-10.815308570861816,30.424999237060547 -19.596500396728516,16.79155731201172 -19.596500396728516,0 C-19.596500396728516,-16.79155731201172 -10.815308570861816,-30.424999237060547 0,-30.424999237060547z"></path><path stroke-linecap="butt" stroke-linejoin="miter" fill-opacity="0" stroke-miterlimit="4" stroke="rgb(29,29,27)" stroke-opacity="1" stroke-width="3" d=" M0,-30.424999237060547 C10.815308570861816,-30.424999237060547 19.596500396728516,-16.79155731201172 19.596500396728516,0 C19.596500396728516,16.79155731201172 10.815308570861816,30.424999237060547 0,30.424999237060547 C-10.815308570861816,30.424999237060547 -19.596500396728516,16.79155731201172 -19.596500396728516,0 C-19.596500396728516,-16.79155731201172 -10.815308570861816,-30.424999237060547 0,-30.424999237060547z"></path></g></g><g opacity="1" transform="matrix(-0.14235250651836395,-0.9898160099983215,0.9898160099983215,-0.14235250651836395,196.97335815429688,-227.32814025878906)"><g opacity="1" transform="matrix(1,0,0,1,-0.1459999978542328,-271.56201171875)"><path fill="rgb(245,203,28)" fill-opacity="1" d=" M0,-30.424999237060547 C10.815308570861816,-30.424999237060547 19.596500396728516,-16.79155731201172 19.596500396728516,0 C19.596500396728516,16.79155731201172 10.815308570861816,30.424999237060547 0,30.424999237060547 C-10.815308570861816,30.424999237060547 -19.596500396728516,16.79155731201172 -19.596500396728516,0 C-19.596500396728516,-16.79155731201172 -10.815308570861816,-30.424999237060547 0,-30.424999237060547z"></path><path stroke-linecap="butt" stroke-linejoin="miter" fill-opacity="0" stroke-miterlimit="4" stroke="rgb(29,29,27)" stroke-opacity="1" stroke-width="3" d=" M0,-30.424999237060547 C10.815308570861816,-30.424999237060547 19.596500396728516,-16.79155731201172 19.596500396728516,0 C19.596500396728516,16.79155731201172 10.815308570861816,30.424999237060547 0,30.424999237060547 C-10.815308570861816,30.424999237060547 -19.596500396728516,16.79155731201172 -19.596500396728516,0 C-19.596500396728516,-16.79155731201172 -10.815308570861816,-30.424999237060547 0,-30.424999237060547z"></path></g></g><g opacity="1" transform="matrix(0.41537606716156006,-0.9096497893333435,0.9096497893333435,0.41537606716156006,181.02027893066406,-116.34017181396484)"><g opacity="1" transform="matrix(1,0,0,1,-0.1459999978542328,-271.56201171875)"><path fill="rgb(245,203,28)" fill-opacity="1" d=" M0,-30.424999237060547 C10.815308570861816,-30.424999237060547 19.596500396728516,-16.79155731201172 19.596500396728516,0 C19.596500396728516,16.79155731201172 10.815308570861816,30.424999237060547 0,30.424999237060547 C-10.815308570861816,30.424999237060547 -19.596500396728516,16.79155731201172 -19.596500396728516,0 C-19.596500396728516,-16.79155731201172 -10.815308570861816,-30.424999237060547 0,-30.424999237060547z"></path><path stroke-linecap="butt" stroke-linejoin="miter" fill-opacity="0" stroke-miterlimit="4" stroke="rgb(29,29,27)" stroke-opacity="1" stroke-width="3" d=" M0,-30.424999237060547 C10.815308570861816,-30.424999237060547 19.596500396728516,-16.79155731201172 19.596500396728516,0 C19.596500396728516,16.79155731201172 10.815308570861816,30.424999237060547 0,30.424999237060547 C-10.815308570861816,30.424999237060547 -19.596500396728516,16.79155731201172 -19.596500396728516,0 C-19.596500396728516,-16.79155731201172 -10.815308570861816,-30.424999237060547 0,-30.424999237060547z"></path></g></g><g opacity="1" transform="matrix(0.8412278294563293,-0.5406808257102966,0.5406808257102966,0.8412278294563293,107.59546661376953,-31.595687866210938)"><g opacity="1" transform="matrix(1,0,0,1,-0.1459999978542328,-271.56201171875)"><path fill="rgb(245,203,28)" fill-opacity="1" d=" M0,-30.424999237060547 C10.815308570861816,-30.424999237060547 19.596500396728516,-16.79155731201172 19.596500396728516,0 C19.596500396728516,16.79155731201172 10.815308570861816,30.424999237060547 0,30.424999237060547 C-10.815308570861816,30.424999237060547 -19.596500396728516,16.79155731201172 -19.596500396728516,0 C-19.596500396728516,-16.79155731201172 -10.815308570861816,-30.424999237060547 0,-30.424999237060547z"></path><path stroke-linecap="butt" stroke-linejoin="miter" fill-opacity="0" stroke-miterlimit="4" stroke="rgb(29,29,27)" stroke-opacity="1" stroke-width="3" d=" M0,-30.424999237060547 C10.815308570861816,-30.424999237060547 19.596500396728516,-16.79155731201172 19.596500396728516,0 C19.596500396728516,16.79155731201172 10.815308570861816,30.424999237060547 0,30.424999237060547 C-10.815308570861816,30.424999237060547 -19.596500396728516,16.79155731201172 -19.596500396728516,0 C-19.596500396728516,-16.79155731201172 -10.815308570861816,-30.424999237060547 0,-30.424999237060547z"></path></g></g></g><g transform="matrix(1,0,0,1,298,452)" opacity="1" style="display: block;"><g opacity="1" transform="matrix(1,0,0,1,0,0)"><path stroke-linecap="round" stroke-linejoin="round" fill-opacity="0" stroke="rgb(29,29,27)" stroke-opacity="1" stroke-width="30" d=" M-12,-142.5 C-12,-142.5 -14.886469841003418,-102.01499938964844 -14.886469841003418,-102.01499938964844 C-14.886469841003418,-102.01499938964844 -16,-29.5 -16,-29.5 C-16,-29.5 -37,-29.5 -37,-29.5"></path><path stroke-linecap="round" stroke-linejoin="round" fill-opacity="0" stroke="rgb(245,96,185)" stroke-opacity="1" stroke-width="24" d=" M-12,-142.5 C-12,-142.5 -14.886469841003418,-102.01499938964844 -14.886469841003418,-102.01499938964844 C-14.886469841003418,-102.01499938964844 -16,-29.5 -16,-29.5 C-16,-29.5 -37,-29.5 -37,-29.5"></path></g></g><g transform="matrix(-1,0,0,1,300,452)" opacity="1" style="display: block;"><g opacity="1" transform="matrix(1,0,0,1,0,0)"><path stroke-linecap="round" stroke-linejoin="round" fill-opacity="0" stroke="rgb(29,29,27)" stroke-opacity="1" stroke-width="30" d=" M-12,-142.5 C-12,-142.5 -14.886469841003418,-102.01499938964844 -14.886469841003418,-102.01499938964844 C-14.886469841003418,-102.01499938964844 -16,-29.5 -16,-29.5 C-16,-29.5 -37,-29.5 -37,-29.5"></path><path stroke-linecap="round" stroke-linejoin="round" fill-opacity="0" stroke="rgb(245,96,185)" stroke-opacity="1" stroke-width="24" d=" M-12,-142.5 C-12,-142.5 -14.886469841003418,-102.01499938964844 -14.886469841003418,-102.01499938964844 C-14.886469841003418,-102.01499938964844 -16,-29.5 -16,-29.5 C-16,-29.5 -37,-29.5 -37,-29.5"></path></g></g><g transform="matrix(1,0,0,1,298,452)" opacity="1" style="display: block;"><g opacity="1" transform="matrix(1,0,0,1,0,0)"><path stroke-linecap="butt" stroke-linejoin="round" fill-opacity="0" stroke="rgb(29,29,27)" stroke-opacity="1" stroke-width="30" d=" M-12,-142.5 C-12,-142.5 -14.886469841003418,-102.01499938964844 -14.886469841003418,-102.01499938964844 C-14.88599967956543,-102.01499938964844 -15.232999801635742,-79.4229965209961 -15.539999961853027,-59.45899963378906"></path><path stroke-linecap="butt" stroke-linejoin="round" fill-opacity="0" stroke="rgb(110,212,119)" stroke-opacity="1" stroke-width="24" d=" M-12,-142.5 C-12,-142.5 -14.886469841003418,-102.01499938964844 -14.886469841003418,-102.01499938964844 C-14.88599967956543,-102.01499938964844 -15.232999801635742,-79.4229965209961 -15.539999961853027,-59.45899963378906"></path></g></g><g transform="matrix(-1,0,0,1,300,452)" opacity="1" style="display: block;"><g opacity="1" transform="matrix(1,0,0,1,0,0)"><path stroke-linecap="butt" stroke-linejoin="round" fill-opacity="0" stroke="rgb(29,29,27)" stroke-opacity="1" stroke-width="30" d=" M-12,-142.5 C-12,-142.5 -14.886469841003418,-102.01499938964844 -14.886469841003418,-102.01499938964844 C-14.88599967956543,-102.01499938964844 -15.232999801635742,-79.4229965209961 -15.539999961853027,-59.45899963378906"></path><path stroke-linecap="butt" stroke-linejoin="round" fill-opacity="0" stroke="rgb(110,212,119)" stroke-opacity="1" stroke-width="24" d=" M-12,-142.5 C-12,-142.5 -14.886469841003418,-102.01499938964844 -14.886469841003418,-102.01499938964844 C-14.88599967956543,-102.01499938964844 -15.232999801635742,-79.4229965209961 -15.539999961853027,-59.45899963378906"></path></g></g><g transform="matrix(0.9995366930961609,-0.030436700209975243,0.030436700209975243,0.9995366930961609,-12.764923095703125,-157.77655029296875)" opacity="1" style="display: block;"><g opacity="1" transform="matrix(1,0,0,1,298.11199951171875,423.92999267578125)"><path fill="rgb(255,255,255)" fill-opacity="1" d=" M63.64400100708008,0 C63.64400100708008,35.150001525878906 35.150001525878906,63.64400100708008 0,63.64400100708008 C-35.150001525878906,63.64400100708008 -63.64400100708008,35.150001525878906 -63.64400100708008,0 C-63.64400100708008,-35.150001525878906 -35.150001525878906,-63.64400100708008 0,-63.64400100708008 C35.150001525878906,-63.64400100708008 63.64400100708008,-35.150001525878906 63.64400100708008,0z"></path><path stroke-linecap="butt" stroke-linejoin="miter" fill-opacity="0" stroke-miterlimit="10" stroke="rgb(29,29,27)" stroke-opacity="1" stroke-width="3" d=" M63.64400100708008,0 C63.64400100708008,35.150001525878906 35.150001525878906,63.64400100708008 0,63.64400100708008 C-35.150001525878906,63.64400100708008 -63.64400100708008,35.150001525878906 -63.64400100708008,0 C-63.64400100708008,-35.150001525878906 -35.150001525878906,-63.64400100708008 0,-63.64400100708008 C35.150001525878906,-63.64400100708008 63.64400100708008,-35.150001525878906 63.64400100708008,0z"></path><path fill="rgb(255,255,255)" fill-opacity="1" d=" M63.64400100708008,0 C63.64400100708008,35.150001525878906 35.150001525878906,63.64400100708008 0,63.64400100708008 C-35.150001525878906,63.64400100708008 -63.64400100708008,35.150001525878906 -63.64400100708008,0 C-63.64400100708008,-35.150001525878906 -35.150001525878906,-63.64400100708008 0,-63.64400100708008 C35.150001525878906,-63.64400100708008 63.64400100708008,-35.150001525878906 63.64400100708008,0z"></path><path stroke-linecap="butt" stroke-linejoin="miter" fill-opacity="0" stroke-miterlimit="10" stroke="rgb(29,29,27)" stroke-opacity="1" stroke-width="3" d=" M63.64400100708008,0 C63.64400100708008,35.150001525878906 35.150001525878906,63.64400100708008 0,63.64400100708008 C-35.150001525878906,63.64400100708008 -63.64400100708008,35.150001525878906 -63.64400100708008,0 C-63.64400100708008,-35.150001525878906 -35.150001525878906,-63.64400100708008 0,-63.64400100708008 C35.150001525878906,-63.64400100708008 63.64400100708008,-35.150001525878906 63.64400100708008,0z"></path></g><g opacity="1" transform="matrix(1,0,0,1,344.1409912109375,427.30499267578125)"><path fill="rgb(245,96,185)" fill-opacity="1" d=" M10.149999618530273,0 C10.149999618530273,5.605999946594238 5.605000019073486,10.149999618530273 -0.0010000000474974513,10.149999618530273 C-5.605999946594238,10.149999618530273 -10.149999618530273,5.605999946594238 -10.149999618530273,0 C-10.149999618530273,-5.605999946594238 -5.605999946594238,-10.149999618530273 -0.0010000000474974513,-10.149999618530273 C5.605000019073486,-10.149999618530273 10.149999618530273,-5.605999946594238 10.149999618530273,0z"></path></g><g opacity="1" transform="matrix(1,0,0,1,252.08299255371094,427.30499267578125)"><path fill="rgb(245,96,185)" fill-opacity="1" d=" M10.149999618530273,0 C10.149999618530273,5.605999946594238 5.605000019073486,10.149999618530273 -0.0010000000474974513,10.149999618530273 C-5.605999946594238,10.149999618530273 -10.149999618530273,5.605999946594238 -10.149999618530273,0 C-10.149999618530273,-5.605999946594238 -5.605999946594238,-10.149999618530273 -0.0010000000474974513,-10.149999618530273 C5.605000019073486,-10.149999618530273 10.149999618530273,-5.605999946594238 10.149999618530273,0z"></path></g><g opacity="1" transform="matrix(1,0,0,1,298.11199951171875,441.6080017089844)"><path fill="rgb(255,255,255)" fill-opacity="1" d=" M0,10.468000411987305 C-11.543999671936035,10.468000411987305 -20.93600082397461,1.0759999752044678 -20.93600082397461,-10.468000411987305 C-20.93600082397461,-10.468000411987305 20.93600082397461,-10.468000411987305 20.93600082397461,-10.468000411987305 C20.93600082397461,1.0759999752044678 11.543999671936035,10.468000411987305 0,10.468000411987305z"></path><path stroke-linecap="butt" stroke-linejoin="miter" fill-opacity="0" stroke-miterlimit="10" stroke="rgb(29,29,27)" stroke-opacity="1" stroke-width="3" d=" M0,10.468000411987305 C-11.543999671936035,10.468000411987305 -20.93600082397461,1.0759999752044678 -20.93600082397461,-10.468000411987305 C-20.93600082397461,-10.468000411987305 20.93600082397461,-10.468000411987305 20.93600082397461,-10.468000411987305 C20.93600082397461,1.0759999752044678 11.543999671936035,10.468000411987305 0,10.468000411987305z"></path></g><g opacity="1" transform="matrix(1,0,0,1,298.11199951171875,434.6080017089844)"><path fill="rgb(255,255,255)" fill-opacity="1" d=" M6.935999870300293,-3.4679999351501465 C6.935999870300293,0.3630000054836273 3.8310000896453857,3.4679999351501465 0,3.4679999351501465 C-3.8299999237060547,3.4679999351501465 -6.935999870300293,0.3630000054836273 -6.935999870300293,-3.4679999351501465"></path><path stroke-linecap="butt" stroke-linejoin="miter" fill-opacity="0" stroke-miterlimit="10" stroke="rgb(29,29,27)" stroke-opacity="1" stroke-width="3" d=" M6.935999870300293,-3.4679999351501465 C6.935999870300293,0.3630000054836273 3.8310000896453857,3.4679999351501465 0,3.4679999351501465 C-3.8299999237060547,3.4679999351501465 -6.935999870300293,0.3630000054836273 -6.935999870300293,-3.4679999351501465"></path></g><g opacity="1" transform="matrix(1,0,0,1,298.11199951171875,434.6080017089844)"><path fill="rgb(245,203,28)" fill-opacity="1" d=" M0,18.968000411987305 C-12.371000289916992,18.968000411987305 -22.43600082397461,8.904000282287598 -22.43600082397461,-3.4679999351501465 C-22.43600082397461,-12.013999938964844 -15.482000350952148,-18.968000411987305 -6.935999870300293,-18.968000411987305 C-4.443999767303467,-18.968000411987305 -2.0880000591278076,-18.37700080871582 0,-17.327999114990234 C2.0880000591278076,-18.37700080871582 4.443999767303467,-18.968000411987305 6.935999870300293,-18.968000411987305 C15.482000350952148,-18.968000411987305 22.43600082397461,-12.013999938964844 22.43600082397461,-3.4679999351501465 C22.43600082397461,8.904000282287598 12.371000289916992,18.968000411987305 0,18.968000411987305z"></path><path stroke-linecap="butt" stroke-linejoin="miter" fill-opacity="0" stroke-miterlimit="10" stroke="rgb(29,29,27)" stroke-opacity="1" stroke-width="3" d=" M0,18.968000411987305 C-12.371000289916992,18.968000411987305 -22.43600082397461,8.904000282287598 -22.43600082397461,-3.4679999351501465 C-22.43600082397461,-12.013999938964844 -15.482000350952148,-18.968000411987305 -6.935999870300293,-18.968000411987305 C-4.443999767303467,-18.968000411987305 -2.0880000591278076,-18.37700080871582 0,-17.327999114990234 C2.0880000591278076,-18.37700080871582 4.443999767303467,-18.968000411987305 6.935999870300293,-18.968000411987305 C15.482000350952148,-18.968000411987305 22.43600082397461,-12.013999938964844 22.43600082397461,-3.4679999351501465 C22.43600082397461,8.904000282287598 12.371000289916992,18.968000411987305 0,18.968000411987305z"></path></g><g opacity="1" transform="matrix(1,0,0,1,298.11199951171875,434.6080017089844)"><path fill="rgb(29,29,27)" fill-opacity="1" d=" M0,4.9679999351501465 C-4.651000022888184,4.9679999351501465 -8.435999870300293,1.184000015258789 -8.435999870300293,-3.4679999351501465 C-8.435999870300293,-4.296000003814697 -7.763999938964844,-4.9679999351501465 -6.935999870300293,-4.9679999351501465 C-6.10699987411499,-4.9679999351501465 -5.435999870300293,-4.296000003814697 -5.435999870300293,-3.4679999351501465 C-5.435999870300293,-0.4699999988079071 -2.996999979019165,1.968000054359436 0,1.968000054359436 C2.996999979019165,1.968000054359436 5.435999870300293,-0.4699999988079071 5.435999870300293,-3.4679999351501465 C5.435999870300293,-4.296000003814697 6.10699987411499,-4.9679999351501465 6.935999870300293,-4.9679999351501465 C7.763999938964844,-4.9679999351501465 8.435999870300293,-4.296000003814697 8.435999870300293,-3.4679999351501465 C8.435999870300293,1.184000015258789 4.651000022888184,4.9679999351501465 0,4.9679999351501465z"></path></g></g><g transform="matrix(0.9995366930961609,-0.030436700209975243,0.030436700209975243,0.9995366930961609,-12.764923095703125,-157.77655029296875)" opacity="1" style="display: block;"><g opacity="1" transform="matrix(1,0,0,1,267.40899658203125,411.83099365234375)"><path fill="rgb(29,29,27)" fill-opacity="1" d=" M4.013999938964844,0 C4.013999938964844,2.2170000076293945 2.2170000076293945,4.013999938964844 0,4.013999938964844 C-2.2170000076293945,4.013999938964844 -4.013999938964844,2.2170000076293945 -4.013999938964844,0 C-4.013999938964844,-2.2170000076293945 -2.2170000076293945,-4.013999938964844 0,-4.013999938964844 C2.2170000076293945,-4.013999938964844 4.013999938964844,-2.2170000076293945 4.013999938964844,0z"></path></g><g opacity="1" transform="matrix(1,0,0,1,328.81500244140625,411.83099365234375)"><path fill="rgb(29,29,27)" fill-opacity="1" d=" M4.013999938964844,0 C4.013999938964844,2.2170000076293945 2.2170000076293945,4.013999938964844 0,4.013999938964844 C-2.2170000076293945,4.013999938964844 -4.013999938964844,2.2170000076293945 -4.013999938964844,0 C-4.013999938964844,-2.2170000076293945 -2.2170000076293945,-4.013999938964844 0,-4.013999938964844 C2.2170000076293945,-4.013999938964844 4.013999938964844,-2.2170000076293945 4.013999938964844,0z"></path></g></g><g transform="matrix(1,0,0,1,298,452)" opacity="1" style="display: block;"><g opacity="1" transform="matrix(1,0,0,1,0,0)"><path stroke-linecap="butt" stroke-linejoin="miter" fill-opacity="0" stroke-miterlimit="4" stroke="rgb(29,29,27)" stroke-opacity="1" stroke-width="3" d=" M-28.3435001373291,-59.354652404785156 C-28.3435001373291,-59.354652404785156 -1.2950512170791626,-58.601253509521484 -1.2950512170791626,-58.601253509521484"></path></g></g><g transform="matrix(-1,0,0,1,301.25,452)" opacity="1" style="display: block;"><g opacity="1" transform="matrix(1,0,0,1,0,0)"><path stroke-linecap="butt" stroke-linejoin="miter" fill-opacity="0" stroke-miterlimit="4" stroke="rgb(29,29,27)" stroke-opacity="1" stroke-width="3" d=" M-28.3435001373291,-59.354652404785156 C-28.3435001373291,-59.354652404785156 -1.2950512170791626,-58.601253509521484 -1.2950512170791626,-58.601253509521484"></path></g></g><g transform="matrix(1,0,0,1,298,452)" opacity="1" style="display: block;"><g opacity="1" transform="matrix(1,0,0,1,0,0)"><path stroke-linecap="butt" stroke-linejoin="miter" fill-opacity="0" stroke-miterlimit="4" stroke="rgb(29,29,27)" stroke-opacity="1" stroke-width="3" d=" M-29.605133056640625,-42.7984504699707 C-29.605133056640625,-42.7984504699707 -20.64922523498535,-42.382755279541016 -20.64922523498535,-42.382755279541016"></path></g></g><g transform="matrix(-1,0,0,1,299.75,452)" opacity="1" style="display: block;"><g opacity="1" transform="matrix(1,0,0,1,0,0)"><path stroke-linecap="butt" stroke-linejoin="miter" fill-opacity="0" stroke-miterlimit="4" stroke="rgb(29,29,27)" stroke-opacity="1" stroke-width="3" d=" M-29.605133056640625,-42.7984504699707 C-29.605133056640625,-42.7984504699707 -20.64922523498535,-42.382755279541016 -20.64922523498535,-42.382755279541016"></path></g></g></g></svg>