<svg xmlns="http://www.w3.org/2000/svg" viewBox="0 0 278 392" width="278" height="392" preserveAspectRatio="xMidYMid meet" style="width: 100%; height: 100%; transform: translate3d(0px, 0px, 0px); content-visibility: visible;"><defs><clipPath id="__lottie_element_50"><rect width="278" height="392" x="0" y="0"></rect></clipPath></defs><g clip-path="url(#__lottie_element_50)"><g transform="matrix(1,0,0,1,144,151)" opacity="1" style="display: block;"><g opacity="1" transform="matrix(1,0,0,1,0,0)"><path stroke-linecap="round" stroke-linejoin="round" fill-opacity="0" stroke="rgb(29,29,27)" stroke-opacity="1" stroke-width="19" d=" M-7,38.5 C-7,38.5 7.235984802246094,90.99951171875 7.235984802246094,90.5 C7.235984802246094,91.24925994873047 -7,150 -7,150 C-7,150 8.5,150 8.5,150"></path><path stroke-linecap="round" stroke-linejoin="round" fill-opacity="0" stroke="rgb(84,196,219)" stroke-opacity="1" stroke-width="13" d=" M-7,38.5 C-7,38.5 7.235984802246094,90.99951171875 7.235984802246094,90.5 C7.235984802246094,91.24925994873047 -7,150 -7,150 C-7,150 8.5,150 8.5,150"></path></g></g><g transform="matrix(1,0,0,1,119,151)" opacity="1" style="display: block;"><g opacity="1" transform="matrix(1,0,0,1,0,0)"><path stroke-linecap="round" stroke-linejoin="round" fill-opacity="0" stroke="rgb(29,29,27)" stroke-opacity="1" stroke-width="19" d=" M-7,38.5 C-7,38.5 7.235984802246094,90.99951171875 7.235984802246094,90.5 C7.235984802246094,91.24925994873047 -7,150 -7,150 C-7,150 8.5,150 8.5,150"></path><path stroke-linecap="round" stroke-linejoin="round" fill-opacity="0" stroke="rgb(84,196,219)" stroke-opacity="1" stroke-width="13" d=" M-7,38.5 C-7,38.5 7.235984802246094,90.99951171875 7.235984802246094,90.5 C7.235984802246094,91.24925994873047 -7,150 -7,150 C-7,150 8.5,150 8.5,150"></path></g></g><g transform="matrix(0.9999985694885254,-0.0016952703008428216,0.0016952703008428216,0.9999985694885254,-184.69525146484375,-268.344482421875)" opacity="1" style="display: block;"><g opacity="1" transform="matrix(1,0,0,1,377.45098876953125,477.87799072265625)"><path fill="rgb(84,196,219)" fill-opacity="1" d=" M-16.038999557495117,0.9549999833106995 C-16.038999557495117,0.9549999833106995 -0.753000020980835,14.074000358581543 -0.753000020980835,14.074000358581543 C1.4210000038146973,15.939000129699707 4.695000171661377,15.689000129699707 6.559999942779541,13.515999794006348 C8.425000190734863,11.342000007629395 8.175999641418457,8.067999839782715 6.002999782562256,6.203000068664551 C6.002999782562256,6.203000068664551 5.086999893188477,5.418000221252441 5.086999893188477,5.418000221252441 C7.710999965667725,6.448999881744385 10.687999725341797,5.195000171661377 11.770999908447266,2.5799999237060547 C12.854999542236328,-0.035999998450279236 11.63700008392334,-3.0280001163482666 9.053000450134277,-4.15500020980835 C9.053000450134277,-4.15500020980835 10.255000114440918,-4.061999797821045 10.255000114440918,-4.061999797821045 C13.109999656677246,-3.8429999351501465 15.602999687194824,-5.98199987411499 15.821999549865723,-8.838000297546387 C16.040000915527344,-11.694000244140625 13.902000427246094,-14.185999870300293 11.04699993133545,-14.404000282287598 C11.04699993133545,-14.404000282287598 -9.038999557495117,-15.9399995803833 -9.038999557495117,-15.9399995803833"></path><path stroke-linecap="round" stroke-linejoin="round" fill-opacity="0" stroke="rgb(29,29,27)" stroke-opacity="1" stroke-width="3" d=" M-16.038999557495117,0.9549999833106995 C-16.038999557495117,0.9549999833106995 -0.753000020980835,14.074000358581543 -0.753000020980835,14.074000358581543 C1.4210000038146973,15.939000129699707 4.695000171661377,15.689000129699707 6.559999942779541,13.515999794006348 C8.425000190734863,11.342000007629395 8.175999641418457,8.067999839782715 6.002999782562256,6.203000068664551 C6.002999782562256,6.203000068664551 5.086999893188477,5.418000221252441 5.086999893188477,5.418000221252441 C7.710999965667725,6.448999881744385 10.687999725341797,5.195000171661377 11.770999908447266,2.5799999237060547 C12.854999542236328,-0.035999998450279236 11.63700008392334,-3.0280001163482666 9.053000450134277,-4.15500020980835 C9.053000450134277,-4.15500020980835 10.255000114440918,-4.061999797821045 10.255000114440918,-4.061999797821045 C13.109999656677246,-3.8429999351501465 15.602999687194824,-5.98199987411499 15.821999549865723,-8.838000297546387 C16.040000915527344,-11.694000244140625 13.902000427246094,-14.185999870300293 11.04699993133545,-14.404000282287598 C11.04699993133545,-14.404000282287598 -9.038999557495117,-15.9399995803833 -9.038999557495117,-15.9399995803833"></path></g></g><g transform="matrix(0.9850423336029053,-0.1723124086856842,0.1723124086856842,0.9850423336029053,-257.7660827636719,-217.989013671875)" opacity="1" style="display: block;"><g opacity="1" transform="matrix(1,0,0,1,241.75599670410156,467.7239990234375)"><path fill="rgb(245,96,185)" fill-opacity="1" d=" M24.176000595092773,-5.880000114440918 C24.176000595092773,-5.880000114440918 -4.938000202178955,9.342000007629395 -4.938000202178955,9.342000007629395 C-11.543999671936035,12.795999526977539 -19.698999404907227,10.239999771118164 -23.152999877929688,3.634000062942505 C-23.58799934387207,2.802000045776367 -23.92799949645996,1.9450000524520874 -24.176000595092773,1.0759999752044678 C-24.176000595092773,1.0759999752044678 24.176000595092773,-12.795999526977539 24.176000595092773,-12.795999526977539 C24.176000595092773,-12.795999526977539 24.176000595092773,-5.880000114440918 24.176000595092773,-5.880000114440918z"></path><path stroke-linecap="round" stroke-linejoin="round" fill-opacity="0" stroke="rgb(29,29,27)" stroke-opacity="1" stroke-width="3" d=" M24.176000595092773,-5.880000114440918 C24.176000595092773,-5.880000114440918 -4.938000202178955,9.342000007629395 -4.938000202178955,9.342000007629395 C-11.543999671936035,12.795999526977539 -19.698999404907227,10.239999771118164 -23.152999877929688,3.634000062942505 C-23.58799934387207,2.802000045776367 -23.92799949645996,1.9450000524520874 -24.176000595092773,1.0759999752044678 C-24.176000595092773,1.0759999752044678 24.176000595092773,-12.795999526977539 24.176000595092773,-12.795999526977539 C24.176000595092773,-12.795999526977539 24.176000595092773,-5.880000114440918 24.176000595092773,-5.880000114440918z"></path></g><g opacity="1" transform="matrix(1,0,0,1,240.89500427246094,459.7510070800781)"><path fill="rgb(245,96,185)" fill-opacity="1" d=" M25.03700065612793,-4.822999954223633 C25.03700065612793,-4.822999954223633 -23.315000534057617,9.048999786376953 -23.315000534057617,9.048999786376953 C-25.03700065612793,3.0209999084472656 -22.357999801635742,-3.5880000591278076 -16.583999633789062,-6.60699987411499 C-16.583999633789062,-6.60699987411499 -11.913000106811523,-9.048999786376953 -11.913000106811523,-9.048999786376953 C-11.913000106811523,-9.048999786376953 25.03700065612793,-9.048999786376953 25.03700065612793,-9.048999786376953 C25.03700065612793,-9.048999786376953 25.03700065612793,-4.822999954223633 25.03700065612793,-4.822999954223633z"></path><path stroke-linecap="round" stroke-linejoin="round" fill-opacity="0" stroke="rgb(29,29,27)" stroke-opacity="1" stroke-width="3" d=" M25.03700065612793,-4.822999954223633 C25.03700065612793,-4.822999954223633 -23.315000534057617,9.048999786376953 -23.315000534057617,9.048999786376953 C-25.03700065612793,3.0209999084472656 -22.357999801635742,-3.5880000591278076 -16.583999633789062,-6.60699987411499 C-16.583999633789062,-6.60699987411499 -11.913000106811523,-9.048999786376953 -11.913000106811523,-9.048999786376953 C-11.913000106811523,-9.048999786376953 25.03700065612793,-9.048999786376953 25.03700065612793,-9.048999786376953 C25.03700065612793,-9.048999786376953 25.03700065612793,-4.822999954223633 25.03700065612793,-4.822999954223633z"></path></g><g opacity="1" transform="matrix(1,0,0,1,240.6540069580078,440.7980041503906)"><path fill="rgb(245,96,185)" fill-opacity="1" d=" M-16.3439998626709,7.460999965667725 C-22.66900062561035,4.1539998054504395 -25.277000427246094,-3.4619998931884766 -22.45599937438965,-9.902999877929688 C-22.45599937438965,-9.902999877929688 25.277000427246094,3.7920000553131104 25.277000427246094,3.7920000553131104 C25.277000427246094,3.7920000553131104 25.277000427246094,9.902999877929688 25.277000427246094,9.902999877929688 C25.277000427246094,9.902999877929688 -11.67300033569336,9.902999877929688 -11.67300033569336,9.902999877929688 C-11.67300033569336,9.902999877929688 -16.3439998626709,7.460999965667725 -16.3439998626709,7.460999965667725z"></path><path stroke-linecap="round" stroke-linejoin="round" fill-opacity="0" stroke="rgb(29,29,27)" stroke-opacity="1" stroke-width="3" d=" M-16.3439998626709,7.460999965667725 C-22.66900062561035,4.1539998054504395 -25.277000427246094,-3.4619998931884766 -22.45599937438965,-9.902999877929688 C-22.45599937438965,-9.902999877929688 25.277000427246094,3.7920000553131104 25.277000427246094,3.7920000553131104 C25.277000427246094,3.7920000553131104 25.277000427246094,9.902999877929688 25.277000427246094,9.902999877929688 C25.277000427246094,9.902999877929688 -11.67300033569336,9.902999877929688 -11.67300033569336,9.902999877929688 C-11.67300033569336,9.902999877929688 -16.3439998626709,7.460999965667725 -16.3439998626709,7.460999965667725z"></path></g><g opacity="1" transform="matrix(1,0,0,1,242.06500244140625,432.7359924316406)"><path fill="rgb(245,96,185)" fill-opacity="1" d=" M-23.461999893188477,-2.693000078201294 C-23.461999893188477,-2.693000078201294 -23.461999893188477,-2.693000078201294 -23.461999893188477,-2.693000078201294 C-20.007999420166016,-9.298999786376953 -11.852999687194824,-11.854000091552734 -5.247000217437744,-8.401000022888184 C-5.247000217437744,-8.401000022888184 23.865999221801758,6.821000099182129 23.865999221801758,6.821000099182129 C23.865999221801758,6.821000099182129 23.865999221801758,11.852999687194824 23.865999221801758,11.852999687194824 C23.865999221801758,11.852999687194824 -23.867000579833984,-1.840999960899353 -23.867000579833984,-1.840999960899353 C-23.742000579833984,-2.128000020980835 -23.608999252319336,-2.4119999408721924 -23.461999893188477,-2.693000078201294z"></path><path stroke-linecap="round" stroke-linejoin="round" fill-opacity="0" stroke="rgb(29,29,27)" stroke-opacity="1" stroke-width="3" d=" M-23.461999893188477,-2.693000078201294 C-23.461999893188477,-2.693000078201294 -23.461999893188477,-2.693000078201294 -23.461999893188477,-2.693000078201294 C-20.007999420166016,-9.298999786376953 -11.852999687194824,-11.854000091552734 -5.247000217437744,-8.401000022888184 C-5.247000217437744,-8.401000022888184 23.865999221801758,6.821000099182129 23.865999221801758,6.821000099182129 C23.865999221801758,6.821000099182129 23.865999221801758,11.852999687194824 23.865999221801758,11.852999687194824 C23.865999221801758,11.852999687194824 -23.867000579833984,-1.840999960899353 -23.867000579833984,-1.840999960899353 C-23.742000579833984,-2.128000020980835 -23.608999252319336,-2.4119999408721924 -23.461999893188477,-2.693000078201294z"></path></g></g><g transform="matrix(1,0,0,1,-183.9010009765625,-268.96368408203125)" opacity="1" style="display: block;"><g opacity="1" transform="matrix(1,0,0,1,353.46600341796875,400.0820007324219)"><path fill="rgb(29,29,27)" fill-opacity="1" d=" M12.866999626159668,-1.3940000534057617 C12.866999626159668,-1.3940000534057617 12.440999984741211,3.803999900817871 -12.868000030517578,3.378000020980835 C-10.052000045776367,-1.0130000114440918 -10.22599983215332,-3.438999891281128 -10.22599983215332,-3.438999891281128 C-10.22599983215332,-3.438999891281128 -5.453999996185303,-3.805000066757202 -5.453999996185303,-3.805000066757202 C-5.453999996185303,-3.805000066757202 12.866999626159668,-1.3940000534057617 12.866999626159668,-1.3940000534057617z"></path><path stroke-linecap="round" stroke-linejoin="round" fill-opacity="0" stroke="rgb(29,29,27)" stroke-opacity="1" stroke-width="3" d=" M12.866999626159668,-1.3940000534057617 C12.866999626159668,-1.3940000534057617 12.440999984741211,3.803999900817871 -12.868000030517578,3.378000020980835 C-10.052000045776367,-1.0130000114440918 -10.22599983215332,-3.438999891281128 -10.22599983215332,-3.438999891281128 C-10.22599983215332,-3.438999891281128 -5.453999996185303,-3.805000066757202 -5.453999996185303,-3.805000066757202 C-5.453999996185303,-3.805000066757202 12.866999626159668,-1.3940000534057617 12.866999626159668,-1.3940000534057617z"></path></g><g opacity="1" transform="matrix(1,0,0,1,311.9620056152344,447.4630126953125)"><path fill="rgb(84,196,219)" fill-opacity="1" d=" M-63.9630012512207,0 C-63.9630012512207,31.607999801635742 -35.32600021362305,57.23099899291992 0,57.23099899291992 C35.32600021362305,57.23099899291992 63.9630012512207,31.607999801635742 63.9630012512207,0 C63.9630012512207,-31.607999801635742 35.32600021362305,-57.23099899291992 0,-57.23099899291992 C-35.32600021362305,-57.23099899291992 -63.9630012512207,-31.607999801635742 -63.9630012512207,0z"></path><path stroke-linecap="butt" stroke-linejoin="miter" fill-opacity="0" stroke-miterlimit="10" stroke="rgb(29,29,27)" stroke-opacity="1" stroke-width="3" d=" M-63.9630012512207,0 C-63.9630012512207,31.607999801635742 -35.32600021362305,57.23099899291992 0,57.23099899291992 C35.32600021362305,57.23099899291992 63.9630012512207,31.607999801635742 63.9630012512207,0 C63.9630012512207,-31.607999801635742 35.32600021362305,-57.23099899291992 0,-57.23099899291992 C-35.32600021362305,-57.23099899291992 -63.9630012512207,-31.607999801635742 -63.9630012512207,0z"></path></g><g opacity="1" transform="matrix(1,0,0,1,331.5610046386719,419.6809997558594)"><path fill="rgb(255,255,255)" fill-opacity="1" d=" M0,-8.78499984741211 C9.704000473022461,-8.78499984741211 17.56999969482422,-0.9190000295639038 17.56999969482422,8.78499984741211 C17.56999969482422,8.78499984741211 9.557999610900879,8.78499984741211 9.557999610900879,8.78499984741211 C9.557999610900879,3.50600004196167 5.2789998054504395,-0.7730000019073486 0,-0.7730000019073486 C-5.2789998054504395,-0.7730000019073486 -9.557999610900879,3.50600004196167 -9.557999610900879,8.78499984741211 C-9.557999610900879,8.78499984741211 -17.56999969482422,8.78499984741211 -17.56999969482422,8.78499984741211 C-17.56999969482422,-0.9190000295639038 -9.704000473022461,-8.78499984741211 0,-8.78499984741211z"></path><path stroke-linecap="round" stroke-linejoin="round" fill-opacity="0" stroke="rgb(29,29,27)" stroke-opacity="1" stroke-width="3" d=" M0,-8.78499984741211 C9.704000473022461,-8.78499984741211 17.56999969482422,-0.9190000295639038 17.56999969482422,8.78499984741211 C17.56999969482422,8.78499984741211 9.557999610900879,8.78499984741211 9.557999610900879,8.78499984741211 C9.557999610900879,3.50600004196167 5.2789998054504395,-0.7730000019073486 0,-0.7730000019073486 C-5.2789998054504395,-0.7730000019073486 -9.557999610900879,3.50600004196167 -9.557999610900879,8.78499984741211 C-9.557999610900879,8.78499984741211 -17.56999969482422,8.78499984741211 -17.56999969482422,8.78499984741211 C-17.56999969482422,-0.9190000295639038 -9.704000473022461,-8.78499984741211 0,-8.78499984741211z"></path></g><g opacity="1" transform="matrix(1,0,0,1,331.5610046386719,437.2510070800781)"><path fill="rgb(84,196,219)" fill-opacity="1" d=" M-9.557999610900879,-8.78499984741211 C-9.557999610900879,-8.78499984741211 9.559000015258789,-8.78499984741211 9.559000015258789,-8.78499984741211 C9.559000015258789,-8.78499984741211 17.56999969482422,-8.78499984741211 17.56999969482422,-8.78499984741211 C17.56999969482422,0.9190000295639038 9.704000473022461,8.78499984741211 0,8.78499984741211 C-9.70300006866455,8.78499984741211 -17.56999969482422,0.9190000295639038 -17.56999969482422,-8.78499984741211 C-17.56999969482422,-8.78499984741211 -9.557999610900879,-8.78499984741211 -9.557999610900879,-8.78499984741211z"></path><path stroke-linecap="butt" stroke-linejoin="miter" fill-opacity="0" stroke-miterlimit="10" stroke="rgb(29,29,27)" stroke-opacity="1" stroke-width="3" d=" M-9.557999610900879,-8.78499984741211 C-9.557999610900879,-8.78499984741211 9.559000015258789,-8.78499984741211 9.559000015258789,-8.78499984741211 C9.559000015258789,-8.78499984741211 17.56999969482422,-8.78499984741211 17.56999969482422,-8.78499984741211 C17.56999969482422,0.9190000295639038 9.704000473022461,8.78499984741211 0,8.78499984741211 C-9.70300006866455,8.78499984741211 -17.56999969482422,0.9190000295639038 -17.56999969482422,-8.78499984741211 C-17.56999969482422,-8.78499984741211 -9.557999610900879,-8.78499984741211 -9.557999610900879,-8.78499984741211z"></path></g><g opacity="1" transform="matrix(1,0,0,1,331.5610046386719,423.6860046386719)"><path fill="rgb(29,29,27)" fill-opacity="1" d=" M0,-4.7789998054504395 C5.2789998054504395,-4.7789998054504395 9.557999610900879,-0.5 9.557999610900879,4.7789998054504395 C9.557999610900879,4.7789998054504395 -9.557999610900879,4.7789998054504395 -9.557999610900879,4.7789998054504395 C-9.557999610900879,-0.5 -5.2789998054504395,-4.7789998054504395 0,-4.7789998054504395z"></path></g><g opacity="1" transform="matrix(1,0,0,1,367.5090026855469,419.6809997558594)"><path fill="rgb(255,255,255)" fill-opacity="1" d=" M0,-8.78499984741211 C9.704000473022461,-8.78499984741211 17.56999969482422,-0.9190000295639038 17.56999969482422,8.78499984741211 C17.56999969482422,8.78499984741211 9.557999610900879,8.78499984741211 9.557999610900879,8.78499984741211 C9.557999610900879,3.50600004196167 5.2789998054504395,-0.7730000019073486 0,-0.7730000019073486 C-5.2789998054504395,-0.7730000019073486 -9.557999610900879,3.50600004196167 -9.557999610900879,8.78499984741211 C-9.557999610900879,8.78499984741211 -17.56999969482422,8.78499984741211 -17.56999969482422,8.78499984741211 C-17.56999969482422,-0.9190000295639038 -9.70300006866455,-8.78499984741211 0,-8.78499984741211z"></path><path stroke-linecap="round" stroke-linejoin="round" fill-opacity="0" stroke="rgb(29,29,27)" stroke-opacity="1" stroke-width="3" d=" M0,-8.78499984741211 C9.704000473022461,-8.78499984741211 17.56999969482422,-0.9190000295639038 17.56999969482422,8.78499984741211 C17.56999969482422,8.78499984741211 9.557999610900879,8.78499984741211 9.557999610900879,8.78499984741211 C9.557999610900879,3.50600004196167 5.2789998054504395,-0.7730000019073486 0,-0.7730000019073486 C-5.2789998054504395,-0.7730000019073486 -9.557999610900879,3.50600004196167 -9.557999610900879,8.78499984741211 C-9.557999610900879,8.78499984741211 -17.56999969482422,8.78499984741211 -17.56999969482422,8.78499984741211 C-17.56999969482422,-0.9190000295639038 -9.70300006866455,-8.78499984741211 0,-8.78499984741211z"></path></g><g opacity="1" transform="matrix(1,0,0,1,367.5090026855469,437.2510070800781)"><path fill="rgb(84,196,219)" fill-opacity="1" d=" M-9.557999610900879,-8.78499984741211 C-9.557999610900879,-8.78499984741211 9.559000015258789,-8.78499984741211 9.559000015258789,-8.78499984741211 C9.559000015258789,-8.78499984741211 17.56999969482422,-8.78499984741211 17.56999969482422,-8.78499984741211 C17.56999969482422,0.9190000295639038 9.704000473022461,8.78499984741211 0,8.78499984741211 C-9.70300006866455,8.78499984741211 -17.56999969482422,0.9190000295639038 -17.56999969482422,-8.78499984741211 C-17.56999969482422,-8.78499984741211 -9.557999610900879,-8.78499984741211 -9.557999610900879,-8.78499984741211z"></path><path stroke-linecap="butt" stroke-linejoin="miter" fill-opacity="0" stroke-miterlimit="10" stroke="rgb(29,29,27)" stroke-opacity="1" stroke-width="3" d=" M-9.557999610900879,-8.78499984741211 C-9.557999610900879,-8.78499984741211 9.559000015258789,-8.78499984741211 9.559000015258789,-8.78499984741211 C9.559000015258789,-8.78499984741211 17.56999969482422,-8.78499984741211 17.56999969482422,-8.78499984741211 C17.56999969482422,0.9190000295639038 9.704000473022461,8.78499984741211 0,8.78499984741211 C-9.70300006866455,8.78499984741211 -17.56999969482422,0.9190000295639038 -17.56999969482422,-8.78499984741211 C-17.56999969482422,-8.78499984741211 -9.557999610900879,-8.78499984741211 -9.557999610900879,-8.78499984741211z"></path></g><g opacity="1" transform="matrix(1,0,0,1,367.5090026855469,423.6860046386719)"><path fill="rgb(29,29,27)" fill-opacity="1" d=" M0,-4.7789998054504395 C5.2789998054504395,-4.7789998054504395 9.557999610900879,-0.5 9.557999610900879,4.7789998054504395 C9.557999610900879,4.7789998054504395 -9.557999610900879,4.7789998054504395 -9.557999610900879,4.7789998054504395 C-9.557999610900879,-0.5 -5.2789998054504395,-4.7789998054504395 0,-4.7789998054504395z"></path></g><g opacity="1" transform="matrix(1,0,0,1,349.9389953613281,457.6419982910156)"><path stroke-linecap="butt" stroke-linejoin="miter" fill-opacity="0" stroke-miterlimit="10" stroke="rgb(29,29,27)" stroke-opacity="1" stroke-width="3" d=" M0,6.133999824523926 C6.763999938964844,6.133999824523926 12.267000198364258,0.6309999823570251 12.267000198364258,-6.132999897003174 C12.267000198364258,-6.132999897003174 0.11699999868869781,-6.132999897003174 0.11699999868869781,-6.132999897003174 C0.11699999868869781,-6.132999897003174 -12.267000198364258,-6.132999897003174 -12.267000198364258,-6.132999897003174 C-12.267000198364258,0.6309999823570251 -6.763999938964844,6.133999824523926 0,6.133999824523926z"></path></g><g opacity="1" transform="matrix(1,0,0,1,349.9389953613281,454.5459899902344)"><path stroke-linecap="butt" stroke-linejoin="miter" fill-opacity="0" stroke-miterlimit="10" stroke="rgb(29,29,27)" stroke-opacity="1" stroke-width="3" d=" M-6.074999809265137,-3.0380001068115234 C-6.074999809265137,0.31700000166893005 -3.3550000190734863,3.0380001068115234 0,3.0380001068115234 C3.3550000190734863,3.0380001068115234 6.074999809265137,0.31700000166893005 6.074999809265137,-3.0380001068115234"></path></g><g opacity="1" transform="matrix(1,0,0,1,349.9389953613281,454.5459899902344)"><path fill="rgb(245,96,185)" fill-opacity="1" d=" M0,10.543000221252441 C7.488999843597412,10.543000221252441 13.581000328063965,4.451000213623047 13.581000328063965,-3.0380001068115234 C13.581000328063965,-7.176000118255615 10.21399974822998,-10.543000221252441 6.074999809265137,-10.543000221252441 C3.5810000896453857,-10.543000221252441 1.3660000562667847,-9.319999694824219 0,-7.440999984741211 C-1.3650000095367432,-9.319999694824219 -3.5799999237060547,-10.543000221252441 -6.074999809265137,-10.543000221252441 C-10.21399974822998,-10.543000221252441 -13.581000328063965,-7.176000118255615 -13.581000328063965,-3.0380001068115234 C-13.581000328063965,4.451000213623047 -7.488999843597412,10.543000221252441 0,10.543000221252441z"></path><path stroke-linecap="round" stroke-linejoin="round" fill-opacity="0" stroke="rgb(29,29,27)" stroke-opacity="1" stroke-width="3" d=" M0,10.543000221252441 C7.488999843597412,10.543000221252441 13.581000328063965,4.451000213623047 13.581000328063965,-3.0380001068115234 C13.581000328063965,-7.176000118255615 10.21399974822998,-10.543000221252441 6.074999809265137,-10.543000221252441 C3.5810000896453857,-10.543000221252441 1.3660000562667847,-9.319999694824219 0,-7.440999984741211 C-1.3650000095367432,-9.319999694824219 -3.5799999237060547,-10.543000221252441 -6.074999809265137,-10.543000221252441 C-10.21399974822998,-10.543000221252441 -13.581000328063965,-7.176000118255615 -13.581000328063965,-3.0380001068115234 C-13.581000328063965,4.451000213623047 -7.488999843597412,10.543000221252441 0,10.543000221252441z"></path></g><g opacity="1" transform="matrix(1,0,0,1,349.9389953613281,454.5459899902344)"><path fill="rgb(29,29,27)" fill-opacity="1" d=" M0,4.35099983215332 C4.073999881744385,4.35099983215332 7.388999938964844,1.0360000133514404 7.388999938964844,-3.0380001068115234 C7.388999938964844,-3.763000011444092 6.800000190734863,-4.35099983215332 6.074999809265137,-4.35099983215332 C5.348999977111816,-4.35099983215332 4.761000156402588,-3.763000011444092 4.761000156402588,-3.0380001068115234 C4.761000156402588,-0.4129999876022339 2.625,1.7230000495910645 0,1.7230000495910645 C-2.625,1.7230000495910645 -4.761000156402588,-0.4129999876022339 -4.761000156402588,-3.0380001068115234 C-4.761000156402588,-3.763000011444092 -5.348999977111816,-4.35099983215332 -6.074999809265137,-4.35099983215332 C-6.800000190734863,-4.35099983215332 -7.388999938964844,-3.763000011444092 -7.388999938964844,-3.0380001068115234 C-7.388999938964844,1.0360000133514404 -4.073999881744385,4.35099983215332 0,4.35099983215332z"></path></g><g opacity="1" transform="matrix(1,0,0,1,313.0480041503906,387.2550048828125)"><path fill="rgb(245,203,28)" fill-opacity="1" d=" M-21.075000762939453,5.830999851226807 C-21.075000762939453,5.830999851226807 21.075000762939453,5.830999851226807 21.075000762939453,5.830999851226807 C21.075000762939453,-0.6100000143051147 15.852999687194824,-5.831999778747559 9.411999702453613,-5.831999778747559 C9.411999702453613,-5.831999778747559 -9.411999702453613,-5.831999778747559 -9.411999702453613,-5.831999778747559 C-15.852999687194824,-5.831999778747559 -21.075000762939453,-0.6100000143051147 -21.075000762939453,5.830999851226807z"></path><path stroke-linecap="butt" stroke-linejoin="miter" fill-opacity="0" stroke-miterlimit="10" stroke="rgb(29,29,27)" stroke-opacity="1" stroke-width="3" d=" M-21.075000762939453,5.830999851226807 C-21.075000762939453,5.830999851226807 21.075000762939453,5.830999851226807 21.075000762939453,5.830999851226807 C21.075000762939453,-0.6100000143051147 15.852999687194824,-5.831999778747559 9.411999702453613,-5.831999778747559 C9.411999702453613,-5.831999778747559 -9.411999702453613,-5.831999778747559 -9.411999702453613,-5.831999778747559 C-15.852999687194824,-5.831999778747559 -21.075000762939453,-0.6100000143051147 -21.075000762939453,5.830999851226807z"></path></g><g opacity="1" transform="matrix(1,0,0,1,338.12799072265625,396.739990234375)"><path fill="rgb(245,203,28)" fill-opacity="1" d=" M-28.20599937438965,-3.6540000438690186 C-28.20599937438965,-3.6540000438690186 -12.696999549865723,3.6540000438690186 1.277999997138977,2.63100004196167 C15.253000259399414,1.6080000400543213 14.055000305175781,1.3919999599456787 28.204999923706055,1.9490000009536743 C28.204999923706055,1.9490000009536743 17.4689998626709,-3.6540000438690186 -4.005000114440918,-3.6540000438690186 C-4.005000114440918,-3.6540000438690186 -28.20599937438965,-3.6540000438690186 -28.20599937438965,-3.6540000438690186z"></path><path stroke-linecap="round" stroke-linejoin="round" fill-opacity="0" stroke="rgb(29,29,27)" stroke-opacity="1" stroke-width="3" d=" M-28.20599937438965,-3.6540000438690186 C-28.20599937438965,-3.6540000438690186 -12.696999549865723,3.6540000438690186 1.277999997138977,2.63100004196167 C15.253000259399414,1.6080000400543213 14.055000305175781,1.3919999599456787 28.204999923706055,1.9490000009536743 C28.204999923706055,1.9490000009536743 17.4689998626709,-3.6540000438690186 -4.005000114440918,-3.6540000438690186 C-4.005000114440918,-3.6540000438690186 -28.20599937438965,-3.6540000438690186 -28.20599937438965,-3.6540000438690186z"></path></g><g opacity="1" transform="matrix(1,0,0,1,313.1109924316406,378.2539978027344)"><path fill="rgb(245,203,28)" fill-opacity="1" d=" M-3.1689999103546143,3.1689999103546143 C-3.1689999103546143,3.1689999103546143 3.1689999103546143,3.1689999103546143 3.1689999103546143,3.1689999103546143 C3.1689999103546143,3.1689999103546143 3.1689999103546143,0.0010000000474974513 3.1689999103546143,0.0010000000474974513 C3.1689999103546143,-1.75 1.75,-3.1689999103546143 -0.0010000000474974513,-3.1689999103546143 C-1.7510000467300415,-3.1689999103546143 -3.1689999103546143,-1.75 -3.1689999103546143,0.0010000000474974513 C-3.1689999103546143,0.0010000000474974513 -3.1689999103546143,3.1689999103546143 -3.1689999103546143,3.1689999103546143z"></path><path stroke-linecap="butt" stroke-linejoin="miter" fill-opacity="0" stroke-miterlimit="10" stroke="rgb(29,29,27)" stroke-opacity="1" stroke-width="3" d=" M-3.1689999103546143,3.1689999103546143 C-3.1689999103546143,3.1689999103546143 3.1689999103546143,3.1689999103546143 3.1689999103546143,3.1689999103546143 C3.1689999103546143,3.1689999103546143 3.1689999103546143,0.0010000000474974513 3.1689999103546143,0.0010000000474974513 C3.1689999103546143,-1.75 1.75,-3.1689999103546143 -0.0010000000474974513,-3.1689999103546143 C-1.7510000467300415,-3.1689999103546143 -3.1689999103546143,-1.75 -3.1689999103546143,0.0010000000474974513 C-3.1689999103546143,0.0010000000474974513 -3.1689999103546143,3.1689999103546143 -3.1689999103546143,3.1689999103546143z"></path></g><g opacity="1" transform="matrix(1,0,0,1,293.9840087890625,416.45599365234375)"><path fill="rgb(255,255,255)" fill-opacity="1" d=" M-5.11299991607666,0 C-5.11299991607666,2.8239998817443848 -2.8239998817443848,5.11299991607666 0,5.11299991607666 C2.8239998817443848,5.11299991607666 5.11299991607666,2.8239998817443848 5.11299991607666,0 C5.11299991607666,-2.8239998817443848 2.8239998817443848,-5.11299991607666 0,-5.11299991607666 C-2.8239998817443848,-5.11299991607666 -5.11299991607666,-2.8239998817443848 -5.11299991607666,0z"></path></g><g opacity="1" transform="matrix(1,0,0,1,269.8139953613281,426.6809997558594)"><path fill="rgb(255,255,255)" fill-opacity="1" d=" M-2.994999885559082,0 C-2.994999885559082,1.6540000438690186 -1.6540000438690186,2.994999885559082 0,2.994999885559082 C1.6540000438690186,2.994999885559082 2.994999885559082,1.6540000438690186 2.994999885559082,0 C2.994999885559082,-1.6540000438690186 1.6540000438690186,-2.994999885559082 0,-2.994999885559082 C-1.6540000438690186,-2.994999885559082 -2.994999885559082,-1.6540000438690186 -2.994999885559082,0z"></path></g><g opacity="1" transform="matrix(1,0,0,1,284.2650146484375,449.4779968261719)"><path fill="rgb(255,255,255)" fill-opacity="1" d=" M-1.6169999837875366,0 C-1.6169999837875366,0.8930000066757202 -0.8939999938011169,1.6169999837875366 -0.0010000000474974513,1.6169999837875366 C0.8930000066757202,1.6169999837875366 1.6169999837875366,0.8930000066757202 1.6169999837875366,0 C1.6169999837875366,-0.8930000066757202 0.8930000066757202,-1.6169999837875366 -0.0010000000474974513,-1.6169999837875366 C-0.8939999938011169,-1.6169999837875366 -1.6169999837875366,-0.8930000066757202 -1.6169999837875366,0z"></path></g><g opacity="1" transform="matrix(1,0,0,1,264.28399658203125,453.6059875488281)"><path fill="rgb(255,255,255)" fill-opacity="1" d=" M-3.9769999980926514,0 C-3.9769999980926514,2.197000026702881 -2.196000099182129,3.9769999980926514 0,3.9769999980926514 C2.197000026702881,3.9769999980926514 3.9769999980926514,2.197000026702881 3.9769999980926514,0 C3.9769999980926514,-2.197000026702881 2.197000026702881,-3.9769999980926514 0,-3.9769999980926514 C-2.196000099182129,-3.9769999980926514 -3.9769999980926514,-2.197000026702881 -3.9769999980926514,0z"></path></g></g><g transform="matrix(0.9999985694885254,0.0016952703008428216,-0.0016952703008428216,0.9999985694885254,-183.10452270507812,-269.4841613769531)" opacity="1" style="display: block;"><g opacity="1" transform="matrix(1,0,0,1,293.88299560546875,477.87799072265625)"><path fill="rgb(84,196,219)" fill-opacity="1" d=" M16.038999557495117,0.9549999833106995 C16.038999557495117,0.9549999833106995 0.7519999742507935,14.074000358581543 0.7519999742507935,14.074000358581543 C-1.4220000505447388,15.939000129699707 -4.696000099182129,15.689000129699707 -6.560999870300293,13.515999794006348 C-8.425999641418457,11.342000007629395 -8.175999641418457,8.067999839782715 -6.002999782562256,6.203000068664551 C-6.002999782562256,6.203000068664551 -5.0879998207092285,5.418000221252441 -5.0879998207092285,5.418000221252441 C-7.711999893188477,6.448999881744385 -10.687999725341797,5.195000171661377 -11.772000312805176,2.5799999237060547 C-12.855999946594238,-0.035999998450279236 -11.637999534606934,-3.0280001163482666 -9.053999900817871,-4.15500020980835 C-9.053999900817871,-4.15500020980835 -10.255999565124512,-4.061999797821045 -10.255999565124512,-4.061999797821045 C-13.111000061035156,-3.8429999351501465 -15.602999687194824,-5.98199987411499 -15.821999549865723,-8.838000297546387 C-16.040000915527344,-11.694000244140625 -13.902000427246094,-14.185999870300293 -11.04699993133545,-14.404000282287598 C-11.04699993133545,-14.404000282287598 9.038999557495117,-15.9399995803833 9.038999557495117,-15.9399995803833"></path><path stroke-linecap="round" stroke-linejoin="round" fill-opacity="0" stroke="rgb(29,29,27)" stroke-opacity="1" stroke-width="3" d=" M16.038999557495117,0.9549999833106995 C16.038999557495117,0.9549999833106995 0.7519999742507935,14.074000358581543 0.7519999742507935,14.074000358581543 C-1.4220000505447388,15.939000129699707 -4.696000099182129,15.689000129699707 -6.560999870300293,13.515999794006348 C-8.425999641418457,11.342000007629395 -8.175999641418457,8.067999839782715 -6.002999782562256,6.203000068664551 C-6.002999782562256,6.203000068664551 -5.0879998207092285,5.418000221252441 -5.0879998207092285,5.418000221252441 C-7.711999893188477,6.448999881744385 -10.687999725341797,5.195000171661377 -11.772000312805176,2.5799999237060547 C-12.855999946594238,-0.035999998450279236 -11.637999534606934,-3.0280001163482666 -9.053999900817871,-4.15500020980835 C-9.053999900817871,-4.15500020980835 -10.255999565124512,-4.061999797821045 -10.255999565124512,-4.061999797821045 C-13.111000061035156,-3.8429999351501465 -15.602999687194824,-5.98199987411499 -15.821999549865723,-8.838000297546387 C-16.040000915527344,-11.694000244140625 -13.902000427246094,-14.185999870300293 -11.04699993133545,-14.404000282287598 C-11.04699993133545,-14.404000282287598 9.038999557495117,-15.9399995803833 9.038999557495117,-15.9399995803833"></path></g></g></g></svg>