<svg xmlns="http://www.w3.org/2000/svg" viewBox="0 0 384 392" width="384" height="392" preserveAspectRatio="xMidYMid meet" style="width: 100%; height: 100%; transform: translate3d(0px, 0px, 0px); content-visibility: visible;" data-lottie-id="lottie-store-snek-Shnmbt"><defs><clipPath id="__lottie_element_325"><rect width="384" height="392" x="0" y="0"></rect></clipPath></defs><g clip-path="url(#__lottie_element_325)"><g transform="matrix(1,0,0,1,-98.52407836914062,-237)" opacity="1" style="display: block;"><g opacity="1" transform="matrix(1,0,0,1,397.77801513671875,518.9920043945312)"><path fill="rgb(110,212,119)" fill-opacity="1" d=" M7.540999889373779,-13.753000259399414 C7.540999889373779,-13.753000259399414 -35.04600143432617,-13.753000259399414 -35.04600143432617,-13.753000259399414 C-35.04600143432617,-13.753000259399414 -35.04600143432617,13.753000259399414 -35.04600143432617,13.753000259399414 C-35.04600143432617,13.753000259399414 35.04600143432617,13.753000259399414 35.04600143432617,13.753000259399414 C35.04600143432617,-1.437000036239624 22.73200035095215,-13.753000259399414 7.540999889373779,-13.753000259399414z"></path><path stroke-linecap="butt" stroke-linejoin="miter" fill-opacity="0" stroke-miterlimit="10" stroke="rgb(29,29,27)" stroke-opacity="1" stroke-width="3" d=" M7.540999889373779,-13.753000259399414 C7.540999889373779,-13.753000259399414 -35.04600143432617,-13.753000259399414 -35.04600143432617,-13.753000259399414 C-35.04600143432617,-13.753000259399414 -35.04600143432617,13.753000259399414 -35.04600143432617,13.753000259399414 C-35.04600143432617,13.753000259399414 35.04600143432617,13.753000259399414 35.04600143432617,13.753000259399414 C35.04600143432617,-1.437000036239624 22.73200035095215,-13.753000259399414 7.540999889373779,-13.753000259399414z"></path></g></g><g transform="matrix(1.049759030342102,0,0,0.9004819393157959,-112.34187316894531,-183.98223876953125)" opacity="1" style="display: block;"><g opacity="1" transform="matrix(1,0,0,1,278.1780090332031,505.239013671875)"><path fill="rgb(110,212,119)" fill-opacity="1" d=" M88.6719970703125,27.5049991607666 C88.6719970703125,27.5049991607666 -88.6709976196289,27.5049991607666 -88.6709976196289,27.5049991607666 C-103.86199951171875,27.5049991607666 -116.1760025024414,15.190999984741211 -116.1760025024414,0.0010000000474974513 C-116.1760025024414,-15.1899995803833 -103.86199951171875,-27.5049991607666 -88.6709976196289,-27.5049991607666 C-88.6709976196289,-27.5049991607666 88.6719970703125,-27.5049991607666 88.6719970703125,-27.5049991607666 C103.86299896240234,-27.5049991607666 116.1760025024414,-15.1899995803833 116.1760025024414,0.0010000000474974513 C116.1760025024414,15.190999984741211 103.86299896240234,27.5049991607666 88.6719970703125,27.5049991607666z"></path><path stroke-linecap="butt" stroke-linejoin="miter" fill-opacity="0" stroke-miterlimit="10" stroke="rgb(29,29,27)" stroke-opacity="1" stroke-width="3" d=" M88.6719970703125,27.5049991607666 C88.6719970703125,27.5049991607666 -88.6709976196289,27.5049991607666 -88.6709976196289,27.5049991607666 C-103.86199951171875,27.5049991607666 -116.1760025024414,15.190999984741211 -116.1760025024414,0.0010000000474974513 C-116.1760025024414,-15.1899995803833 -103.86199951171875,-27.5049991607666 -88.6709976196289,-27.5049991607666 C-88.6709976196289,-27.5049991607666 88.6719970703125,-27.5049991607666 88.6719970703125,-27.5049991607666 C103.86299896240234,-27.5049991607666 116.1760025024414,-15.1899995803833 116.1760025024414,0.0010000000474974513 C116.1760025024414,15.190999984741211 103.86299896240234,27.5049991607666 88.6719970703125,27.5049991607666z"></path></g><g opacity="1" transform="matrix(1,0,0,1,243.13699340820312,525.8690185546875)"><path fill="rgb(245,203,28)" fill-opacity="1" d=" M-13.704000473022461,-6.876999855041504 C-13.704000473022461,-6.876999855041504 -8.520999908447266,6.875999927520752 -8.520999908447266,6.875999927520752 C-8.520999908447266,6.875999927520752 13.704000473022461,6.875999927520752 13.704000473022461,6.875999927520752 C13.704000473022461,6.875999927520752 11.11299991607666,-6.876999855041504 11.11299991607666,-6.876999855041504 C11.11299991607666,-6.876999855041504 -13.704000473022461,-6.876999855041504 -13.704000473022461,-6.876999855041504z"></path><path stroke-linecap="round" stroke-linejoin="round" fill-opacity="0" stroke="rgb(29,29,27)" stroke-opacity="1" stroke-width="3" d=" M-13.704000473022461,-6.876999855041504 C-13.704000473022461,-6.876999855041504 -8.520999908447266,6.875999927520752 -8.520999908447266,6.875999927520752 C-8.520999908447266,6.875999927520752 13.704000473022461,6.875999927520752 13.704000473022461,6.875999927520752 C13.704000473022461,6.875999927520752 11.11299991607666,-6.876999855041504 11.11299991607666,-6.876999855041504 C11.11299991607666,-6.876999855041504 -13.704000473022461,-6.876999855041504 -13.704000473022461,-6.876999855041504z"></path></g><g opacity="1" transform="matrix(1,0,0,1,219.61599731445312,525.8690185546875)"><path fill="rgb(245,203,28)" fill-opacity="1" d=" M-14.99899959564209,-6.876999855041504 C-14.99899959564209,-6.876999855041504 -7.22599983215332,6.875999927520752 -7.22599983215332,6.875999927520752 C-7.22599983215332,6.875999927520752 14.99899959564209,6.875999927520752 14.99899959564209,6.875999927520752 C14.99899959564209,6.875999927520752 9.815999984741211,-6.876999855041504 9.815999984741211,-6.876999855041504 C9.815999984741211,-6.876999855041504 -14.99899959564209,-6.876999855041504 -14.99899959564209,-6.876999855041504z"></path><path stroke-linecap="round" stroke-linejoin="round" fill-opacity="0" stroke="rgb(29,29,27)" stroke-opacity="1" stroke-width="3" d=" M-14.99899959564209,-6.876999855041504 C-14.99899959564209,-6.876999855041504 -7.22599983215332,6.875999927520752 -7.22599983215332,6.875999927520752 C-7.22599983215332,6.875999927520752 14.99899959564209,6.875999927520752 14.99899959564209,6.875999927520752 C14.99899959564209,6.875999927520752 9.815999984741211,-6.876999855041504 9.815999984741211,-6.876999855041504 C9.815999984741211,-6.876999855041504 -14.99899959564209,-6.876999855041504 -14.99899959564209,-6.876999855041504z"></path></g><g opacity="1" transform="matrix(1,0,0,1,196.09500122070312,525.8690185546875)"><path fill="rgb(245,203,28)" fill-opacity="1" d=" M-16.295000076293945,-6.876999855041504 C-16.295000076293945,-6.876999855041504 -5.928999900817871,6.875999927520752 -5.928999900817871,6.875999927520752 C-5.928999900817871,6.875999927520752 16.29599952697754,6.875999927520752 16.29599952697754,6.875999927520752 C16.29599952697754,6.875999927520752 8.520999908447266,-6.876999855041504 8.520999908447266,-6.876999855041504 C8.520999908447266,-6.876999855041504 -16.295000076293945,-6.876999855041504 -16.295000076293945,-6.876999855041504z"></path><path stroke-linecap="round" stroke-linejoin="round" fill-opacity="0" stroke="rgb(29,29,27)" stroke-opacity="1" stroke-width="3" d=" M-16.295000076293945,-6.876999855041504 C-16.295000076293945,-6.876999855041504 -5.928999900817871,6.875999927520752 -5.928999900817871,6.875999927520752 C-5.928999900817871,6.875999927520752 16.29599952697754,6.875999927520752 16.29599952697754,6.875999927520752 C16.29599952697754,6.875999927520752 8.520999908447266,-6.876999855041504 8.520999908447266,-6.876999855041504 C8.520999908447266,-6.876999855041504 -16.295000076293945,-6.876999855041504 -16.295000076293945,-6.876999855041504z"></path></g><g opacity="1" transform="matrix(1,0,0,1,177.92799377441406,525.8690185546875)"><path fill="rgb(245,203,28)" fill-opacity="1" d=" M-12.23799991607666,-6.876999855041504 C-7.48199987411499,1.3420000076293945 1.399999976158142,6.875999927520752 11.579000473022461,6.875999927520752 C11.579000473022461,6.875999927520752 12.23799991607666,6.875999927520752 12.23799991607666,6.875999927520752 C12.23799991607666,6.875999927520752 1.871999979019165,-6.876999855041504 1.871999979019165,-6.876999855041504 C1.871999979019165,-6.876999855041504 -12.23799991607666,-6.876999855041504 -12.23799991607666,-6.876999855041504z"></path><path stroke-linecap="round" stroke-linejoin="round" fill-opacity="0" stroke="rgb(29,29,27)" stroke-opacity="1" stroke-width="3" d=" M-12.23799991607666,-6.876999855041504 C-7.48199987411499,1.3420000076293945 1.399999976158142,6.875999927520752 11.579000473022461,6.875999927520752 C11.579000473022461,6.875999927520752 12.23799991607666,6.875999927520752 12.23799991607666,6.875999927520752 C12.23799991607666,6.875999927520752 1.871999979019165,-6.876999855041504 1.871999979019165,-6.876999855041504 C1.871999979019165,-6.876999855041504 -12.23799991607666,-6.876999855041504 -12.23799991607666,-6.876999855041504z"></path></g><g opacity="1" transform="matrix(1,0,0,1,266.6570129394531,525.8690185546875)"><path fill="rgb(245,203,28)" fill-opacity="1" d=" M-12.407999992370605,-6.876999855041504 C-12.407999992370605,-6.876999855041504 -9.817000389099121,6.875999927520752 -9.817000389099121,6.875999927520752 C-9.817000389099121,6.875999927520752 12.407999992370605,6.875999927520752 12.407999992370605,6.875999927520752 C12.407999992370605,6.875999927520752 12.407999992370605,-6.876999855041504 12.407999992370605,-6.876999855041504 C12.407999992370605,-6.876999855041504 -12.407999992370605,-6.876999855041504 -12.407999992370605,-6.876999855041504z"></path><path stroke-linecap="round" stroke-linejoin="round" fill-opacity="0" stroke="rgb(29,29,27)" stroke-opacity="1" stroke-width="3" d=" M-12.407999992370605,-6.876999855041504 C-12.407999992370605,-6.876999855041504 -9.817000389099121,6.875999927520752 -9.817000389099121,6.875999927520752 C-9.817000389099121,6.875999927520752 12.407999992370605,6.875999927520752 12.407999992370605,6.875999927520752 C12.407999992370605,6.875999927520752 12.407999992370605,-6.876999855041504 12.407999992370605,-6.876999855041504 C12.407999992370605,-6.876999855041504 -12.407999992370605,-6.876999855041504 -12.407999992370605,-6.876999855041504z"></path></g><g opacity="1" transform="matrix(1,0,0,1,291.4739990234375,525.8690185546875)"><path fill="rgb(245,203,28)" fill-opacity="1" d=" M-12.407999992370605,-6.876999855041504 C-12.407999992370605,-6.876999855041504 -12.407999992370605,6.875999927520752 -12.407999992370605,6.875999927520752 C-12.407999992370605,6.875999927520752 9.817000389099121,6.875999927520752 9.817000389099121,6.875999927520752 C9.817000389099121,6.875999927520752 12.407999992370605,-6.876999855041504 12.407999992370605,-6.876999855041504 C12.407999992370605,-6.876999855041504 -12.407999992370605,-6.876999855041504 -12.407999992370605,-6.876999855041504z"></path><path stroke-linecap="round" stroke-linejoin="round" fill-opacity="0" stroke="rgb(29,29,27)" stroke-opacity="1" stroke-width="3" d=" M-12.407999992370605,-6.876999855041504 C-12.407999992370605,-6.876999855041504 -12.407999992370605,6.875999927520752 -12.407999992370605,6.875999927520752 C-12.407999992370605,6.875999927520752 9.817000389099121,6.875999927520752 9.817000389099121,6.875999927520752 C9.817000389099121,6.875999927520752 12.407999992370605,-6.876999855041504 12.407999992370605,-6.876999855041504 C12.407999992370605,-6.876999855041504 -12.407999992370605,-6.876999855041504 -12.407999992370605,-6.876999855041504z"></path></g><g opacity="1" transform="matrix(1,0,0,1,362.0360107421875,525.8690185546875)"><path fill="rgb(245,203,28)" fill-opacity="1" d=" M-8.520999908447266,-6.876999855041504 C-8.520999908447266,-6.876999855041504 -16.295000076293945,6.875999927520752 -16.295000076293945,6.875999927520752 C-16.295000076293945,6.875999927520752 4.813000202178955,6.875999927520752 4.813000202178955,6.875999927520752 C5.197999954223633,6.875999927520752 5.578000068664551,6.854000091552734 5.959000110626221,6.8379998207092285 C5.959000110626221,6.8379998207092285 16.295000076293945,-6.876999855041504 16.295000076293945,-6.876999855041504 C16.295000076293945,-6.876999855041504 -8.520999908447266,-6.876999855041504 -8.520999908447266,-6.876999855041504z"></path><path stroke-linecap="round" stroke-linejoin="round" fill-opacity="0" stroke="rgb(29,29,27)" stroke-opacity="1" stroke-width="3" d=" M-8.520999908447266,-6.876999855041504 C-8.520999908447266,-6.876999855041504 -16.295000076293945,6.875999927520752 -16.295000076293945,6.875999927520752 C-16.295000076293945,6.875999927520752 4.813000202178955,6.875999927520752 4.813000202178955,6.875999927520752 C5.197999954223633,6.875999927520752 5.578000068664551,6.854000091552734 5.959000110626221,6.8379998207092285 C5.959000110626221,6.8379998207092285 16.295000076293945,-6.876999855041504 16.295000076293945,-6.876999855041504 C16.295000076293945,-6.876999855041504 -8.520999908447266,-6.876999855041504 -8.520999908447266,-6.876999855041504z"></path></g><g opacity="1" transform="matrix(1,0,0,1,379.3299865722656,525.8489990234375)"><path fill="rgb(245,203,28)" fill-opacity="1" d=" M11.336000442504883,-6.85699987411499 C11.336000442504883,-6.85699987411499 -0.9990000128746033,-6.85699987411499 -0.9990000128746033,-6.85699987411499 C-0.9990000128746033,-6.85699987411499 -11.336000442504883,6.85699987411499 -11.336000442504883,6.85699987411499 C-1.6399999856948853,6.458000183105469 6.758999824523926,1.0509999990463257 11.336000442504883,-6.85699987411499z"></path><path stroke-linecap="round" stroke-linejoin="round" fill-opacity="0" stroke="rgb(29,29,27)" stroke-opacity="1" stroke-width="3" d=" M11.336000442504883,-6.85699987411499 C11.336000442504883,-6.85699987411499 -0.9990000128746033,-6.85699987411499 -0.9990000128746033,-6.85699987411499 C-0.9990000128746033,-6.85699987411499 -11.336000442504883,6.85699987411499 -11.336000442504883,6.85699987411499 C-1.6399999856948853,6.458000183105469 6.758999824523926,1.0509999990463257 11.336000442504883,-6.85699987411499z"></path></g><g opacity="1" transform="matrix(1,0,0,1,314.9939880371094,525.8690185546875)"><path fill="rgb(245,203,28)" fill-opacity="1" d=" M-11.112000465393066,-6.876999855041504 C-11.112000465393066,-6.876999855041504 -13.704000473022461,6.875999927520752 -13.704000473022461,6.875999927520752 C-13.704000473022461,6.875999927520752 8.522000312805176,6.875999927520752 8.522000312805176,6.875999927520752 C8.522000312805176,6.875999927520752 13.704000473022461,-6.876999855041504 13.704000473022461,-6.876999855041504 C13.704000473022461,-6.876999855041504 -11.112000465393066,-6.876999855041504 -11.112000465393066,-6.876999855041504z"></path><path stroke-linecap="round" stroke-linejoin="round" fill-opacity="0" stroke="rgb(29,29,27)" stroke-opacity="1" stroke-width="3" d=" M-11.112000465393066,-6.876999855041504 C-11.112000465393066,-6.876999855041504 -13.704000473022461,6.875999927520752 -13.704000473022461,6.875999927520752 C-13.704000473022461,6.875999927520752 8.522000312805176,6.875999927520752 8.522000312805176,6.875999927520752 C8.522000312805176,6.875999927520752 13.704000473022461,-6.876999855041504 13.704000473022461,-6.876999855041504 C13.704000473022461,-6.876999855041504 -11.112000465393066,-6.876999855041504 -11.112000465393066,-6.876999855041504z"></path></g><g opacity="1" transform="matrix(1,0,0,1,338.5150146484375,525.8690185546875)"><path fill="rgb(245,203,28)" fill-opacity="1" d=" M-9.817000389099121,-6.876999855041504 C-9.817000389099121,-6.876999855041504 -15,6.875999927520752 -15,6.875999927520752 C-15,6.875999927520752 7.224999904632568,6.875999927520752 7.224999904632568,6.875999927520752 C7.224999904632568,6.875999927520752 15,-6.876999855041504 15,-6.876999855041504 C15,-6.876999855041504 -9.817000389099121,-6.876999855041504 -9.817000389099121,-6.876999855041504z"></path><path stroke-linecap="round" stroke-linejoin="round" fill-opacity="0" stroke="rgb(29,29,27)" stroke-opacity="1" stroke-width="3" d=" M-9.817000389099121,-6.876999855041504 C-9.817000389099121,-6.876999855041504 -15,6.875999927520752 -15,6.875999927520752 C-15,6.875999927520752 7.224999904632568,6.875999927520752 7.224999904632568,6.875999927520752 C7.224999904632568,6.875999927520752 15,-6.876999855041504 15,-6.876999855041504 C15,-6.876999855041504 -9.817000389099121,-6.876999855041504 -9.817000389099121,-6.876999855041504z"></path></g><g opacity="1" transform="matrix(1,0,0,1,192.22799682617188,488.4849853515625)"><path fill="rgb(245,203,28)" fill-opacity="1" d=" M-12.010000228881836,-9.140000343322754 C-11.998000144958496,-8.472000122070312 -11.991000175476074,-7.804999828338623 -12.175000190734863,-7.236999988555908 C-12.604000091552734,-5.918000221252441 -14.300000190734863,-4.743000030517578 -14.300000190734863,-3.2809998989105225 C-14.300000190734863,-1.819000005722046 -12.604000091552734,-0.6430000066757202 -12.175000190734863,0.675000011920929 C-11.732000350952148,2.0420000553131104 -12.39799976348877,3.98799991607666 -11.569999694824219,5.125 C-10.732999801635742,6.275000095367432 -8.67199993133545,6.23799991607666 -7.5229997634887695,7.073999881744385 C-6.385000228881836,7.9019999504089355 -5.7870001792907715,9.878999710083008 -4.420000076293945,10.322999954223633 C-3.1010000705718994,10.75100040435791 -1.4620000123977661,9.517000198364258 0,9.517000198364258 C1.4620000123977661,9.517000198364258 3.1010000705718994,10.75100040435791 4.420000076293945,10.322999954223633 C5.7870001792907715,9.878999710083008 6.385000228881836,7.9029998779296875 7.5229997634887695,7.073999881744385 C8.67199993133545,6.23799991607666 10.732999801635742,6.275000095367432 11.569999694824219,5.125999927520752 C12.39799976348877,3.98799991607666 11.732000350952148,2.0420000553131104 12.175000190734863,0.6759999990463257 C12.604000091552734,-0.6430000066757202 14.300000190734863,-1.819000005722046 14.300000190734863,-3.2809998989105225 C14.300000190734863,-4.743000030517578 12.604000091552734,-5.918000221252441 12.175999641418457,-7.236999988555908 C11.836999893188477,-8.277999877929688 12.138999938964844,-9.652000427246094 11.939000129699707,-10.751999855041504 C11.939000129699707,-10.751999855041504 -2.7219998836517334,-10.751999855041504 -2.7219998836517334,-10.751999855041504 C-5.98199987411499,-10.751999855041504 -9.107999801635742,-10.180999755859375 -12.010000228881836,-9.140000343322754z"></path><path stroke-linecap="round" stroke-linejoin="round" fill-opacity="0" stroke="rgb(29,29,27)" stroke-opacity="1" stroke-width="3" d=" M-12.010000228881836,-9.140000343322754 C-11.998000144958496,-8.472000122070312 -11.991000175476074,-7.804999828338623 -12.175000190734863,-7.236999988555908 C-12.604000091552734,-5.918000221252441 -14.300000190734863,-4.743000030517578 -14.300000190734863,-3.2809998989105225 C-14.300000190734863,-1.819000005722046 -12.604000091552734,-0.6430000066757202 -12.175000190734863,0.675000011920929 C-11.732000350952148,2.0420000553131104 -12.39799976348877,3.98799991607666 -11.569999694824219,5.125 C-10.732999801635742,6.275000095367432 -8.67199993133545,6.23799991607666 -7.5229997634887695,7.073999881744385 C-6.385000228881836,7.9019999504089355 -5.7870001792907715,9.878999710083008 -4.420000076293945,10.322999954223633 C-3.1010000705718994,10.75100040435791 -1.4620000123977661,9.517000198364258 0,9.517000198364258 C1.4620000123977661,9.517000198364258 3.1010000705718994,10.75100040435791 4.420000076293945,10.322999954223633 C5.7870001792907715,9.878999710083008 6.385000228881836,7.9029998779296875 7.5229997634887695,7.073999881744385 C8.67199993133545,6.23799991607666 10.732999801635742,6.275000095367432 11.569999694824219,5.125999927520752 C12.39799976348877,3.98799991607666 11.732000350952148,2.0420000553131104 12.175000190734863,0.6759999990463257 C12.604000091552734,-0.6430000066757202 14.300000190734863,-1.819000005722046 14.300000190734863,-3.2809998989105225 C14.300000190734863,-4.743000030517578 12.604000091552734,-5.918000221252441 12.175999641418457,-7.236999988555908 C11.836999893188477,-8.277999877929688 12.138999938964844,-9.652000427246094 11.939000129699707,-10.751999855041504 C11.939000129699707,-10.751999855041504 -2.7219998836517334,-10.751999855041504 -2.7219998836517334,-10.751999855041504 C-5.98199987411499,-10.751999855041504 -9.107999801635742,-10.180999755859375 -12.010000228881836,-9.140000343322754z"></path></g><g opacity="1" transform="matrix(1,0,0,1,301.6260070800781,487.2349853515625)"><path fill="rgb(245,203,28)" fill-opacity="1" d=" M-12.175000190734863,-8.487000465393066 C-12.602999687194824,-7.168000221252441 -14.300000190734863,-5.992000102996826 -14.300000190734863,-4.531000137329102 C-14.300000190734863,-3.069000005722046 -12.602999687194824,-1.8930000066757202 -12.175000190734863,-0.5740000009536743 C-11.730999946594238,0.7929999828338623 -12.397000312805176,2.73799991607666 -11.569000244140625,3.875999927520752 C-10.732999801635742,5.025000095367432 -8.670999526977539,4.988999843597412 -7.521999835968018,5.824999809265137 C-6.385000228881836,6.6529998779296875 -5.788000106811523,8.628999710083008 -4.421000003814697,9.072999954223633 C-3.1019999980926514,9.50100040435791 -1.4609999656677246,8.267999649047852 0,8.267999649047852 C1.4620000123977661,8.267999649047852 3.1019999980926514,9.50100040435791 4.421000003814697,9.072999954223633 C5.7870001792907715,8.628999710083008 6.385000228881836,6.6529998779296875 7.5229997634887695,5.824999809265137 C8.67199993133545,4.988999843597412 10.734000205993652,5.025000095367432 11.569999694824219,3.875999927520752 C12.39799976348877,2.73799991607666 11.732000350952148,0.7929999828338623 12.175999641418457,-0.5740000009536743 C12.604000091552734,-1.8930000066757202 14.300999641418457,-3.069000005722046 14.300999641418457,-4.531000137329102 C14.300999641418457,-5.992000102996826 12.604000091552734,-7.168000221252441 12.175999641418457,-8.487000465393066 C12.074000358581543,-8.800000190734863 12.03499984741211,-9.145000457763672 12.017999649047852,-9.50100040435791 C12.017999649047852,-9.50100040435791 -12.017000198364258,-9.50100040435791 -12.017000198364258,-9.50100040435791 C-12.034000396728516,-9.145000457763672 -12.072999954223633,-8.800000190734863 -12.175000190734863,-8.487000465393066z"></path><path stroke-linecap="round" stroke-linejoin="round" fill-opacity="0" stroke="rgb(29,29,27)" stroke-opacity="1" stroke-width="3" d=" M-12.175000190734863,-8.487000465393066 C-12.602999687194824,-7.168000221252441 -14.300000190734863,-5.992000102996826 -14.300000190734863,-4.531000137329102 C-14.300000190734863,-3.069000005722046 -12.602999687194824,-1.8930000066757202 -12.175000190734863,-0.5740000009536743 C-11.730999946594238,0.7929999828338623 -12.397000312805176,2.73799991607666 -11.569000244140625,3.875999927520752 C-10.732999801635742,5.025000095367432 -8.670999526977539,4.988999843597412 -7.521999835968018,5.824999809265137 C-6.385000228881836,6.6529998779296875 -5.788000106811523,8.628999710083008 -4.421000003814697,9.072999954223633 C-3.1019999980926514,9.50100040435791 -1.4609999656677246,8.267999649047852 0,8.267999649047852 C1.4620000123977661,8.267999649047852 3.1019999980926514,9.50100040435791 4.421000003814697,9.072999954223633 C5.7870001792907715,8.628999710083008 6.385000228881836,6.6529998779296875 7.5229997634887695,5.824999809265137 C8.67199993133545,4.988999843597412 10.734000205993652,5.025000095367432 11.569999694824219,3.875999927520752 C12.39799976348877,2.73799991607666 11.732000350952148,0.7929999828338623 12.175999641418457,-0.5740000009536743 C12.604000091552734,-1.8930000066757202 14.300999641418457,-3.069000005722046 14.300999641418457,-4.531000137329102 C14.300999641418457,-5.992000102996826 12.604000091552734,-7.168000221252441 12.175999641418457,-8.487000465393066 C12.074000358581543,-8.800000190734863 12.03499984741211,-9.145000457763672 12.017999649047852,-9.50100040435791 C12.017999649047852,-9.50100040435791 -12.017000198364258,-9.50100040435791 -12.017000198364258,-9.50100040435791 C-12.034000396728516,-9.145000457763672 -12.072999954223633,-8.800000190734863 -12.175000190734863,-8.487000465393066z"></path></g><g opacity="1" transform="matrix(1,0,0,1,247.61099243164062,502.3169860839844)"><path fill="rgb(245,203,28)" fill-opacity="1" d=" M10.616999626159668,0 C10.616999626159668,1.0850000381469727 9.355999946594238,1.9579999446868896 9.038000106811523,2.937000036239624 C8.708999633789062,3.9519999027252197 9.20300006866455,5.395999908447266 8.58899974822998,6.241000175476074 C7.9679999351501465,7.093999862670898 6.436999797821045,7.066999912261963 5.584000110626221,7.688000202178955 C4.739999771118164,8.303000450134277 4.296000003814697,9.770000457763672 3.2809998989105225,10.100000381469727 C2.302000045776367,10.418000221252441 1.0850000381469727,9.501999855041504 -0.0010000000474974513,9.501999855041504 C-1.0859999656677246,9.501999855041504 -2.302999973297119,10.418000221252441 -3.2820000648498535,10.100000381469727 C-4.296999931335449,9.770000457763672 -4.741000175476074,8.303000450134277 -5.585999965667725,7.688000202178955 C-6.439000129699707,7.066999912261963 -7.968999862670898,7.093999862670898 -8.59000015258789,6.241000175476074 C-9.204999923706055,5.395999908447266 -8.710000038146973,3.9519999027252197 -9.039999961853027,2.937000036239624 C-9.357999801635742,1.9579999446868896 -10.616999626159668,1.0850000381469727 -10.616999626159668,0 C-10.616999626159668,-1.0850000381469727 -9.357999801635742,-1.9579999446868896 -9.039999961853027,-2.937000036239624 C-8.710000038146973,-3.9519999027252197 -9.204999923706055,-5.395999908447266 -8.59000015258789,-6.241000175476074 C-7.968999862670898,-7.093999862670898 -6.439000129699707,-7.066999912261963 -5.585999965667725,-7.688000202178955 C-4.741000175476074,-8.303000450134277 -4.296999931335449,-9.770000457763672 -3.2820000648498535,-10.100000381469727 C-2.302999973297119,-10.418000221252441 -1.0859999656677246,-9.501999855041504 -0.0010000000474974513,-9.501999855041504 C1.0850000381469727,-9.501999855041504 2.302000045776367,-10.418000221252441 3.2809998989105225,-10.100000381469727 C4.296000003814697,-9.770000457763672 4.739999771118164,-8.303000450134277 5.584000110626221,-7.688000202178955 C6.436999797821045,-7.066999912261963 7.9679999351501465,-7.093999862670898 8.58899974822998,-6.241000175476074 C9.204000473022461,-5.395999908447266 8.708999633789062,-3.9519999027252197 9.038999557495117,-2.937000036239624 C9.355999946594238,-1.9579999446868896 10.616999626159668,-1.0850000381469727 10.616999626159668,0z"></path><path stroke-linecap="round" stroke-linejoin="round" fill-opacity="0" stroke="rgb(29,29,27)" stroke-opacity="1" stroke-width="3" d=" M10.616999626159668,0 C10.616999626159668,1.0850000381469727 9.355999946594238,1.9579999446868896 9.038000106811523,2.937000036239624 C8.708999633789062,3.9519999027252197 9.20300006866455,5.395999908447266 8.58899974822998,6.241000175476074 C7.9679999351501465,7.093999862670898 6.436999797821045,7.066999912261963 5.584000110626221,7.688000202178955 C4.739999771118164,8.303000450134277 4.296000003814697,9.770000457763672 3.2809998989105225,10.100000381469727 C2.302000045776367,10.418000221252441 1.0850000381469727,9.501999855041504 -0.0010000000474974513,9.501999855041504 C-1.0859999656677246,9.501999855041504 -2.302999973297119,10.418000221252441 -3.2820000648498535,10.100000381469727 C-4.296999931335449,9.770000457763672 -4.741000175476074,8.303000450134277 -5.585999965667725,7.688000202178955 C-6.439000129699707,7.066999912261963 -7.968999862670898,7.093999862670898 -8.59000015258789,6.241000175476074 C-9.204999923706055,5.395999908447266 -8.710000038146973,3.9519999027252197 -9.039999961853027,2.937000036239624 C-9.357999801635742,1.9579999446868896 -10.616999626159668,1.0850000381469727 -10.616999626159668,0 C-10.616999626159668,-1.0850000381469727 -9.357999801635742,-1.9579999446868896 -9.039999961853027,-2.937000036239624 C-8.710000038146973,-3.9519999027252197 -9.204999923706055,-5.395999908447266 -8.59000015258789,-6.241000175476074 C-7.968999862670898,-7.093999862670898 -6.439000129699707,-7.066999912261963 -5.585999965667725,-7.688000202178955 C-4.741000175476074,-8.303000450134277 -4.296999931335449,-9.770000457763672 -3.2820000648498535,-10.100000381469727 C-2.302999973297119,-10.418000221252441 -1.0859999656677246,-9.501999855041504 -0.0010000000474974513,-9.501999855041504 C1.0850000381469727,-9.501999855041504 2.302000045776367,-10.418000221252441 3.2809998989105225,-10.100000381469727 C4.296000003814697,-9.770000457763672 4.739999771118164,-8.303000450134277 5.584000110626221,-7.688000202178955 C6.436999797821045,-7.066999912261963 7.9679999351501465,-7.093999862670898 8.58899974822998,-6.241000175476074 C9.204000473022461,-5.395999908447266 8.708999633789062,-3.9519999027252197 9.038999557495117,-2.937000036239624 C9.355999946594238,-1.9579999446868896 10.616999626159668,-1.0850000381469727 10.616999626159668,0z"></path></g><g opacity="1" transform="matrix(1,0,0,1,359.91900634765625,502.3169860839844)"><path fill="rgb(245,203,28)" fill-opacity="1" d=" M10.616999626159668,0 C10.616999626159668,1.0850000381469727 9.357000350952148,1.9579999446868896 9.038999557495117,2.937000036239624 C8.710000038146973,3.9519999027252197 9.204000473022461,5.395999908447266 8.59000015258789,6.241000175476074 C7.968999862670898,7.093999862670898 6.438000202178955,7.066999912261963 5.585000038146973,7.688000202178955 C4.741000175476074,8.303000450134277 4.296000003814697,9.770000457763672 3.2809998989105225,10.100000381469727 C2.302000045776367,10.418000221252441 1.0859999656677246,9.501999855041504 0,9.501999855041504 C-1.0850000381469727,9.501999855041504 -2.302000045776367,10.418000221252441 -3.2809998989105225,10.100000381469727 C-4.296000003814697,9.770000457763672 -4.741000175476074,8.303000450134277 -5.585999965667725,7.688000202178955 C-6.439000129699707,7.066999912261963 -7.968999862670898,7.093999862670898 -8.59000015258789,6.241000175476074 C-9.204999923706055,5.395999908447266 -8.708999633789062,3.9519999027252197 -9.038999557495117,2.937000036239624 C-9.357000350952148,1.9579999446868896 -10.616000175476074,1.0850000381469727 -10.616000175476074,0 C-10.616000175476074,-1.0850000381469727 -9.357000350952148,-1.9579999446868896 -9.038999557495117,-2.937000036239624 C-8.708999633789062,-3.9519999027252197 -9.204999923706055,-5.395999908447266 -8.59000015258789,-6.241000175476074 C-7.968999862670898,-7.093999862670898 -6.439000129699707,-7.066999912261963 -5.585999965667725,-7.688000202178955 C-4.741000175476074,-8.303000450134277 -4.296000003814697,-9.770000457763672 -3.2809998989105225,-10.100000381469727 C-2.302000045776367,-10.418000221252441 -1.0850000381469727,-9.501999855041504 0,-9.501999855041504 C1.0859999656677246,-9.501999855041504 2.302000045776367,-10.418000221252441 3.2809998989105225,-10.100000381469727 C4.296000003814697,-9.770000457763672 4.741000175476074,-8.303000450134277 5.585000038146973,-7.688000202178955 C6.438000202178955,-7.066999912261963 7.968999862670898,-7.093999862670898 8.59000015258789,-6.241000175476074 C9.204999923706055,-5.395999908447266 8.710000038146973,-3.9519999027252197 9.038999557495117,-2.937000036239624 C9.357000350952148,-1.9579999446868896 10.616999626159668,-1.0850000381469727 10.616999626159668,0z"></path><path stroke-linecap="round" stroke-linejoin="round" fill-opacity="0" stroke="rgb(29,29,27)" stroke-opacity="1" stroke-width="3" d=" M10.616999626159668,0 C10.616999626159668,1.0850000381469727 9.357000350952148,1.9579999446868896 9.038999557495117,2.937000036239624 C8.710000038146973,3.9519999027252197 9.204000473022461,5.395999908447266 8.59000015258789,6.241000175476074 C7.968999862670898,7.093999862670898 6.438000202178955,7.066999912261963 5.585000038146973,7.688000202178955 C4.741000175476074,8.303000450134277 4.296000003814697,9.770000457763672 3.2809998989105225,10.100000381469727 C2.302000045776367,10.418000221252441 1.0859999656677246,9.501999855041504 0,9.501999855041504 C-1.0850000381469727,9.501999855041504 -2.302000045776367,10.418000221252441 -3.2809998989105225,10.100000381469727 C-4.296000003814697,9.770000457763672 -4.741000175476074,8.303000450134277 -5.585999965667725,7.688000202178955 C-6.439000129699707,7.066999912261963 -7.968999862670898,7.093999862670898 -8.59000015258789,6.241000175476074 C-9.204999923706055,5.395999908447266 -8.708999633789062,3.9519999027252197 -9.038999557495117,2.937000036239624 C-9.357000350952148,1.9579999446868896 -10.616000175476074,1.0850000381469727 -10.616000175476074,0 C-10.616000175476074,-1.0850000381469727 -9.357000350952148,-1.9579999446868896 -9.038999557495117,-2.937000036239624 C-8.708999633789062,-3.9519999027252197 -9.204999923706055,-5.395999908447266 -8.59000015258789,-6.241000175476074 C-7.968999862670898,-7.093999862670898 -6.439000129699707,-7.066999912261963 -5.585999965667725,-7.688000202178955 C-4.741000175476074,-8.303000450134277 -4.296000003814697,-9.770000457763672 -3.2809998989105225,-10.100000381469727 C-2.302000045776367,-10.418000221252441 -1.0850000381469727,-9.501999855041504 0,-9.501999855041504 C1.0859999656677246,-9.501999855041504 2.302000045776367,-10.418000221252441 3.2809998989105225,-10.100000381469727 C4.296000003814697,-9.770000457763672 4.741000175476074,-8.303000450134277 5.585000038146973,-7.688000202178955 C6.438000202178955,-7.066999912261963 7.968999862670898,-7.093999862670898 8.59000015258789,-6.241000175476074 C9.204999923706055,-5.395999908447266 8.710000038146973,-3.9519999027252197 9.038999557495117,-2.937000036239624 C9.357000350952148,-1.9579999446868896 10.616999626159668,-1.0850000381469727 10.616999626159668,0z"></path></g></g><g transform="matrix(1.049759030342102,0,0,0.9004819393157959,-113.31477355957031,-185.1588592529297)" opacity="1" style="display: block;"><g opacity="1" transform="matrix(1,0,0,1,278.49798583984375,450.1189880371094)"><path fill="rgb(110,212,119)" fill-opacity="1" d=" M51.691001892089844,27.5049991607666 C51.691001892089844,27.5049991607666 -51.691001892089844,27.5049991607666 -51.691001892089844,27.5049991607666 C-66.88099670410156,27.5049991607666 -79.19599914550781,15.190999984741211 -79.19599914550781,0.0010000000474974513 C-79.19599914550781,-15.1899995803833 -66.88099670410156,-27.5049991607666 -51.691001892089844,-27.5049991607666 C-51.691001892089844,-27.5049991607666 51.691001892089844,-27.5049991607666 51.691001892089844,-27.5049991607666 C66.88200378417969,-27.5049991607666 79.19599914550781,-15.1899995803833 79.19599914550781,0.0010000000474974513 C79.19599914550781,15.190999984741211 66.88200378417969,27.5049991607666 51.691001892089844,27.5049991607666z"></path><path stroke-linecap="butt" stroke-linejoin="miter" fill-opacity="0" stroke-miterlimit="10" stroke="rgb(29,29,27)" stroke-opacity="1" stroke-width="3" d=" M51.691001892089844,27.5049991607666 C51.691001892089844,27.5049991607666 -51.691001892089844,27.5049991607666 -51.691001892089844,27.5049991607666 C-66.88099670410156,27.5049991607666 -79.19599914550781,15.190999984741211 -79.19599914550781,0.0010000000474974513 C-79.19599914550781,-15.1899995803833 -66.88099670410156,-27.5049991607666 -51.691001892089844,-27.5049991607666 C-51.691001892089844,-27.5049991607666 51.691001892089844,-27.5049991607666 51.691001892089844,-27.5049991607666 C66.88200378417969,-27.5049991607666 79.19599914550781,-15.1899995803833 79.19599914550781,0.0010000000474974513 C79.19599914550781,15.190999984741211 66.88200378417969,27.5049991607666 51.691001892089844,27.5049991607666z"></path></g><g opacity="1" transform="matrix(1,0,0,1,227.0970001220703,469.43499755859375)"><path fill="rgb(245,203,28)" fill-opacity="1" d=" M-13.675000190734863,-8.189000129699707 C-13.675000190734863,-8.189000129699707 -5.750999927520752,7.629000186920166 -5.750999927520752,7.629000186920166 C-3.9839999675750732,7.986000061035156 -2.1619999408721924,8.189000129699707 -0.28999999165534973,8.189000129699707 C-0.28999999165534973,8.189000129699707 13.675999641418457,8.189000129699707 13.675999641418457,8.189000129699707 C13.675999641418457,8.189000129699707 8.206000328063965,-8.189000129699707 8.206000328063965,-8.189000129699707 C8.206000328063965,-8.189000129699707 -13.675000190734863,-8.189000129699707 -13.675000190734863,-8.189000129699707z"></path><path stroke-linecap="round" stroke-linejoin="round" fill-opacity="0" stroke="rgb(29,29,27)" stroke-opacity="1" stroke-width="3" d=" M-13.675000190734863,-8.189000129699707 C-13.675000190734863,-8.189000129699707 -5.750999927520752,7.629000186920166 -5.750999927520752,7.629000186920166 C-3.9839999675750732,7.986000061035156 -2.1619999408721924,8.189000129699707 -0.28999999165534973,8.189000129699707 C-0.28999999165534973,8.189000129699707 13.675999641418457,8.189000129699707 13.675999641418457,8.189000129699707 C13.675999641418457,8.189000129699707 8.206000328063965,-8.189000129699707 8.206000328063965,-8.189000129699707 C8.206000328063965,-8.189000129699707 -13.675000190734863,-8.189000129699707 -13.675000190734863,-8.189000129699707z"></path></g><g opacity="1" transform="matrix(1,0,0,1,247.61099243164062,469.43499755859375)"><path fill="rgb(245,203,28)" fill-opacity="1" d=" M-12.307999610900879,-8.189000129699707 C-12.307999610900879,-8.189000129699707 -6.839000225067139,8.189000129699707 -6.839000225067139,8.189000129699707 C-6.839000225067139,8.189000129699707 12.307999610900879,8.189000129699707 12.307999610900879,8.189000129699707 C12.307999610900879,8.189000129699707 9.572999954223633,-8.189000129699707 9.572999954223633,-8.189000129699707 C9.572999954223633,-8.189000129699707 -12.307999610900879,-8.189000129699707 -12.307999610900879,-8.189000129699707z"></path><path stroke-linecap="round" stroke-linejoin="round" fill-opacity="0" stroke="rgb(29,29,27)" stroke-opacity="1" stroke-width="3" d=" M-12.307999610900879,-8.189000129699707 C-12.307999610900879,-8.189000129699707 -6.839000225067139,8.189000129699707 -6.839000225067139,8.189000129699707 C-6.839000225067139,8.189000129699707 12.307999610900879,8.189000129699707 12.307999610900879,8.189000129699707 C12.307999610900879,8.189000129699707 9.572999954223633,-8.189000129699707 9.572999954223633,-8.189000129699707 C9.572999954223633,-8.189000129699707 -12.307999610900879,-8.189000129699707 -12.307999610900879,-8.189000129699707z"></path></g><g opacity="1" transform="matrix(1,0,0,1,211.5,469.1549987792969)"><path fill="rgb(245,203,28)" fill-opacity="1" d=" M-9.845999717712402,-7.908999919891357 C-6.284999847412109,0.12800000607967377 1.0149999856948853,6.125999927520752 9.845000267028809,7.908999919891357 C9.845000267028809,7.908999919891357 1.9210000038146973,-7.908999919891357 1.9210000038146973,-7.908999919891357 C1.9210000038146973,-7.908999919891357 -9.845999717712402,-7.908999919891357 -9.845999717712402,-7.908999919891357z"></path><path stroke-linecap="round" stroke-linejoin="round" fill-opacity="0" stroke="rgb(29,29,27)" stroke-opacity="1" stroke-width="3" d=" M-9.845999717712402,-7.908999919891357 C-6.284999847412109,0.12800000607967377 1.0149999856948853,6.125999927520752 9.845000267028809,7.908999919891357 C9.845000267028809,7.908999919891357 1.9210000038146973,-7.908999919891357 1.9210000038146973,-7.908999919891357 C1.9210000038146973,-7.908999919891357 -9.845999717712402,-7.908999919891357 -9.845999717712402,-7.908999919891357z"></path></g><g opacity="1" transform="matrix(1,0,0,1,268.125,469.43499755859375)"><path fill="rgb(245,203,28)" fill-opacity="1" d=" M-10.9399995803833,-8.189000129699707 C-10.9399995803833,-8.189000129699707 -8.206000328063965,8.189000129699707 -8.206000328063965,8.189000129699707 C-8.206000328063965,8.189000129699707 10.9399995803833,8.189000129699707 10.9399995803833,8.189000129699707 C10.9399995803833,8.189000129699707 10.9399995803833,-8.189000129699707 10.9399995803833,-8.189000129699707 C10.9399995803833,-8.189000129699707 -10.9399995803833,-8.189000129699707 -10.9399995803833,-8.189000129699707z"></path><path stroke-linecap="round" stroke-linejoin="round" fill-opacity="0" stroke="rgb(29,29,27)" stroke-opacity="1" stroke-width="3" d=" M-10.9399995803833,-8.189000129699707 C-10.9399995803833,-8.189000129699707 -8.206000328063965,8.189000129699707 -8.206000328063965,8.189000129699707 C-8.206000328063965,8.189000129699707 10.9399995803833,8.189000129699707 10.9399995803833,8.189000129699707 C10.9399995803833,8.189000129699707 10.9399995803833,-8.189000129699707 10.9399995803833,-8.189000129699707 C10.9399995803833,-8.189000129699707 -10.9399995803833,-8.189000129699707 -10.9399995803833,-8.189000129699707z"></path></g><g opacity="1" transform="matrix(1,0,0,1,346.1369934082031,469.010009765625)"><path fill="rgb(245,203,28)" fill-opacity="1" d=" M9.206000328063965,-7.763999938964844 C9.206000328063965,-7.763999938964844 -1.4270000457763672,-7.763999938964844 -1.4270000457763672,-7.763999938964844 C-1.4270000457763672,-7.763999938964844 -9.206000328063965,7.763999938964844 -9.206000328063965,7.763999938964844 C-0.953000009059906,5.681000232696533 5.817999839782715,-0.11900000274181366 9.206000328063965,-7.763999938964844z"></path><path stroke-linecap="round" stroke-linejoin="round" fill-opacity="0" stroke="rgb(29,29,27)" stroke-opacity="1" stroke-width="3" d=" M9.206000328063965,-7.763999938964844 C9.206000328063965,-7.763999938964844 -1.4270000457763672,-7.763999938964844 -1.4270000457763672,-7.763999938964844 C-1.4270000457763672,-7.763999938964844 -9.206000328063965,7.763999938964844 -9.206000328063965,7.763999938964844 C-0.953000009059906,5.681000232696533 5.817999839782715,-0.11900000274181366 9.206000328063965,-7.763999938964844z"></path></g><g opacity="1" transform="matrix(1,0,0,1,331.03399658203125,469.43499755859375)"><path fill="rgb(245,203,28)" fill-opacity="1" d=" M-8.206000328063965,-8.189000129699707 C-8.206000328063965,-8.189000129699707 -13.675000190734863,8.189000129699707 -13.675000190734863,8.189000129699707 C-13.675000190734863,8.189000129699707 -0.8450000286102295,8.189000129699707 -0.8450000286102295,8.189000129699707 C1.4830000400543213,8.189000129699707 3.73799991607666,7.883999824523926 5.896999835968018,7.339000225067139 C5.896999835968018,7.339000225067139 13.675000190734863,-8.189000129699707 13.675000190734863,-8.189000129699707 C13.675000190734863,-8.189000129699707 -8.206000328063965,-8.189000129699707 -8.206000328063965,-8.189000129699707z"></path><path stroke-linecap="round" stroke-linejoin="round" fill-opacity="0" stroke="rgb(29,29,27)" stroke-opacity="1" stroke-width="3" d=" M-8.206000328063965,-8.189000129699707 C-8.206000328063965,-8.189000129699707 -13.675000190734863,8.189000129699707 -13.675000190734863,8.189000129699707 C-13.675000190734863,8.189000129699707 -0.8450000286102295,8.189000129699707 -0.8450000286102295,8.189000129699707 C1.4830000400543213,8.189000129699707 3.73799991607666,7.883999824523926 5.896999835968018,7.339000225067139 C5.896999835968018,7.339000225067139 13.675000190734863,-8.189000129699707 13.675000190734863,-8.189000129699707 C13.675000190734863,-8.189000129699707 -8.206000328063965,-8.189000129699707 -8.206000328063965,-8.189000129699707z"></path></g><g opacity="1" transform="matrix(1,0,0,1,290.0060119628906,469.43499755859375)"><path fill="rgb(245,203,28)" fill-opacity="1" d=" M-10.9399995803833,-8.189000129699707 C-10.9399995803833,-8.189000129699707 -10.9399995803833,8.189000129699707 -10.9399995803833,8.189000129699707 C-10.9399995803833,8.189000129699707 8.206000328063965,8.189000129699707 8.206000328063965,8.189000129699707 C8.206000328063965,8.189000129699707 10.9399995803833,-8.189000129699707 10.9399995803833,-8.189000129699707 C10.9399995803833,-8.189000129699707 -10.9399995803833,-8.189000129699707 -10.9399995803833,-8.189000129699707z"></path><path stroke-linecap="round" stroke-linejoin="round" fill-opacity="0" stroke="rgb(29,29,27)" stroke-opacity="1" stroke-width="3" d=" M-10.9399995803833,-8.189000129699707 C-10.9399995803833,-8.189000129699707 -10.9399995803833,8.189000129699707 -10.9399995803833,8.189000129699707 C-10.9399995803833,8.189000129699707 8.206000328063965,8.189000129699707 8.206000328063965,8.189000129699707 C8.206000328063965,8.189000129699707 10.9399995803833,-8.189000129699707 10.9399995803833,-8.189000129699707 C10.9399995803833,-8.189000129699707 -10.9399995803833,-8.189000129699707 -10.9399995803833,-8.189000129699707z"></path></g><g opacity="1" transform="matrix(1,0,0,1,310.5199890136719,469.43499755859375)"><path fill="rgb(245,203,28)" fill-opacity="1" d=" M-9.572999954223633,-8.189000129699707 C-9.572999954223633,-8.189000129699707 -12.307999610900879,8.189000129699707 -12.307999610900879,8.189000129699707 C-12.307999610900879,8.189000129699707 6.839000225067139,8.189000129699707 6.839000225067139,8.189000129699707 C6.839000225067139,8.189000129699707 12.307999610900879,-8.189000129699707 12.307999610900879,-8.189000129699707 C12.307999610900879,-8.189000129699707 -9.572999954223633,-8.189000129699707 -9.572999954223633,-8.189000129699707z"></path><path stroke-linecap="round" stroke-linejoin="round" fill-opacity="0" stroke="rgb(29,29,27)" stroke-opacity="1" stroke-width="3" d=" M-9.572999954223633,-8.189000129699707 C-9.572999954223633,-8.189000129699707 -12.307999610900879,8.189000129699707 -12.307999610900879,8.189000129699707 C-12.307999610900879,8.189000129699707 6.839000225067139,8.189000129699707 6.839000225067139,8.189000129699707 C6.839000225067139,8.189000129699707 12.307999610900879,-8.189000129699707 12.307999610900879,-8.189000129699707 C12.307999610900879,-8.189000129699707 -9.572999954223633,-8.189000129699707 -9.572999954223633,-8.189000129699707z"></path></g><g opacity="1" transform="matrix(1,0,0,1,226.11700439453125,431.8299865722656)"><path fill="rgb(245,203,28)" fill-opacity="1" d=" M-8.35099983215332,-7.688000202178955 C-8.437999725341797,-7.613999843597412 -8.520999908447266,-7.534999847412109 -8.58899974822998,-7.441999912261963 C-9.204000473022461,-6.5970001220703125 -8.708999633789062,-5.1529998779296875 -9.038999557495117,-4.138000011444092 C-9.357000350952148,-3.1589999198913574 -10.616999626159668,-2.2860000133514404 -10.616999626159668,-1.2009999752044678 C-10.616999626159668,-0.11599999666213989 -9.357000350952148,0.7570000290870667 -9.038999557495117,1.7359999418258667 C-8.708999633789062,2.750999927520752 -9.204000473022461,4.195000171661377 -8.58899974822998,5.039999961853027 C-7.9679999351501465,5.89300012588501 -6.438000202178955,5.866000175476074 -5.585000038146973,6.486999988555908 C-4.739999771118164,7.1020002365112305 -4.296000003814697,8.569000244140625 -3.2809998989105225,8.89900016784668 C-2.302000045776367,9.217000007629395 -1.0850000381469727,8.300999641418457 0,8.300999641418457 C1.0850000381469727,8.300999641418457 2.302999973297119,9.217000007629395 3.2820000648498535,8.89900016784668 C4.296999931335449,8.569000244140625 4.739999771118164,7.1020002365112305 5.585000038146973,6.486999988555908 C6.438000202178955,5.866000175476074 7.968999862670898,5.89300012588501 8.59000015258789,5.039999961853027 C9.204000473022461,4.196000099182129 8.710000038146973,2.750999927520752 9.038999557495117,1.7369999885559082 C9.357000350952148,0.7570000290870667 10.616999626159668,-0.11500000208616257 10.616999626159668,-1.2009999752044678 C10.616999626159668,-2.2860000133514404 9.357000350952148,-3.1589999198913574 9.038999557495117,-4.138000011444092 C8.710000038146973,-5.1529998779296875 9.204000473022461,-6.5970001220703125 8.59000015258789,-7.441999912261963 C7.968999862670898,-8.295000076293945 6.438000202178955,-8.267999649047852 5.585000038146973,-8.888999938964844 C5.460000038146973,-8.979999542236328 5.343999862670898,-9.093999862670898 5.232999801635742,-9.217000007629395 C5.232999801635742,-9.217000007629395 0.6909999847412109,-9.217000007629395 0.6909999847412109,-9.217000007629395 C-2.4779999256134033,-9.217000007629395 -5.51800012588501,-8.673999786376953 -8.35099983215332,-7.688000202178955z"></path><path stroke-linecap="round" stroke-linejoin="round" fill-opacity="0" stroke="rgb(29,29,27)" stroke-opacity="1" stroke-width="3" d=" M-8.35099983215332,-7.688000202178955 C-8.437999725341797,-7.613999843597412 -8.520999908447266,-7.534999847412109 -8.58899974822998,-7.441999912261963 C-9.204000473022461,-6.5970001220703125 -8.708999633789062,-5.1529998779296875 -9.038999557495117,-4.138000011444092 C-9.357000350952148,-3.1589999198913574 -10.616999626159668,-2.2860000133514404 -10.616999626159668,-1.2009999752044678 C-10.616999626159668,-0.11599999666213989 -9.357000350952148,0.7570000290870667 -9.038999557495117,1.7359999418258667 C-8.708999633789062,2.750999927520752 -9.204000473022461,4.195000171661377 -8.58899974822998,5.039999961853027 C-7.9679999351501465,5.89300012588501 -6.438000202178955,5.866000175476074 -5.585000038146973,6.486999988555908 C-4.739999771118164,7.1020002365112305 -4.296000003814697,8.569000244140625 -3.2809998989105225,8.89900016784668 C-2.302000045776367,9.217000007629395 -1.0850000381469727,8.300999641418457 0,8.300999641418457 C1.0850000381469727,8.300999641418457 2.302999973297119,9.217000007629395 3.2820000648498535,8.89900016784668 C4.296999931335449,8.569000244140625 4.739999771118164,7.1020002365112305 5.585000038146973,6.486999988555908 C6.438000202178955,5.866000175476074 7.968999862670898,5.89300012588501 8.59000015258789,5.039999961853027 C9.204000473022461,4.196000099182129 8.710000038146973,2.750999927520752 9.038999557495117,1.7369999885559082 C9.357000350952148,0.7570000290870667 10.616999626159668,-0.11500000208616257 10.616999626159668,-1.2009999752044678 C10.616999626159668,-2.2860000133514404 9.357000350952148,-3.1589999198913574 9.038999557495117,-4.138000011444092 C8.710000038146973,-5.1529998779296875 9.204000473022461,-6.5970001220703125 8.59000015258789,-7.441999912261963 C7.968999862670898,-8.295000076293945 6.438000202178955,-8.267999649047852 5.585000038146973,-8.888999938964844 C5.460000038146973,-8.979999542236328 5.343999862670898,-9.093999862670898 5.232999801635742,-9.217000007629395 C5.232999801635742,-9.217000007629395 0.6909999847412109,-9.217000007629395 0.6909999847412109,-9.217000007629395 C-2.4779999256134033,-9.217000007629395 -5.51800012588501,-8.673999786376953 -8.35099983215332,-7.688000202178955z"></path></g></g><g transform="matrix(1,0,0,1,-98.5,-227.04820251464844)" opacity="1" style="display: block;"><g opacity="1" transform="matrix(1,0,0,1,273.50799560546875,382.739013671875)"><path fill="rgb(110,212,119)" fill-opacity="1" d=" M0,-39.875 C0,-39.875 0,-39.875 0,-39.875 C-20.309999465942383,-39.875 -36.775001525878906,-23.409000396728516 -36.775001525878906,-3.0989999771118164 C-36.775001525878906,-3.0989999771118164 -36.775001525878906,39.875 -36.775001525878906,39.875 C-36.775001525878906,39.875 36.775001525878906,39.875 36.775001525878906,39.875 C36.775001525878906,39.875 36.775001525878906,-3.0989999771118164 36.775001525878906,-3.0989999771118164 C36.775001525878906,-23.409000396728516 20.309999465942383,-39.875 0,-39.875z"></path><path stroke-linecap="butt" stroke-linejoin="miter" fill-opacity="0" stroke-miterlimit="10" stroke="rgb(29,29,27)" stroke-opacity="1" stroke-width="3" d=" M0,-39.875 C0,-39.875 0,-39.875 0,-39.875 C-20.309999465942383,-39.875 -36.775001525878906,-23.409000396728516 -36.775001525878906,-3.0989999771118164 C-36.775001525878906,-3.0989999771118164 -36.775001525878906,39.875 -36.775001525878906,39.875 C-36.775001525878906,39.875 36.775001525878906,39.875 36.775001525878906,39.875 C36.775001525878906,39.875 36.775001525878906,-3.0989999771118164 36.775001525878906,-3.0989999771118164 C36.775001525878906,-23.409000396728516 20.309999465942383,-39.875 0,-39.875z"></path></g><g opacity="1" transform="matrix(1,0,0,1,0,0)"><path fill="rgb(84,196,219)" fill-opacity="1" d=" M258.2279968261719,422.88800048828125 C258.2279968261719,422.88800048828125 258.2279968261719,373.1780090332031 258.2279968261719,373.1780090332031"></path><path stroke-linecap="round" stroke-linejoin="miter" fill-opacity="0" stroke-miterlimit="10" stroke="rgb(29,29,27)" stroke-opacity="1" stroke-width="3" d=" M258.2279968261719,422.88800048828125 C258.2279968261719,422.88800048828125 258.2279968261719,373.1780090332031 258.2279968261719,373.1780090332031"></path></g><g opacity="1" transform="matrix(1,0,0,1,281.2909851074219,351.8399963378906)"><path fill="rgb(245,203,28)" fill-opacity="1" d=" M-10.810999870300293,3.3329999446868896 C-9.972000122070312,4.485000133514404 -7.906000137329102,4.448999881744385 -6.752999782562256,5.288000106811523 C-5.611999988555908,6.118000030517578 -5.01200008392334,8.10099983215332 -3.6410000324249268,8.545999526977539 C-2.318000078201294,8.975000381469727 -0.6740000247955322,7.73799991607666 0.7919999957084656,7.73799991607666 C2.257999897003174,7.73799991607666 3.9040000438690186,8.975000381469727 5.2270002365112305,8.545999526977539 C6.5970001220703125,8.10099983215332 7.196000099182129,6.118000030517578 8.336999893188477,5.288000106811523 C9.489999771118164,4.448999881744385 11.557000160217285,4.486000061035156 12.395999908447266,3.3329999446868896 C13.22700023651123,2.191999912261963 12.559000015258789,0.2409999966621399 13.003999710083008,-1.1299999952316284 C13.116000175476074,-1.4759999513626099 13.317999839782715,-1.812000036239624 13.550999641418457,-2.1459999084472656 C7.533999919891357,-6.440999984741211 0.17299999296665192,-8.975000381469727 -7.7829999923706055,-8.975000381469727 C-9.052000045776367,-8.975000381469727 -10.307000160217285,-8.91100025177002 -11.543000221252441,-8.78600025177002 C-12.095999717712402,-7.574999809265137 -13.550999641418457,-6.459000110626221 -13.550999641418457,-5.0980000495910645 C-13.550999641418457,-3.631999969482422 -11.848999977111816,-2.453000068664551 -11.418999671936035,-1.1299999952316284 C-10.973999977111816,0.2409999966621399 -11.640999794006348,2.191999912261963 -10.810999870300293,3.3329999446868896z"></path><path stroke-linecap="round" stroke-linejoin="round" fill-opacity="0" stroke="rgb(29,29,27)" stroke-opacity="1" stroke-width="3" d=" M-10.810999870300293,3.3329999446868896 C-9.972000122070312,4.485000133514404 -7.906000137329102,4.448999881744385 -6.752999782562256,5.288000106811523 C-5.611999988555908,6.118000030517578 -5.01200008392334,8.10099983215332 -3.6410000324249268,8.545999526977539 C-2.318000078201294,8.975000381469727 -0.6740000247955322,7.73799991607666 0.7919999957084656,7.73799991607666 C2.257999897003174,7.73799991607666 3.9040000438690186,8.975000381469727 5.2270002365112305,8.545999526977539 C6.5970001220703125,8.10099983215332 7.196000099182129,6.118000030517578 8.336999893188477,5.288000106811523 C9.489999771118164,4.448999881744385 11.557000160217285,4.486000061035156 12.395999908447266,3.3329999446868896 C13.22700023651123,2.191999912261963 12.559000015258789,0.2409999966621399 13.003999710083008,-1.1299999952316284 C13.116000175476074,-1.4759999513626099 13.317999839782715,-1.812000036239624 13.550999641418457,-2.1459999084472656 C7.533999919891357,-6.440999984741211 0.17299999296665192,-8.975000381469727 -7.7829999923706055,-8.975000381469727 C-9.052000045776367,-8.975000381469727 -10.307000160217285,-8.91100025177002 -11.543000221252441,-8.78600025177002 C-12.095999717712402,-7.574999809265137 -13.550999641418457,-6.459000110626221 -13.550999641418457,-5.0980000495910645 C-13.550999641418457,-3.631999969482422 -11.848999977111816,-2.453000068664551 -11.418999671936035,-1.1299999952316284 C-10.973999977111816,0.2409999966621399 -11.640999794006348,2.191999912261963 -10.810999870300293,3.3329999446868896z"></path></g></g><g transform="matrix(1,0,0,1,-98.5,-236.92771911621094)" opacity="1" style="display: block;"><g opacity="1" transform="matrix(1,0,0,1,268.2030029296875,418.5140075683594)"><path fill="rgb(110,212,119)" fill-opacity="1" d=" M9.975000381469727,-22.281999588012695 C9.975000381469727,-22.281999588012695 9.975000381469727,22.281999588012695 9.975000381469727,22.281999588012695 C9.975000381469727,22.281999588012695 -0.22100000083446503,22.281999588012695 -0.22100000083446503,22.281999588012695 C-5.607999801635742,22.281999588012695 -9.975000381469727,17.333999633789062 -9.975000381469727,11.229000091552734 C-9.975000381469727,11.229000091552734 -9.975000381469727,-22.281999588012695 -9.975000381469727,-22.281999588012695"></path><path stroke-linecap="butt" stroke-linejoin="miter" fill-opacity="0" stroke-miterlimit="10" stroke="rgb(29,29,27)" stroke-opacity="1" stroke-width="3" d=" M9.975000381469727,-22.281999588012695 C9.975000381469727,-22.281999588012695 9.975000381469727,22.281999588012695 9.975000381469727,22.281999588012695 C9.975000381469727,22.281999588012695 -0.22100000083446503,22.281999588012695 -0.22100000083446503,22.281999588012695 C-5.607999801635742,22.281999588012695 -9.975000381469727,17.333999633789062 -9.975000381469727,11.229000091552734 C-9.975000381469727,11.229000091552734 -9.975000381469727,-22.281999588012695 -9.975000381469727,-22.281999588012695"></path></g><g opacity="1" transform="matrix(1,0,0,1,312.0780029296875,391.5450134277344)"><path fill="rgb(110,212,119)" fill-opacity="1" d=" M39.02000045776367,13.008000373840332 C39.02000045776367,13.008000373840332 39.02000045776367,5.126999855041504 39.02000045776367,5.126999855041504 C39.02000045776367,-4.888000011444092 30.900999069213867,-13.006999969482422 20.88599967956543,-13.006999969482422 C20.88599967956543,-13.006999969482422 -20.886999130249023,-13.006999969482422 -20.886999130249023,-13.006999969482422 C-30.902000427246094,-13.006999969482422 -39.02000045776367,-4.888000011444092 -39.02000045776367,5.126999855041504 C-39.02000045776367,5.126999855041504 -39.02000045776367,13.008000373840332 -39.02000045776367,13.008000373840332 C-39.02000045776367,13.008000373840332 39.02000045776367,13.008000373840332 39.02000045776367,13.008000373840332z"></path><path stroke-linecap="butt" stroke-linejoin="miter" fill-opacity="0" stroke-miterlimit="10" stroke="rgb(29,29,27)" stroke-opacity="1" stroke-width="3" d=" M39.02000045776367,13.008000373840332 C39.02000045776367,13.008000373840332 39.02000045776367,5.126999855041504 39.02000045776367,5.126999855041504 C39.02000045776367,-4.888000011444092 30.900999069213867,-13.006999969482422 20.88599967956543,-13.006999969482422 C20.88599967956543,-13.006999969482422 -20.886999130249023,-13.006999969482422 -20.886999130249023,-13.006999969482422 C-30.902000427246094,-13.006999969482422 -39.02000045776367,-4.888000011444092 -39.02000045776367,5.126999855041504 C-39.02000045776367,5.126999855041504 -39.02000045776367,13.008000373840332 -39.02000045776367,13.008000373840332 C-39.02000045776367,13.008000373840332 39.02000045776367,13.008000373840332 39.02000045776367,13.008000373840332z"></path></g><g opacity="1" transform="matrix(1,0,0,1,290.4620056152344,396.23199462890625)"><path fill="rgb(255,255,255)" fill-opacity="1" d=" M21.615999221801758,0 C21.615999221801758,11.937999725341797 11.937999725341797,21.615999221801758 0,21.615999221801758 C-11.937999725341797,21.615999221801758 -21.615999221801758,11.937999725341797 -21.615999221801758,0 C-21.615999221801758,-11.937999725341797 -11.937999725341797,-21.615999221801758 0,-21.615999221801758 C11.937999725341797,-21.615999221801758 21.615999221801758,-11.937999725341797 21.615999221801758,0z"></path><path stroke-linecap="butt" stroke-linejoin="miter" fill-opacity="0" stroke-miterlimit="10" stroke="rgb(29,29,27)" stroke-opacity="1" stroke-width="3" d=" M21.615999221801758,0 C21.615999221801758,11.937999725341797 11.937999725341797,21.615999221801758 0,21.615999221801758 C-11.937999725341797,21.615999221801758 -21.615999221801758,11.937999725341797 -21.615999221801758,0 C-21.615999221801758,-11.937999725341797 -11.937999725341797,-21.615999221801758 0,-21.615999221801758 C11.937999725341797,-21.615999221801758 21.615999221801758,-11.937999725341797 21.615999221801758,0z"></path></g><g opacity="1" transform="matrix(1,0,0,1,290.4620056152344,396.23199462890625)"><path fill="rgb(29,29,27)" fill-opacity="1" d=" M12.536999702453613,0 C12.536999702453613,6.923999786376953 6.923999786376953,12.53600025177002 0.0010000000474974513,12.53600025177002 C-6.922999858856201,12.53600025177002 -12.53600025177002,6.923999786376953 -12.53600025177002,0 C-12.53600025177002,-6.923999786376953 -6.922999858856201,-12.53600025177002 0.0010000000474974513,-12.53600025177002 C6.923999786376953,-12.53600025177002 12.536999702453613,-6.923999786376953 12.536999702453613,0z"></path><path stroke-linecap="round" stroke-linejoin="round" fill-opacity="0" stroke="rgb(29,29,27)" stroke-opacity="1" stroke-width="3" d=" M12.536999702453613,0 C12.536999702453613,6.923999786376953 6.923999786376953,12.53600025177002 0.0010000000474974513,12.53600025177002 C-6.922999858856201,12.53600025177002 -12.53600025177002,6.923999786376953 -12.53600025177002,0 C-12.53600025177002,-6.923999786376953 -6.922999858856201,-12.53600025177002 0.0010000000474974513,-12.53600025177002 C6.923999786376953,-12.53600025177002 12.536999702453613,-6.923999786376953 12.536999702453613,0z"></path></g><g opacity="1" transform="matrix(1,0,0,1,333.6940002441406,396.23199462890625)"><path fill="rgb(255,255,255)" fill-opacity="1" d=" M21.615999221801758,0 C21.615999221801758,11.937999725341797 11.937999725341797,21.615999221801758 0,21.615999221801758 C-11.937999725341797,21.615999221801758 -21.615999221801758,11.937999725341797 -21.615999221801758,0 C-21.615999221801758,-11.937999725341797 -11.937999725341797,-21.615999221801758 0,-21.615999221801758 C11.937999725341797,-21.615999221801758 21.615999221801758,-11.937999725341797 21.615999221801758,0z"></path><path stroke-linecap="butt" stroke-linejoin="miter" fill-opacity="0" stroke-miterlimit="10" stroke="rgb(29,29,27)" stroke-opacity="1" stroke-width="3" d=" M21.615999221801758,0 C21.615999221801758,11.937999725341797 11.937999725341797,21.615999221801758 0,21.615999221801758 C-11.937999725341797,21.615999221801758 -21.615999221801758,11.937999725341797 -21.615999221801758,0 C-21.615999221801758,-11.937999725341797 -11.937999725341797,-21.615999221801758 0,-21.615999221801758 C11.937999725341797,-21.615999221801758 21.615999221801758,-11.937999725341797 21.615999221801758,0z"></path></g><g opacity="1" transform="matrix(1,0,0,1,333.6940002441406,396.23199462890625)"><path fill="rgb(29,29,27)" fill-opacity="1" d=" M12.53600025177002,0 C12.53600025177002,6.923999786376953 6.922999858856201,12.53600025177002 0,12.53600025177002 C-6.923999786376953,12.53600025177002 -12.536999702453613,6.923999786376953 -12.536999702453613,0 C-12.536999702453613,-6.923999786376953 -6.923999786376953,-12.53600025177002 0,-12.53600025177002 C6.922999858856201,-12.53600025177002 12.53600025177002,-6.923999786376953 12.53600025177002,0z"></path><path stroke-linecap="round" stroke-linejoin="round" fill-opacity="0" stroke="rgb(29,29,27)" stroke-opacity="1" stroke-width="3" d=" M12.53600025177002,0 C12.53600025177002,6.923999786376953 6.922999858856201,12.53600025177002 0,12.53600025177002 C-6.923999786376953,12.53600025177002 -12.536999702453613,6.923999786376953 -12.536999702453613,0 C-12.536999702453613,-6.923999786376953 -6.923999786376953,-12.53600025177002 0,-12.53600025177002 C6.922999858856201,-12.53600025177002 12.53600025177002,-6.923999786376953 12.53600025177002,0z"></path></g><g opacity="1" transform="matrix(1,0,0,1,310.2829895019531,428.0379943847656)"><path fill="rgb(110,212,119)" fill-opacity="1" d=" M15.154000282287598,25.100000381469727 C15.154000282287598,25.100000381469727 -15.154000282287598,25.100000381469727 -15.154000282287598,25.100000381469727 C-28.334999084472656,25.100000381469727 -39.02000045776367,14.414999961853027 -39.02000045776367,1.2339999675750732 C-39.02000045776367,1.2339999675750732 -39.02000045776367,-1.2339999675750732 -39.02000045776367,-1.2339999675750732 C-39.02000045776367,-14.414999961853027 -28.334999084472656,-25.100000381469727 -15.154000282287598,-25.100000381469727 C-15.154000282287598,-25.100000381469727 15.154000282287598,-25.100000381469727 15.154000282287598,-25.100000381469727 C28.334999084472656,-25.100000381469727 39.02000045776367,-14.414999961853027 39.02000045776367,-1.2339999675750732 C39.02000045776367,-1.2339999675750732 39.02000045776367,1.2339999675750732 39.02000045776367,1.2339999675750732 C39.02000045776367,14.414999961853027 28.334999084472656,25.100000381469727 15.154000282287598,25.100000381469727z"></path><path stroke-linecap="butt" stroke-linejoin="miter" fill-opacity="0" stroke-miterlimit="10" stroke="rgb(29,29,27)" stroke-opacity="1" stroke-width="3" d=" M15.154000282287598,25.100000381469727 C15.154000282287598,25.100000381469727 -15.154000282287598,25.100000381469727 -15.154000282287598,25.100000381469727 C-28.334999084472656,25.100000381469727 -39.02000045776367,14.414999961853027 -39.02000045776367,1.2339999675750732 C-39.02000045776367,1.2339999675750732 -39.02000045776367,-1.2339999675750732 -39.02000045776367,-1.2339999675750732 C-39.02000045776367,-14.414999961853027 -28.334999084472656,-25.100000381469727 -15.154000282287598,-25.100000381469727 C-15.154000282287598,-25.100000381469727 15.154000282287598,-25.100000381469727 15.154000282287598,-25.100000381469727 C28.334999084472656,-25.100000381469727 39.02000045776367,-14.414999961853027 39.02000045776367,-1.2339999675750732 C39.02000045776367,-1.2339999675750732 39.02000045776367,1.2339999675750732 39.02000045776367,1.2339999675750732 C39.02000045776367,14.414999961853027 28.334999084472656,25.100000381469727 15.154000282287598,25.100000381469727z"></path></g><g opacity="1" transform="matrix(1,0,0,1,312.0559997558594,429.0799865722656)"><path fill="rgb(29,29,27)" fill-opacity="1" d=" M13.244999885559082,18.3439998626709 C13.244999885559082,18.3439998626709 -13.244000434875488,18.3439998626709 -13.244000434875488,18.3439998626709 C-23.305999755859375,18.3439998626709 -31.46299934387207,10.187000274658203 -31.46299934387207,0.12600000202655792 C-31.46299934387207,0.12600000202655792 -31.46299934387207,-0.12600000202655792 -31.46299934387207,-0.12600000202655792 C-31.46299934387207,-10.187999725341797 -23.305999755859375,-18.344999313354492 -13.244000434875488,-18.344999313354492 C-13.244000434875488,-18.344999313354492 13.244999885559082,-18.344999313354492 13.244999885559082,-18.344999313354492 C23.30699920654297,-18.344999313354492 31.46299934387207,-10.187999725341797 31.46299934387207,-0.12600000202655792 C31.46299934387207,-0.12600000202655792 31.46299934387207,0.12600000202655792 31.46299934387207,0.12600000202655792 C31.46299934387207,10.187000274658203 23.30699920654297,18.3439998626709 13.244999885559082,18.3439998626709z"></path><path stroke-linecap="round" stroke-linejoin="round" fill-opacity="0" stroke="rgb(29,29,27)" stroke-opacity="1" stroke-width="3" d=" M13.244999885559082,18.3439998626709 C13.244999885559082,18.3439998626709 -13.244000434875488,18.3439998626709 -13.244000434875488,18.3439998626709 C-23.305999755859375,18.3439998626709 -31.46299934387207,10.187000274658203 -31.46299934387207,0.12600000202655792 C-31.46299934387207,0.12600000202655792 -31.46299934387207,-0.12600000202655792 -31.46299934387207,-0.12600000202655792 C-31.46299934387207,-10.187999725341797 -23.305999755859375,-18.344999313354492 -13.244000434875488,-18.344999313354492 C-13.244000434875488,-18.344999313354492 13.244999885559082,-18.344999313354492 13.244999885559082,-18.344999313354492 C23.30699920654297,-18.344999313354492 31.46299934387207,-10.187999725341797 31.46299934387207,-0.12600000202655792 C31.46299934387207,-0.12600000202655792 31.46299934387207,0.12600000202655792 31.46299934387207,0.12600000202655792 C31.46299934387207,10.187000274658203 23.30699920654297,18.3439998626709 13.244999885559082,18.3439998626709z"></path></g><g opacity="1" transform="matrix(1,0,0,1,301.6260070800781,416.87298583984375)"><path fill="rgb(255,255,255)" fill-opacity="1" d=" M2.246999979019165,5.739999771118164 C2.246999979019165,5.739999771118164 -2.247999906539917,5.739999771118164 -2.247999906539917,5.739999771118164 C-3.690000057220459,5.739999771118164 -4.860000133514404,4.570000171661377 -4.860000133514404,3.127000093460083 C-4.860000133514404,3.127000093460083 -4.860000133514404,-5.739999771118164 -4.860000133514404,-5.739999771118164 C-4.860000133514404,-5.739999771118164 4.860000133514404,-5.739999771118164 4.860000133514404,-5.739999771118164 C4.860000133514404,-5.739999771118164 4.860000133514404,3.127000093460083 4.860000133514404,3.127000093460083 C4.860000133514404,4.570000171661377 3.690000057220459,5.739999771118164 2.246999979019165,5.739999771118164z"></path><path stroke-linecap="butt" stroke-linejoin="miter" fill-opacity="0" stroke-miterlimit="10" stroke="rgb(29,29,27)" stroke-opacity="1" stroke-width="3" d=" M2.246999979019165,5.739999771118164 C2.246999979019165,5.739999771118164 -2.247999906539917,5.739999771118164 -2.247999906539917,5.739999771118164 C-3.690000057220459,5.739999771118164 -4.860000133514404,4.570000171661377 -4.860000133514404,3.127000093460083 C-4.860000133514404,3.127000093460083 -4.860000133514404,-5.739999771118164 -4.860000133514404,-5.739999771118164 C-4.860000133514404,-5.739999771118164 4.860000133514404,-5.739999771118164 4.860000133514404,-5.739999771118164 C4.860000133514404,-5.739999771118164 4.860000133514404,3.127000093460083 4.860000133514404,3.127000093460083 C4.860000133514404,4.570000171661377 3.690000057220459,5.739999771118164 2.246999979019165,5.739999771118164z"></path></g><g opacity="1" transform="matrix(1,0,0,1,322.4880065917969,416.87298583984375)"><path fill="rgb(255,255,255)" fill-opacity="1" d=" M2.246999979019165,5.739999771118164 C2.246999979019165,5.739999771118164 -2.247999906539917,5.739999771118164 -2.247999906539917,5.739999771118164 C-3.690000057220459,5.739999771118164 -4.860000133514404,4.570000171661377 -4.860000133514404,3.127000093460083 C-4.860000133514404,3.127000093460083 -4.860000133514404,-5.739999771118164 -4.860000133514404,-5.739999771118164 C-4.860000133514404,-5.739999771118164 4.860000133514404,-5.739999771118164 4.860000133514404,-5.739999771118164 C4.860000133514404,-5.739999771118164 4.860000133514404,3.127000093460083 4.860000133514404,3.127000093460083 C4.860000133514404,4.570000171661377 3.690000057220459,5.739999771118164 2.246999979019165,5.739999771118164z"></path><path stroke-linecap="butt" stroke-linejoin="miter" fill-opacity="0" stroke-miterlimit="10" stroke="rgb(29,29,27)" stroke-opacity="1" stroke-width="3" d=" M2.246999979019165,5.739999771118164 C2.246999979019165,5.739999771118164 -2.247999906539917,5.739999771118164 -2.247999906539917,5.739999771118164 C-3.690000057220459,5.739999771118164 -4.860000133514404,4.570000171661377 -4.860000133514404,3.127000093460083 C-4.860000133514404,3.127000093460083 -4.860000133514404,-5.739999771118164 -4.860000133514404,-5.739999771118164 C-4.860000133514404,-5.739999771118164 4.860000133514404,-5.739999771118164 4.860000133514404,-5.739999771118164 C4.860000133514404,-5.739999771118164 4.860000133514404,3.127000093460083 4.860000133514404,3.127000093460083 C4.860000133514404,4.570000171661377 3.690000057220459,5.739999771118164 2.246999979019165,5.739999771118164z"></path></g></g><g transform="matrix(1,0,0,1,260.8770751953125,199.0359344482422)" opacity="1" style="display: block;"><g opacity="1" transform="matrix(1,0,0,1,0,0)"><path stroke-linecap="round" stroke-linejoin="miter" fill-opacity="0" stroke-miterlimit="4" stroke="rgb(29,29,27)" stroke-opacity="1" stroke-width="10" d=" M-48.4109992980957,-2.9809999465942383 C-42.8650016784668,-2.611999988555908 -42.672000885009766,3 -36.749000549316406,3 C-30.625999450683594,3 -30.625999450683594,-3 -24.503000259399414,-3 C-18.3799991607666,-3 -18.3799991607666,3 -12.256999969482422,3 C-6.132999897003174,3 -6.133999824523926,-3 -0.009999999776482582,-3 C6.111000061035156,-3 6.111000061035156,3 12.232999801635742,3 C18.356000900268555,3 18.356000900268555,-3 24.479000091552734,-3 C24.68400001525879,-3 24.881999969482422,-2.993000030517578 25.072999954223633,-2.9800000190734863"></path><path stroke-linecap="round" stroke-linejoin="miter" fill-opacity="0" stroke-miterlimit="4" stroke="rgb(245,96,185)" stroke-opacity="1" stroke-width="4" d=" M-48.4109992980957,-2.9809999465942383 C-42.8650016784668,-2.611999988555908 -42.672000885009766,3 -36.749000549316406,3 C-30.625999450683594,3 -30.625999450683594,-3 -24.503000259399414,-3 C-18.3799991607666,-3 -18.3799991607666,3 -12.256999969482422,3 C-6.132999897003174,3 -6.133999824523926,-3 -0.009999999776482582,-3 C6.111000061035156,-3 6.111000061035156,3 12.232999801635742,3 C18.356000900268555,3 18.356000900268555,-3 24.479000091552734,-3 C24.68400001525879,-3 24.881999969482422,-2.993000030517578 25.072999954223633,-2.9800000190734863"></path></g></g></g></svg>