<svg xmlns="http://www.w3.org/2000/svg" viewBox="0 0 300 300" width="300" height="300" preserveAspectRatio="xMidYMid meet" style="width: 100%; height: 100%; transform: translate3d(0px, 0px, 0px); content-visibility: visible;"><defs><clipPath id="__lottie_element_2"><rect width="300" height="300" x="0" y="0"></rect></clipPath><mask id="__lottie_element_15" mask-type="alpha"><g transform="matrix(1,0,0,1,150,151.406005859375)" opacity="1" style="display: block;"><g opacity="1" transform="matrix(1,0,0,1,-5.980999946594238,10.743000030517578)"><path fill="rgb(29,29,27)" fill-opacity="1" d=" M19.644500732421875,-10.743000030517578 C19.644500732421875,-10.743000030517578 19.644500732421875,10.743000030517578 19.644500732421875,10.743000030517578 C19.644500732421875,10.743000030517578 -19.644500732421875,10.743000030517578 -19.644500732421875,10.743000030517578 C-19.644500732421875,10.743000030517578 -19.644500732421875,-10.743000030517578 -19.644500732421875,-10.743000030517578 C-19.644500732421875,-10.743000030517578 19.644500732421875,-10.743000030517578 19.644500732421875,-10.743000030517578z"></path></g></g></mask></defs><g clip-path="url(#__lottie_element_2)"><g transform="matrix(1,0,0,1,-148,-269.593994140625)" opacity="1" style="display: block;"><g opacity="1" transform="matrix(1,0,0,1,298.11199951171875,399.3070068359375)"><path fill="rgb(255,255,255)" fill-opacity="1" d=" M28.937999725341797,-5.563000202178955 C28.937999725341797,-5.563000202178955 -28.937999725341797,-5.563000202178955 -28.937999725341797,-5.563000202178955 C-29.45800018310547,-5.563000202178955 -29.8799991607666,-5.140999794006348 -29.8799991607666,-4.620999813079834 C-29.8799991607666,-4.620999813079834 -29.8799991607666,5.563000202178955 -29.8799991607666,5.563000202178955 C-29.8799991607666,5.563000202178955 29.8799991607666,5.563000202178955 29.8799991607666,5.563000202178955 C29.8799991607666,5.563000202178955 29.8799991607666,-4.620999813079834 29.8799991607666,-4.620999813079834 C29.8799991607666,-5.140999794006348 29.45800018310547,-5.563000202178955 28.937999725341797,-5.563000202178955z"></path><path stroke-linecap="round" stroke-linejoin="round" fill-opacity="0" stroke="rgb(29,29,27)" stroke-opacity="1" stroke-width="3" d=" M28.937999725341797,-5.563000202178955 C28.937999725341797,-5.563000202178955 -28.937999725341797,-5.563000202178955 -28.937999725341797,-5.563000202178955 C-29.45800018310547,-5.563000202178955 -29.8799991607666,-5.140999794006348 -29.8799991607666,-4.620999813079834 C-29.8799991607666,-4.620999813079834 -29.8799991607666,5.563000202178955 -29.8799991607666,5.563000202178955 C-29.8799991607666,5.563000202178955 29.8799991607666,5.563000202178955 29.8799991607666,5.563000202178955 C29.8799991607666,5.563000202178955 29.8799991607666,-4.620999813079834 29.8799991607666,-4.620999813079834 C29.8799991607666,-5.140999794006348 29.45800018310547,-5.563000202178955 28.937999725341797,-5.563000202178955z"></path></g><g opacity="1" transform="matrix(1,0,0,1,298.11199951171875,426.968994140625)"><path fill="rgb(29,29,27)" fill-opacity="1" d=" M28.937999725341797,22.099000930786133 C28.937999725341797,22.099000930786133 -28.937999725341797,22.099000930786133 -28.937999725341797,22.099000930786133 C-29.45800018310547,22.099000930786133 -29.8799991607666,21.677000045776367 -29.8799991607666,21.156999588012695 C-29.8799991607666,21.156999588012695 -29.8799991607666,-22.099000930786133 -29.8799991607666,-22.099000930786133 C-29.8799991607666,-22.099000930786133 29.8799991607666,-22.099000930786133 29.8799991607666,-22.099000930786133 C29.8799991607666,-22.099000930786133 29.8799991607666,21.156999588012695 29.8799991607666,21.156999588012695 C29.8799991607666,21.677000045776367 29.45800018310547,22.099000930786133 28.937999725341797,22.099000930786133z"></path><path stroke-linecap="butt" stroke-linejoin="miter" fill-opacity="0" stroke-miterlimit="10" stroke="rgb(29,29,27)" stroke-opacity="1" stroke-width="3" d=" M28.937999725341797,22.099000930786133 C28.937999725341797,22.099000930786133 -28.937999725341797,22.099000930786133 -28.937999725341797,22.099000930786133 C-29.45800018310547,22.099000930786133 -29.8799991607666,21.677000045776367 -29.8799991607666,21.156999588012695 C-29.8799991607666,21.156999588012695 -29.8799991607666,-22.099000930786133 -29.8799991607666,-22.099000930786133 C-29.8799991607666,-22.099000930786133 29.8799991607666,-22.099000930786133 29.8799991607666,-22.099000930786133 C29.8799991607666,-22.099000930786133 29.8799991607666,21.156999588012695 29.8799991607666,21.156999588012695 C29.8799991607666,21.677000045776367 29.45800018310547,22.099000930786133 28.937999725341797,22.099000930786133z"></path></g></g><g mask="url(#__lottie_element_15)" style="display: block;"><g transform="matrix(1,0,0,1,-148,-338.1400451660156)" opacity="1"><g opacity="1" transform="matrix(1,0,0,1,0,0)"><path stroke-linecap="butt" stroke-linejoin="miter" fill-opacity="0" stroke-miterlimit="10" stroke="rgb(245,203,28)" stroke-opacity="1" stroke-width="3" d=" M275.02801513671875,480.9960021972656 C275.02801513671875,480.9960021972656 284.3739929199219,480.9960021972656 284.3739929199219,480.9960021972656"></path></g><g opacity="1" transform="matrix(1,0,0,1,0,0)"><path stroke-linecap="butt" stroke-linejoin="miter" fill-opacity="0" stroke-miterlimit="10" stroke="rgb(84,196,219)" stroke-opacity="1" stroke-width="3" d=" M288.5669860839844,480.9960021972656 C288.5669860839844,480.9960021972656 303.15399169921875,480.9960021972656 303.15399169921875,480.9960021972656"></path></g><g opacity="1" transform="matrix(1,0,0,1,0,0)"><path stroke-linecap="butt" stroke-linejoin="miter" fill-opacity="0" stroke-miterlimit="10" stroke="rgb(245,96,185)" stroke-opacity="1" stroke-width="3" d=" M275.02801513671875,488.18499755859375 C275.02801513671875,488.18499755859375 284.3739929199219,488.18499755859375 284.3739929199219,488.18499755859375"></path></g><g opacity="1" transform="matrix(1,0,0,1,0,0)"><path stroke-linecap="butt" stroke-linejoin="miter" fill-opacity="0" stroke-miterlimit="10" stroke="rgb(245,203,28)" stroke-opacity="1" stroke-width="3" d=" M288.5669860839844,488.18499755859375 C288.5669860839844,488.18499755859375 297.9129943847656,488.18499755859375 297.9129943847656,488.18499755859375"></path></g><g opacity="1" transform="matrix(1,0,0,1,0,0)"><path stroke-linecap="butt" stroke-linejoin="miter" fill-opacity="0" stroke-miterlimit="10" stroke="rgb(245,96,185)" stroke-opacity="1" stroke-width="3" d=" M275.02801513671875,495.375 C275.02801513671875,495.375 281.2300109863281,495.375 281.2300109863281,495.375"></path></g><g opacity="1" transform="matrix(1,0,0,1,0,0)"><path stroke-linecap="butt" stroke-linejoin="miter" fill-opacity="0" stroke-miterlimit="10" stroke="rgb(245,203,28)" stroke-opacity="1" stroke-width="3" d=" M285.4219970703125,495.375 C285.4219970703125,495.375 294.76800537109375,495.375 294.76800537109375,495.375"></path></g><g opacity="1" transform="matrix(1,0,0,1,0,0)"><path stroke-linecap="butt" stroke-linejoin="miter" fill-opacity="0" stroke-miterlimit="10" stroke="rgb(84,196,219)" stroke-opacity="1" stroke-width="3" d=" M298.96099853515625,495.375 C298.96099853515625,495.375 305.1629943847656,495.375 305.1629943847656,495.375"></path></g><g opacity="1" transform="matrix(1,0,0,1,0,0)"><path stroke-linecap="butt" stroke-linejoin="miter" fill-opacity="0" stroke-miterlimit="10" stroke="rgb(245,203,28)" stroke-opacity="1" stroke-width="3" d=" M275.02801513671875,502.29901123046875 C275.02801513671875,502.29901123046875 284.3739929199219,502.29901123046875 284.3739929199219,502.29901123046875"></path></g><g opacity="1" transform="matrix(1,0,0,1,0,0)"><path stroke-linecap="butt" stroke-linejoin="miter" fill-opacity="0" stroke-miterlimit="10" stroke="rgb(84,196,219)" stroke-opacity="1" stroke-width="3" d=" M288.5669860839844,502.29901123046875 C288.5669860839844,502.29901123046875 303.15399169921875,502.29901123046875 303.15399169921875,502.29901123046875"></path></g><g opacity="1" transform="matrix(1,0,0,1,0,0)"><path stroke-linecap="butt" stroke-linejoin="miter" fill-opacity="0" stroke-miterlimit="10" stroke="rgb(245,96,185)" stroke-opacity="1" stroke-width="3" d=" M275.02801513671875,509.4880065917969 C275.02801513671875,509.4880065917969 284.3739929199219,509.4880065917969 284.3739929199219,509.4880065917969"></path></g><g opacity="1" transform="matrix(1,0,0,1,0,0)"><path stroke-linecap="butt" stroke-linejoin="miter" fill-opacity="0" stroke-miterlimit="10" stroke="rgb(245,203,28)" stroke-opacity="1" stroke-width="3" d=" M288.5669860839844,509.4880065917969 C288.5669860839844,509.4880065917969 297.9129943847656,509.4880065917969 297.9129943847656,509.4880065917969"></path></g><g opacity="1" transform="matrix(1,0,0,1,0,0)"><path stroke-linecap="butt" stroke-linejoin="miter" fill-opacity="0" stroke-miterlimit="10" stroke="rgb(245,96,185)" stroke-opacity="1" stroke-width="3" d=" M275.02801513671875,516.677001953125 C275.02801513671875,516.677001953125 281.2300109863281,516.677001953125 281.2300109863281,516.677001953125"></path></g><g opacity="1" transform="matrix(1,0,0,1,0,0)"><path stroke-linecap="butt" stroke-linejoin="miter" fill-opacity="0" stroke-miterlimit="10" stroke="rgb(245,203,28)" stroke-opacity="1" stroke-width="3" d=" M285.4219970703125,516.677001953125 C285.4219970703125,516.677001953125 294.76800537109375,516.677001953125 294.76800537109375,516.677001953125"></path></g><g opacity="1" transform="matrix(1,0,0,1,0,0)"><path stroke-linecap="butt" stroke-linejoin="miter" fill-opacity="0" stroke-miterlimit="10" stroke="rgb(84,196,219)" stroke-opacity="1" stroke-width="3" d=" M298.96099853515625,516.677001953125 C298.96099853515625,516.677001953125 305.1629943847656,516.677001953125 305.1629943847656,516.677001953125"></path></g><g opacity="1" transform="matrix(1,0,0,1,0,0)"><path stroke-linecap="butt" stroke-linejoin="miter" fill-opacity="0" stroke-miterlimit="10" stroke="rgb(245,203,28)" stroke-opacity="1" stroke-width="3" d=" M275.02801513671875,523.6010131835938 C275.02801513671875,523.6010131835938 284.3739929199219,523.6010131835938 284.3739929199219,523.6010131835938"></path></g><g opacity="1" transform="matrix(1,0,0,1,0,0)"><path stroke-linecap="butt" stroke-linejoin="miter" fill-opacity="0" stroke-miterlimit="10" stroke="rgb(84,196,219)" stroke-opacity="1" stroke-width="3" d=" M288.5669860839844,523.6010131835938 C288.5669860839844,523.6010131835938 303.15399169921875,523.6010131835938 303.15399169921875,523.6010131835938"></path></g><g opacity="1" transform="matrix(1,0,0,1,0,0)"><path stroke-linecap="butt" stroke-linejoin="miter" fill-opacity="0" stroke-miterlimit="10" stroke="rgb(245,96,185)" stroke-opacity="1" stroke-width="3" d=" M275.02801513671875,530.791015625 C275.02801513671875,530.791015625 284.3739929199219,530.791015625 284.3739929199219,530.791015625"></path></g><g opacity="1" transform="matrix(1,0,0,1,0,0)"><path stroke-linecap="butt" stroke-linejoin="miter" fill-opacity="0" stroke-miterlimit="10" stroke="rgb(245,203,28)" stroke-opacity="1" stroke-width="3" d=" M288.5669860839844,530.791015625 C288.5669860839844,530.791015625 297.9129943847656,530.791015625 297.9129943847656,530.791015625"></path></g><g opacity="1" transform="matrix(1,0,0,1,0,0)"><path stroke-linecap="butt" stroke-linejoin="miter" fill-opacity="0" stroke-miterlimit="10" stroke="rgb(245,96,185)" stroke-opacity="1" stroke-width="3" d=" M275.02801513671875,537.97998046875 C275.02801513671875,537.97998046875 281.2300109863281,537.97998046875 281.2300109863281,537.97998046875"></path></g><g opacity="1" transform="matrix(1,0,0,1,0,0)"><path stroke-linecap="butt" stroke-linejoin="miter" fill-opacity="0" stroke-miterlimit="10" stroke="rgb(245,203,28)" stroke-opacity="1" stroke-width="3" d=" M285.4219970703125,537.97998046875 C285.4219970703125,537.97998046875 294.76800537109375,537.97998046875 294.76800537109375,537.97998046875"></path></g><g opacity="1" transform="matrix(1,0,0,1,0,0)"><path stroke-linecap="butt" stroke-linejoin="miter" fill-opacity="0" stroke-miterlimit="10" stroke="rgb(84,196,219)" stroke-opacity="1" stroke-width="3" d=" M298.96099853515625,537.97998046875 C298.96099853515625,537.97998046875 305.1629943847656,537.97998046875 305.1629943847656,537.97998046875"></path></g><g opacity="1" transform="matrix(1,0,0,1,0,0)"><path stroke-linecap="butt" stroke-linejoin="miter" fill-opacity="0" stroke-miterlimit="10" stroke="rgb(245,203,28)" stroke-opacity="1" stroke-width="3" d=" M275.02801513671875,544.9039916992188 C275.02801513671875,544.9039916992188 284.3739929199219,544.9039916992188 284.3739929199219,544.9039916992188"></path></g><g opacity="1" transform="matrix(1,0,0,1,0,0)"><path stroke-linecap="butt" stroke-linejoin="miter" fill-opacity="0" stroke-miterlimit="10" stroke="rgb(84,196,219)" stroke-opacity="1" stroke-width="3" d=" M288.5669860839844,544.9039916992188 C288.5669860839844,544.9039916992188 303.15399169921875,544.9039916992188 303.15399169921875,544.9039916992188"></path></g><g opacity="1" transform="matrix(1,0,0,1,0,0)"><path stroke-linecap="butt" stroke-linejoin="miter" fill-opacity="0" stroke-miterlimit="10" stroke="rgb(245,96,185)" stroke-opacity="1" stroke-width="3" d=" M275.02801513671875,552.093994140625 C275.02801513671875,552.093994140625 284.3739929199219,552.093994140625 284.3739929199219,552.093994140625"></path></g><g opacity="1" transform="matrix(1,0,0,1,0,0)"><path stroke-linecap="butt" stroke-linejoin="miter" fill-opacity="0" stroke-miterlimit="10" stroke="rgb(245,203,28)" stroke-opacity="1" stroke-width="3" d=" M288.5669860839844,552.093994140625 C288.5669860839844,552.093994140625 297.9129943847656,552.093994140625 297.9129943847656,552.093994140625"></path></g><g opacity="1" transform="matrix(1,0,0,1,0,0)"><path stroke-linecap="butt" stroke-linejoin="miter" fill-opacity="0" stroke-miterlimit="10" stroke="rgb(245,96,185)" stroke-opacity="1" stroke-width="3" d=" M275.02801513671875,559.2830200195312 C275.02801513671875,559.2830200195312 281.2300109863281,559.2830200195312 281.2300109863281,559.2830200195312"></path></g><g opacity="1" transform="matrix(1,0,0,1,0,0)"><path stroke-linecap="butt" stroke-linejoin="miter" fill-opacity="0" stroke-miterlimit="10" stroke="rgb(245,203,28)" stroke-opacity="1" stroke-width="3" d=" M285.4219970703125,559.2830200195312 C285.4219970703125,559.2830200195312 294.76800537109375,559.2830200195312 294.76800537109375,559.2830200195312"></path></g><g opacity="1" transform="matrix(1,0,0,1,0,0)"><path stroke-linecap="butt" stroke-linejoin="miter" fill-opacity="0" stroke-miterlimit="10" stroke="rgb(84,196,219)" stroke-opacity="1" stroke-width="3" d=" M298.96099853515625,559.2830200195312 C298.96099853515625,559.2830200195312 305.1629943847656,559.2830200195312 305.1629943847656,559.2830200195312"></path></g></g></g><g transform="matrix(1,0,0,1,148.125,151.531005859375)" opacity="1" style="display: block;"><g opacity="1" transform="matrix(1,0,0,1,11.833000183105469,-13.416999816894531)"><path fill="rgb(255,255,255)" fill-opacity="1" d=" M0,-9.5 C5.2430500984191895,-9.5 9.5,-5.2430500984191895 9.5,0 C9.5,5.2430500984191895 5.2430500984191895,9.5 0,9.5 C-5.2430500984191895,9.5 -9.5,5.2430500984191895 -9.5,0 C-9.5,-5.2430500984191895 -5.2430500984191895,-9.5 0,-9.5z"></path><path stroke-linecap="butt" stroke-linejoin="miter" fill-opacity="0" stroke-miterlimit="4" stroke="rgb(29,29,27)" stroke-opacity="1" stroke-width="3" d=" M0,-9.5 C5.2430500984191895,-9.5 9.5,-5.2430500984191895 9.5,0 C9.5,5.2430500984191895 5.2430500984191895,9.5 0,9.5 C-5.2430500984191895,9.5 -9.5,5.2430500984191895 -9.5,0 C-9.5,-5.2430500984191895 -5.2430500984191895,-9.5 0,-9.5z"></path></g></g><g transform="matrix(0.5199999809265137,0,0,0.5199999809265137,153.80484008789062,145.09083557128906)" opacity="1" style="display: block;"><g opacity="1" transform="matrix(1,0,0,1,11.833000183105469,-13.416999816894531)"><path fill="rgb(29,29,27)" fill-opacity="1" d=" M0,-9.5 C5.2430500984191895,-9.5 9.5,-5.2430500984191895 9.5,0 C9.5,5.2430500984191895 5.2430500984191895,9.5 0,9.5 C-5.2430500984191895,9.5 -9.5,5.2430500984191895 -9.5,0 C-9.5,-5.2430500984191895 -5.2430500984191895,-9.5 0,-9.5z"></path></g></g><g transform="matrix(1,0,0,1,128.875,151.531005859375)" opacity="1" style="display: block;"><g opacity="1" transform="matrix(1,0,0,1,11.833000183105469,-13.416999816894531)"><path fill="rgb(255,255,255)" fill-opacity="1" d=" M0,-9.5 C5.2430500984191895,-9.5 9.5,-5.2430500984191895 9.5,0 C9.5,5.2430500984191895 5.2430500984191895,9.5 0,9.5 C-5.2430500984191895,9.5 -9.5,5.2430500984191895 -9.5,0 C-9.5,-5.2430500984191895 -5.2430500984191895,-9.5 0,-9.5z"></path><path stroke-linecap="butt" stroke-linejoin="miter" fill-opacity="0" stroke-miterlimit="4" stroke="rgb(29,29,27)" stroke-opacity="1" stroke-width="3" d=" M0,-9.5 C5.2430500984191895,-9.5 9.5,-5.2430500984191895 9.5,0 C9.5,5.2430500984191895 5.2430500984191895,9.5 0,9.5 C-5.2430500984191895,9.5 -9.5,5.2430500984191895 -9.5,0 C-9.5,-5.2430500984191895 -5.2430500984191895,-9.5 0,-9.5z"></path></g></g><g transform="matrix(0.5199999809265137,0,0,0.5199999809265137,134.554443359375,145.09083557128906)" opacity="1" style="display: block;"><g opacity="1" transform="matrix(1,0,0,1,11.833000183105469,-13.416999816894531)"><path fill="rgb(29,29,27)" fill-opacity="1" d=" M0,-9.5 C5.2430500984191895,-9.5 9.5,-5.2430500984191895 9.5,0 C9.5,5.2430500984191895 5.2430500984191895,9.5 0,9.5 C-5.2430500984191895,9.5 -9.5,5.2430500984191895 -9.5,0 C-9.5,-5.2430500984191895 -5.2430500984191895,-9.5 0,-9.5z"></path></g></g></g></svg>