<svg xmlns="http://www.w3.org/2000/svg" viewBox="0 0 384 392" width="384" height="392" preserveAspectRatio="xMidYMid meet" style="width: 100%; height: 100%; transform: translate3d(0px, 0px, 0px); content-visibility: visible;" data-lottie-id="lottie-store-tv-eftbSS"><defs><clipPath id="__lottie_element_427"><rect width="384" height="392" x="0" y="0"></rect></clipPath></defs><g clip-path="url(#__lottie_element_427)"><g transform="matrix(1,0,0,1,191,196)" opacity="1" style="display: block;"><g opacity="1" transform="matrix(1,0,0,1,0,0)"><path stroke-linecap="round" stroke-linejoin="round" fill-opacity="0" stroke="rgb(29,29,27)" stroke-opacity="1" stroke-width="18" d=" M4.875,74 C4.875,74 0.8452418446540833,96.25 0.8452418446540833,96.25 C0.8452418446540833,96.25 4.875,130 4.875,130 C4.875,130 -5.625,130 -5.625,130"></path><path stroke-linecap="round" stroke-linejoin="round" fill-opacity="0" stroke="rgb(216,216,216)" stroke-opacity="1" stroke-width="12" d=" M4.875,74 C4.875,74 0.8452418446540833,96.25 0.8452418446540833,96.25 C0.8452418446540833,96.25 4.875,130 4.875,130 C4.875,130 -5.625,130 -5.625,130"></path></g></g><g transform="matrix(1,0,0,1,156,196)" opacity="1" style="display: block;"><g opacity="1" transform="matrix(1,0,0,1,0,0)"><path stroke-linecap="round" stroke-linejoin="round" fill-opacity="0" stroke="rgb(29,29,27)" stroke-opacity="1" stroke-width="18" d=" M4.875,74 C4.875,74 0.8452418446540833,96.25 0.8452418446540833,96.25 C0.8452418446540833,96.25 4.875,130 4.875,130 C4.875,130 -5.625,130 -5.625,130"></path><path stroke-linecap="round" stroke-linejoin="round" fill-opacity="0" stroke="rgb(216,216,216)" stroke-opacity="1" stroke-width="12" d=" M4.875,74 C4.875,74 0.8452418446540833,96.25 0.8452418446540833,96.25 C0.8452418446540833,96.25 4.875,130 4.875,130 C4.875,130 -5.625,130 -5.625,130"></path></g></g><g transform="matrix(1,0,0,1,-112.99998474121094,-137.27537536621094)" opacity="1" style="display: block;"><g opacity="1" transform="matrix(1,0,0,1,279.00799560546875,336.7229919433594)"><path fill="rgb(216,216,216)" fill-opacity="1" d=" M-85.13800048828125,-80 C-85.13800048828125,-80 85.13800048828125,-80 85.13800048828125,-80 C85.13800048828125,-80 85.13800048828125,80 85.13800048828125,80 C85.13800048828125,80 -85.13800048828125,80 -85.13800048828125,80 C-85.13800048828125,80 -85.13800048828125,-80 -85.13800048828125,-80z"></path><path stroke-linecap="butt" stroke-linejoin="miter" fill-opacity="0" stroke-miterlimit="10" stroke="rgb(29,29,27)" stroke-opacity="1" stroke-width="3" d=" M-85.13800048828125,-80 C-85.13800048828125,-80 85.13800048828125,-80 85.13800048828125,-80 C85.13800048828125,-80 85.13800048828125,80 85.13800048828125,80 C85.13800048828125,80 -85.13800048828125,80 -85.13800048828125,80 C-85.13800048828125,80 -85.13800048828125,-80 -85.13800048828125,-80z"></path></g><g opacity="1" transform="matrix(1,0,0,1,381.25299072265625,336.7229919433594)"><path fill="rgb(216,216,216)" fill-opacity="1" d=" M-17.10700035095215,80 C-17.10700035095215,80 17.10700035095215,80 17.10700035095215,80 C17.10700035095215,80 17.10700035095215,-80 17.10700035095215,-80 C17.10700035095215,-80 -17.10700035095215,-80 -17.10700035095215,-80 C-17.10700035095215,-80 -17.10700035095215,80 -17.10700035095215,80z"></path><path stroke-linecap="butt" stroke-linejoin="miter" fill-opacity="0" stroke-miterlimit="10" stroke="rgb(29,29,27)" stroke-opacity="1" stroke-width="3" d=" M-17.10700035095215,80 C-17.10700035095215,80 17.10700035095215,80 17.10700035095215,80 C17.10700035095215,80 17.10700035095215,-80 17.10700035095215,-80 C17.10700035095215,-80 -17.10700035095215,-80 -17.10700035095215,-80 C-17.10700035095215,-80 -17.10700035095215,80 -17.10700035095215,80z"></path></g><g opacity="1" transform="matrix(1,0,0,1,215.00799560546875,336.7229919433594)"><path fill="rgb(29,29,27)" fill-opacity="1" d=" M-5.138000011444092,64 C-5.138000011444092,64 5.138000011444092,64 5.138000011444092,64 C5.138000011444092,64 5.138000011444092,-64 5.138000011444092,-64 C5.138000011444092,-64 -5.138000011444092,-64 -5.138000011444092,-64 C-5.138000011444092,-64 -5.138000011444092,64 -5.138000011444092,64z"></path><path stroke-linecap="round" stroke-linejoin="round" fill-opacity="0" stroke="rgb(29,29,27)" stroke-opacity="1" stroke-width="3" d=" M-5.138000011444092,64 C-5.138000011444092,64 5.138000011444092,64 5.138000011444092,64 C5.138000011444092,64 5.138000011444092,-64 5.138000011444092,-64 C5.138000011444092,-64 -5.138000011444092,-64 -5.138000011444092,-64 C-5.138000011444092,-64 -5.138000011444092,64 -5.138000011444092,64z"></path></g><g opacity="1" transform="matrix(1,0,0,1,415.4670104980469,336.7229919433594)"><path fill="rgb(216,216,216)" fill-opacity="1" d=" M-17.10700035095215,-55.856998443603516 C-17.10700035095215,-55.856998443603516 -17.10700035095215,55.856998443603516 -17.10700035095215,55.856998443603516 C-17.10700035095215,55.856998443603516 17.10700035095215,45.85599899291992 17.10700035095215,45.85599899291992 C17.10700035095215,45.85599899291992 17.10700035095215,-45.85599899291992 17.10700035095215,-45.85599899291992 C17.10700035095215,-45.85599899291992 -17.10700035095215,-55.856998443603516 -17.10700035095215,-55.856998443603516z"></path><path stroke-linecap="butt" stroke-linejoin="miter" fill-opacity="0" stroke-miterlimit="10" stroke="rgb(29,29,27)" stroke-opacity="1" stroke-width="3" d=" M-17.10700035095215,-55.856998443603516 C-17.10700035095215,-55.856998443603516 -17.10700035095215,55.856998443603516 -17.10700035095215,55.856998443603516 C-17.10700035095215,55.856998443603516 17.10700035095215,45.85599899291992 17.10700035095215,45.85599899291992 C17.10700035095215,45.85599899291992 17.10700035095215,-45.85599899291992 17.10700035095215,-45.85599899291992 C17.10700035095215,-45.85599899291992 -17.10700035095215,-55.856998443603516 -17.10700035095215,-55.856998443603516z"></path></g><g opacity="1" transform="matrix(1,0,0,1,415.3609924316406,305.6759948730469)"><path fill="rgb(29,29,27)" fill-opacity="1" d=" M4.706999778747559,2.361999988555908 C4.706999778747559,2.361999988555908 4.706999778747559,-0.6850000023841858 4.706999778747559,-0.6850000023841858 C4.706999778747559,-0.6850000023841858 -4.706999778747559,-2.361999988555908 -4.706999778747559,-2.361999988555908 C-4.706999778747559,-2.361999988555908 -4.706999778747559,0.6850000023841858 -4.706999778747559,0.6850000023841858 C-4.706999778747559,0.6850000023841858 4.706999778747559,2.361999988555908 4.706999778747559,2.361999988555908z"></path></g><g opacity="1" transform="matrix(1,0,0,1,415.3609924316406,318.0950012207031)"><path fill="rgb(29,29,27)" fill-opacity="1" d=" M-4.706999778747559,1.0049999952316284 C-4.706999778747559,1.0049999952316284 4.705999851226807,2.010999917984009 4.705999851226807,2.010999917984009 C4.705999851226807,2.010999917984009 4.705999851226807,-1.0049999952316284 4.705999851226807,-1.0049999952316284 C4.705999851226807,-1.0049999952316284 -4.706999778747559,-2.010999917984009 -4.706999778747559,-2.010999917984009 C-4.706999778747559,-2.010999917984009 -4.706999778747559,1.0049999952316284 -4.706999778747559,1.0049999952316284z"></path></g><g opacity="1" transform="matrix(1,0,0,1,415.3609924316406,330.5140075683594)"><path fill="rgb(29,29,27)" fill-opacity="1" d=" M-4.706999778747559,1.3329999446868896 C-4.706999778747559,1.3329999446868896 4.705999851226807,1.6679999828338623 4.705999851226807,1.6679999828338623 C4.705999851226807,1.6679999828338623 4.705999851226807,-1.3329999446868896 4.705999851226807,-1.3329999446868896 C4.705999851226807,-1.3329999446868896 -4.706999778747559,-1.6690000295639038 -4.706999778747559,-1.6690000295639038 C-4.706999778747559,-1.6690000295639038 -4.706999778747559,1.3329999446868896 -4.706999778747559,1.3329999446868896z"></path></g><g opacity="1" transform="matrix(1,0,0,1,415.3609924316406,342.9330139160156)"><path fill="rgb(29,29,27)" fill-opacity="1" d=" M-4.706999778747559,1.6690000295639038 C-4.706999778747559,1.6690000295639038 4.705999851226807,1.3329999446868896 4.705999851226807,1.3329999446868896 C4.705999851226807,1.3329999446868896 4.705999851226807,-1.6690000295639038 4.705999851226807,-1.6690000295639038 C4.705999851226807,-1.6690000295639038 -4.706999778747559,-1.3329999446868896 -4.706999778747559,-1.3329999446868896 C-4.706999778747559,-1.3329999446868896 -4.706999778747559,1.6690000295639038 -4.706999778747559,1.6690000295639038z"></path></g><g opacity="1" transform="matrix(1,0,0,1,415.3609924316406,355.35198974609375)"><path fill="rgb(29,29,27)" fill-opacity="1" d=" M-4.706999778747559,2.010999917984009 C-4.706999778747559,2.010999917984009 4.705999851226807,1.0049999952316284 4.705999851226807,1.0049999952316284 C4.705999851226807,1.0049999952316284 4.705999851226807,-2.010999917984009 4.705999851226807,-2.010999917984009 C4.705999851226807,-2.010999917984009 -4.706999778747559,-1.0049999952316284 -4.706999778747559,-1.0049999952316284 C-4.706999778747559,-1.0049999952316284 -4.706999778747559,2.010999917984009 -4.706999778747559,2.010999917984009z"></path></g><g opacity="1" transform="matrix(1,0,0,1,415.3609924316406,367.77099609375)"><path fill="rgb(29,29,27)" fill-opacity="1" d=" M-4.706999778747559,-0.6850000023841858 C-4.706999778747559,-0.6850000023841858 -4.706999778747559,2.361999988555908 -4.706999778747559,2.361999988555908 C-4.706999778747559,2.361999988555908 4.705999851226807,0.6850000023841858 4.705999851226807,0.6850000023841858 C4.705999851226807,0.6850000023841858 4.705999851226807,-2.361999988555908 4.705999851226807,-2.361999988555908 C4.705999851226807,-2.361999988555908 -4.706999778747559,-0.6850000023841858 -4.706999778747559,-0.6850000023841858z"></path></g></g><g transform="matrix(1,0,0,1,-112.99998474121094,-137.27537536621094)" opacity="1" style="display: block;"><g opacity="1" transform="matrix(1,0,0,1,284.14599609375,336.7229919433594)"><path fill="rgb(255,255,255)" fill-opacity="1" d=" M64,64 C64,64 -64,64 -64,64 C-64,64 -64,-64 -64,-64 C-64,-64 64,-64 64,-64 C64,-64 64,64 64,64z"></path></g><g opacity="1" transform="matrix(1,0,0,1,284.82000732421875,340.17401123046875)"><path fill="rgb(29,29,27)" fill-opacity="1" d=" M35.64799880981445,5.328999996185303 C35.64799880981445,5.328999996185303 -35.64799880981445,5.328999996185303 -35.64799880981445,5.328999996185303 C-35.64799880981445,5.328999996185303 -35.64799880981445,-5.328000068664551 -35.64799880981445,-5.328000068664551 C-35.64799880981445,-5.328000068664551 35.64799880981445,-5.328000068664551 35.64799880981445,-5.328000068664551 C35.64799880981445,-5.328000068664551 35.64799880981445,5.328999996185303 35.64799880981445,5.328999996185303z"></path></g><g opacity="1" transform="matrix(1,0,0,1,242.3679962158203,324.1889953613281)"><path fill="rgb(29,29,27)" fill-opacity="1" d=" M21.06399917602539,10.656999588012695 C21.06399917602539,10.656999588012695 -21.06399917602539,10.656999588012695 -21.06399917602539,10.656999588012695 C-21.06399917602539,10.656999588012695 -21.06399917602539,-10.656999588012695 -21.06399917602539,-10.656999588012695 C-21.06399917602539,-10.656999588012695 21.06399917602539,-10.656999588012695 21.06399917602539,-10.656999588012695 C21.06399917602539,-10.656999588012695 21.06399917602539,10.656999588012695 21.06399917602539,10.656999588012695z"></path></g><g opacity="1" transform="matrix(1,0,0,1,263.57000732421875,395.3320007324219)"><path fill="rgb(127,127,127)" fill-opacity="1" d=" M-42.268001556396484,-5.328000068664551 C-42.268001556396484,-5.328000068664551 42.266998291015625,-5.328000068664551 42.266998291015625,-5.328000068664551 C42.266998291015625,-5.328000068664551 42.266998291015625,5.328000068664551 42.266998291015625,5.328000068664551 C42.266998291015625,5.328000068664551 -42.268001556396484,5.328000068664551 -42.268001556396484,5.328000068664551 C-42.268001556396484,5.328000068664551 -42.268001556396484,-5.328000068664551 -42.268001556396484,-5.328000068664551z"></path></g><g opacity="1" transform="matrix(1,0,0,1,263.57000732421875,384.67401123046875)"><path fill="rgb(127,127,127)" fill-opacity="1" d=" M-42.268001556396484,-5.328000068664551 C-42.268001556396484,-5.328000068664551 42.266998291015625,-5.328000068664551 42.266998291015625,-5.328000068664551 C42.266998291015625,-5.328000068664551 42.266998291015625,5.328999996185303 42.266998291015625,5.328999996185303 C42.266998291015625,5.328999996185303 -42.268001556396484,5.328999996185303 -42.268001556396484,5.328999996185303 C-42.268001556396484,5.328999996185303 -42.268001556396484,-5.328000068664551 -42.268001556396484,-5.328000068664551z"></path></g><g opacity="1" transform="matrix(1,0,0,1,284.635009765625,324.1889953613281)"><path fill="rgb(62,62,62)" fill-opacity="1" d=" M21.202999114990234,10.656999588012695 C21.202999114990234,10.656999588012695 -21.202999114990234,10.656999588012695 -21.202999114990234,10.656999588012695 C-21.202999114990234,10.656999588012695 -21.202999114990234,-10.656999588012695 -21.202999114990234,-10.656999588012695 C-21.202999114990234,-10.656999588012695 21.202999114990234,-10.656999588012695 21.202999114990234,-10.656999588012695 C21.202999114990234,-10.656999588012695 21.202999114990234,10.656999588012695 21.202999114990234,10.656999588012695z"></path></g><g opacity="1" transform="matrix(1,0,0,1,326.68701171875,390.00299072265625)"><path fill="rgb(94,94,94)" fill-opacity="1" d=" M20.736000061035156,10.656999588012695 C20.736000061035156,10.656999588012695 -20.73699951171875,10.656999588012695 -20.73699951171875,10.656999588012695 C-20.73699951171875,10.656999588012695 -20.73699951171875,-10.656999588012695 -20.73699951171875,-10.656999588012695 C-20.73699951171875,-10.656999588012695 20.736000061035156,-10.656999588012695 20.736000061035156,-10.656999588012695 C20.736000061035156,-10.656999588012695 20.736000061035156,10.656999588012695 20.736000061035156,10.656999588012695z"></path></g><g opacity="1" transform="matrix(1,0,0,1,327.0419921875,324.1889953613281)"><path fill="rgb(127,127,127)" fill-opacity="1" d=" M21.202999114990234,10.656999588012695 C21.202999114990234,10.656999588012695 -21.202999114990234,10.656999588012695 -21.202999114990234,10.656999588012695 C-21.202999114990234,10.656999588012695 -21.202999114990234,-10.656999588012695 -21.202999114990234,-10.656999588012695 C-21.202999114990234,-10.656999588012695 21.202999114990234,-10.656999588012695 21.202999114990234,-10.656999588012695 C21.202999114990234,-10.656999588012695 21.202999114990234,10.656999588012695 21.202999114990234,10.656999588012695z"></path></g><g opacity="1" transform="matrix(1,0,0,1,231.9600067138672,293.12799072265625)"><path fill="rgb(190,190,190)" fill-opacity="1" d=" M10.656999588012695,20.40399932861328 C10.656999588012695,20.40399932861328 -10.656999588012695,20.40399932861328 -10.656999588012695,20.40399932861328 C-10.656999588012695,20.40399932861328 -10.656999588012695,-20.40399932861328 -10.656999588012695,-20.40399932861328 C-10.656999588012695,-20.40399932861328 10.656999588012695,-20.40399932861328 10.656999588012695,-20.40399932861328 C10.656999588012695,-20.40399932861328 10.656999588012695,20.40399932861328 10.656999588012695,20.40399932861328z"></path></g><g opacity="1" transform="matrix(1,0,0,1,253.05299377441406,293.12799072265625)"><path fill="rgb(245,203,28)" fill-opacity="1" d=" M10.656999588012695,20.40399932861328 C10.656999588012695,20.40399932861328 -10.656999588012695,20.40399932861328 -10.656999588012695,20.40399932861328 C-10.656999588012695,20.40399932861328 -10.656999588012695,-20.40399932861328 -10.656999588012695,-20.40399932861328 C-10.656999588012695,-20.40399932861328 10.656999588012695,-20.40399932861328 10.656999588012695,-20.40399932861328 C10.656999588012695,-20.40399932861328 10.656999588012695,20.40399932861328 10.656999588012695,20.40399932861328z"></path></g><g opacity="1" transform="matrix(1,0,0,1,274.0889892578125,293.12799072265625)"><path fill="rgb(84,196,219)" fill-opacity="1" d=" M10.656999588012695,20.40399932861328 C10.656999588012695,20.40399932861328 -10.656999588012695,20.40399932861328 -10.656999588012695,20.40399932861328 C-10.656999588012695,20.40399932861328 -10.656999588012695,-20.40399932861328 -10.656999588012695,-20.40399932861328 C-10.656999588012695,-20.40399932861328 10.656999588012695,-20.40399932861328 10.656999588012695,-20.40399932861328 C10.656999588012695,-20.40399932861328 10.656999588012695,20.40399932861328 10.656999588012695,20.40399932861328z"></path></g><g opacity="1" transform="matrix(1,0,0,1,295.1809997558594,293.12799072265625)"><path fill="rgb(110,212,119)" fill-opacity="1" d=" M10.656999588012695,20.40399932861328 C10.656999588012695,20.40399932861328 -10.656999588012695,20.40399932861328 -10.656999588012695,20.40399932861328 C-10.656999588012695,20.40399932861328 -10.656999588012695,-20.40399932861328 -10.656999588012695,-20.40399932861328 C-10.656999588012695,-20.40399932861328 10.656999588012695,-20.40399932861328 10.656999588012695,-20.40399932861328 C10.656999588012695,-20.40399932861328 10.656999588012695,20.40399932861328 10.656999588012695,20.40399932861328z"></path></g><g opacity="1" transform="matrix(1,0,0,1,316.4960021972656,293.12799072265625)"><path fill="rgb(245,96,185)" fill-opacity="1" d=" M10.656999588012695,20.40399932861328 C10.656999588012695,20.40399932861328 -10.656999588012695,20.40399932861328 -10.656999588012695,20.40399932861328 C-10.656999588012695,20.40399932861328 -10.656999588012695,-20.40399932861328 -10.656999588012695,-20.40399932861328 C-10.656999588012695,-20.40399932861328 10.656999588012695,-20.40399932861328 10.656999588012695,-20.40399932861328 C10.656999588012695,-20.40399932861328 10.656999588012695,20.40399932861328 10.656999588012695,20.40399932861328z"></path></g><g opacity="1" transform="matrix(1,0,0,1,337.5880126953125,293.12799072265625)"><path fill="rgb(252,39,85)" fill-opacity="1" d=" M10.656999588012695,20.40399932861328 C10.656999588012695,20.40399932861328 -10.656999588012695,20.40399932861328 -10.656999588012695,20.40399932861328 C-10.656999588012695,20.40399932861328 -10.656999588012695,-20.40399932861328 -10.656999588012695,-20.40399932861328 C-10.656999588012695,-20.40399932861328 10.656999588012695,-20.40399932861328 10.656999588012695,-20.40399932861328 C10.656999588012695,-20.40399932861328 10.656999588012695,20.40399932861328 10.656999588012695,20.40399932861328z"></path></g><g opacity="1" transform="matrix(1,0,0,1,240.38499450683594,353.34100341796875)"><path fill="rgb(0,0,0)" fill-opacity="1" d=" M1.9819999933242798,8.048999786376953 C1.9819999933242798,8.048999786376953 -1.9809999465942383,8.048999786376953 -1.9809999465942383,8.048999786376953 C-1.9809999465942383,8.048999786376953 -1.9809999465942383,-8.048999786376953 -1.9809999465942383,-8.048999786376953 C-1.9809999465942383,-8.048999786376953 1.9819999933242798,-8.048999786376953 1.9819999933242798,-8.048999786376953 C1.9819999933242798,-8.048999786376953 1.9819999933242798,8.048999786376953 1.9819999933242798,8.048999786376953z"></path></g><g opacity="1" transform="matrix(1,0,0,1,248.31199645996094,353.34100341796875)"><path fill="rgb(0,0,0)" fill-opacity="1" d=" M1.9819999933242798,8.048999786376953 C1.9819999933242798,8.048999786376953 -1.9809999465942383,8.048999786376953 -1.9809999465942383,8.048999786376953 C-1.9809999465942383,8.048999786376953 -1.9809999465942383,-8.048999786376953 -1.9809999465942383,-8.048999786376953 C-1.9809999465942383,-8.048999786376953 1.9819999933242798,-8.048999786376953 1.9819999933242798,-8.048999786376953 C1.9819999933242798,-8.048999786376953 1.9819999933242798,8.048999786376953 1.9819999933242798,8.048999786376953z"></path></g><g opacity="1" transform="matrix(1,0,0,1,256.239990234375,353.34100341796875)"><path fill="rgb(0,0,0)" fill-opacity="1" d=" M1.9819999933242798,8.048999786376953 C1.9819999933242798,8.048999786376953 -1.9809999465942383,8.048999786376953 -1.9809999465942383,8.048999786376953 C-1.9809999465942383,8.048999786376953 -1.9809999465942383,-8.048999786376953 -1.9809999465942383,-8.048999786376953 C-1.9809999465942383,-8.048999786376953 1.9819999933242798,-8.048999786376953 1.9819999933242798,-8.048999786376953 C1.9819999933242798,-8.048999786376953 1.9819999933242798,8.048999786376953 1.9819999933242798,8.048999786376953z"></path></g><g opacity="1" transform="matrix(1,0,0,1,264.1650085449219,353.34100341796875)"><path fill="rgb(0,0,0)" fill-opacity="1" d=" M1.9819999933242798,8.048999786376953 C1.9819999933242798,8.048999786376953 -1.9819999933242798,8.048999786376953 -1.9819999933242798,8.048999786376953 C-1.9819999933242798,8.048999786376953 -1.9819999933242798,-8.048999786376953 -1.9819999933242798,-8.048999786376953 C-1.9819999933242798,-8.048999786376953 1.9819999933242798,-8.048999786376953 1.9819999933242798,-8.048999786376953 C1.9819999933242798,-8.048999786376953 1.9819999933242798,8.048999786376953 1.9819999933242798,8.048999786376953z"></path></g><g opacity="1" transform="matrix(1,0,0,1,271.10101318359375,353.34100341796875)"><path fill="rgb(0,0,0)" fill-opacity="1" d=" M0.9909999966621399,8.048999786376953 C0.9909999966621399,8.048999786376953 -0.9909999966621399,8.048999786376953 -0.9909999966621399,8.048999786376953 C-0.9909999966621399,8.048999786376953 -0.9909999966621399,-8.048999786376953 -0.9909999966621399,-8.048999786376953 C-0.9909999966621399,-8.048999786376953 0.9909999966621399,-8.048999786376953 0.9909999966621399,-8.048999786376953 C0.9909999966621399,-8.048999786376953 0.9909999966621399,8.048999786376953 0.9909999966621399,8.048999786376953z"></path></g><g opacity="1" transform="matrix(1,0,0,1,275.7250061035156,353.34100341796875)"><path fill="rgb(0,0,0)" fill-opacity="1" d=" M0.9909999966621399,8.048999786376953 C0.9909999966621399,8.048999786376953 -0.9909999966621399,8.048999786376953 -0.9909999966621399,8.048999786376953 C-0.9909999966621399,8.048999786376953 -0.9909999966621399,-8.048999786376953 -0.9909999966621399,-8.048999786376953 C-0.9909999966621399,-8.048999786376953 0.9909999966621399,-8.048999786376953 0.9909999966621399,-8.048999786376953 C0.9909999966621399,-8.048999786376953 0.9909999966621399,8.048999786376953 0.9909999966621399,8.048999786376953z"></path></g><g opacity="1" transform="matrix(1,0,0,1,280.3489990234375,353.34100341796875)"><path fill="rgb(0,0,0)" fill-opacity="1" d=" M0.9909999966621399,8.048999786376953 C0.9909999966621399,8.048999786376953 -0.9909999966621399,8.048999786376953 -0.9909999966621399,8.048999786376953 C-0.9909999966621399,8.048999786376953 -0.9909999966621399,-8.048999786376953 -0.9909999966621399,-8.048999786376953 C-0.9909999966621399,-8.048999786376953 0.9909999966621399,-8.048999786376953 0.9909999966621399,-8.048999786376953 C0.9909999966621399,-8.048999786376953 0.9909999966621399,8.048999786376953 0.9909999966621399,8.048999786376953z"></path></g><g opacity="1" transform="matrix(1,0,0,1,284.9729919433594,353.34100341796875)"><path fill="rgb(0,0,0)" fill-opacity="1" d=" M0.9909999966621399,8.048999786376953 C0.9909999966621399,8.048999786376953 -0.9909999966621399,8.048999786376953 -0.9909999966621399,8.048999786376953 C-0.9909999966621399,8.048999786376953 -0.9909999966621399,-8.048999786376953 -0.9909999966621399,-8.048999786376953 C-0.9909999966621399,-8.048999786376953 0.9909999966621399,-8.048999786376953 0.9909999966621399,-8.048999786376953 C0.9909999966621399,-8.048999786376953 0.9909999966621399,8.048999786376953 0.9909999966621399,8.048999786376953z"></path></g><g opacity="1" transform="matrix(1,0,0,1,289.59600830078125,353.34100341796875)"><path fill="rgb(0,0,0)" fill-opacity="1" d=" M0.9909999966621399,8.048999786376953 C0.9909999966621399,8.048999786376953 -0.9909999966621399,8.048999786376953 -0.9909999966621399,8.048999786376953 C-0.9909999966621399,8.048999786376953 -0.9909999966621399,-8.048999786376953 -0.9909999966621399,-8.048999786376953 C-0.9909999966621399,-8.048999786376953 0.9909999966621399,-8.048999786376953 0.9909999966621399,-8.048999786376953 C0.9909999966621399,-8.048999786376953 0.9909999966621399,8.048999786376953 0.9909999966621399,8.048999786376953z"></path></g><g opacity="1" transform="matrix(1,0,0,1,294.2200012207031,353.34100341796875)"><path fill="rgb(0,0,0)" fill-opacity="1" d=" M0.9909999966621399,8.048999786376953 C0.9909999966621399,8.048999786376953 -0.9909999966621399,8.048999786376953 -0.9909999966621399,8.048999786376953 C-0.9909999966621399,8.048999786376953 -0.9909999966621399,-8.048999786376953 -0.9909999966621399,-8.048999786376953 C-0.9909999966621399,-8.048999786376953 0.9909999966621399,-8.048999786376953 0.9909999966621399,-8.048999786376953 C0.9909999966621399,-8.048999786376953 0.9909999966621399,8.048999786376953 0.9909999966621399,8.048999786376953z"></path></g><g opacity="1" transform="matrix(1,0,0,1,301.84600830078125,353.34100341796875)"><path fill="rgb(127,127,127)" fill-opacity="1" d=" M3.992000102996826,8.048999786376953 C3.992000102996826,8.048999786376953 -3.992000102996826,8.048999786376953 -3.992000102996826,8.048999786376953 C-3.992000102996826,8.048999786376953 -3.992000102996826,-8.048999786376953 -3.992000102996826,-8.048999786376953 C-3.992000102996826,-8.048999786376953 3.992000102996826,-8.048999786376953 3.992000102996826,-8.048999786376953 C3.992000102996826,-8.048999786376953 3.992000102996826,8.048999786376953 3.992000102996826,8.048999786376953z"></path></g></g><g transform="matrix(1,0,0,1,-112.99998474121094,-137.27537536621094)" opacity="1" style="display: block;"><g opacity="1" transform="matrix(1,0,0,1,284.14599609375,336.7229919433594)"><path stroke-linecap="round" stroke-linejoin="round" fill-opacity="0" stroke="rgb(29,29,27)" stroke-opacity="1" stroke-width="3" d=" M64,64 C64,64 -64,64 -64,64 C-64,64 -64,-64 -64,-64 C-64,-64 64,-64 64,-64 C64,-64 64,64 64,64z"></path></g></g><g transform="matrix(1,0,0,1,-112.99998474121094,-137.27537536621094)" opacity="1" style="display: block;"><g opacity="1" transform="matrix(1,0,0,1,301.4729919433594,249.44500732421875)"><path fill="rgb(255,255,255)" fill-opacity="1" d=" M16.8439998626709,0 C16.8439998626709,9.302000045776367 9.302000045776367,16.8439998626709 -0.0010000000474974513,16.8439998626709 C-9.303000450134277,16.8439998626709 -16.8439998626709,9.302000045776367 -16.8439998626709,0 C-16.8439998626709,-9.302000045776367 -9.303000450134277,-16.8439998626709 -0.0010000000474974513,-16.8439998626709 C9.302000045776367,-16.8439998626709 16.8439998626709,-9.302000045776367 16.8439998626709,0z"></path><path stroke-linecap="round" stroke-linejoin="round" fill-opacity="0" stroke="rgb(29,29,27)" stroke-opacity="1" stroke-width="3" d=" M16.8439998626709,0 C16.8439998626709,9.302000045776367 9.302000045776367,16.8439998626709 -0.0010000000474974513,16.8439998626709 C-9.303000450134277,16.8439998626709 -16.8439998626709,9.302000045776367 -16.8439998626709,0 C-16.8439998626709,-9.302000045776367 -9.303000450134277,-16.8439998626709 -0.0010000000474974513,-16.8439998626709 C9.302000045776367,-16.8439998626709 16.8439998626709,-9.302000045776367 16.8439998626709,0z"></path></g><g opacity="1" transform="matrix(1,0,0,1,301.4729919433594,249.44500732421875)"><path fill="rgb(29,29,27)" fill-opacity="1" d=" M9.163000106811523,0 C9.163000106811523,5.060999870300293 5.060999870300293,9.163000106811523 0,9.163000106811523 C-5.060999870300293,9.163000106811523 -9.163000106811523,5.060999870300293 -9.163000106811523,0 C-9.163000106811523,-5.060999870300293 -5.060999870300293,-9.163000106811523 0,-9.163000106811523 C5.060999870300293,-9.163000106811523 9.163000106811523,-5.060999870300293 9.163000106811523,0z"></path></g><g opacity="1" transform="matrix(1,0,0,1,267.57501220703125,249.44500732421875)"><path fill="rgb(255,255,255)" fill-opacity="1" d=" M16.8439998626709,0 C16.8439998626709,9.302000045776367 9.302000045776367,16.8439998626709 -0.0010000000474974513,16.8439998626709 C-9.303000450134277,16.8439998626709 -16.8439998626709,9.302000045776367 -16.8439998626709,0 C-16.8439998626709,-9.302000045776367 -9.303000450134277,-16.8439998626709 -0.0010000000474974513,-16.8439998626709 C9.302000045776367,-16.8439998626709 16.8439998626709,-9.302000045776367 16.8439998626709,0z"></path><path stroke-linecap="round" stroke-linejoin="round" fill-opacity="0" stroke="rgb(29,29,27)" stroke-opacity="1" stroke-width="3" d=" M16.8439998626709,0 C16.8439998626709,9.302000045776367 9.302000045776367,16.8439998626709 -0.0010000000474974513,16.8439998626709 C-9.303000450134277,16.8439998626709 -16.8439998626709,9.302000045776367 -16.8439998626709,0 C-16.8439998626709,-9.302000045776367 -9.303000450134277,-16.8439998626709 -0.0010000000474974513,-16.8439998626709 C9.302000045776367,-16.8439998626709 16.8439998626709,-9.302000045776367 16.8439998626709,0z"></path></g><g opacity="1" transform="matrix(1,0,0,1,267.57501220703125,249.44500732421875)"><path fill="rgb(29,29,27)" fill-opacity="1" d=" M9.163000106811523,0 C9.163000106811523,5.060999870300293 5.060999870300293,9.163000106811523 0,9.163000106811523 C-5.060999870300293,9.163000106811523 -9.163000106811523,5.060999870300293 -9.163000106811523,0 C-9.163000106811523,-5.060999870300293 -5.060999870300293,-9.163000106811523 0,-9.163000106811523 C5.060999870300293,-9.163000106811523 9.163000106811523,-5.060999870300293 9.163000106811523,0z"></path></g></g></g></svg>