<svg width="105" height="107" viewBox="0 0 105 107" fill="none" xmlns="http://www.w3.org/2000/svg">
<g clip-path="url(#clip0_14_12)">
<path d="M36.7136 89.5801L35.3565 88.4686C27.1071 81.5796 21.2805 72.23 18.73 61.7894C16.1796 51.3488 17.0393 40.3659 21.1835 30.4494C21.8707 28.8276 22.6437 27.2437 23.4994 25.7041L24.5083 23.8947L26.4259 23.109C32.5167 20.6325 39.0363 19.3819 45.6111 19.429C52.186 19.4762 58.687 20.8201 64.7417 23.3837C70.7964 25.9473 76.2859 29.6802 80.8956 34.3687C85.5053 39.0573 89.1446 44.6092 91.6052 50.7064L92.3863 52.6348L91.7784 54.6141C91.2684 56.2999 90.669 57.9574 89.9827 59.5796C85.7475 69.458 78.4595 77.7201 69.1869 83.1552C59.9143 88.5902 49.1446 90.9123 38.4563 89.7811L36.7136 89.5801ZM32.8328 33.2729C32.5804 33.869 32.328 34.4651 32.0756 35.0612C29.0241 42.3557 28.2933 50.4129 29.9828 58.1373C31.6723 65.8617 35.7 72.8784 41.5182 78.2328C49.4186 78.6975 57.2703 76.7152 64.0035 72.5561C70.7366 68.397 76.0237 62.2634 79.1448 54.9907C79.3972 54.3946 79.6496 53.7985 79.9019 53.2024C75.8992 44.668 68.8836 37.9141 60.2032 34.2387C51.5228 30.5634 41.7902 30.2259 32.8761 33.2913L32.8328 33.2729Z" fill="#1D1D1B" stroke="#1D1D1B" stroke-width="3" stroke-linecap="round" stroke-linejoin="round"/>
<path d="M39.4669 83.0773L38.1098 81.9658C29.8604 75.0768 24.0338 65.7272 21.4833 55.2866C18.9329 44.846 19.7927 33.8631 23.9368 23.9466C24.624 22.3248 25.397 20.7409 26.2527 19.2013L27.2616 17.3918L29.1792 16.6062C35.2701 14.1297 41.7896 12.8791 48.3645 12.9262C54.9394 12.9734 61.4404 14.3173 67.4951 16.8809C73.5498 19.4445 79.0392 23.1774 83.6489 27.8659C88.2586 32.5544 91.8979 38.1064 94.3585 44.2036L95.1397 46.132L94.5318 48.1113C94.0217 49.7971 93.4223 51.4546 92.736 53.0768C88.5008 62.9552 81.2129 71.2173 71.9402 76.6524C62.6676 82.0874 51.898 84.4095 41.2096 83.2783L39.4669 83.0773ZM35.5861 26.7701C35.3338 27.3662 35.0814 27.9623 34.829 28.5584C31.7774 35.8529 31.0466 43.9101 32.7361 51.6345C34.4256 59.3589 38.4533 66.3756 44.2715 71.73C52.1719 72.1947 60.0236 70.2124 66.7568 66.0533C73.4899 61.8942 78.7771 55.7606 81.8981 48.4879C82.1505 47.8918 82.4029 47.2957 82.6553 46.6996C78.6526 38.1652 71.6369 31.4113 62.9565 27.7359C54.2761 24.0606 44.5435 23.7231 35.6294 26.7884L35.5861 26.7701Z" fill="#F560B9" stroke="#1D1D1B" stroke-width="3" stroke-linecap="round" stroke-linejoin="round"/>
</g>
<defs>
<clipPath id="clip0_14_12">
<rect width="78.2312" height="82.48" fill="white" transform="translate(32.1588) rotate(22.9482)"/>
</clipPath>
</defs>
</svg>
