<svg width="116" height="164" viewBox="0 0 116 164" fill="none" xmlns="http://www.w3.org/2000/svg">
<g clip-path="url(#clip0_11_738)">
<path d="M66.24 71.3701L58.2149 68.4089L28.4775 149L36.5026 151.961L66.24 71.3701Z" fill="#F5CB1C" stroke="#1D1D1B" stroke-width="3" stroke-linecap="round" stroke-linejoin="round"/>
<path d="M56.1535 73.9954C58.695 75.3059 61.3878 76.2995 64.1714 76.9539L66.2328 71.3675L58.2149 68.4089L56.1535 73.9954Z" fill="#1D1D1B" stroke="#1D1D1B" stroke-width="3" stroke-linecap="round" stroke-linejoin="round"/>
<path d="M62.085 70.2645C77.8033 76.0644 95.2473 68.024 101.047 52.3057C106.847 36.5873 98.8066 19.1434 83.0883 13.3435C67.37 7.54356 49.926 15.584 44.1261 31.3023C38.3262 47.0206 46.3667 64.4646 62.085 70.2645Z" fill="#54C4DB" stroke="#1D1D1B" stroke-width="3" stroke-linecap="round" stroke-linejoin="round"/>
<path d="M41.5862 30.365C40.6144 32.9965 39.9803 35.7406 39.6991 38.5316L99.7173 60.6778C102.928 56.0465 104.91 50.6757 105.477 45.069L45.4586 22.9229C43.8588 25.2302 42.5576 27.7307 41.5862 30.365Z" fill="#54C4DB" stroke="#1D1D1B" stroke-width="3" stroke-linecap="round" stroke-linejoin="round"/>
</g>
<defs>
<clipPath id="clip0_11_738">
<rect width="68.4011" height="148.488" fill="white" transform="translate(51.4029 0.418579) rotate(20.2536)"/>
</clipPath>
</defs>
</svg>
