<svg width="83" height="84" viewBox="0 0 83 84" fill="none" xmlns="http://www.w3.org/2000/svg">
<g clip-path="url(#clip0_11_444)">
<path d="M74.9122 8.50776C79.2822 12.8778 81.7373 18.8048 81.7373 24.9849C81.7373 31.165 79.2822 37.092 74.9122 41.462L49.1041 67.2701C47.9836 68.3906 46.4638 69.0201 44.8792 69.0201C43.2946 69.0201 41.7748 68.3906 40.6543 67.2701L16.1499 42.7657C15.0294 41.6452 14.3999 40.1254 14.3999 38.5407C14.3999 36.9561 15.0294 35.4364 16.1499 34.3159L41.958 8.5078C46.328 4.1378 52.255 1.68275 58.4351 1.68275C64.6152 1.68275 70.5422 4.13776 74.9122 8.50776Z" fill="#F560B9" stroke="#1D1D1B" stroke-width="3" stroke-linecap="round" stroke-linejoin="round"/>
<path d="M22.3689 49.6694L33.7338 61.0343L17.5827 77.1855C16.8368 77.9313 15.9514 78.5229 14.9769 78.9266C14.0024 79.3302 12.958 79.538 11.9032 79.538C10.8484 79.538 9.80397 79.3302 8.82948 78.9266C7.855 78.523 6.96963 77.9314 6.22379 77.1855C4.7175 75.6792 3.87125 73.6362 3.87125 71.506C3.87125 69.3758 4.71748 67.3329 6.22377 65.8266L22.3749 49.6754L22.3689 49.6694Z" fill="#1D1D1B" stroke="#1D1D1B" stroke-width="3" stroke-miterlimit="10"/>
<path d="M3.63615 79.7824C2.88901 79.0371 2.29629 78.1517 1.89184 77.177C1.48738 76.2023 1.27917 75.1573 1.27917 74.102C1.27917 73.0467 1.48738 72.0017 1.89184 71.027C2.29629 70.0522 2.88901 69.1669 3.63615 68.4216L20.3915 51.6662L30.5489 64.2391L14.9971 79.7824C14.2518 80.5296 13.3663 81.1223 12.3916 81.5268C11.4168 81.9313 10.3719 82.1394 9.31661 82.1394C8.26129 82.1394 7.21637 81.9313 6.24163 81.5268C5.26689 81.1223 4.38145 80.5296 3.63615 79.7824Z" fill="#F5CB1C" stroke="#1D1D1B" stroke-width="3" stroke-miterlimit="10"/>
<path d="M70.6746 45.6998L59.5784 56.7961C59.3207 57.0542 59.0147 57.2589 58.6778 57.3986C58.3409 57.5383 57.9798 57.6102 57.6151 57.6102C57.2504 57.6102 56.8894 57.5383 56.5526 57.3986C56.2157 57.2589 55.9097 57.0542 55.652 56.7961C55.3929 56.539 55.1872 56.2332 55.0468 55.8962C54.9065 55.5593 54.8343 55.1979 54.8343 54.8329C54.8343 54.4679 54.9065 54.1065 55.0468 53.7696C55.1872 53.4326 55.3929 53.1268 55.652 52.8697L59.6637 48.8495" fill="#F560B9"/>
<path d="M70.6746 45.6998L59.5784 56.7961C59.3207 57.0542 59.0147 57.2589 58.6778 57.3986C58.3409 57.5383 57.9798 57.6102 57.6151 57.6102C57.2504 57.6102 56.8894 57.5383 56.5526 57.3986C56.2157 57.2589 55.9097 57.0542 55.652 56.7961V56.7961C55.3929 56.539 55.1872 56.2332 55.0468 55.8962C54.9065 55.5593 54.8343 55.1979 54.8343 54.8329C54.8343 54.4679 54.9065 54.1065 55.0468 53.7696C55.1872 53.4326 55.3929 53.1268 55.652 52.8697L59.6637 48.8495" stroke="#1D1D1B" stroke-width="3" stroke-linecap="round" stroke-linejoin="round"/>
</g>
<defs>
<clipPath id="clip0_11_444">
<rect width="83" height="83" fill="white" transform="translate(0 0.418579)"/>
</clipPath>
</defs>
</svg>
