<svg xmlns="http://www.w3.org/2000/svg" viewBox="0 0 384 392" width="384" height="392" preserveAspectRatio="xMidYMid meet" style="width: 100%; height: 100%; transform: translate3d(0px, 0px, 0px); content-visibility: visible;"><defs><clipPath id="__lottie_element_45"><rect width="384" height="392" x="0" y="0"></rect></clipPath></defs><g clip-path="url(#__lottie_element_45)"><g transform="matrix(1,0,0,1,192,194.57994079589844)" opacity="1" style="display: block;"><g opacity="1" transform="matrix(1,0,0,1,0,0)"><path fill="rgb(245,96,185)" fill-opacity="1" d=" M15.480999946594238,4.127999782562256 C15.480999946594238,4.127999782562256 21.24799919128418,-27.937000274658203 21.24799919128418,-27.937000274658203 C21.718000411987305,-30.549999237060547 19.709999084472656,-32.95100021362305 17.05500030517578,-32.95100021362305 C17.05500030517578,-32.95100021362305 -17.05500030517578,-32.95100021362305 -17.05500030517578,-32.95100021362305 C-19.709999084472656,-32.95100021362305 -21.718000411987305,-30.549999237060547 -21.24799919128418,-27.937000274658203 C-21.24799919128418,-27.937000274658203 -15.480999946594238,4.127999782562256 -15.480999946594238,4.127999782562256 C-15.480999946594238,4.127999782562256 -19.886999130249023,4.127999782562256 -19.886999130249023,4.127999782562256 C-23.68199920654297,4.127999782562256 -25.58300018310547,8.715999603271484 -22.89900016784668,11.399999618530273 C-22.89900016784668,11.399999618530273 -3.01200008392334,31.28700065612793 -3.01200008392334,31.28700065612793 C-1.3480000495910645,32.95100021362305 1.3480000495910645,32.95100021362305 3.01200008392334,31.28700065612793 C3.01200008392334,31.28700065612793 22.89900016784668,11.399999618530273 22.89900016784668,11.399999618530273 C25.58300018310547,8.715999603271484 23.68199920654297,4.127999782562256 19.886999130249023,4.127999782562256 C19.886999130249023,4.127999782562256 15.480999946594238,4.127999782562256 15.480999946594238,4.127999782562256z"></path><path stroke-linecap="butt" stroke-linejoin="miter" fill-opacity="0" stroke-miterlimit="4" stroke="rgb(28,28,26)" stroke-opacity="1" stroke-width="3" d=" M15.480999946594238,4.127999782562256 C15.480999946594238,4.127999782562256 21.24799919128418,-27.937000274658203 21.24799919128418,-27.937000274658203 C21.718000411987305,-30.549999237060547 19.709999084472656,-32.95100021362305 17.05500030517578,-32.95100021362305 C17.05500030517578,-32.95100021362305 -17.05500030517578,-32.95100021362305 -17.05500030517578,-32.95100021362305 C-19.709999084472656,-32.95100021362305 -21.718000411987305,-30.549999237060547 -21.24799919128418,-27.937000274658203 C-21.24799919128418,-27.937000274658203 -15.480999946594238,4.127999782562256 -15.480999946594238,4.127999782562256 C-15.480999946594238,4.127999782562256 -19.886999130249023,4.127999782562256 -19.886999130249023,4.127999782562256 C-23.68199920654297,4.127999782562256 -25.58300018310547,8.715999603271484 -22.89900016784668,11.399999618530273 C-22.89900016784668,11.399999618530273 -3.01200008392334,31.28700065612793 -3.01200008392334,31.28700065612793 C-1.3480000495910645,32.95100021362305 1.3480000495910645,32.95100021362305 3.01200008392334,31.28700065612793 C3.01200008392334,31.28700065612793 22.89900016784668,11.399999618530273 22.89900016784668,11.399999618530273 C25.58300018310547,8.715999603271484 23.68199920654297,4.127999782562256 19.886999130249023,4.127999782562256 C19.886999130249023,4.127999782562256 15.480999946594238,4.127999782562256 15.480999946594238,4.127999782562256z"></path></g></g></g></svg>