<svg xmlns="http://www.w3.org/2000/svg" viewBox="0 0 596 904" width="596" height="904" preserveAspectRatio="xMidYMid meet" style="width: 100%; height: 100%; transform: translate3d(0px, 0px, 0px); content-visibility: visible;"><defs><clipPath id="__lottie_element_2"><rect width="596" height="904" x="0" y="0"></rect></clipPath></defs><g clip-path="url(#__lottie_element_2)"><g transform="matrix(0.6876733899116516,0.7260663509368896,-0.7260663509368896,0.6876733899116516,399.824951171875,-242.60321044921875)" opacity="1" style="display: block;"><g opacity="1" transform="matrix(1,0,0,1,297.63800048828125,422.6400146484375)"><path fill="rgb(84,196,219)" fill-opacity="1" d=" M204.41900634765625,0 C204.41900634765625,5.6020002365112305 198.1999969482422,10.906000137329102 197.7519989013672,16.392000198364258 C197.29600524902344,21.968000411987305 202.56300354003906,28.214000701904297 201.66200256347656,33.6510009765625 C200.74899291992188,39.16299819946289 193.74400329589844,43.375 192.39300537109375,48.72600173950195 C191.02699279785156,54.13600158691406 195.18800354003906,61.16699981689453 193.39500427246094,66.39299774169922 C191.5850067138672,71.66500091552734 183.97900390625,74.65799713134766 181.75399780273438,79.72200012207031 C179.51499938964844,84.81999969482422 182.45399475097656,92.44499969482422 179.81500244140625,97.31199645996094 C177.16299438476562,102.2020034790039 169.16700744628906,103.89800262451172 166.1320037841797,108.53299713134766 C163.08700561523438,113.18499755859375 164.7310028076172,121.19000244140625 161.32200622558594,125.56300354003906 C157.90699768066406,129.94500732421875 149.74099731445312,130.30499267578125 145.98300170898438,134.38600158691406 C142.2209930419922,138.47000122070312 142.53199768066406,146.63699340820312 138.447998046875,150.3979949951172 C134.36700439453125,154.15699768066406 126.25399780273438,153.177001953125 121.87200164794922,156.5919952392578 C117.4990005493164,160.00100708007812 116.46800231933594,168.10899353027344 111.81700134277344,171.1540069580078 C107.18099975585938,174.18800354003906 99.33999633789062,171.88999938964844 94.4489974975586,174.54200744628906 C89.58200073242188,177.18099975585938 87.23200225830078,185.00900268554688 82.13300323486328,187.24899291992188 C77.06999969482422,189.47300720214844 69.71600341796875,185.91099548339844 64.44400024414062,187.72000122070312 C59.21799850463867,189.51400756835938 55.60300064086914,196.84500122070312 50.19300079345703,198.21099853515625 C44.84299850463867,199.56199645996094 38.18199920654297,194.8300018310547 32.67100143432617,195.7429962158203 C27.232999801635742,196.6439971923828 22.45599937438965,203.2760009765625 16.881000518798828,203.73199462890625 C11.394000053405762,204.18099975585938 5.60099983215332,198.4199981689453 -0.0010000000474974513,198.4199981689453 C-5.603000164031982,198.4199981689453 -11.395999908447266,204.18099975585938 -16.881999969482422,203.73199462890625 C-22.457000732421875,203.2760009765625 -27.233999252319336,196.6439971923828 -32.672000885009766,195.7429962158203 C-38.18299865722656,194.8300018310547 -44.84400177001953,199.56199645996094 -50.19499969482422,198.21099853515625 C-55.60499954223633,196.84500122070312 -59.21900177001953,189.51400756835938 -64.44499969482422,187.72000122070312 C-69.71700286865234,185.91099548339844 -77.07099914550781,189.47300720214844 -82.13500213623047,187.2480010986328 C-87.23300170898438,185.00900268554688 -89.58499908447266,177.17999267578125 -94.4520034790039,174.54100036621094 C-99.34300231933594,171.88900756835938 -107.18499755859375,174.18699645996094 -111.81999969482422,171.15199279785156 C-116.47200012207031,168.10699462890625 -117.50199890136719,159.99899291992188 -121.875,156.58999633789062 C-126.25700378417969,153.1750030517578 -134.3699951171875,154.15499877929688 -138.45199584960938,150.39599609375 C-142.53500366210938,146.63499450683594 -142.2239990234375,138.46800231933594 -145.98599243164062,134.38400268554688 C-149.74400329589844,130.30299377441406 -157.90899658203125,129.9429931640625 -161.32400512695312,125.56099700927734 C-164.73300170898438,121.18800354003906 -163.08900451660156,113.18299865722656 -166.13400268554688,108.53099822998047 C-169.16900634765625,103.89600372314453 -177.16400146484375,102.19999694824219 -179.8159942626953,97.30999755859375 C-182.4550018310547,92.44300079345703 -179.51600646972656,84.81900024414062 -181.7550048828125,79.72100067138672 C-183.97900390625,74.65699768066406 -191.58700561523438,71.66400146484375 -193.39599609375,66.39299774169922 C-195.19000244140625,61.16699981689453 -191.02699279785156,54.1349983215332 -192.39300537109375,48.724998474121094 C-193.74400329589844,43.374000549316406 -200.75,39.16299819946289 -201.66299438476562,33.652000427246094 C-202.56399536132812,28.214000701904297 -197.2969970703125,21.968000411987305 -197.7530059814453,16.392000198364258 C-198.2010040283203,10.906000137329102 -204.41900634765625,5.6020002365112305 -204.41900634765625,0 C-204.41900634765625,-5.6020002365112305 -198.2010040283203,-10.906000137329102 -197.7530059814453,-16.392000198364258 C-197.2969970703125,-21.968000411987305 -202.56399536132812,-28.214000701904297 -201.66299438476562,-33.6510009765625 C-200.75,-39.16299819946289 -193.74400329589844,-43.375 -192.39300537109375,-48.72600173950195 C-191.02699279785156,-54.13600158691406 -195.18899536132812,-61.16699981689453 -193.39599609375,-66.39299774169922 C-191.58599853515625,-71.66500091552734 -183.97999572753906,-74.65799713134766 -181.7550048828125,-79.72200012207031 C-179.51600646972656,-84.81999969482422 -182.45399475097656,-92.44499969482422 -179.81500244140625,-97.31199645996094 C-177.16299438476562,-102.2020034790039 -169.16799926757812,-103.89800262451172 -166.13299560546875,-108.53299713134766 C-163.08799743652344,-113.18499755859375 -164.73199462890625,-121.19000244140625 -161.322998046875,-125.56300354003906 C-157.9080047607422,-129.94500732421875 -149.7429962158203,-130.30499267578125 -145.98399353027344,-134.38600158691406 C-142.2220001220703,-138.47000122070312 -142.53199768066406,-146.63699340820312 -138.44900512695312,-150.3979949951172 C-134.36700439453125,-154.15699768066406 -126.25399780273438,-153.177001953125 -121.87200164794922,-156.5919952392578 C-117.4990005493164,-160.00100708007812 -116.46900177001953,-168.10899353027344 -111.81800079345703,-171.1540069580078 C-107.18199920654297,-174.18800354003906 -99.34100341796875,-171.88999938964844 -94.44999694824219,-174.54200744628906 C-89.58399963378906,-177.18099975585938 -87.23200225830078,-185.00900268554688 -82.13400268554688,-187.24899291992188 C-77.06999969482422,-189.47300720214844 -69.71700286865234,-185.91099548339844 -64.44499969482422,-187.72000122070312 C-59.21900177001953,-189.51400756835938 -55.60499954223633,-196.84500122070312 -50.194000244140625,-198.21099853515625 C-44.84400177001953,-199.56199645996094 -38.18299865722656,-194.8300018310547 -32.672000885009766,-195.7429962158203 C-27.233999252319336,-196.6439971923828 -22.457000732421875,-203.2760009765625 -16.881999969482422,-203.73199462890625 C-11.395999908447266,-204.18099975585938 -5.603000164031982,-198.4199981689453 -0.0010000000474974513,-198.4199981689453 C5.60099983215332,-198.4199981689453 11.394000053405762,-204.18099975585938 16.881000518798828,-203.73199462890625 C22.45599937438965,-203.2760009765625 27.233999252319336,-196.6439971923828 32.67100143432617,-195.7429962158203 C38.18299865722656,-194.8300018310547 44.84299850463867,-199.56199645996094 50.194000244140625,-198.21099853515625 C55.604000091552734,-196.84500122070312 59.21900177001953,-189.51400756835938 64.44499969482422,-187.72000122070312 C69.71700286865234,-185.91099548339844 77.07099914550781,-189.47300720214844 82.13500213623047,-187.2480010986328 C87.23300170898438,-185.00900268554688 89.58399963378906,-177.17999267578125 94.45099639892578,-174.54100036621094 C99.34200286865234,-171.88900756835938 107.18299865722656,-174.18699645996094 111.81900024414062,-171.15199279785156 C116.47000122070312,-168.10699462890625 117.5009994506836,-159.99899291992188 121.8740005493164,-156.58999633789062 C126.25599670410156,-153.1750030517578 134.36900329589844,-154.15499877929688 138.4510040283203,-150.39599609375 C142.53399658203125,-146.63499450683594 142.22300720214844,-138.46800231933594 145.98399353027344,-134.38400268554688 C149.7429962158203,-130.30299377441406 157.90899658203125,-129.9429931640625 161.32400512695312,-125.56099700927734 C164.73199462890625,-121.18800354003906 163.08799743652344,-113.18299865722656 166.13299560546875,-108.53099822998047 C169.16799926757812,-103.89600372314453 177.16400146484375,-102.19999694824219 179.8159942626953,-97.30999755859375 C182.4550018310547,-92.44300079345703 179.51499938964844,-84.81900024414062 181.7550048828125,-79.72100067138672 C183.97900390625,-74.65699768066406 191.5850067138672,-71.66400146484375 193.39500427246094,-66.39299774169922 C195.18899536132812,-61.16699981689453 191.02699279785156,-54.1349983215332 192.39300537109375,-48.724998474121094 C193.74400329589844,-43.375 200.74899291992188,-39.16299819946289 201.66200256347656,-33.652000427246094 C202.56300354003906,-28.214000701904297 197.29600524902344,-21.968000411987305 197.7519989013672,-16.392000198364258 C198.1999969482422,-10.906000137329102 204.41900634765625,-5.6020002365112305 204.41900634765625,0z"></path><path stroke-linecap="butt" stroke-linejoin="miter" fill-opacity="0" stroke-miterlimit="10" stroke="rgb(29,29,27)" stroke-opacity="1" stroke-width="3" d=" M204.41900634765625,0 C204.41900634765625,5.6020002365112305 198.1999969482422,10.906000137329102 197.7519989013672,16.392000198364258 C197.29600524902344,21.968000411987305 202.56300354003906,28.214000701904297 201.66200256347656,33.6510009765625 C200.74899291992188,39.16299819946289 193.74400329589844,43.375 192.39300537109375,48.72600173950195 C191.02699279785156,54.13600158691406 195.18800354003906,61.16699981689453 193.39500427246094,66.39299774169922 C191.5850067138672,71.66500091552734 183.97900390625,74.65799713134766 181.75399780273438,79.72200012207031 C179.51499938964844,84.81999969482422 182.45399475097656,92.44499969482422 179.81500244140625,97.31199645996094 C177.16299438476562,102.2020034790039 169.16700744628906,103.89800262451172 166.1320037841797,108.53299713134766 C163.08700561523438,113.18499755859375 164.7310028076172,121.19000244140625 161.32200622558594,125.56300354003906 C157.90699768066406,129.94500732421875 149.74099731445312,130.30499267578125 145.98300170898438,134.38600158691406 C142.2209930419922,138.47000122070312 142.53199768066406,146.63699340820312 138.447998046875,150.3979949951172 C134.36700439453125,154.15699768066406 126.25399780273438,153.177001953125 121.87200164794922,156.5919952392578 C117.4990005493164,160.00100708007812 116.46800231933594,168.10899353027344 111.81700134277344,171.1540069580078 C107.18099975585938,174.18800354003906 99.33999633789062,171.88999938964844 94.4489974975586,174.54200744628906 C89.58200073242188,177.18099975585938 87.23200225830078,185.00900268554688 82.13300323486328,187.24899291992188 C77.06999969482422,189.47300720214844 69.71600341796875,185.91099548339844 64.44400024414062,187.72000122070312 C59.21799850463867,189.51400756835938 55.60300064086914,196.84500122070312 50.19300079345703,198.21099853515625 C44.84299850463867,199.56199645996094 38.18199920654297,194.8300018310547 32.67100143432617,195.7429962158203 C27.232999801635742,196.6439971923828 22.45599937438965,203.2760009765625 16.881000518798828,203.73199462890625 C11.394000053405762,204.18099975585938 5.60099983215332,198.4199981689453 -0.0010000000474974513,198.4199981689453 C-5.603000164031982,198.4199981689453 -11.395999908447266,204.18099975585938 -16.881999969482422,203.73199462890625 C-22.457000732421875,203.2760009765625 -27.233999252319336,196.6439971923828 -32.672000885009766,195.7429962158203 C-38.18299865722656,194.8300018310547 -44.84400177001953,199.56199645996094 -50.19499969482422,198.21099853515625 C-55.60499954223633,196.84500122070312 -59.21900177001953,189.51400756835938 -64.44499969482422,187.72000122070312 C-69.71700286865234,185.91099548339844 -77.07099914550781,189.47300720214844 -82.13500213623047,187.2480010986328 C-87.23300170898438,185.00900268554688 -89.58499908447266,177.17999267578125 -94.4520034790039,174.54100036621094 C-99.34300231933594,171.88900756835938 -107.18499755859375,174.18699645996094 -111.81999969482422,171.15199279785156 C-116.47200012207031,168.10699462890625 -117.50199890136719,159.99899291992188 -121.875,156.58999633789062 C-126.25700378417969,153.1750030517578 -134.3699951171875,154.15499877929688 -138.45199584960938,150.39599609375 C-142.53500366210938,146.63499450683594 -142.2239990234375,138.46800231933594 -145.98599243164062,134.38400268554688 C-149.74400329589844,130.30299377441406 -157.90899658203125,129.9429931640625 -161.32400512695312,125.56099700927734 C-164.73300170898438,121.18800354003906 -163.08900451660156,113.18299865722656 -166.13400268554688,108.53099822998047 C-169.16900634765625,103.89600372314453 -177.16400146484375,102.19999694824219 -179.8159942626953,97.30999755859375 C-182.4550018310547,92.44300079345703 -179.51600646972656,84.81900024414062 -181.7550048828125,79.72100067138672 C-183.97900390625,74.65699768066406 -191.58700561523438,71.66400146484375 -193.39599609375,66.39299774169922 C-195.19000244140625,61.16699981689453 -191.02699279785156,54.1349983215332 -192.39300537109375,48.724998474121094 C-193.74400329589844,43.374000549316406 -200.75,39.16299819946289 -201.66299438476562,33.652000427246094 C-202.56399536132812,28.214000701904297 -197.2969970703125,21.968000411987305 -197.7530059814453,16.392000198364258 C-198.2010040283203,10.906000137329102 -204.41900634765625,5.6020002365112305 -204.41900634765625,0 C-204.41900634765625,-5.6020002365112305 -198.2010040283203,-10.906000137329102 -197.7530059814453,-16.392000198364258 C-197.2969970703125,-21.968000411987305 -202.56399536132812,-28.214000701904297 -201.66299438476562,-33.6510009765625 C-200.75,-39.16299819946289 -193.74400329589844,-43.375 -192.39300537109375,-48.72600173950195 C-191.02699279785156,-54.13600158691406 -195.18899536132812,-61.16699981689453 -193.39599609375,-66.39299774169922 C-191.58599853515625,-71.66500091552734 -183.97999572753906,-74.65799713134766 -181.7550048828125,-79.72200012207031 C-179.51600646972656,-84.81999969482422 -182.45399475097656,-92.44499969482422 -179.81500244140625,-97.31199645996094 C-177.16299438476562,-102.2020034790039 -169.16799926757812,-103.89800262451172 -166.13299560546875,-108.53299713134766 C-163.08799743652344,-113.18499755859375 -164.73199462890625,-121.19000244140625 -161.322998046875,-125.56300354003906 C-157.9080047607422,-129.94500732421875 -149.7429962158203,-130.30499267578125 -145.98399353027344,-134.38600158691406 C-142.2220001220703,-138.47000122070312 -142.53199768066406,-146.63699340820312 -138.44900512695312,-150.3979949951172 C-134.36700439453125,-154.15699768066406 -126.25399780273438,-153.177001953125 -121.87200164794922,-156.5919952392578 C-117.4990005493164,-160.00100708007812 -116.46900177001953,-168.10899353027344 -111.81800079345703,-171.1540069580078 C-107.18199920654297,-174.18800354003906 -99.34100341796875,-171.88999938964844 -94.44999694824219,-174.54200744628906 C-89.58399963378906,-177.18099975585938 -87.23200225830078,-185.00900268554688 -82.13400268554688,-187.24899291992188 C-77.06999969482422,-189.47300720214844 -69.71700286865234,-185.91099548339844 -64.44499969482422,-187.72000122070312 C-59.21900177001953,-189.51400756835938 -55.60499954223633,-196.84500122070312 -50.194000244140625,-198.21099853515625 C-44.84400177001953,-199.56199645996094 -38.18299865722656,-194.8300018310547 -32.672000885009766,-195.7429962158203 C-27.233999252319336,-196.6439971923828 -22.457000732421875,-203.2760009765625 -16.881999969482422,-203.73199462890625 C-11.395999908447266,-204.18099975585938 -5.603000164031982,-198.4199981689453 -0.0010000000474974513,-198.4199981689453 C5.60099983215332,-198.4199981689453 11.394000053405762,-204.18099975585938 16.881000518798828,-203.73199462890625 C22.45599937438965,-203.2760009765625 27.233999252319336,-196.6439971923828 32.67100143432617,-195.7429962158203 C38.18299865722656,-194.8300018310547 44.84299850463867,-199.56199645996094 50.194000244140625,-198.21099853515625 C55.604000091552734,-196.84500122070312 59.21900177001953,-189.51400756835938 64.44499969482422,-187.72000122070312 C69.71700286865234,-185.91099548339844 77.07099914550781,-189.47300720214844 82.13500213623047,-187.2480010986328 C87.23300170898438,-185.00900268554688 89.58399963378906,-177.17999267578125 94.45099639892578,-174.54100036621094 C99.34200286865234,-171.88900756835938 107.18299865722656,-174.18699645996094 111.81900024414062,-171.15199279785156 C116.47000122070312,-168.10699462890625 117.5009994506836,-159.99899291992188 121.8740005493164,-156.58999633789062 C126.25599670410156,-153.1750030517578 134.36900329589844,-154.15499877929688 138.4510040283203,-150.39599609375 C142.53399658203125,-146.63499450683594 142.22300720214844,-138.46800231933594 145.98399353027344,-134.38400268554688 C149.7429962158203,-130.30299377441406 157.90899658203125,-129.9429931640625 161.32400512695312,-125.56099700927734 C164.73199462890625,-121.18800354003906 163.08799743652344,-113.18299865722656 166.13299560546875,-108.53099822998047 C169.16799926757812,-103.89600372314453 177.16400146484375,-102.19999694824219 179.8159942626953,-97.30999755859375 C182.4550018310547,-92.44300079345703 179.51499938964844,-84.81900024414062 181.7550048828125,-79.72100067138672 C183.97900390625,-74.65699768066406 191.5850067138672,-71.66400146484375 193.39500427246094,-66.39299774169922 C195.18899536132812,-61.16699981689453 191.02699279785156,-54.1349983215332 192.39300537109375,-48.724998474121094 C193.74400329589844,-43.375 200.74899291992188,-39.16299819946289 201.66200256347656,-33.652000427246094 C202.56300354003906,-28.214000701904297 197.29600524902344,-21.968000411987305 197.7519989013672,-16.392000198364258 C198.1999969482422,-10.906000137329102 204.41900634765625,-5.6020002365112305 204.41900634765625,0z"></path></g></g><g transform="matrix(1.0000334978103638,0,0,1.0000334978103638,-0.009979248046875,-158.5135955810547)" opacity="1" style="display: block;"><g opacity="1" transform="matrix(1,0,0,1,176.05099487304688,512.3350219726562)"><path fill="rgb(29,29,27)" fill-opacity="1" d=" M15.918000221252441,-12.307999610900879 C17.785999298095703,-9.76200008392334 19.80299949645996,-6.452000141143799 21.975000381469727,-2.380000114440918 C24.145000457763672,1.6920000314712524 25.558000564575195,5.001999855041504 26.21500015258789,7.551000118255615 C26.21500015258789,7.551000118255615 11.652000427246094,18.298999786376953 11.652000427246094,18.298999786376953 C11.843000411987305,15.317999839782715 11.237000465393066,11.961999893188477 9.833000183105469,8.23799991607666 C8.430000305175781,4.51200008392334 6.4039998054504395,0.8460000157356262 3.757999897003174,-2.760999917984009 C1.1360000371932983,-6.3379998207092285 -0.5230000019073486,-7.872000217437744 -1.2209999561309814,-7.360000133514404 C-1.7359999418258667,-6.98199987411499 -1.7109999656677246,-6.13700008392334 -1.1469999551773071,-4.827000141143799 C-0.5809999704360962,-3.5179998874664307 0.289000004529953,-2.010999917984009 1.4670000076293945,-0.3100000023841858 C2.6440000534057617,1.3899999856948853 3.818000078201294,3.3239998817443848 4.989999771118164,5.494999885559082 C6.1620001792907715,7.666999816894531 7.125999927520752,9.756999969482422 7.876999855041504,11.767999649047852 C8.630999565124512,13.779999732971191 8.812999725341797,15.791999816894531 8.42199993133545,17.802000045776367 C8.031999588012695,19.81399917602539 6.927000045776367,21.485000610351562 5.10699987411499,22.81999969482422 C2.8949999809265137,24.44300079345703 0.5019999742507935,25.007999420166016 -2.072000026702881,24.51799964904785 C-4.644999980926514,24.02899932861328 -7.144000053405762,22.75 -9.569999694824219,20.68199920654297 C-11.994000434875488,18.61400032043457 -14.472999572753906,15.854000091552734 -17.009000778198242,12.39900016784668 C-18.85300064086914,9.881999969482422 -20.715999603271484,6.784999847412109 -22.597999572753906,3.1080000400543213 C-24.479000091552734,-0.5720000267028809 -25.684999465942383,-3.6610000133514404 -26.21500015258789,-6.1620001792907715 C-26.21500015258789,-6.1620001792907715 -11.942999839782715,-13.972000122070312 -11.942999839782715,-13.972000122070312 C-11.647000312805176,-11.345000267028809 -10.881999969482422,-8.538000106811523 -9.64799976348877,-5.551000118255615 C-8.413000106811523,-2.563999891281128 -6.873000144958496,0.1889999955892563 -5.0279998779296875,2.703000068664551 C-2.25,6.493000030517578 -0.4350000023841858,8.074999809265137 0.4129999876022339,7.454999923706055 C0.9589999914169312,7.053999900817871 0.9409999847412109,6.204999923706055 0.3610000014305115,4.90500020980835 C-0.21699999272823334,3.6050000190734863 -1.1180000305175781,2.1080000400543213 -2.3369998931884766,0.41499999165534973 C-3.553999900817871,-1.2799999713897705 -4.78000020980835,-3.188999891281128 -6.013999938964844,-5.315000057220459 C-7.245999813079834,-7.440999984741211 -8.267999649047852,-9.49899959564209 -9.07699966430664,-11.494000434875488 C-9.88599967956543,-13.48799991607666 -10.133000373840332,-15.461000442504883 -9.819999694824219,-17.41699981689453 C-9.505000114440918,-19.371000289916992 -8.470000267028809,-20.993999481201172 -6.711999893188477,-22.284000396728516 C-3.437999963760376,-24.684999465942383 0.13600000739097595,-25.007999420166016 4.006999969482422,-23.256999969482422 C7.880000114440918,-21.503999710083008 11.850000381469727,-17.856000900268555 15.918000221252441,-12.307999610900879z"></path></g><g opacity="1" transform="matrix(1,0,0,1,151.2830047607422,469.15899658203125)"><path fill="rgb(29,29,27)" fill-opacity="1" d=" M12.383000373840332,-21.295000076293945 C16.378000259399414,-18.670000076293945 19.364999771118164,-14.142000198364258 21.34600067138672,-7.711999893188477 C23.32699966430664,-1.281999945640564 23.408000946044922,4.151000022888184 21.58799934387207,8.585000038146973 C19.768999099731445,13.020000457763672 16.218000411987305,16.051000595092773 10.937000274658203,17.67799949645996 C10.937000274658203,17.67799949645996 -10.940999984741211,24.417999267578125 -10.940999984741211,24.417999267578125 C-10.940999984741211,24.417999267578125 -15.58899974822998,9.329999923706055 -15.58899974822998,9.329999923706055 C-15.58899974822998,9.329999923706055 -0.6200000047683716,6.017000198364258 -0.6200000047683716,6.017000198364258 C1.6629999876022339,5.510000228881836 3.302999973297119,4.513000011444092 4.298999786376953,3.0250000953674316 C5.296999931335449,1.5379999876022339 5.446000099182129,-0.3370000123977661 4.75,-2.5999999046325684 C4.052000045776367,-4.863999843597412 2.861999988555908,-6.335999965667725 1.1770000457763672,-7.017000198364258 C-0.5080000162124634,-7.697999954223633 -2.4189999103546143,-7.611000061035156 -4.554999828338623,-6.75600004196167 C-4.554999828338623,-6.75600004196167 -18.792999267578125,-1.0720000267028809 -18.792999267578125,-1.0720000267028809 C-18.792999267578125,-1.0720000267028809 -23.409000396728516,-16.05299949645996 -23.409000396728516,-16.05299949645996 C-23.409000396728516,-16.05299949645996 -1.5299999713897705,-22.791000366210938 -1.5299999713897705,-22.791000366210938 C3.750999927520752,-24.417999267578125 8.388999938964844,-23.920000076293945 12.383000373840332,-21.295000076293945z"></path></g><g opacity="1" transform="matrix(1,0,0,1,146.66299438476562,414.5539855957031)"><path fill="rgb(29,29,27)" fill-opacity="1" d=" M19.13800048828125,7.288000106811523 C19.13800048828125,7.288000106811523 17.96299934387207,26.423999786376953 17.96299934387207,26.423999786376953 C17.96299934387207,26.423999786376953 -21.20800018310547,20.34600067138672 -21.20800018310547,20.34600067138672 C-21.20800018310547,20.34600067138672 -20.076000213623047,1.8869999647140503 -20.076000213623047,1.8869999647140503 C-20.076000213623047,1.8869999647140503 2.2219998836517334,-0.5849999785423279 2.2219998836517334,-0.5849999785423279 C2.2219998836517334,-0.5849999785423279 2.2799999713897705,-1.5429999828338623 2.2799999713897705,-1.5429999828338623 C2.2799999713897705,-1.5429999828338623 -19.542999267578125,-6.781000137329102 -19.542999267578125,-6.781000137329102 C-19.542999267578125,-6.781000137329102 -18.40999984741211,-25.239999771118164 -18.40999984741211,-25.239999771118164 C-18.40999984741211,-25.239999771118164 21.20800018310547,-26.423999786376953 21.20800018310547,-26.423999786376953 C21.20800018310547,-26.423999786376953 20.033000946044922,-7.288000106811523 20.033000946044922,-7.288000106811523 C20.033000946044922,-7.288000106811523 -2.5250000953674316,-11.612000465393066 -2.5250000953674316,-11.612000465393066 C-2.5250000953674316,-11.612000465393066 -2.755000114440918,-10.607999801635742 -2.755000114440918,-10.607999801635742 C-2.755000114440918,-10.607999801635742 15.791000366210938,-3.5369999408721924 15.791000366210938,-3.5369999408721924 C15.791000366210938,-3.5369999408721924 15.390999794006348,2.992000102996826 15.390999794006348,2.992000102996826 C15.390999794006348,2.992000102996826 -3.885999917984009,7.795000076293945 -3.885999917984009,7.795000076293945 C-3.885999917984009,7.795000076293945 -3.7760000228881836,8.76200008392334 -3.7760000228881836,8.76200008392334 C-3.7760000228881836,8.76200008392334 19.13800048828125,7.288000106811523 19.13800048828125,7.288000106811523z"></path></g><g opacity="1" transform="matrix(1,0,0,1,163.947998046875,354.79998779296875)"><path fill="rgb(29,29,27)" fill-opacity="1" d=" M13.345999717712402,13.939000129699707 C13.345999717712402,13.939000129699707 4.551000118255615,30.974000930786133 4.551000118255615,30.974000930786133 C4.551000118255615,30.974000930786133 -28.84000015258789,9.609999656677246 -28.84000015258789,9.609999656677246 C-28.84000015258789,9.609999656677246 -20.354999542236328,-6.823999881744385 -20.354999542236328,-6.823999881744385 C-20.354999542236328,-6.823999881744385 1.0440000295639038,-0.09000000357627869 1.0440000295639038,-0.09000000357627869 C1.0440000295639038,-0.09000000357627869 1.4839999675750732,-0.9430000185966492 1.4839999675750732,-0.9430000185966492 C1.4839999675750732,-0.9430000185966492 -16.371000289916992,-14.538000106811523 -16.371000289916992,-14.538000106811523 C-16.371000289916992,-14.538000106811523 -7.88700008392334,-30.974000930786133 -7.88700008392334,-30.974000930786133 C-7.88700008392334,-30.974000930786133 28.84000015258789,-16.07200050354004 28.84000015258789,-16.07200050354004 C28.84000015258789,-16.07200050354004 20.045000076293945,0.9629999995231628 20.045000076293945,0.9629999995231628 C20.045000076293945,0.9629999995231628 1.1490000486373901,-12.093000411987305 1.1490000486373901,-12.093000411987305 C1.1490000486373901,-12.093000411987305 0.5329999923706055,-11.269000053405762 0.5329999923706055,-11.269000053405762 C0.5329999923706055,-11.269000053405762 14.652000427246094,2.684000015258789 14.652000427246094,2.684000015258789 C14.652000427246094,2.684000015258789 11.649999618530273,8.494999885559082 11.649999618530273,8.494999885559082 C11.649999618530273,8.494999885559082 -7.925000190734863,5.113999843597412 -7.925000190734863,5.113999843597412 C-7.925000190734863,5.113999843597412 -8.21500015258789,6.044000148773193 -8.21500015258789,6.044000148773193 C-8.21500015258789,6.044000148773193 13.345999717712402,13.939000129699707 13.345999717712402,13.939000129699707z"></path></g><g opacity="1" transform="matrix(1,0,0,1,197.18899536132812,309.76300048828125)"><path fill="rgb(29,29,27)" fill-opacity="1" d=" M11.097000122070312,-15.793000221252441 C11.097000122070312,-15.793000221252441 -7.159999847412109,-0.2590000033378601 -7.159999847412109,-0.2590000033378601 C-7.159999847412109,-0.2590000033378601 -5.544000148773193,1.5509999990463257 -5.544000148773193,1.5509999990463257 C-5.544000148773193,1.5509999990463257 7.458000183105469,-10.807999610900879 7.458000183105469,-10.807999610900879 C7.458000183105469,-10.807999610900879 10.91100025177002,-6.939000129699707 10.91100025177002,-6.939000129699707 C10.91100025177002,-6.939000129699707 -2.8420000076293945,4.578999996185303 -2.8420000076293945,4.578999996185303 C-2.8420000076293945,4.578999996185303 -1.0770000219345093,6.558000087738037 -1.0770000219345093,6.558000087738037 C-1.0770000219345093,6.558000087738037 16.98699951171875,-11.22599983215332 16.98699951171875,-11.22599983215332 C16.98699951171875,-11.22599983215332 27.948999404907227,1.059999942779541 27.948999404907227,1.059999942779541 C27.948999404907227,1.059999942779541 -1.6690000295639038,27.48900032043457 -1.6690000295639038,27.48900032043457 C-1.6690000295639038,27.48900032043457 -27.947999954223633,-1.9600000381469727 -27.947999954223633,-1.9600000381469727 C-27.947999954223633,-1.9600000381469727 0.6610000133514404,-27.48900032043457 0.6610000133514404,-27.48900032043457 C0.6610000133514404,-27.48900032043457 11.097000122070312,-15.793000221252441 11.097000122070312,-15.793000221252441z"></path></g><g opacity="1" transform="matrix(1,0,0,1,239.65499877929688,284.72100830078125)"><path fill="rgb(29,29,27)" fill-opacity="1" d=" M0.6000000238418579,2.937000036239624 C0.6000000238418579,2.937000036239624 -4.547999858856201,5.0970001220703125 -4.547999858856201,5.0970001220703125 C-4.547999858856201,5.0970001220703125 2.440000057220459,18.246999740600586 2.440000057220459,18.246999740600586 C2.440000057220459,18.246999740600586 -12.27299976348877,24.423999786376953 -12.27299976348877,24.423999786376953 C-12.27299976348877,24.423999786376953 -27.552000045776367,-11.968999862670898 -27.552000045776367,-11.968999862670898 C-27.552000045776367,-11.968999862670898 -5.247000217437744,-21.33300018310547 -5.247000217437744,-21.33300018310547 C0.1889999955892563,-23.531999588012695 4.73799991607666,-24.424999237060547 8.399999618530273,-24.0049991607666 C12.060999870300293,-23.586000442504883 14.708000183105469,-21.43400001525879 16.33799934387207,-17.552000045776367 C18.97100067138672,-11.277999877929688 14.741999626159668,-5.813000202178955 3.6500000953674316,-1.156000018119812 C3.6500000953674316,-1.156000018119812 3.9779999256134033,-0.3779999911785126 3.9779999256134033,-0.3779999911785126 C3.9779999256134033,-0.3779999911785126 7.824999809265137,-1.9919999837875366 7.824999809265137,-1.9919999837875366 C12.503999710083008,-3.9560000896453857 16.611000061035156,-4.079999923706055 20.145000457763672,-2.364000082015991 C23.679000854492188,-0.6470000147819519 26.14699935913086,2.7100000381469727 27.552000045776367,7.703999996185303 C27.552000045776367,7.703999996185303 10.758999824523926,14.755999565124512 10.758999824523926,14.755999565124512 C10.265000343322754,12.026000022888184 9.60200023651123,9.645000457763672 8.767999649047852,7.610000133514404 C7.934000015258789,5.574999809265137 6.797999858856201,4.105999946594238 5.359000205993652,3.2009999752044678 C3.9179999828338623,2.2980000972747803 2.3320000171661377,2.2100000381469727 0.6000000238418579,2.937000036239624z M0.41499999165534973,-6.0980000495910645 C0.41499999165534973,-6.0980000495910645 -7.8520002365112305,-2.628000020980835 -7.8520002365112305,-2.628000020980835 C-7.8520002365112305,-2.628000020980835 -6.367000102996826,0.9089999794960022 -6.367000102996826,0.9089999794960022 C-6.367000102996826,0.9089999794960022 1.8990000486373901,-2.562000036239624 1.8990000486373901,-2.562000036239624 C4.63700008392334,-3.7130000591278076 5.751999855041504,-4.89300012588501 5.242000102996826,-6.105999946594238 C4.76200008392334,-7.250999927520752 3.1519999504089355,-7.247000217437744 0.41499999165534973,-6.0980000495910645z"></path></g><g opacity="1" transform="matrix(1,0,0,1,325.6969909667969,273.4289855957031)"><path fill="rgb(29,29,27)" fill-opacity="1" d=" M-8.279000282287598,18.54400062561035 C-8.279000282287598,18.54400062561035 -24.91699981689453,15.48799991607666 -24.91699981689453,15.48799991607666 C-24.91699981689453,15.48799991607666 -17.785999298095703,-23.332000732421875 -17.785999298095703,-23.332000732421875 C-17.785999298095703,-23.332000732421875 -1.1490000486373901,-20.277000427246094 -1.1490000486373901,-20.277000427246094 C-1.1490000486373901,-20.277000427246094 -6.011000156402588,-5.978000164031982 -6.011000156402588,-5.978000164031982 C-6.011000156402588,-5.978000164031982 7.743000030517578,-3.4519999027252197 7.743000030517578,-3.4519999027252197 C7.743000030517578,-3.4519999027252197 8.279000282287598,-18.54599952697754 8.279000282287598,-18.54599952697754 C8.279000282287598,-18.54599952697754 24.91699981689453,-15.48799991607666 24.91699981689453,-15.48799991607666 C24.91699981689453,-15.48799991607666 17.785999298095703,23.332000732421875 17.785999298095703,23.332000732421875 C17.785999298095703,23.332000732421875 1.1490000486373901,20.274999618530273 1.1490000486373901,20.274999618530273 C1.1490000486373901,20.274999618530273 6.103000164031982,5.478000164031982 6.103000164031982,5.478000164031982 C6.103000164031982,5.478000164031982 -7.651000022888184,2.950000047683716 -7.651000022888184,2.950000047683716 C-7.651000022888184,2.950000047683716 -8.279000282287598,18.54400062561035 -8.279000282287598,18.54400062561035z"></path></g><g opacity="1" transform="matrix(1,0,0,1,376.9809875488281,288.8900146484375)"><path fill="rgb(29,29,27)" fill-opacity="1" d=" M2.9519999027252197,24.326000213623047 C-1.7640000581741333,25.101999282836914 -7.0289998054504395,23.79400062561035 -12.842000007629395,20.406999588012695 C-18.6560001373291,17.01799964904785 -22.395000457763672,13.07699966430664 -24.06100082397461,8.581000328063965 C-25.72599983215332,4.085999965667725 -25.16900062561035,-0.546999990940094 -22.386999130249023,-5.322000026702881 C-22.386999130249023,-5.322000026702881 -10.859000205993652,-25.101999282836914 -10.859000205993652,-25.101999282836914 C-10.859000205993652,-25.101999282836914 2.7829999923706055,-17.150999069213867 2.7829999923706055,-17.150999069213867 C2.7829999923706055,-17.150999069213867 -5.984000205993652,-4.572999954223633 -5.984000205993652,-4.572999954223633 C-7.321000099182129,-2.6540000438690186 -7.8520002365112305,-0.8100000023841858 -7.578000068664551,0.9599999785423279 C-7.304999828338623,2.7300000190734863 -6.144000053405762,4.209000110626221 -4.0980000495910645,5.4029998779296875 C-2.052000045776367,6.59499979019165 -0.17900000512599945,6.870999813079834 1.5210000276565552,6.230999946594238 C3.2219998836517334,5.589000225067139 4.567999839782715,4.232999801635742 5.560999870300293,2.1549999713897705 C5.560999870300293,2.1549999713897705 12.184000015258789,-11.670999526977539 12.184000015258789,-11.670999526977539 C12.184000015258789,-11.670999526977539 25.726999282836914,-3.7780001163482666 25.726999282836914,-3.7780001163482666 C25.726999282836914,-3.7780001163482666 14.199000358581543,16.00200080871582 14.199000358581543,16.00200080871582 C11.416000366210938,20.775999069213867 7.666999816894531,23.549999237060547 2.9519999027252197,24.326000213623047z"></path></g><g opacity="1" transform="matrix(1,0,0,1,414.84100341796875,325.6510009765625)"><path fill="rgb(29,29,27)" fill-opacity="1" d=" M-0.75,29.93899917602539 C-0.75,29.93899917602539 -9.229999542236328,19.756000518798828 -9.229999542236328,19.756000518798828 C-9.229999542236328,19.756000518798828 -3.6689999103546143,-6.519999980926514 -3.6689999103546143,-6.519999980926514 C-3.6689999103546143,-6.519999980926514 -4.383999824523926,-7.0269999504089355 -4.383999824523926,-7.0269999504089355 C-4.383999824523926,-7.0269999504089355 -17.81800079345703,9.444999694824219 -17.81800079345703,9.444999694824219 C-17.81800079345703,9.444999694824219 -29.58099937438965,-4.679999828338623 -29.58099937438965,-4.679999828338623 C-29.58099937438965,-4.679999828338623 0.7490000128746033,-29.93899917602539 0.7490000128746033,-29.93899917602539 C0.7490000128746033,-29.93899917602539 9.444999694824219,-19.496000289916992 9.444999694824219,-19.496000289916992 C9.444999694824219,-19.496000289916992 6.318999767303467,4.239999771118164 6.318999767303467,4.239999771118164 C6.318999767303467,4.239999771118164 7.11299991607666,4.751999855041504 7.11299991607666,4.751999855041504 C7.11299991607666,4.751999855041504 18.28499984741211,-8.881999969482422 18.28499984741211,-8.881999969482422 C18.28499984741211,-8.881999969482422 29.58099937438965,4.681000232696533 29.58099937438965,4.681000232696533 C29.58099937438965,4.681000232696533 -0.75,29.93899917602539 -0.75,29.93899917602539z"></path></g><g opacity="1" transform="matrix(1,0,0,1,442.3139953613281,365.7250061035156)"><path fill="rgb(29,29,27)" fill-opacity="1" d=" M23.385000228881836,15.211999893188477 C23.385000228881836,15.211999893188477 7.211999893188477,21.385000228881836 7.211999893188477,21.385000228881836 C7.211999893188477,21.385000228881836 2.759999990463257,7.877999782562256 2.759999990463257,7.877999782562256 C2.759999990463257,7.877999782562256 -17.4950008392334,18.590999603271484 -17.4950008392334,18.590999603271484 C-17.4950008392334,18.590999603271484 -23.385000228881836,2.8540000915527344 -23.385000228881836,2.8540000915527344 C-23.385000228881836,2.8540000915527344 -1.0740000009536743,-2.365000009536743 -1.0740000009536743,-2.365000009536743 C-1.0740000009536743,-2.365000009536743 -6.563000202178955,-15.423999786376953 -6.563000202178955,-15.423999786376953 C-6.563000202178955,-15.423999786376953 9.687999725341797,-21.385000228881836 9.687999725341797,-21.385000228881836 C9.687999725341797,-21.385000228881836 23.385000228881836,15.211999893188477 23.385000228881836,15.211999893188477z"></path></g><g opacity="1" transform="matrix(1,0,0,1,449.80499267578125,416.53900146484375)"><path fill="rgb(29,29,27)" fill-opacity="1" d=" M4.85699987411499,18.308000564575195 C4.85699987411499,18.308000564575195 4.421000003814697,-5.6579999923706055 4.421000003814697,-5.6579999923706055 C4.421000003814697,-5.6579999923706055 1.9980000257492065,-5.558000087738037 1.9980000257492065,-5.558000087738037 C1.9980000257492065,-5.558000087738037 3.309000015258789,12.333999633789062 3.309000015258789,12.333999633789062 C3.309000015258789,12.333999633789062 -1.8730000257492065,12.550999641418457 -1.8730000257492065,12.550999641418457 C-1.8730000257492065,12.550999641418457 -2.059000015258789,-5.38700008392334 -2.059000015258789,-5.38700008392334 C-2.059000015258789,-5.38700008392334 -4.705999851226807,-5.2769999504089355 -4.705999851226807,-5.2769999504089355 C-4.705999851226807,-5.2769999504089355 -2.4100000858306885,19.965999603271484 -2.4100000858306885,19.965999603271484 C-2.4100000858306885,19.965999603271484 -18.861000061035156,20.65399932861328 -18.861000061035156,20.65399932861328 C-18.861000061035156,20.65399932861328 -20.517000198364258,-19.007999420166016 -20.517000198364258,-19.007999420166016 C-20.517000198364258,-19.007999420166016 18.91900062561035,-20.65399932861328 18.91900062561035,-20.65399932861328 C18.91900062561035,-20.65399932861328 20.51799964904785,17.65399932861328 20.51799964904785,17.65399932861328 C20.51799964904785,17.65399932861328 4.85699987411499,18.308000564575195 4.85699987411499,18.308000564575195z"></path></g><g opacity="1" transform="matrix(1,0,0,1,443.6109924316406,464.9909973144531)"><path fill="rgb(29,29,27)" fill-opacity="1" d=" M-4.301000118255615,-1.3919999599456787 C-4.301000118255615,-1.3919999599456787 -2.7130000591278076,-6.743000030517578 -2.7130000591278076,-6.743000030517578 C-2.7130000591278076,-6.743000030517578 -17.31399917602539,-9.666000366210938 -17.31399917602539,-9.666000366210938 C-17.31399917602539,-9.666000366210938 -12.77400016784668,-24.96299934387207 -12.77400016784668,-24.96299934387207 C-12.77400016784668,-24.96299934387207 25.065000534057617,-13.732000350952148 25.065000534057617,-13.732000350952148 C25.065000534057617,-13.732000350952148 18.180999755859375,9.458999633789062 18.180999755859375,9.458999633789062 C16.43899917602539,15.059000015258789 14.246999740600586,19.142000198364258 11.602999687194824,21.711000442504883 C8.958999633789062,24.277999877929688 5.618000030517578,24.96299934387207 1.5820000171661377,23.766000747680664 C-4.940999984741211,21.82900047302246 -6.489999771118164,15.093999862670898 -3.066999912261963,3.562000036239624 C-3.066999912261963,3.562000036239624 -3.878000020980835,3.322000026702881 -3.878000020980835,3.322000026702881 C-3.878000020980835,3.322000026702881 -5.065000057220459,7.322999954223633 -5.065000057220459,7.322999954223633 C-6.508999824523926,12.187999725341797 -9.015000343322754,15.444000244140625 -12.581999778747559,17.09000015258789 C-16.14900016784668,18.736000061035156 -20.309999465942383,18.52199935913086 -25.065000534057617,16.444000244140625 C-25.065000534057617,16.444000244140625 -19.881999969482422,-1.0169999599456787 -19.881999969482422,-1.0169999599456787 C-17.458999633789062,0.33000001311302185 -15.194999694824219,1.3240000009536743 -13.092000007629395,1.968000054359436 C-10.989999771118164,2.611999988555908 -9.133000373840332,2.6649999618530273 -7.520999908447266,2.122999906539917 C-5.909999847412109,1.5809999704360962 -4.835999965667725,0.41100001335144043 -4.301000118255615,-1.3919999599456787z M2.805999994277954,4.189000129699707 C2.805999994277954,4.189000129699707 5.35699987411499,-4.406000137329102 5.35699987411499,-4.406000137329102 C5.35699987411499,-4.406000137329102 1.680999994277954,-5.497000217437744 1.680999994277954,-5.497000217437744 C1.680999994277954,-5.497000217437744 -0.8700000047683716,3.0980000495910645 -0.8700000047683716,3.0980000495910645 C-1.715000033378601,5.943999767303467 -1.5080000162124634,7.554999828338623 -0.2460000067949295,7.929999828338623 C0.9430000185966492,8.281999588012695 1.9609999656677246,7.034999847412109 2.805999994277954,4.189000129699707z"></path></g><g opacity="1" transform="matrix(1,0,0,1,420.5509948730469,511.8919982910156)"><path fill="rgb(29,29,27)" fill-opacity="1" d=" M-16.732999801635742,-11.27299976348877 C-14.866000175476074,-13.819000244140625 -12.315999984741211,-16.739999771118164 -9.085000038146973,-20.034000396728516 C-5.855000019073486,-23.32900047302246 -3.121999979019165,-25.67099952697754 -0.8880000114440918,-27.06399917602539 C-0.8880000114440918,-27.06399917602539 13.741000175476074,-16.405000686645508 13.741000175476074,-16.405000686645508 C10.83899974822998,-15.690999984741211 7.822000026702881,-14.102999687194824 4.690999984741211,-11.644000053405762 C1.559000015258789,-9.185999870300293 -1.3289999961853027,-6.1539998054504395 -3.9739999771118164,-2.546999931335449 C-6.5970001220703125,1.0299999713897705 -7.560999870300293,3.075000047683716 -6.86299991607666,3.5859999656677246 C-6.3480000495910645,3.9649999141693115 -5.550000190734863,3.686000108718872 -4.468999862670898,2.753999948501587 C-3.390000104904175,1.8209999799728394 -2.2149999141693115,0.5389999747276306 -0.9480000138282776,-1.0959999561309814 C0.32100000977516174,-2.7300000190734863 1.8140000104904175,-4.431000232696533 3.5309998989105225,-6.203000068664551 C5.249000072479248,-7.9730000495910645 6.954999923706055,-9.520000457763672 8.647000312805176,-10.842000007629395 C10.33899974822998,-12.164999961853027 12.20300006866455,-12.942000389099121 14.23799991607666,-13.175000190734863 C16.273000717163086,-13.406999588012695 18.201000213623047,-12.854999542236328 20.018999099731445,-11.52299976348877 C22.231000900268555,-9.899999618530273 23.490999221801758,-7.7870001792907715 23.797000885009766,-5.184999942779541 C24.104000091552734,-2.5829999446868896 23.635000228881836,0.1850000023841858 22.39299964904785,3.11899995803833 C21.149999618530273,6.053999900817871 19.26099967956543,9.25 16.726999282836914,12.704999923706055 C14.881999969482422,15.222000122070312 12.48799991607666,17.92799949645996 9.545999526977539,20.829999923706055 C6.603000164031982,23.726999282836914 4.01800012588501,25.80699920654297 1.7910000085830688,27.06399917602539 C1.7910000085830688,27.06399917602539 -9.946000099182129,15.800000190734863 -9.946000099182129,15.800000190734863 C-7.5289998054504395,14.727999687194824 -5.081999778747559,13.154999732971191 -2.6040000915527344,11.079999923706055 C-0.12700000405311584,9.003999710083008 2.0350000858306885,6.708000183105469 3.880000114440918,4.192999839782715 C6.659999847412109,0.40299999713897705 7.623000144958496,-1.8020000457763672 6.775000095367432,-2.424999952316284 C6.229000091552734,-2.825000047683716 5.423999786376953,-2.553999900817871 4.357999801635742,-1.6080000400543213 C3.2939999103546143,-0.6660000085830688 2.13700008392334,0.640999972820282 0.8880000114440918,2.312999963760376 C-0.3619999885559082,3.9839999675750732 -1.8140000104904175,5.7270002365112305 -3.4709999561309814,7.541999816894531 C-5.127999782562256,9.355999946594238 -6.785999774932861,10.949999809265137 -8.444000244140625,12.321999549865723 C-10.102999687194824,13.690999984741211 -11.90999984741211,14.520999908447266 -13.869999885559082,14.809000015258789 C-15.829000473022461,15.097999572753906 -17.68899917602539,14.597000122070312 -19.445999145507812,13.307999610900879 C-22.719999313354492,10.907999992370605 -24.10300064086914,7.5960001945495605 -23.59600067138672,3.377000093460083 C-23.089000701904297,-0.8420000076293945 -20.801000595092773,-5.7270002365112305 -16.732999801635742,-11.27299976348877z"></path></g><g opacity="1" transform="matrix(1,0,0,1,204.99000549316406,554.8889770507812)"><path fill="rgb(29,29,27)" fill-opacity="1" d=" M8.484000205993652,0 C8.484000205993652,4.685999870300293 4.684999942779541,8.484000205993652 -0.0010000000474974513,8.484000205993652 C-4.685999870300293,8.484000205993652 -8.484999656677246,4.685999870300293 -8.484999656677246,0 C-8.484999656677246,-4.685999870300293 -4.685999870300293,-8.484000205993652 -0.0010000000474974513,-8.484000205993652 C4.684999942779541,-8.484000205993652 8.484000205993652,-4.685999870300293 8.484000205993652,0z"></path></g><g opacity="1" transform="matrix(1,0,0,1,391.2300109863281,554.8889770507812)"><path fill="rgb(29,29,27)" fill-opacity="1" d=" M8.484000205993652,0 C8.484000205993652,4.685999870300293 4.684999942779541,8.484000205993652 -0.0010000000474974513,8.484000205993652 C-4.685999870300293,8.484000205993652 -8.484999656677246,4.685999870300293 -8.484999656677246,0 C-8.484999656677246,-4.685999870300293 -4.685999870300293,-8.484000205993652 -0.0010000000474974513,-8.484000205993652 C4.684999942779541,-8.484000205993652 8.484000205993652,-4.685999870300293 8.484000205993652,0z"></path></g></g></g></svg>