<svg xmlns="http://www.w3.org/2000/svg" viewBox="0 0 278 392" width="278" height="392" preserveAspectRatio="xMidYMid meet" style="width: 100%; height: 100%; transform: translate3d(0px, 0px, 0px); content-visibility: visible;"><defs><clipPath id="__lottie_element_345"><rect width="278" height="392" x="0" y="0"></rect></clipPath></defs><g clip-path="url(#__lottie_element_345)"><g transform="matrix(1,0,0,1,-159,-233.81900024414062)" opacity="1" style="display: block;"><g opacity="1" transform="matrix(1,0,0,1,297.63800048828125,521.7630004882812)"><path fill="rgb(245,203,28)" fill-opacity="1" d=" M0,22.899999618530273 C0,22.899999618530273 0,22.899999618530273 0,22.899999618530273 C-10.73900032043457,22.899999618530273 -19.444000244140625,14.194000244140625 -19.444000244140625,3.4560000896453857 C-19.444000244140625,3.4560000896453857 -19.444000244140625,-22.89900016784668 -19.444000244140625,-22.89900016784668 C-19.444000244140625,-22.89900016784668 19.444000244140625,-22.89900016784668 19.444000244140625,-22.89900016784668 C19.444000244140625,-22.89900016784668 19.444000244140625,3.4560000896453857 19.444000244140625,3.4560000896453857 C19.444000244140625,14.194000244140625 10.73900032043457,22.899999618530273 0,22.899999618530273z"></path><path stroke-linecap="butt" stroke-linejoin="miter" fill-opacity="0" stroke-miterlimit="10" stroke="rgb(29,29,27)" stroke-opacity="1" stroke-width="3" d=" M0,22.899999618530273 C0,22.899999618530273 0,22.899999618530273 0,22.899999618530273 C-10.73900032043457,22.899999618530273 -19.444000244140625,14.194000244140625 -19.444000244140625,3.4560000896453857 C-19.444000244140625,3.4560000896453857 -19.444000244140625,-22.89900016784668 -19.444000244140625,-22.89900016784668 C-19.444000244140625,-22.89900016784668 19.444000244140625,-22.89900016784668 19.444000244140625,-22.89900016784668 C19.444000244140625,-22.89900016784668 19.444000244140625,3.4560000896453857 19.444000244140625,3.4560000896453857 C19.444000244140625,14.194000244140625 10.73900032043457,22.899999618530273 0,22.899999618530273z"></path></g></g><g transform="matrix(1,0,0,1,-158.75,-222.45950317382812)" opacity="1" style="display: block;"><g opacity="1" transform="matrix(1,0,0,1,297.63800048828125,420.51300048828125)"><path fill="rgb(84,196,219)" fill-opacity="1" d=" M44.505001068115234,78.3499984741211 C44.505001068115234,78.3499984741211 -44.505001068115234,78.3499984741211 -44.505001068115234,78.3499984741211 C-53.21799850463867,78.3499984741211 -60.279998779296875,71.28800201416016 -60.279998779296875,62.57600021362305 C-60.279998779296875,62.57600021362305 -60.279998779296875,-18.06999969482422 -60.279998779296875,-18.06999969482422 C-60.279998779296875,-51.36199951171875 -33.29199981689453,-78.3499984741211 0,-78.3499984741211 C33.29199981689453,-78.3499984741211 60.279998779296875,-51.36199951171875 60.279998779296875,-18.06999969482422 C60.279998779296875,-18.06999969482422 60.279998779296875,62.57600021362305 60.279998779296875,62.57600021362305 C60.279998779296875,71.28800201416016 53.21699905395508,78.3499984741211 44.505001068115234,78.3499984741211z"></path><path stroke-linecap="butt" stroke-linejoin="miter" fill-opacity="0" stroke-miterlimit="10" stroke="rgb(29,29,27)" stroke-opacity="1" stroke-width="3" d=" M44.505001068115234,78.3499984741211 C44.505001068115234,78.3499984741211 -44.505001068115234,78.3499984741211 -44.505001068115234,78.3499984741211 C-53.21799850463867,78.3499984741211 -60.279998779296875,71.28800201416016 -60.279998779296875,62.57600021362305 C-60.279998779296875,62.57600021362305 -60.279998779296875,-18.06999969482422 -60.279998779296875,-18.06999969482422 C-60.279998779296875,-51.36199951171875 -33.29199981689453,-78.3499984741211 0,-78.3499984741211 C33.29199981689453,-78.3499984741211 60.279998779296875,-51.36199951171875 60.279998779296875,-18.06999969482422 C60.279998779296875,-18.06999969482422 60.279998779296875,62.57600021362305 60.279998779296875,62.57600021362305 C60.279998779296875,71.28800201416016 53.21699905395508,78.3499984741211 44.505001068115234,78.3499984741211z"></path></g><g opacity="1" transform="matrix(1,0,0,1,273.2860107421875,426.656005859375)"><path fill="rgb(29,29,27)" fill-opacity="1" d=" M2.8259999752044678,0 C2.8259999752044678,1.5609999895095825 1.5609999895095825,2.8259999752044678 0,2.8259999752044678 C-1.5609999895095825,2.8259999752044678 -2.8259999752044678,1.5609999895095825 -2.8259999752044678,0 C-2.8259999752044678,-1.5609999895095825 -1.5609999895095825,-2.8259999752044678 0,-2.8259999752044678 C1.5609999895095825,-2.8259999752044678 2.8259999752044678,-1.5609999895095825 2.8259999752044678,0z"></path></g><g opacity="1" transform="matrix(1,0,0,1,321.989990234375,426.656005859375)"><path fill="rgb(29,29,27)" fill-opacity="1" d=" M2.8259999752044678,0 C2.8259999752044678,1.5609999895095825 1.5609999895095825,2.8259999752044678 0,2.8259999752044678 C-1.5609999895095825,2.8259999752044678 -2.8259999752044678,1.5609999895095825 -2.8259999752044678,0 C-2.8259999752044678,-1.5609999895095825 -1.5609999895095825,-2.8259999752044678 0,-2.8259999752044678 C1.5609999895095825,-2.8259999752044678 2.8259999752044678,-1.5609999895095825 2.8259999752044678,0z"></path></g><g opacity="1" transform="matrix(1,0,0,1,297.63800048828125,364.5190124511719)"><path fill="rgb(255,255,255)" fill-opacity="1" d=" M0,-22.356000900268555 C0,-22.356000900268555 0,-22.356000900268555 0,-22.356000900268555 C-27.9060001373291,-22.356000900268555 -51.374000549316406,-3.3889999389648438 -58.23899841308594,22.354999542236328 C-58.23899841308594,22.354999542236328 -58.23899841308594,22.354999542236328 -58.23899841308594,22.356000900268555 C-58.23899841308594,22.356000900268555 58.23899841308594,22.356000900268555 58.23899841308594,22.356000900268555 C58.23899841308594,22.356000900268555 58.23899841308594,22.354999542236328 58.23899841308594,22.354999542236328 C51.374000549316406,-3.388000011444092 27.906999588012695,-22.356000900268555 0,-22.356000900268555z"></path></g><g opacity="1" transform="matrix(1,0,0,1,297.63800048828125,420.51300048828125)"><path stroke-linecap="butt" stroke-linejoin="miter" fill-opacity="0" stroke-miterlimit="10" stroke="rgb(29,29,27)" stroke-opacity="1" stroke-width="3" d=" M44.505001068115234,78.3499984741211 C44.505001068115234,78.3499984741211 -44.505001068115234,78.3499984741211 -44.505001068115234,78.3499984741211 C-53.21799850463867,78.3499984741211 -60.279998779296875,71.28800201416016 -60.279998779296875,62.57600021362305 C-60.279998779296875,62.57600021362305 -60.279998779296875,-18.06999969482422 -60.279998779296875,-18.06999969482422 C-60.279998779296875,-51.36199951171875 -33.29199981689453,-78.3499984741211 0,-78.3499984741211 C33.29199981689453,-78.3499984741211 60.279998779296875,-51.36199951171875 60.279998779296875,-18.06999969482422 C60.279998779296875,-18.06999969482422 60.279998779296875,62.57600021362305 60.279998779296875,62.57600021362305 C60.279998779296875,71.28800201416016 53.21699905395508,78.3499984741211 44.505001068115234,78.3499984741211z"></path></g><g opacity="1" transform="matrix(1,0,0,1,297.63800048828125,503.010986328125)"><path fill="rgb(29,29,27)" fill-opacity="1" d=" M19.44499969482422,4.146999835968018 C19.44499969482422,4.146999835968018 -19.444000244140625,1.8700000047683716 -19.444000244140625,1.8700000047683716 C-19.444000244140625,1.8700000047683716 -19.444000244140625,-4.146999835968018 -19.444000244140625,-4.146999835968018 C-19.444000244140625,-4.146999835968018 19.44499969482422,-4.146999835968018 19.44499969482422,-4.146999835968018 C19.44499969482422,-4.146999835968018 19.44499969482422,4.146999835968018 19.44499969482422,4.146999835968018z"></path><path stroke-linecap="round" stroke-linejoin="round" fill-opacity="0" stroke="rgb(29,29,27)" stroke-opacity="1" stroke-width="3" d=" M19.44499969482422,4.146999835968018 C19.44499969482422,4.146999835968018 -19.444000244140625,1.8700000047683716 -19.444000244140625,1.8700000047683716 C-19.444000244140625,1.8700000047683716 -19.444000244140625,-4.146999835968018 -19.444000244140625,-4.146999835968018 C-19.444000244140625,-4.146999835968018 19.44499969482422,-4.146999835968018 19.44499969482422,-4.146999835968018 C19.44499969482422,-4.146999835968018 19.44499969482422,4.146999835968018 19.44499969482422,4.146999835968018z"></path></g><g opacity="1" transform="matrix(1,0,0,1,297.63800048828125,455.468994140625)"><path fill="rgb(29,29,27)" fill-opacity="1" d=" M29.6560001373291,-17.724000930786133 C32.928001403808594,-17.724000930786133 35.48099899291992,-14.789999961853027 34.91699981689453,-11.567000389099121 C32.00199890136719,5.076000213623047 17.47800064086914,17.725000381469727 0,17.725000381469727 C-17.479000091552734,17.725000381469727 -32.00299835205078,5.076000213623047 -34.91699981689453,-11.567000389099121 C-35.48099899291992,-14.789999961853027 -32.928001403808594,-17.724000930786133 -29.6560001373291,-17.724000930786133 C-29.6560001373291,-17.724000930786133 29.6560001373291,-17.724000930786133 29.6560001373291,-17.724000930786133z"></path><path stroke-linecap="round" stroke-linejoin="round" fill-opacity="0" stroke="rgb(29,29,27)" stroke-opacity="1" stroke-width="3" d=" M29.6560001373291,-17.724000930786133 C32.928001403808594,-17.724000930786133 35.48099899291992,-14.789999961853027 34.91699981689453,-11.567000389099121 C32.00199890136719,5.076000213623047 17.47800064086914,17.725000381469727 0,17.725000381469727 C-17.479000091552734,17.725000381469727 -32.00299835205078,5.076000213623047 -34.91699981689453,-11.567000389099121 C-35.48099899291992,-14.789999961853027 -32.928001403808594,-17.724000930786133 -29.6560001373291,-17.724000930786133 C-29.6560001373291,-17.724000930786133 29.6560001373291,-17.724000930786133 29.6560001373291,-17.724000930786133z"></path></g><g opacity="1" transform="matrix(1,0,0,1,276.74798583984375,443.2080078125)"><path fill="rgb(255,255,255)" fill-opacity="1" d=" M2.2249999046325684,5.318999767303467 C2.2249999046325684,5.318999767303467 -2.2260000705718994,5.318999767303467 -2.2260000705718994,5.318999767303467 C-3.7860000133514404,5.318999767303467 -5.050000190734863,4.053999900817871 -5.050000190734863,2.49399995803833 C-5.050000190734863,2.49399995803833 -5.050000190734863,-5.317999839782715 -5.050000190734863,-5.317999839782715 C-5.050000190734863,-5.317999839782715 5.050000190734863,-5.317999839782715 5.050000190734863,-5.317999839782715 C5.050000190734863,-5.317999839782715 5.050000190734863,2.49399995803833 5.050000190734863,2.49399995803833 C5.050000190734863,4.053999900817871 3.7850000858306885,5.318999767303467 2.2249999046325684,5.318999767303467z"></path><path stroke-linecap="butt" stroke-linejoin="miter" fill-opacity="0" stroke-miterlimit="10" stroke="rgb(29,29,27)" stroke-opacity="1" stroke-width="3" d=" M2.2249999046325684,5.318999767303467 C2.2249999046325684,5.318999767303467 -2.2260000705718994,5.318999767303467 -2.2260000705718994,5.318999767303467 C-3.7860000133514404,5.318999767303467 -5.050000190734863,4.053999900817871 -5.050000190734863,2.49399995803833 C-5.050000190734863,2.49399995803833 -5.050000190734863,-5.317999839782715 -5.050000190734863,-5.317999839782715 C-5.050000190734863,-5.317999839782715 5.050000190734863,-5.317999839782715 5.050000190734863,-5.317999839782715 C5.050000190734863,-5.317999839782715 5.050000190734863,2.49399995803833 5.050000190734863,2.49399995803833 C5.050000190734863,4.053999900817871 3.7850000858306885,5.318999767303467 2.2249999046325684,5.318999767303467z"></path></g><g opacity="1" transform="matrix(1,0,0,1,318.52801513671875,443.2080078125)"><path fill="rgb(255,255,255)" fill-opacity="1" d=" M2.2249999046325684,5.318999767303467 C2.2249999046325684,5.318999767303467 -2.2260000705718994,5.318999767303467 -2.2260000705718994,5.318999767303467 C-3.7860000133514404,5.318999767303467 -5.050000190734863,4.053999900817871 -5.050000190734863,2.49399995803833 C-5.050000190734863,2.49399995803833 -5.050000190734863,-5.317999839782715 -5.050000190734863,-5.317999839782715 C-5.050000190734863,-5.317999839782715 5.050000190734863,-5.317999839782715 5.050000190734863,-5.317999839782715 C5.050000190734863,-5.317999839782715 5.050000190734863,2.49399995803833 5.050000190734863,2.49399995803833 C5.050000190734863,4.053999900817871 3.7850000858306885,5.318999767303467 2.2249999046325684,5.318999767303467z"></path><path stroke-linecap="butt" stroke-linejoin="miter" fill-opacity="0" stroke-miterlimit="10" stroke="rgb(29,29,27)" stroke-opacity="1" stroke-width="3" d=" M2.2249999046325684,5.318999767303467 C2.2249999046325684,5.318999767303467 -2.2260000705718994,5.318999767303467 -2.2260000705718994,5.318999767303467 C-3.7860000133514404,5.318999767303467 -5.050000190734863,4.053999900817871 -5.050000190734863,2.49399995803833 C-5.050000190734863,2.49399995803833 -5.050000190734863,-5.317999839782715 -5.050000190734863,-5.317999839782715 C-5.050000190734863,-5.317999839782715 5.050000190734863,-5.317999839782715 5.050000190734863,-5.317999839782715 C5.050000190734863,-5.317999839782715 5.050000190734863,2.49399995803833 5.050000190734863,2.49399995803833 C5.050000190734863,4.053999900817871 3.7850000858306885,5.318999767303467 2.2249999046325684,5.318999767303467z"></path></g></g><g transform="matrix(0.9122161269187927,0,0,0.9122161269187927,54.51742172241211,243.76402282714844)" opacity="1" style="display: block;"><g opacity="1" transform="matrix(1,0,0,1,0.0430000014603138,4.341000080108643)"><path fill="rgb(84,196,219)" fill-opacity="1" d=" M40.5,-49 C40.5,-49 37.44200134277344,-35.402000427246094 40.75,-33.5 C50.75,-27.75 44.75,-49.75 44.75,-49.75"></path><path stroke-linecap="butt" stroke-linejoin="miter" fill-opacity="0" stroke-miterlimit="4" stroke="rgb(29,29,27)" stroke-opacity="1" stroke-width="3" d=" M40.5,-49 C40.5,-49 37.44200134277344,-35.402000427246094 40.75,-33.5 C50.75,-27.75 44.75,-49.75 44.75,-49.75"></path></g></g><g transform="matrix(0.127802312374115,0,0,0.127802312374115,193.18211364746094,187.88157653808594)" opacity="1" style="display: block;"><g opacity="1" transform="matrix(1,0,0,1,0.0430000014603138,4.341000080108643)"><path fill="rgb(84,196,219)" fill-opacity="1" d=" M40.5,-49 C40.5,-49 37.44200134277344,-35.402000427246094 40.75,-33.5 C50.75,-27.75 44.75,-49.75 44.75,-49.75"></path><path stroke-linecap="butt" stroke-linejoin="miter" fill-opacity="0" stroke-miterlimit="4" stroke="rgb(29,29,27)" stroke-opacity="1" stroke-width="3" d=" M40.5,-49 C40.5,-49 37.44200134277344,-35.402000427246094 40.75,-33.5 C50.75,-27.75 44.75,-49.75 44.75,-49.75"></path></g></g><g transform="matrix(0.9909346699714661,0,0,0.9909346699714661,141.13906860351562,220.63711547851562)" opacity="1" style="display: block;"><g opacity="1" transform="matrix(1,0,0,1,0.0430000014603138,4.341000080108643)"><path fill="rgb(84,196,219)" fill-opacity="1" d=" M40.5,-49 C40.5,-49 37.44200134277344,-35.402000427246094 40.75,-33.5 C50.75,-27.75 44.75,-49.75 44.75,-49.75"></path><path stroke-linecap="butt" stroke-linejoin="miter" fill-opacity="0" stroke-miterlimit="4" stroke="rgb(29,29,27)" stroke-opacity="1" stroke-width="3" d=" M40.5,-49 C40.5,-49 37.44200134277344,-35.402000427246094 40.75,-33.5 C50.75,-27.75 44.75,-49.75 44.75,-49.75"></path></g></g><g transform="matrix(1,0,0,1,-157.5749969482422,-202.83895874023438)" opacity="1" style="display: block;"><g opacity="1" transform="matrix(1,0,0,1,297.63800048828125,310.1400146484375)"><path fill="rgb(245,203,28)" fill-opacity="1" d=" M19.143999099731445,12.911999702453613 C19.143999099731445,12.911999702453613 -19.14299964904785,12.911999702453613 -19.14299964904785,12.911999702453613 C-19.14299964904785,12.911999702453613 -19.14299964904785,-9.03499984741211 -19.14299964904785,-9.03499984741211 C-19.14299964904785,-11.177000045776367 -17.408000946044922,-12.911999702453613 -15.265999794006348,-12.911999702453613 C-15.265999794006348,-12.911999702453613 15.267000198364258,-12.911999702453613 15.267000198364258,-12.911999702453613 C17.408000946044922,-12.911999702453613 19.143999099731445,-11.177000045776367 19.143999099731445,-9.03499984741211 C19.143999099731445,-9.03499984741211 19.143999099731445,12.911999702453613 19.143999099731445,12.911999702453613z"></path><path stroke-linecap="round" stroke-linejoin="round" fill-opacity="0" stroke="rgb(29,29,27)" stroke-opacity="1" stroke-width="3" d=" M19.143999099731445,12.911999702453613 C19.143999099731445,12.911999702453613 -19.14299964904785,12.911999702453613 -19.14299964904785,12.911999702453613 C-19.14299964904785,12.911999702453613 -19.14299964904785,-9.03499984741211 -19.14299964904785,-9.03499984741211 C-19.14299964904785,-11.177000045776367 -17.408000946044922,-12.911999702453613 -15.265999794006348,-12.911999702453613 C-15.265999794006348,-12.911999702453613 15.267000198364258,-12.911999702453613 15.267000198364258,-12.911999702453613 C17.408000946044922,-12.911999702453613 19.143999099731445,-11.177000045776367 19.143999099731445,-9.03499984741211 C19.143999099731445,-9.03499984741211 19.143999099731445,12.911999702453613 19.143999099731445,12.911999702453613z"></path></g><g opacity="1" transform="matrix(1,0,0,1,297.63800048828125,325.8110046386719)"><path fill="rgb(245,203,28)" fill-opacity="1" d=" M28.68600082397461,3.009000062942505 C28.68600082397461,3.009000062942505 -28.684999465942383,3.009000062942505 -28.684999465942383,3.009000062942505 C-28.684999465942383,3.009000062942505 -28.684999465942383,-3.009000062942505 -28.684999465942383,-3.009000062942505 C-28.684999465942383,-3.009000062942505 28.68600082397461,-3.009000062942505 28.68600082397461,-3.009000062942505 C28.68600082397461,-3.009000062942505 28.68600082397461,3.009000062942505 28.68600082397461,3.009000062942505z"></path><path stroke-linecap="round" stroke-linejoin="round" fill-opacity="0" stroke="rgb(29,29,27)" stroke-opacity="1" stroke-width="3" d=" M28.68600082397461,3.009000062942505 C28.68600082397461,3.009000062942505 -28.684999465942383,3.009000062942505 -28.684999465942383,3.009000062942505 C-28.684999465942383,3.009000062942505 -28.684999465942383,-3.009000062942505 -28.684999465942383,-3.009000062942505 C-28.684999465942383,-3.009000062942505 28.68600082397461,-3.009000062942505 28.68600082397461,-3.009000062942505 C28.68600082397461,-3.009000062942505 28.68600082397461,3.009000062942505 28.68600082397461,3.009000062942505z"></path></g><g opacity="1" transform="matrix(1,0,0,1,297.63800048828125,318.12200927734375)"><path fill="rgb(29,29,27)" fill-opacity="1" d=" M19.14299964904785,-3.8450000286102295 C19.14299964904785,-3.8450000286102295 -19.14299964904785,-3.8450000286102295 -19.14299964904785,-3.8450000286102295 C-19.14299964904785,-3.8450000286102295 -19.14299964904785,3.8450000286102295 -19.14299964904785,3.8450000286102295 C-19.14299964904785,3.8450000286102295 19.14299964904785,3.8450000286102295 19.14299964904785,3.8450000286102295 C19.14299964904785,3.8450000286102295 19.14299964904785,-3.8450000286102295 19.14299964904785,-3.8450000286102295z"></path><path stroke-linecap="round" stroke-linejoin="miter" fill-opacity="0" stroke-miterlimit="10" stroke="rgb(29,29,27)" stroke-opacity="1" stroke-width="3" d=" M19.14299964904785,-3.8450000286102295 C19.14299964904785,-3.8450000286102295 -19.14299964904785,-3.8450000286102295 -19.14299964904785,-3.8450000286102295 C-19.14299964904785,-3.8450000286102295 -19.14299964904785,3.8450000286102295 -19.14299964904785,3.8450000286102295 C-19.14299964904785,3.8450000286102295 19.14299964904785,3.8450000286102295 19.14299964904785,3.8450000286102295 C19.14299964904785,3.8450000286102295 19.14299964904785,-3.8450000286102295 19.14299964904785,-3.8450000286102295z"></path></g></g><g transform="matrix(1,0,0,1,139,211.79049682617188)" opacity="1" style="display: block;"><g opacity="1" transform="matrix(1,0,0,1,0,0)"><path stroke-linecap="round" stroke-linejoin="round" fill-opacity="0" stroke="rgb(245,96,185)" stroke-opacity="1" stroke-width="14" d=" M-0.5,41 C-0.5,41 -0.5,21.25 -0.5,21.25 C-0.5,21.25 11.5,24.57528305053711 11.5,24.57528305053711"></path></g></g><g transform="matrix(1,0,0,1,139,194.04049682617188)" opacity="1" style="display: block;"><g opacity="1" transform="matrix(1,0,0,1,0,0)"><path fill="rgb(84,196,219)" fill-opacity="1" d=" M15.75,54.25 C2.75,61.25 -11.75,55.25 -11.75,55.25 C-11.75,55.25 -14,64 -14,64 C-14,64 -13,69 -13,69 C-13,69 -0.75,71.875 -0.75,71.875 C-0.75,71.875 13,69 15.75,54.25z"></path></g></g><g transform="matrix(1,0,0,1,139,195.04049682617188)" opacity="1" style="display: block;"><g opacity="1" transform="matrix(1,0,0,1,0,0)"><path stroke-linecap="butt" stroke-linejoin="miter" fill-opacity="0" stroke-miterlimit="4" stroke="rgb(29,29,27)" stroke-opacity="1" stroke-width="3" d=" M-13.937999725341797,53.0620002746582 C-8.520999908447266,54.354000091552734 4.625,58.125 16.125,51.875"></path></g></g><g transform="matrix(1,0,0,1,139,195.54049682617188)" opacity="1" style="display: block;"><g opacity="1" transform="matrix(1,0,0,1,0,0)"><path stroke-linecap="round" stroke-linejoin="miter" fill-opacity="0" stroke-miterlimit="4" stroke="rgb(29,29,27)" stroke-opacity="1" stroke-width="3" d=" M7.782145023345947,47.828277587890625 C7.782145023345947,47.828277587890625 -0.18148118257522583,43.449039459228516 -0.18148118257522583,43.449039459228516"></path></g></g></g></svg>