<svg xmlns="http://www.w3.org/2000/svg" viewBox="0 0 300 300" width="300" height="300" preserveAspectRatio="xMidYMid meet" style="width: 100%; height: 100%; transform: translate3d(0px, 0px, 0px); content-visibility: visible;"><defs><clipPath id="__lottie_element_296"><rect width="300" height="300" x="0" y="0"></rect></clipPath></defs><g clip-path="url(#__lottie_element_296)"><g transform="matrix(1,0,0,1,-148,-265.85400390625)" opacity="1" style="display: block;"><g opacity="1" transform="matrix(1,0,0,1,298.11199951171875,424.72900390625)"><path fill="rgb(29,29,27)" fill-opacity="1" d=" M28.937999725341797,22.099000930786133 C28.937999725341797,22.099000930786133 -28.937999725341797,22.099000930786133 -28.937999725341797,22.099000930786133 C-29.45800018310547,22.099000930786133 -29.8799991607666,21.677000045776367 -29.8799991607666,21.156999588012695 C-29.8799991607666,21.156999588012695 -29.8799991607666,-21.099000930786133 -29.8799991607666,-21.099000930786133 C-29.8799991607666,-21.650999069213867 -29.43199920654297,-22.099000930786133 -28.8799991607666,-22.099000930786133 C-28.8799991607666,-22.099000930786133 28.8799991607666,-22.099000930786133 28.8799991607666,-22.099000930786133 C29.433000564575195,-22.099000930786133 29.8799991607666,-21.650999069213867 29.8799991607666,-21.099000930786133 C29.8799991607666,-21.099000930786133 29.8799991607666,21.156999588012695 29.8799991607666,21.156999588012695 C29.8799991607666,21.677000045776367 29.45800018310547,22.099000930786133 28.937999725341797,22.099000930786133z"></path><path stroke-linecap="butt" stroke-linejoin="miter" fill-opacity="0" stroke-miterlimit="10" stroke="rgb(29,29,27)" stroke-opacity="1" stroke-width="3" d=" M28.937999725341797,22.099000930786133 C28.937999725341797,22.099000930786133 -28.937999725341797,22.099000930786133 -28.937999725341797,22.099000930786133 C-29.45800018310547,22.099000930786133 -29.8799991607666,21.677000045776367 -29.8799991607666,21.156999588012695 C-29.8799991607666,21.156999588012695 -29.8799991607666,-21.099000930786133 -29.8799991607666,-21.099000930786133 C-29.8799991607666,-21.650999069213867 -29.43199920654297,-22.099000930786133 -28.8799991607666,-22.099000930786133 C-28.8799991607666,-22.099000930786133 28.8799991607666,-22.099000930786133 28.8799991607666,-22.099000930786133 C29.433000564575195,-22.099000930786133 29.8799991607666,-21.650999069213867 29.8799991607666,-21.099000930786133 C29.8799991607666,-21.099000930786133 29.8799991607666,21.156999588012695 29.8799991607666,21.156999588012695 C29.8799991607666,21.677000045776367 29.45800018310547,22.099000930786133 28.937999725341797,22.099000930786133z"></path></g></g><g transform="matrix(1,0,0,1,148.125,151.531005859375)" opacity="1" style="display: block;"><g opacity="1" transform="matrix(1,0,0,1,11.833000183105469,-13.416999816894531)"><path fill="rgb(255,255,255)" fill-opacity="1" d=" M0,-9.5 C5.2430500984191895,-9.5 9.5,-5.2430500984191895 9.5,0 C9.5,5.2430500984191895 5.2430500984191895,9.5 0,9.5 C-5.2430500984191895,9.5 -9.5,5.2430500984191895 -9.5,0 C-9.5,-5.2430500984191895 -5.2430500984191895,-9.5 0,-9.5z"></path><path stroke-linecap="butt" stroke-linejoin="miter" fill-opacity="0" stroke-miterlimit="4" stroke="rgb(29,29,27)" stroke-opacity="1" stroke-width="3" d=" M0,-9.5 C5.2430500984191895,-9.5 9.5,-5.2430500984191895 9.5,0 C9.5,5.2430500984191895 5.2430500984191895,9.5 0,9.5 C-5.2430500984191895,9.5 -9.5,5.2430500984191895 -9.5,0 C-9.5,-5.2430500984191895 -5.2430500984191895,-9.5 0,-9.5z"></path></g></g><g transform="matrix(0.5199999809265137,0,0,0.5199999809265137,153.80484008789062,145.09083557128906)" opacity="1" style="display: block;"><g opacity="1" transform="matrix(1,0,0,1,11.833000183105469,-13.416999816894531)"><path fill="rgb(29,29,27)" fill-opacity="1" d=" M0,-9.5 C5.2430500984191895,-9.5 9.5,-5.2430500984191895 9.5,0 C9.5,5.2430500984191895 5.2430500984191895,9.5 0,9.5 C-5.2430500984191895,9.5 -9.5,5.2430500984191895 -9.5,0 C-9.5,-5.2430500984191895 -5.2430500984191895,-9.5 0,-9.5z" style="transform: translate3d(0px, 0px, 0px);"></path></g></g><g transform="matrix(1,0,0,1,128.875,151.531005859375)" opacity="1" style="display: block;"><g opacity="1" transform="matrix(1,0,0,1,11.833000183105469,-13.416999816894531)"><path fill="rgb(255,255,255)" fill-opacity="1" d=" M0,-9.5 C5.2430500984191895,-9.5 9.5,-5.2430500984191895 9.5,0 C9.5,5.2430500984191895 5.2430500984191895,9.5 0,9.5 C-5.2430500984191895,9.5 -9.5,5.2430500984191895 -9.5,0 C-9.5,-5.2430500984191895 -5.2430500984191895,-9.5 0,-9.5z"></path><path stroke-linecap="butt" stroke-linejoin="miter" fill-opacity="0" stroke-miterlimit="4" stroke="rgb(29,29,27)" stroke-opacity="1" stroke-width="3" d=" M0,-9.5 C5.2430500984191895,-9.5 9.5,-5.2430500984191895 9.5,0 C9.5,5.2430500984191895 5.2430500984191895,9.5 0,9.5 C-5.2430500984191895,9.5 -9.5,5.2430500984191895 -9.5,0 C-9.5,-5.2430500984191895 -5.2430500984191895,-9.5 0,-9.5z"></path></g></g><g transform="matrix(0.5199999809265137,0,0,0.5199999809265137,134.554443359375,145.09083557128906)" opacity="1" style="display: block;"><g opacity="1" transform="matrix(1,0,0,1,11.833000183105469,-13.416999816894531)"><path fill="rgb(29,29,27)" fill-opacity="1" d=" M0,-9.5 C5.2430500984191895,-9.5 9.5,-5.2430500984191895 9.5,0 C9.5,5.2430500984191895 5.2430500984191895,9.5 0,9.5 C-5.2430500984191895,9.5 -9.5,5.2430500984191895 -9.5,0 C-9.5,-5.2430500984191895 -5.2430500984191895,-9.5 0,-9.5z" style="transform: translate3d(0px, 0px, 0px);"></path></g></g><g transform="matrix(1,0,0,1,164.75,116.55599975585938)" opacity="1" style="display: block;"><g opacity="1" transform="matrix(1,0,0,1,0,0)"><path stroke-linecap="butt" stroke-linejoin="miter" fill-opacity="0" stroke-miterlimit="4" stroke="rgb(245,203,28)" stroke-opacity="1" stroke-width="3" d=" M3.625,53.75 C3.625,53.75 3.625,41.861000061035156 3.625,39.801998138427734"></path></g></g><g transform="matrix(1,0,0,1,157.25,116.55599975585938)" opacity="1" style="display: block;"><g opacity="1" transform="matrix(1,0,0,1,0,0)"><path stroke-linecap="butt" stroke-linejoin="miter" fill-opacity="0" stroke-miterlimit="4" stroke="rgb(245,203,28)" stroke-opacity="1" stroke-width="3" d=" M3.625,53.75 C3.625,53.75 3.625,51.9010009765625 3.625,49.53499984741211"></path></g></g><g transform="matrix(1,0,0,1,149.75,116.55599975585938)" opacity="1" style="display: block;"><g opacity="1" transform="matrix(1,0,0,1,0,0)"><path stroke-linecap="butt" stroke-linejoin="miter" fill-opacity="0" stroke-miterlimit="4" stroke="rgb(245,203,28)" stroke-opacity="1" stroke-width="3" d=" M3.625,53.75 C3.625,53.75 3.625,41.861000061035156 3.625,39.801998138427734"></path></g></g><g transform="matrix(1,0,0,1,150.25,114.93099975585938)" opacity="1" style="display: block;"><g opacity="1" transform="matrix(1,0,0,1,-14.055999755859375,48.069000244140625)"><path stroke-linecap="butt" stroke-linejoin="miter" fill-opacity="0" stroke-miterlimit="4" stroke="rgb(245,96,185)" stroke-opacity="1" stroke-width="3" d=" M0,-6.81850004196167 C3.7631301879882812,-6.81850004196167 6.81850004196167,-3.7631301879882812 6.81850004196167,0 C6.81850004196167,3.7631301879882812 3.7631301879882812,6.81850004196167 0,6.81850004196167 C-1.3109999895095825,6.818999767303467 -2.5369999408721924,6.447000026702881 -3.5769999027252197,5.804999828338623"></path></g></g></g></svg>