<svg xmlns="http://www.w3.org/2000/svg" viewBox="0 0 278 392" width="278" height="392" preserveAspectRatio="xMidYMid meet" style="width: 100%; height: 100%; transform: translate3d(0px, 0px, 0px); content-visibility: visible;"><defs><clipPath id="__lottie_element_447"><rect width="278" height="392" x="0" y="0"></rect></clipPath><mask id="__lottie_element_490" mask-type="alpha"><g transform="matrix(0.0014541830169036984,0,0,0.0014541830169036984,135.50668334960938,239.7890625)" opacity="1" style="display: none;"><g opacity="1" transform="matrix(1,0,0,1,-4.59499979019165,21.361000061035156)"><path fill="rgb(29,29,27)" fill-opacity="1" d=" M32.65549850463867,0 C32.65549850463867,0 32.65549850463867,0 32.65549850463867,0 C32.65549850463867,9.818577766418457 24.683574676513672,17.79050064086914 14.864997863769531,17.79050064086914 C14.864997863769531,17.79050064086914 -14.864997863769531,17.79050064086914 -14.864997863769531,17.79050064086914 C-24.683574676513672,17.79050064086914 -32.65549850463867,9.818577766418457 -32.65549850463867,0 C-32.65549850463867,0 -32.65549850463867,0 -32.65549850463867,0 C-32.65549850463867,-9.818577766418457 -24.683574676513672,-17.79050064086914 -14.864997863769531,-17.79050064086914 C-14.864997863769531,-17.79050064086914 14.864997863769531,-17.79050064086914 14.864997863769531,-17.79050064086914 C24.683574676513672,-17.79050064086914 32.65549850463867,-9.818577766418457 32.65549850463867,0z"></path><path stroke-linecap="butt" stroke-linejoin="miter" fill-opacity="0" stroke-miterlimit="4" stroke="rgb(29,29,27)" stroke-opacity="1" stroke-width="3" d=" M32.65549850463867,0 C32.65549850463867,0 32.65549850463867,0 32.65549850463867,0 C32.65549850463867,9.818577766418457 24.683574676513672,17.79050064086914 14.864997863769531,17.79050064086914 C14.864997863769531,17.79050064086914 -14.864997863769531,17.79050064086914 -14.864997863769531,17.79050064086914 C-24.683574676513672,17.79050064086914 -32.65549850463867,9.818577766418457 -32.65549850463867,0 C-32.65549850463867,0 -32.65549850463867,0 -32.65549850463867,0 C-32.65549850463867,-9.818577766418457 -24.683574676513672,-17.79050064086914 -14.864997863769531,-17.79050064086914 C-14.864997863769531,-17.79050064086914 14.864997863769531,-17.79050064086914 14.864997863769531,-17.79050064086914 C24.683574676513672,-17.79050064086914 32.65549850463867,-9.818577766418457 32.65549850463867,0z"></path></g></g></mask><mask id="__lottie_element_496" mask-type="alpha"><g transform="matrix(0.0014541830169036984,0,0,0.0014541830169036984,135.50668334960938,239.7890625)" opacity="1" style="display: none;"><g opacity="1" transform="matrix(1,0,0,1,-4.59499979019165,21.361000061035156)"><path fill="rgb(29,29,27)" fill-opacity="1" d=" M32.65549850463867,0 C32.65549850463867,0 32.65549850463867,0 32.65549850463867,0 C32.65549850463867,9.818577766418457 24.683574676513672,17.79050064086914 14.864997863769531,17.79050064086914 C14.864997863769531,17.79050064086914 -14.864997863769531,17.79050064086914 -14.864997863769531,17.79050064086914 C-24.683574676513672,17.79050064086914 -32.65549850463867,9.818577766418457 -32.65549850463867,0 C-32.65549850463867,0 -32.65549850463867,0 -32.65549850463867,0 C-32.65549850463867,-9.818577766418457 -24.683574676513672,-17.79050064086914 -14.864997863769531,-17.79050064086914 C-14.864997863769531,-17.79050064086914 14.864997863769531,-17.79050064086914 14.864997863769531,-17.79050064086914 C24.683574676513672,-17.79050064086914 32.65549850463867,-9.818577766418457 32.65549850463867,0z"></path><path stroke-linecap="butt" stroke-linejoin="miter" fill-opacity="0" stroke-miterlimit="4" stroke="rgb(29,29,27)" stroke-opacity="1" stroke-width="3" d=" M32.65549850463867,0 C32.65549850463867,0 32.65549850463867,0 32.65549850463867,0 C32.65549850463867,9.818577766418457 24.683574676513672,17.79050064086914 14.864997863769531,17.79050064086914 C14.864997863769531,17.79050064086914 -14.864997863769531,17.79050064086914 -14.864997863769531,17.79050064086914 C-24.683574676513672,17.79050064086914 -32.65549850463867,9.818577766418457 -32.65549850463867,0 C-32.65549850463867,0 -32.65549850463867,0 -32.65549850463867,0 C-32.65549850463867,-9.818577766418457 -24.683574676513672,-17.79050064086914 -14.864997863769531,-17.79050064086914 C-14.864997863769531,-17.79050064086914 14.864997863769531,-17.79050064086914 14.864997863769531,-17.79050064086914 C24.683574676513672,-17.79050064086914 32.65549850463867,-9.818577766418457 32.65549850463867,0z"></path></g></g></mask></defs><g clip-path="url(#__lottie_element_447)"><g transform="matrix(1,0,0,1,-162.5,-216)" opacity="1" style="display: block;"><g opacity="1" transform="matrix(1,0,0,1,298.11199951171875,426.0889892578125)"><path fill="rgb(255,255,255)" fill-opacity="1" d=" M71.00399780273438,0 C71.00399780273438,35.95000076293945 39.2140007019043,65.09300231933594 0,65.09300231933594 C-39.2140007019043,65.09300231933594 -71.00399780273438,35.95000076293945 -71.00399780273438,0 C-71.00399780273438,-35.95000076293945 -39.2140007019043,-65.09300231933594 0,-65.09300231933594 C39.2140007019043,-65.09300231933594 71.00399780273438,-35.95000076293945 71.00399780273438,0z"></path><path stroke-linecap="round" stroke-linejoin="round" fill-opacity="0" stroke="rgb(29,29,27)" stroke-opacity="1" stroke-width="3" d=" M71.00399780273438,0 C71.00399780273438,35.95000076293945 39.2140007019043,65.09300231933594 0,65.09300231933594 C-39.2140007019043,65.09300231933594 -71.00399780273438,35.95000076293945 -71.00399780273438,0 C-71.00399780273438,-35.95000076293945 -39.2140007019043,-65.09300231933594 0,-65.09300231933594 C39.2140007019043,-65.09300231933594 71.00399780273438,-35.95000076293945 71.00399780273438,0z"></path></g><g opacity="1" transform="matrix(1,0,0,1,298.11199951171875,426.0889892578125)"><path fill="rgb(255,211,26)" fill-opacity="1" d=" M47.034000396728516,0 C47.034000396728516,23.81399917602539 25.975000381469727,43.11800003051758 -0.0010000000474974513,43.11800003051758 C-25.976999282836914,43.11800003051758 -47.03300094604492,23.81399917602539 -47.03300094604492,0 C-47.03300094604492,-23.81399917602539 -25.976999282836914,-43.11800003051758 -0.0010000000474974513,-43.11800003051758 C25.975000381469727,-43.11800003051758 47.034000396728516,-23.81399917602539 47.034000396728516,0z"></path><path stroke-linecap="round" stroke-linejoin="round" fill-opacity="0" stroke="rgb(29,29,27)" stroke-opacity="1" stroke-width="3" d=" M47.034000396728516,0 C47.034000396728516,23.81399917602539 25.975000381469727,43.11800003051758 -0.0010000000474974513,43.11800003051758 C-25.976999282836914,43.11800003051758 -47.03300094604492,23.81399917602539 -47.03300094604492,0 C-47.03300094604492,-23.81399917602539 -25.976999282836914,-43.11800003051758 -0.0010000000474974513,-43.11800003051758 C25.975000381469727,-43.11800003051758 47.034000396728516,-23.81399917602539 47.034000396728516,0z"></path></g></g><g transform="matrix(1,0,0,1,-162.5,-216)" opacity="1" style="display: block;"><g opacity="1" transform="matrix(1,0,0,1,298.11199951171875,411.0589904785156)"><path fill="rgb(29,29,27)" fill-opacity="1" d=" M5.394999980926514,0 C5.394999980926514,1.3070000410079956 2.9790000915527344,2.367000102996826 -0.0010000000474974513,2.367000102996826 C-2.9800000190734863,2.367000102996826 -5.394999980926514,1.3070000410079956 -5.394999980926514,0 C-5.394999980926514,-1.3070000410079956 -2.9800000190734863,-2.367000102996826 -0.0010000000474974513,-2.367000102996826 C2.9790000915527344,-2.367000102996826 5.394999980926514,-1.3070000410079956 5.394999980926514,0z"></path><path stroke-linecap="round" stroke-linejoin="round" fill-opacity="0" stroke="rgb(29,29,27)" stroke-opacity="1" stroke-width="3" d=" M5.394999980926514,0 C5.394999980926514,1.3070000410079956 2.9790000915527344,2.367000102996826 -0.0010000000474974513,2.367000102996826 C-2.9800000190734863,2.367000102996826 -5.394999980926514,1.3070000410079956 -5.394999980926514,0 C-5.394999980926514,-1.3070000410079956 -2.9800000190734863,-2.367000102996826 -0.0010000000474974513,-2.367000102996826 C2.9790000915527344,-2.367000102996826 5.394999980926514,-1.3070000410079956 5.394999980926514,0z"></path></g></g><g transform="matrix(1,0,0,1,-162.5,-216)" opacity="1" style="display: block;"><g opacity="1" transform="matrix(1,0,0,1,280.00201416015625,409.55999755859375)"><path fill="rgb(29,29,27)" fill-opacity="1" d=" M2.1050000190734863,0 C2.1050000190734863,1.1619999408721924 1.1629999876022339,2.1040000915527344 0.0010000000474974513,2.1040000915527344 C-1.1619999408721924,2.1040000915527344 -2.1040000915527344,1.1619999408721924 -2.1040000915527344,0 C-2.1040000915527344,-1.1619999408721924 -1.1619999408721924,-2.1040000915527344 0.0010000000474974513,-2.1040000915527344 C1.1629999876022339,-2.1040000915527344 2.1050000190734863,-1.1619999408721924 2.1050000190734863,0z"></path></g><g opacity="1" transform="matrix(1,0,0,1,316.22198486328125,409.55999755859375)"><path fill="rgb(29,29,27)" fill-opacity="1" d=" M2.1050000190734863,0 C2.1050000190734863,1.1619999408721924 1.1629999876022339,2.1040000915527344 0.0010000000474974513,2.1040000915527344 C-1.1619999408721924,2.1040000915527344 -2.1040000915527344,1.1619999408721924 -2.1040000915527344,0 C-2.1040000915527344,-1.1619999408721924 -1.1619999408721924,-2.1040000915527344 0.0010000000474974513,-2.1040000915527344 C1.1629999876022339,-2.1040000915527344 2.1050000190734863,-1.1619999408721924 2.1050000190734863,0z"></path></g></g><g transform="matrix(1,0,0,1,-162.5,-211)" opacity="1" style="display: block;"><g opacity="1" transform="matrix(1,0,0,1,255.5399932861328,368.14300537109375)"><path fill="rgb(255,255,255)" fill-opacity="1" d=" M0,16.51300048828125 C-9.119999885559082,16.51300048828125 -16.513999938964844,9.121000289916992 -16.513999938964844,0 C-16.513999938964844,-9.119999885559082 -9.119999885559082,-16.51300048828125 0,-16.51300048828125 C9.119999885559082,-16.51300048828125 16.513999938964844,-9.119999885559082 16.513999938964844,0"></path><path stroke-linecap="round" stroke-linejoin="round" fill-opacity="0" stroke="rgb(29,29,27)" stroke-opacity="1" stroke-width="3" d=" M0,16.51300048828125 C-9.119999885559082,16.51300048828125 -16.513999938964844,9.121000289916992 -16.513999938964844,0 C-16.513999938964844,-9.119999885559082 -9.119999885559082,-16.51300048828125 0,-16.51300048828125 C9.119999885559082,-16.51300048828125 16.513999938964844,-9.119999885559082 16.513999938964844,0"></path></g><g opacity="1" transform="matrix(1,0,0,1,255.5399932861328,368.14300537109375)"><path fill="rgb(255,255,255)" fill-opacity="1" d=" M0,7.146999835968018 C-3.947000026702881,7.146999835968018 -7.146999835968018,3.947000026702881 -7.146999835968018,0 C-7.146999835968018,-3.947000026702881 -3.947000026702881,-7.146999835968018 0,-7.146999835968018 C3.947000026702881,-7.146999835968018 7.146999835968018,-3.947000026702881 7.146999835968018,0"></path><path stroke-linecap="round" stroke-linejoin="round" fill-opacity="0" stroke="rgb(29,29,27)" stroke-opacity="1" stroke-width="3" d=" M0,7.146999835968018 C-3.947000026702881,7.146999835968018 -7.146999835968018,3.947000026702881 -7.146999835968018,0 C-7.146999835968018,-3.947000026702881 -3.947000026702881,-7.146999835968018 0,-7.146999835968018 C3.947000026702881,-7.146999835968018 7.146999835968018,-3.947000026702881 7.146999835968018,0"></path></g></g><g transform="matrix(1,0,0,1,-162.5,-211)" opacity="1" style="display: block;"><g opacity="1" transform="matrix(1,0,0,1,340.6839904785156,368.14300537109375)"><path fill="rgb(255,255,255)" fill-opacity="1" d=" M0,16.51300048828125 C9.119999885559082,16.51300048828125 16.513999938964844,9.121000289916992 16.513999938964844,0 C16.513999938964844,-9.119999885559082 9.119999885559082,-16.51300048828125 0,-16.51300048828125 C-9.119999885559082,-16.51300048828125 -16.513999938964844,-9.119999885559082 -16.513999938964844,0"></path><path stroke-linecap="round" stroke-linejoin="round" fill-opacity="0" stroke="rgb(29,29,27)" stroke-opacity="1" stroke-width="3" d=" M0,16.51300048828125 C9.119999885559082,16.51300048828125 16.513999938964844,9.121000289916992 16.513999938964844,0 C16.513999938964844,-9.119999885559082 9.119999885559082,-16.51300048828125 0,-16.51300048828125 C-9.119999885559082,-16.51300048828125 -16.513999938964844,-9.119999885559082 -16.513999938964844,0"></path></g><g opacity="1" transform="matrix(1,0,0,1,340.6839904785156,368.14300537109375)"><path fill="rgb(255,255,255)" fill-opacity="1" d=" M0,7.146999835968018 C3.947000026702881,7.146999835968018 7.146999835968018,3.947000026702881 7.146999835968018,0 C7.146999835968018,-3.947000026702881 3.947000026702881,-7.146999835968018 0,-7.146999835968018 C-3.947000026702881,-7.146999835968018 -7.146999835968018,-3.947000026702881 -7.146999835968018,0"></path><path stroke-linecap="round" stroke-linejoin="round" fill-opacity="0" stroke="rgb(29,29,27)" stroke-opacity="1" stroke-width="3" d=" M0,7.146999835968018 C3.947000026702881,7.146999835968018 7.146999835968018,3.947000026702881 7.146999835968018,0 C7.146999835968018,-3.947000026702881 3.947000026702881,-7.146999835968018 0,-7.146999835968018 C-3.947000026702881,-7.146999835968018 -7.146999835968018,-3.947000026702881 -7.146999835968018,0"></path></g></g><g transform="matrix(1,0,0,1,-162.5,-123.5)" opacity="1" style="display: block;"><g opacity="1" transform="matrix(1,0,0,1,0,0)"><path fill="rgb(29,29,27)" fill-opacity="1" d=" M289.0419921875,331.2309875488281 C289.0419921875,331.2309875488281 306.9859924316406,331.2309875488281 306.9859924316406,331.2309875488281 C306.9859924316406,331.2309875488281 289.0419921875,331.2309875488281 289.0419921875,331.2309875488281z"></path></g><g opacity="1" transform="matrix(1,0,0,1,0,0)"><path stroke-linecap="round" stroke-linejoin="round" fill-opacity="0" stroke="rgb(29,29,27)" stroke-opacity="1" stroke-width="3" d=" M289.0419921875,331.2309875488281 C289.0419921875,331.2309875488281 306.98699951171875,331.2309875488281 306.98699951171875,331.2309875488281"></path></g><g opacity="1" transform="matrix(1,0,0,1,309.135986328125,334.70098876953125)"><path fill="rgb(255,211,26)" fill-opacity="1" d=" M4.046000003814697,8.090999603271484 C-0.4230000078678131,8.090999603271484 -4.046000003814697,4.468999862670898 -4.046000003814697,0 C-4.046000003814697,-4.468999862670898 -0.4230000078678131,-8.090999603271484 4.046000003814697,-8.090999603271484"></path><path stroke-linecap="round" stroke-linejoin="round" fill-opacity="0" stroke="rgb(29,29,27)" stroke-opacity="1" stroke-width="3" d=" M4.046000003814697,8.090999603271484 C-0.4230000078678131,8.090999603271484 -4.046000003814697,4.468999862670898 -4.046000003814697,0 C-4.046000003814697,-4.468999862670898 -0.4230000078678131,-8.090999603271484 4.046000003814697,-8.090999603271484"></path></g><g opacity="1" transform="matrix(1,0,0,1,287.0880126953125,334.70098876953125)"><path fill="rgb(255,211,26)" fill-opacity="1" d=" M-4.046000003814697,8.090999603271484 C0.4230000078678131,8.090999603271484 4.046000003814697,4.468999862670898 4.046000003814697,0 C4.046000003814697,-4.468999862670898 0.4230000078678131,-8.090999603271484 -4.046000003814697,-8.090999603271484"></path><path stroke-linecap="round" stroke-linejoin="round" fill-opacity="0" stroke="rgb(29,29,27)" stroke-opacity="1" stroke-width="3" d=" M-4.046000003814697,8.090999603271484 C0.4230000078678131,8.090999603271484 4.046000003814697,4.468999862670898 4.046000003814697,0 C4.046000003814697,-4.468999862670898 0.4230000078678131,-8.090999603271484 -4.046000003814697,-8.090999603271484"></path></g></g><g transform="matrix(1,0,0,1,-162.5,-123.98263549804688)" opacity="1" style="display: none;"><g opacity="1" transform="matrix(1,0,0,1,0,0)"><path fill="rgb(29,29,27)" fill-opacity="1" d=" M289.0419921875,331.2309875488281 C289.0419921875,331.2309875488281 306.9859924316406,331.2309875488281 306.9859924316406,331.2309875488281 C306.9859924316406,331.2309875488281 289.0419921875,331.2309875488281 289.0419921875,331.2309875488281z"></path></g><g opacity="1" transform="matrix(1,0,0,1,0,0)"><path stroke-linecap="round" stroke-linejoin="round" fill-opacity="0" stroke="rgb(29,29,27)" stroke-opacity="1" stroke-width="3" d=" M289.0419921875,331.2309875488281 C289.0419921875,331.2309875488281 306.98699951171875,331.2309875488281 306.98699951171875,331.2309875488281"></path></g><g opacity="1" transform="matrix(1,0,0,1,309.135986328125,334.70098876953125)"><path fill="rgb(255,211,26)" fill-opacity="1" d=" M4.046000003814697,8.090999603271484 C-0.4230000078678131,8.090999603271484 -4.046000003814697,4.468999862670898 -4.046000003814697,0 C-4.046000003814697,-4.468999862670898 -0.4230000078678131,-8.090999603271484 4.046000003814697,-8.090999603271484"></path><path stroke-linecap="round" stroke-linejoin="round" fill-opacity="0" stroke="rgb(29,29,27)" stroke-opacity="1" stroke-width="3" d=" M4.046000003814697,8.090999603271484 C-0.4230000078678131,8.090999603271484 -4.046000003814697,4.468999862670898 -4.046000003814697,0 C-4.046000003814697,-4.468999862670898 -0.4230000078678131,-8.090999603271484 4.046000003814697,-8.090999603271484"></path></g><g opacity="1" transform="matrix(1,0,0,1,287.0880126953125,334.70098876953125)"><path fill="rgb(255,211,26)" fill-opacity="1" d=" M-4.046000003814697,8.090999603271484 C0.4230000078678131,8.090999603271484 4.046000003814697,4.468999862670898 4.046000003814697,0 C4.046000003814697,-4.468999862670898 0.4230000078678131,-8.090999603271484 -4.046000003814697,-8.090999603271484"></path><path stroke-linecap="round" stroke-linejoin="round" fill-opacity="0" stroke="rgb(29,29,27)" stroke-opacity="1" stroke-width="3" d=" M-4.046000003814697,8.090999603271484 C0.4230000078678131,8.090999603271484 4.046000003814697,4.468999862670898 4.046000003814697,0 C4.046000003814697,-4.468999862670898 0.4230000078678131,-8.090999603271484 -4.046000003814697,-8.090999603271484"></path></g></g><g transform="matrix(0.0014541830169036984,0,0,0.0014541830169036984,135.50668334960938,239.7890625)" opacity="1" style="display: none;"><g opacity="1" transform="matrix(1,0,0,1,-4.59499979019165,21.361000061035156)"><path fill="rgb(29,29,27)" fill-opacity="1" d=" M32.65549850463867,0 C32.65549850463867,0 32.65549850463867,0 32.65549850463867,0 C32.65549850463867,9.818577766418457 24.683574676513672,17.79050064086914 14.864997863769531,17.79050064086914 C14.864997863769531,17.79050064086914 -14.864997863769531,17.79050064086914 -14.864997863769531,17.79050064086914 C-24.683574676513672,17.79050064086914 -32.65549850463867,9.818577766418457 -32.65549850463867,0 C-32.65549850463867,0 -32.65549850463867,0 -32.65549850463867,0 C-32.65549850463867,-9.818577766418457 -24.683574676513672,-17.79050064086914 -14.864997863769531,-17.79050064086914 C-14.864997863769531,-17.79050064086914 14.864997863769531,-17.79050064086914 14.864997863769531,-17.79050064086914 C24.683574676513672,-17.79050064086914 32.65549850463867,-9.818577766418457 32.65549850463867,0z"></path><path stroke-linecap="butt" stroke-linejoin="miter" fill-opacity="0" stroke-miterlimit="4" stroke="rgb(29,29,27)" stroke-opacity="1" stroke-width="3" d=" M32.65549850463867,0 C32.65549850463867,0 32.65549850463867,0 32.65549850463867,0 C32.65549850463867,9.818577766418457 24.683574676513672,17.79050064086914 14.864997863769531,17.79050064086914 C14.864997863769531,17.79050064086914 -14.864997863769531,17.79050064086914 -14.864997863769531,17.79050064086914 C-24.683574676513672,17.79050064086914 -32.65549850463867,9.818577766418457 -32.65549850463867,0 C-32.65549850463867,0 -32.65549850463867,0 -32.65549850463867,0 C-32.65549850463867,-9.818577766418457 -24.683574676513672,-17.79050064086914 -14.864997863769531,-17.79050064086914 C-14.864997863769531,-17.79050064086914 14.864997863769531,-17.79050064086914 14.864997863769531,-17.79050064086914 C24.683574676513672,-17.79050064086914 32.65549850463867,-9.818577766418457 32.65549850463867,0z"></path></g></g><g mask="url(#__lottie_element_496)" style="display: none;"><g transform="matrix(1,0,0,1,144.875,224.197998046875)" opacity="1"><g opacity="1" transform="matrix(1,0,0,1,-8.767999649047852,33.85900115966797)"><path fill="rgb(245,96,185)" fill-opacity="1" d=" M0,-10.129500389099121 C5.590471267700195,-10.129500389099121 10.129500389099121,-5.590471267700195 10.129500389099121,0 C10.129500389099121,5.590471267700195 5.590471267700195,10.129500389099121 0,10.129500389099121 C-5.590471267700195,10.129500389099121 -10.129500389099121,5.590471267700195 -10.129500389099121,0 C-10.129500389099121,-5.590471267700195 -5.590471267700195,-10.129500389099121 0,-10.129500389099121z"></path><path stroke-linecap="butt" stroke-linejoin="miter" fill-opacity="0" stroke-miterlimit="4" stroke="rgb(29,29,27)" stroke-opacity="1" stroke-width="3" d=" M0,-10.129500389099121 C5.590471267700195,-10.129500389099121 10.129500389099121,-5.590471267700195 10.129500389099121,0 C10.129500389099121,5.590471267700195 5.590471267700195,10.129500389099121 0,10.129500389099121 C-5.590471267700195,10.129500389099121 -10.129500389099121,5.590471267700195 -10.129500389099121,0 C-10.129500389099121,-5.590471267700195 -5.590471267700195,-10.129500389099121 0,-10.129500389099121z"></path></g></g></g><g mask="url(#__lottie_element_490)" style="display: none;"><g transform="matrix(1,0,0,1,-162.5,-193.54449462890625)" opacity="1"><g opacity="1" transform="matrix(1,0,0,1,290.9679870605469,426.0889892578125)"><path fill="rgb(255,255,255)" fill-opacity="1" d=" M2.6389999389648438,7.144000053405762 C2.6389999389648438,7.144000053405762 -2.6389999389648438,7.144000053405762 -2.6389999389648438,7.144000053405762 C-5.126999855041504,7.144000053405762 -7.144000053405762,5.126999855041504 -7.144000053405762,2.6389999389648438 C-7.144000053405762,2.6389999389648438 -7.144000053405762,-7.144000053405762 -7.144000053405762,-7.144000053405762 C-7.144000053405762,-7.144000053405762 7.144000053405762,-7.144000053405762 7.144000053405762,-7.144000053405762 C7.144000053405762,-7.144000053405762 7.144000053405762,2.6389999389648438 7.144000053405762,2.6389999389648438 C7.144000053405762,5.126999855041504 5.126999855041504,7.144000053405762 2.6389999389648438,7.144000053405762z"></path><path stroke-linecap="round" stroke-linejoin="round" fill-opacity="0" stroke="rgb(29,29,27)" stroke-opacity="1" stroke-width="3" d=" M2.6389999389648438,7.144000053405762 C2.6389999389648438,7.144000053405762 -2.6389999389648438,7.144000053405762 -2.6389999389648438,7.144000053405762 C-5.126999855041504,7.144000053405762 -7.144000053405762,5.126999855041504 -7.144000053405762,2.6389999389648438 C-7.144000053405762,2.6389999389648438 -7.144000053405762,-7.144000053405762 -7.144000053405762,-7.144000053405762 C-7.144000053405762,-7.144000053405762 7.144000053405762,-7.144000053405762 7.144000053405762,-7.144000053405762 C7.144000053405762,-7.144000053405762 7.144000053405762,2.6389999389648438 7.144000053405762,2.6389999389648438 C7.144000053405762,5.126999855041504 5.126999855041504,7.144000053405762 2.6389999389648438,7.144000053405762z"></path></g><g opacity="1" transform="matrix(1,0,0,1,305.2560119628906,426.0889892578125)"><path fill="rgb(255,255,255)" fill-opacity="1" d=" M2.6389999389648438,7.144000053405762 C2.6389999389648438,7.144000053405762 -2.6389999389648438,7.144000053405762 -2.6389999389648438,7.144000053405762 C-5.126999855041504,7.144000053405762 -7.144000053405762,5.126999855041504 -7.144000053405762,2.6389999389648438 C-7.144000053405762,2.6389999389648438 -7.144000053405762,-7.144000053405762 -7.144000053405762,-7.144000053405762 C-7.144000053405762,-7.144000053405762 7.144000053405762,-7.144000053405762 7.144000053405762,-7.144000053405762 C7.144000053405762,-7.144000053405762 7.144000053405762,2.6389999389648438 7.144000053405762,2.6389999389648438 C7.144000053405762,5.126999855041504 5.126999855041504,7.144000053405762 2.6389999389648438,7.144000053405762z"></path><path stroke-linecap="round" stroke-linejoin="round" fill-opacity="0" stroke="rgb(29,29,27)" stroke-opacity="1" stroke-width="3" d=" M2.6389999389648438,7.144000053405762 C2.6389999389648438,7.144000053405762 -2.6389999389648438,7.144000053405762 -2.6389999389648438,7.144000053405762 C-5.126999855041504,7.144000053405762 -7.144000053405762,5.126999855041504 -7.144000053405762,2.6389999389648438 C-7.144000053405762,2.6389999389648438 -7.144000053405762,-7.144000053405762 -7.144000053405762,-7.144000053405762 C-7.144000053405762,-7.144000053405762 7.144000053405762,-7.144000053405762 7.144000053405762,-7.144000053405762 C7.144000053405762,-7.144000053405762 7.144000053405762,2.6389999389648438 7.144000053405762,2.6389999389648438 C7.144000053405762,5.126999855041504 5.126999855041504,7.144000053405762 2.6389999389648438,7.144000053405762z"></path></g></g></g><g transform="matrix(0.0014541830169036984,0,0,0.0014541830169036984,135.50668334960938,239.7890625)" opacity="1" style="display: none;"><g opacity="1" transform="matrix(1,0,0,1,-4.59499979019165,21.361000061035156)"><path stroke-linecap="butt" stroke-linejoin="miter" fill-opacity="0" stroke-miterlimit="4" stroke="rgb(29,29,27)" stroke-opacity="1" stroke-width="3" d=" M32.65549850463867,0 C32.65549850463867,0 32.65549850463867,0 32.65549850463867,0 C32.65549850463867,9.818577766418457 24.683574676513672,17.79050064086914 14.864997863769531,17.79050064086914 C14.864997863769531,17.79050064086914 -14.864997863769531,17.79050064086914 -14.864997863769531,17.79050064086914 C-24.683574676513672,17.79050064086914 -32.65549850463867,9.818577766418457 -32.65549850463867,0 C-32.65549850463867,0 -32.65549850463867,0 -32.65549850463867,0 C-32.65549850463867,-9.818577766418457 -24.683574676513672,-17.79050064086914 -14.864997863769531,-17.79050064086914 C-14.864997863769531,-17.79050064086914 14.864997863769531,-17.79050064086914 14.864997863769531,-17.79050064086914 C24.683574676513672,-17.79050064086914 32.65549850463867,-9.818577766418457 32.65549850463867,0z"></path></g></g><g transform="matrix(1,0,0,1,139,196)" opacity="1" style="display: block;"><g opacity="1" transform="matrix(1,0,0,1,0,0)"><path stroke-linecap="butt" stroke-linejoin="miter" fill-opacity="0" stroke-miterlimit="4" stroke="rgb(29,29,27)" stroke-opacity="1" stroke-width="3" d=" M-3.125,12.125 C-3.125,12.125 -3.25,1.625 -3.25,1.625"></path></g></g><g transform="matrix(0,0,0,0,97.68099975585938,209.68099975585938)" opacity="1" style="display: block;"><g opacity="1" transform="matrix(1,0,0,1,86.18099975585938,-1.069000005722046)"><path fill="rgb(29,29,27)" fill-opacity="1" d=" M3.680999994277954,-3.680999994277954 C3.680999994277954,-3.680999994277954 3.680999994277954,3.680999994277954 3.680999994277954,3.680999994277954 C3.680999994277954,3.680999994277954 -3.680999994277954,3.680999994277954 -3.680999994277954,3.680999994277954 C-3.680999994277954,3.680999994277954 -3.680999994277954,-3.680999994277954 -3.680999994277954,-3.680999994277954 C-3.680999994277954,-3.680999994277954 3.680999994277954,-3.680999994277954 3.680999994277954,-3.680999994277954z"></path></g></g><g transform="matrix(0,0,0,0,168.68099975585938,214.18099975585938)" opacity="1" style="display: block;"><g opacity="1" transform="matrix(1,0,0,1,86.18099975585938,-1.069000005722046)"><path fill="rgb(29,29,27)" fill-opacity="1" d=" M3.680999994277954,-3.680999994277954 C3.680999994277954,-3.680999994277954 3.680999994277954,3.680999994277954 3.680999994277954,3.680999994277954 C3.680999994277954,3.680999994277954 -3.680999994277954,3.680999994277954 -3.680999994277954,3.680999994277954 C-3.680999994277954,3.680999994277954 -3.680999994277954,-3.680999994277954 -3.680999994277954,-3.680999994277954 C-3.680999994277954,-3.680999994277954 3.680999994277954,-3.680999994277954 3.680999994277954,-3.680999994277954z"></path></g></g><g transform="matrix(0,0,0,0,101.18099975585938,216.18099975585938)" opacity="1" style="display: block;"><g opacity="1" transform="matrix(1,0,0,1,86.18099975585938,-1.069000005722046)"><path fill="rgb(29,29,27)" fill-opacity="1" d=" M3.680999994277954,-3.680999994277954 C3.680999994277954,-3.680999994277954 3.680999994277954,3.680999994277954 3.680999994277954,3.680999994277954 C3.680999994277954,3.680999994277954 -3.680999994277954,3.680999994277954 -3.680999994277954,3.680999994277954 C-3.680999994277954,3.680999994277954 -3.680999994277954,-3.680999994277954 -3.680999994277954,-3.680999994277954 C-3.680999994277954,-3.680999994277954 3.680999994277954,-3.680999994277954 3.680999994277954,-3.680999994277954z"></path></g></g><g transform="matrix(0,0,0,0,168.18099975585938,202.43099975585938)" opacity="1" style="display: block;"><g opacity="1" transform="matrix(1,0,0,1,86.18099975585938,-1.069000005722046)"><path fill="rgb(29,29,27)" fill-opacity="1" d=" M3.680999994277954,-3.680999994277954 C3.680999994277954,-3.680999994277954 3.680999994277954,3.680999994277954 3.680999994277954,3.680999994277954 C3.680999994277954,3.680999994277954 -3.680999994277954,3.680999994277954 -3.680999994277954,3.680999994277954 C-3.680999994277954,3.680999994277954 -3.680999994277954,-3.680999994277954 -3.680999994277954,-3.680999994277954 C-3.680999994277954,-3.680999994277954 3.680999994277954,-3.680999994277954 3.680999994277954,-3.680999994277954z"></path></g></g><g transform="matrix(0,0,0,0,176.93099975585938,213.18099975585938)" opacity="1" style="display: block;"><g opacity="1" transform="matrix(1,0,0,1,86.18099975585938,-1.069000005722046)"><path fill="rgb(29,29,27)" fill-opacity="1" d=" M3.680999994277954,0 C3.680999994277954,0 3.680999994277954,0 3.680999994277954,0 C3.680999994277954,2.0315439701080322 2.0315439701080322,3.680999994277954 0,3.680999994277954 C0,3.680999994277954 0,3.680999994277954 0,3.680999994277954 C-2.0315439701080322,3.680999994277954 -3.680999994277954,2.0315439701080322 -3.680999994277954,0 C-3.680999994277954,0 -3.680999994277954,0 -3.680999994277954,0 C-3.680999994277954,-2.0315439701080322 -2.0315439701080322,-3.680999994277954 0,-3.680999994277954 C0,-3.680999994277954 0,-3.680999994277954 0,-3.680999994277954 C2.0315439701080322,-3.680999994277954 3.680999994277954,-2.0315439701080322 3.680999994277954,0z"></path></g></g><g transform="matrix(0.022556817159056664,0,0,0.022556817159056664,135.35218811035156,222.9066925048828)" opacity="1" style="display: none;"><g opacity="1" transform="matrix(1,0,0,1,-4.375999927520752,11.888999938964844)"><path fill="rgb(29,29,27)" fill-opacity="1" d=" M1.5180000066757202,-1.5180000066757202 C1.5180000066757202,-1.5180000066757202 1.5180000066757202,1.5180000066757202 1.5180000066757202,1.5180000066757202 C1.5180000066757202,1.5180000066757202 -1.5180000066757202,1.5180000066757202 -1.5180000066757202,1.5180000066757202 C-1.5180000066757202,1.5180000066757202 -1.5180000066757202,-1.5180000066757202 -1.5180000066757202,-1.5180000066757202 C-1.5180000066757202,-1.5180000066757202 1.5180000066757202,-1.5180000066757202 1.5180000066757202,-1.5180000066757202z"></path></g></g><g transform="matrix(0.0009750605095177889,0,0,0.0009750605095177889,135.27163696289062,223.25238037109375)" opacity="1" style="display: none;"><g opacity="1" transform="matrix(1,0,0,1,-4.375999927520752,11.888999938964844)"><path fill="rgb(29,29,27)" fill-opacity="1" d=" M1.5180000066757202,-1.5180000066757202 C1.5180000066757202,-1.5180000066757202 1.5180000066757202,1.5180000066757202 1.5180000066757202,1.5180000066757202 C1.5180000066757202,1.5180000066757202 -1.5180000066757202,1.5180000066757202 -1.5180000066757202,1.5180000066757202 C-1.5180000066757202,1.5180000066757202 -1.5180000066757202,-1.5180000066757202 -1.5180000066757202,-1.5180000066757202 C-1.5180000066757202,-1.5180000066757202 1.5180000066757202,-1.5180000066757202 1.5180000066757202,-1.5180000066757202z"></path></g></g><g transform="matrix(0.060508064925670624,0,0,0.060508064925670624,135.4938201904297,222.2987823486328)" opacity="1" style="display: none;"><g opacity="1" transform="matrix(1,0,0,1,-4.375999927520752,11.888999938964844)"><path fill="rgb(29,29,27)" fill-opacity="1" d=" M1.5180000066757202,-1.5180000066757202 C1.5180000066757202,-1.5180000066757202 1.5180000066757202,1.5180000066757202 1.5180000066757202,1.5180000066757202 C1.5180000066757202,1.5180000066757202 -1.5180000066757202,1.5180000066757202 -1.5180000066757202,1.5180000066757202 C-1.5180000066757202,1.5180000066757202 -1.5180000066757202,-1.5180000066757202 -1.5180000066757202,-1.5180000066757202 C-1.5180000066757202,-1.5180000066757202 1.5180000066757202,-1.5180000066757202 1.5180000066757202,-1.5180000066757202z"></path></g></g><g transform="matrix(0.11449245363473892,0,0,0.11449245363473892,138.19529724121094,222.65625)" opacity="1" style="display: none;"><g opacity="1" transform="matrix(1,0,0,1,-4.375999927520752,11.888999938964844)"><path fill="rgb(29,29,27)" fill-opacity="1" d=" M1.5180000066757202,-1.5180000066757202 C1.5180000066757202,-1.5180000066757202 1.5180000066757202,1.5180000066757202 1.5180000066757202,1.5180000066757202 C1.5180000066757202,1.5180000066757202 -1.5180000066757202,1.5180000066757202 -1.5180000066757202,1.5180000066757202 C-1.5180000066757202,1.5180000066757202 -1.5180000066757202,-1.5180000066757202 -1.5180000066757202,-1.5180000066757202 C-1.5180000066757202,-1.5180000066757202 1.5180000066757202,-1.5180000066757202 1.5180000066757202,-1.5180000066757202z"></path></g></g><g transform="matrix(0.04241710528731346,0,0,0.04241710528731346,137.92630004882812,223.83856201171875)" opacity="1" style="display: none;"><g opacity="1" transform="matrix(1,0,0,1,-4.375999927520752,11.888999938964844)"><path fill="rgb(29,29,27)" fill-opacity="1" d=" M1.5180000066757202,-1.5180000066757202 C1.5180000066757202,-1.5180000066757202 1.5180000066757202,1.5180000066757202 1.5180000066757202,1.5180000066757202 C1.5180000066757202,1.5180000066757202 -1.5180000066757202,1.5180000066757202 -1.5180000066757202,1.5180000066757202 C-1.5180000066757202,1.5180000066757202 -1.5180000066757202,-1.5180000066757202 -1.5180000066757202,-1.5180000066757202 C-1.5180000066757202,-1.5180000066757202 1.5180000066757202,-1.5180000066757202 1.5180000066757202,-1.5180000066757202z"></path></g></g><g transform="matrix(0.1610211730003357,0,0,0.1610211730003357,138.3689422607422,221.7549285888672)" opacity="1" style="display: none;"><g opacity="1" transform="matrix(1,0,0,1,-4.375999927520752,11.888999938964844)"><path fill="rgb(29,29,27)" fill-opacity="1" d=" M1.5180000066757202,-1.5180000066757202 C1.5180000066757202,-1.5180000066757202 1.5180000066757202,1.5180000066757202 1.5180000066757202,1.5180000066757202 C1.5180000066757202,1.5180000066757202 -1.5180000066757202,1.5180000066757202 -1.5180000066757202,1.5180000066757202 C-1.5180000066757202,1.5180000066757202 -1.5180000066757202,-1.5180000066757202 -1.5180000066757202,-1.5180000066757202 C-1.5180000066757202,-1.5180000066757202 1.5180000066757202,-1.5180000066757202 1.5180000066757202,-1.5180000066757202z"></path></g></g></g></svg>