<svg xmlns="http://www.w3.org/2000/svg" viewBox="0 0 278 392" width="278" height="392" preserveAspectRatio="xMidYMid meet" style="width: 100%; height: 100%; transform: translate3d(0px, 0px, 0px); content-visibility: visible;" data-lottie-id="lottie-store-duckyduck2-nknnwwttblll"><defs><clipPath id="__lottie_element_70"><rect width="278" height="392" x="0" y="0"></rect></clipPath><mask id="__lottie_element_71" mask-type="alpha"><g transform="matrix(1,0,0,1,140.75,197.2516326904297)" opacity="1" style="display: block;"><g opacity="1" transform="matrix(1,0,0,1,0,0)"><path stroke-linecap="round" stroke-linejoin="round" fill-opacity="0" stroke="rgb(29,29,27)" stroke-opacity="1" stroke-width="7" d=" M-59.566566467285156,-52.18425750732422 C-59.566566467285156,-52.18425750732422 -35.5,-44.5 -35.5,-44.5 C-35.5,-44.5 -57.58214569091797,-35.231544494628906 -57.58214569091797,-35.231544494628906"></path></g></g></mask></defs><g clip-path="url(#__lottie_element_70)"><g transform="matrix(0.9934987425804138,0.11384331434965134,-0.11384331434965134,0.9934987425804138,73.94757080078125,201.2295684814453)" opacity="1" style="display: block;"><g opacity="1" transform="matrix(1,0,0,1,0,0)"></g><g opacity="1" transform="matrix(1,0,0,1,0,0)"><path stroke-linecap="round" stroke-linejoin="miter" fill-opacity="0" stroke-miterlimit="4" stroke="rgb(29,29,27)" stroke-opacity="1" stroke-width="36" d=" M30.25,-50.5 C30.25,-50.5 26.412355422973633,-34.629093170166016 26.612356185913086,-19.881093978881836 C26.812355041503906,-5.13309383392334 30.25,8.125 30.25,8.125"></path><path stroke-linecap="round" stroke-linejoin="miter" fill-opacity="0" stroke-miterlimit="4" stroke="rgb(245,203,28)" stroke-opacity="1" stroke-width="30" d=" M30.25,-50.5 C30.25,-50.5 26.412355422973633,-34.629093170166016 26.612356185913086,-19.881093978881836 C26.812355041503906,-5.13309383392334 30.25,8.125 30.25,8.125"></path></g></g><g transform="matrix(1,0,0,1.164289951324463,143.75,196)" opacity="1" style="display: block;"><g opacity="1" transform="matrix(1,0,0,1,0,0)"><path stroke-linecap="round" stroke-linejoin="round" fill-opacity="0" stroke="rgb(29,29,27)" stroke-opacity="1" stroke-width="16" d=" M-14.5,0 C-14.5,0 -15.800712585449219,42.94499969482422 -15.800712585449219,42.94499969482422 C-15.800712585449219,42.94499969482422 -14.5,85.67500305175781 -14.5,85.67500305175781 C-14.5,85.67500305175781 -28.25,85.67500305175781 -28.25,85.67500305175781"></path><path stroke-linecap="round" stroke-linejoin="round" fill-opacity="0" stroke="rgb(242,126,58)" stroke-opacity="1" stroke-width="10" d=" M-14.5,0 C-14.5,0 -15.800712585449219,42.94499969482422 -15.800712585449219,42.94499969482422 C-15.800712585449219,42.94499969482422 -14.5,85.67500305175781 -14.5,85.67500305175781 C-14.5,85.67500305175781 -28.25,85.67500305175781 -28.25,85.67500305175781"></path></g></g><g transform="matrix(-1,0,0,1.164289951324463,128.25,196)" opacity="1" style="display: block;"><g opacity="1" transform="matrix(1,0,0,1,0,0)"><path stroke-linecap="round" stroke-linejoin="round" fill-opacity="0" stroke="rgb(29,29,27)" stroke-opacity="1" stroke-width="16" d=" M-14.5,0 C-14.5,0 -15.800712585449219,42.94499969482422 -15.800712585449219,42.94499969482422 C-15.800712585449219,42.94499969482422 -14.5,85.67500305175781 -14.5,85.67500305175781 C-14.5,85.67500305175781 -28.25,85.67500305175781 -28.25,85.67500305175781"></path><path stroke-linecap="round" stroke-linejoin="round" fill-opacity="0" stroke="rgb(242,126,58)" stroke-opacity="1" stroke-width="10" d=" M-14.5,0 C-14.5,0 -15.800712585449219,42.94499969482422 -15.800712585449219,42.94499969482422 C-15.800712585449219,42.94499969482422 -14.5,85.67500305175781 -14.5,85.67500305175781 C-14.5,85.67500305175781 -28.25,85.67500305175781 -28.25,85.67500305175781"></path></g></g><g transform="matrix(1,0,0,1,-159,-221.9983673095703)" opacity="1" style="display: block;"><g opacity="1" transform="matrix(1,0,0,1,298.14801025390625,379.4570007324219)"><path fill="rgb(245,203,28)" fill-opacity="1" d=" M49.87099838256836,0 C49.87099838256836,27.542999267578125 27.542999267578125,49.87099838256836 0,49.87099838256836 C-27.54400062561035,49.87099838256836 -49.87200164794922,27.542999267578125 -49.87200164794922,0 C-49.87200164794922,-27.542999267578125 -27.54400062561035,-49.87099838256836 0,-49.87099838256836 C27.542999267578125,-49.87099838256836 49.87099838256836,-27.542999267578125 49.87099838256836,0z"></path><path stroke-linecap="butt" stroke-linejoin="miter" fill-opacity="0" stroke-miterlimit="10" stroke="rgb(29,29,27)" stroke-opacity="1" stroke-width="3" d=" M49.87099838256836,0 C49.87099838256836,27.542999267578125 27.542999267578125,49.87099838256836 0,49.87099838256836 C-27.54400062561035,49.87099838256836 -49.87200164794922,27.542999267578125 -49.87200164794922,0 C-49.87200164794922,-27.542999267578125 -27.54400062561035,-49.87099838256836 0,-49.87099838256836 C27.542999267578125,-49.87099838256836 49.87099838256836,-27.542999267578125 49.87099838256836,0z"></path></g><g opacity="1" transform="matrix(1,0,0,1,283.781005859375,361.1820068359375)"><path fill="rgb(255,255,255)" fill-opacity="1" d=" M13.045999526977539,0 C13.045999526977539,7.204999923706055 7.204999923706055,13.045999526977539 0,13.045999526977539 C-7.204999923706055,13.045999526977539 -13.045999526977539,7.204999923706055 -13.045999526977539,0 C-13.045999526977539,-7.204999923706055 -7.204999923706055,-13.045999526977539 0,-13.045999526977539 C7.204999923706055,-13.045999526977539 13.045999526977539,-7.204999923706055 13.045999526977539,0z"></path><path stroke-linecap="round" stroke-linejoin="round" fill-opacity="0" stroke="rgb(29,29,27)" stroke-opacity="1" stroke-width="3" d=" M13.045999526977539,0 C13.045999526977539,7.204999923706055 7.204999923706055,13.045999526977539 0,13.045999526977539 C-7.204999923706055,13.045999526977539 -13.045999526977539,7.204999923706055 -13.045999526977539,0 C-13.045999526977539,-7.204999923706055 -7.204999923706055,-13.045999526977539 0,-13.045999526977539 C7.204999923706055,-13.045999526977539 13.045999526977539,-7.204999923706055 13.045999526977539,0z"></path></g><g opacity="1" transform="matrix(1,0,0,1,283.7820129394531,361.1820068359375)"><path fill="rgb(29,29,27)" fill-opacity="1" d=" M7.0970001220703125,0 C7.0970001220703125,3.9200000762939453 3.9200000762939453,7.0970001220703125 0,7.0970001220703125 C-3.9200000762939453,7.0970001220703125 -7.0970001220703125,3.9200000762939453 -7.0970001220703125,0 C-7.0970001220703125,-3.9200000762939453 -3.9200000762939453,-7.0970001220703125 0,-7.0970001220703125 C3.9200000762939453,-7.0970001220703125 7.0970001220703125,-3.9200000762939453 7.0970001220703125,0z"></path></g><g opacity="1" transform="matrix(1,0,0,1,255.2030029296875,361.1820068359375)"><path fill="rgb(255,255,255)" fill-opacity="1" d=" M13.045999526977539,0 C13.045999526977539,7.204999923706055 7.204999923706055,13.045999526977539 0,13.045999526977539 C-7.204999923706055,13.045999526977539 -13.045999526977539,7.204999923706055 -13.045999526977539,0 C-13.045999526977539,-7.204999923706055 -7.204999923706055,-13.045999526977539 0,-13.045999526977539 C7.204999923706055,-13.045999526977539 13.045999526977539,-7.204999923706055 13.045999526977539,0z"></path><path stroke-linecap="round" stroke-linejoin="round" fill-opacity="0" stroke="rgb(29,29,27)" stroke-opacity="1" stroke-width="3" d=" M13.045999526977539,0 C13.045999526977539,7.204999923706055 7.204999923706055,13.045999526977539 0,13.045999526977539 C-7.204999923706055,13.045999526977539 -13.045999526977539,7.204999923706055 -13.045999526977539,0 C-13.045999526977539,-7.204999923706055 -7.204999923706055,-13.045999526977539 0,-13.045999526977539 C7.204999923706055,-13.045999526977539 13.045999526977539,-7.204999923706055 13.045999526977539,0z"></path></g><g opacity="1" transform="matrix(1,0,0,1,255.2030029296875,361.1820068359375)"><path fill="rgb(29,29,27)" fill-opacity="1" d=" M7.0970001220703125,0 C7.0970001220703125,3.9200000762939453 3.9200000762939453,7.0970001220703125 0,7.0970001220703125 C-3.9200000762939453,7.0970001220703125 -7.0970001220703125,3.9200000762939453 -7.0970001220703125,0 C-7.0970001220703125,-3.9200000762939453 -3.9200000762939453,-7.0970001220703125 0,-7.0970001220703125 C3.9200000762939453,-7.0970001220703125 7.0970001220703125,-3.9200000762939453 7.0970001220703125,0z"></path></g></g><g transform="matrix(0.9653668403625488,-0.2608961760997772,0.2608961760997772,0.9653668403625488,-236.29949951171875,-133.80810546875)" opacity="1" style="display: block;"><g opacity="1" transform="matrix(1,0,0,1,293.83599853515625,327.5580139160156)"><path fill="rgb(245,203,28)" fill-opacity="1" d=" M1.3739999532699585,7.690999984741211 C2.753999948501587,6.572000026702881 3.9649999141693115,4.785999774932861 4.669000148773193,2.6010000705718994 C6.057000160217285,-1.7070000171661377 4.953000068664551,-5.919000148773193 2.203000068664551,-6.804999828338623 C-0.546999990940094,-7.690999984741211 -3.9030001163482666,-4.916999816894531 -5.290999889373779,-0.6079999804496765 C-5.994999885559082,1.5770000219345093 -6.056000232696533,3.7339999675750732 -5.5879998207092285,5.447999954223633"></path><path stroke-linecap="round" stroke-linejoin="miter" fill-opacity="0" stroke-miterlimit="10" stroke="rgb(29,29,27)" stroke-opacity="1" stroke-width="3" d=" M1.3739999532699585,7.690999984741211 C2.753999948501587,6.572000026702881 3.9649999141693115,4.785999774932861 4.669000148773193,2.6010000705718994 C6.057000160217285,-1.7070000171661377 4.953000068664551,-5.919000148773193 2.203000068664551,-6.804999828338623 C-0.546999990940094,-7.690999984741211 -3.9030001163482666,-4.916999816894531 -5.290999889373779,-0.6079999804496765 C-5.994999885559082,1.5770000219345093 -6.056000232696533,3.7339999675750732 -5.5879998207092285,5.447999954223633"></path></g></g><g transform="matrix(0.888646125793457,-0.45859354734420776,0.45859354734420776,0.888646125793457,-282.71563720703125,-54.90800476074219)" opacity="1" style="display: block;"><g opacity="1" transform="matrix(1,0,0,1,281.97601318359375,329.3139953613281)"><path fill="rgb(245,203,28)" fill-opacity="1" d=" M5.7789998054504395,7.452000141143799 C6.613999843597412,5.492000102996826 6.89300012588501,2.9179999828338623 6.413000106811523,0.2070000022649765 C5.465000152587891,-5.138999938964844 1.930999994277954,-8.982999801635742 -1.4819999933242798,-8.378000259399414 C-4.894000053405762,-7.7729997634887695 -6.89300012588501,-2.9489998817443848 -5.945000171661377,2.3970000743865967 C-5.464000225067139,5.107999801635742 -4.316999912261963,7.428999900817871 -2.859999895095825,8.982999801635742"></path><path stroke-linecap="round" stroke-linejoin="miter" fill-opacity="0" stroke-miterlimit="10" stroke="rgb(29,29,27)" stroke-opacity="1" stroke-width="3" d=" M5.7789998054504395,7.452000141143799 C6.613999843597412,5.492000102996826 6.89300012588501,2.9179999828338623 6.413000106811523,0.2070000022649765 C5.465000152587891,-5.138999938964844 1.930999994277954,-8.982999801635742 -1.4819999933242798,-8.378000259399414 C-4.894000053405762,-7.7729997634887695 -6.89300012588501,-2.9489998817443848 -5.945000171661377,2.3970000743865967 C-5.464000225067139,5.107999801635742 -4.316999912261963,7.428999900817871 -2.859999895095825,8.982999801635742"></path></g></g><g transform="matrix(0.9934987425804138,-0.11384331434965134,0.11384331434965134,0.9934987425804138,147.94573974609375,208.11708068847656)" opacity="1" style="display: block;"><g opacity="1" transform="matrix(1,0,0,1,0,0)"></g><g opacity="1" transform="matrix(1,0,0,1,0,0)"><path stroke-linecap="round" stroke-linejoin="miter" fill-opacity="0" stroke-miterlimit="4" stroke="rgb(29,29,27)" stroke-opacity="1" stroke-width="36" d=" M30.25,-50.5 C30.25,-50.5 26.412355422973633,-34.629093170166016 26.612356185913086,-19.881093978881836 C26.812355041503906,-5.13309383392334 30.25,8.125 30.25,8.125"></path><path stroke-linecap="round" stroke-linejoin="miter" fill-opacity="0" stroke-miterlimit="4" stroke="rgb(245,203,28)" stroke-opacity="1" stroke-width="30" d=" M30.25,-50.5 C30.25,-50.5 26.412355422973633,-34.629093170166016 26.612356185913086,-19.881093978881836 C26.812355041503906,-5.13309383392334 30.25,8.125 30.25,8.125"></path></g></g><g transform="matrix(1,0,0,1,139,199.0016326904297)" opacity="1" style="display: block;"><g opacity="1" transform="matrix(1,0,0,1,0.017000000923871994,0.004999999888241291)"><path fill="rgb(245,203,28)" fill-opacity="1" d=" M34.375,-66.625 C34.375,-66.625 20.75,-61.75 20.75,-61.75 C20.75,-61.75 15.875,-52.5 15.875,-52.5 C15.875,-52.5 28,-44.625 28,-44.625 C28,-44.625 47.75,-40 47.5,-47.25 C47.25,-54.5 43.875,-61.625 43.875,-61.625 C43.875,-61.625 34.375,-66.625 34.375,-66.625z"></path></g></g><g transform="matrix(1,0,0,1,140.75,197.2516326904297)" opacity="1" style="display: block;"><g opacity="1" transform="matrix(1,0,0,1,0,0)"><path stroke-linecap="round" stroke-linejoin="round" fill-opacity="0" stroke="rgb(29,29,27)" stroke-opacity="1" stroke-width="26" d=" M-59.566566467285156,-52.18425750732422 C-59.566566467285156,-52.18425750732422 -35.5,-44.5 -35.5,-44.5 C-35.5,-44.5 -57.58214569091797,-35.231544494628906 -57.58214569091797,-35.231544494628906"></path><path stroke-linecap="round" stroke-linejoin="round" fill-opacity="0" stroke="rgb(242,126,58)" stroke-opacity="1" stroke-width="20" d=" M-59.566566467285156,-52.18425750732422 C-59.566566467285156,-52.18425750732422 -35.5,-44.5 -35.5,-44.5 C-35.5,-44.5 -57.58214569091797,-35.231544494628906 -57.58214569091797,-35.231544494628906"></path><path stroke-linecap="round" stroke-linejoin="round" fill-opacity="0" stroke="rgb(29,29,27)" stroke-opacity="1" stroke-width="14" d=" M-59.566566467285156,-52.18425750732422 C-59.566566467285156,-52.18425750732422 -35.5,-44.5 -35.5,-44.5 C-35.5,-44.5 -57.58214569091797,-35.231544494628906 -57.58214569091797,-35.231544494628906"></path></g></g><g transform="matrix(1,0,0,1,140.75,197.2516326904297)" opacity="1" style="display: block;"><g opacity="1" transform="matrix(1,0,0,1,0,0)"></g><g opacity="1" transform="matrix(1,0,0,1,0,0)"><path stroke-linecap="round" stroke-linejoin="round" fill-opacity="0" stroke="rgb(29,29,27)" stroke-opacity="1" stroke-width="11" d=" M-59.566566467285156,-52.18425750732422 C-59.566566467285156,-52.18425750732422 -35.5,-44.5 -35.5,-44.5 C-35.5,-44.5 -57.58214569091797,-35.231544494628906 -57.58214569091797,-35.231544494628906"></path></g></g><g mask="url(#__lottie_element_71)" style="display: block;"><g transform="matrix(1,0,0,1,193.25,277.75164794921875)" opacity="1"><g opacity="1" transform="matrix(1,0,0,1,-83.53199768066406,-121.78199768066406)"><path fill="rgb(245,96,185)" fill-opacity="1" d=" M0,-11.218000411987305 C6.191214561462402,-11.218000411987305 11.218000411987305,-6.191214561462402 11.218000411987305,0 C11.218000411987305,6.191214561462402 6.191214561462402,11.218000411987305 0,11.218000411987305 C-6.191214561462402,11.218000411987305 -11.218000411987305,6.191214561462402 -11.218000411987305,0 C-11.218000411987305,-6.191214561462402 -6.191214561462402,-11.218000411987305 0,-11.218000411987305z"></path><path stroke-linecap="butt" stroke-linejoin="miter" fill-opacity="0" stroke-miterlimit="4" stroke="rgb(29,29,27)" stroke-opacity="1" stroke-width="3" d=" M0,-11.218000411987305 C6.191214561462402,-11.218000411987305 11.218000411987305,-6.191214561462402 11.218000411987305,0 C11.218000411987305,6.191214561462402 6.191214561462402,11.218000411987305 0,11.218000411987305 C-6.191214561462402,11.218000411987305 -11.218000411987305,6.191214561462402 -11.218000411987305,0 C-11.218000411987305,-6.191214561462402 -6.191214561462402,-11.218000411987305 0,-11.218000411987305z"></path></g></g></g></g></svg>