<svg xmlns="http://www.w3.org/2000/svg" viewBox="0 0 264 222" width="264" height="222" preserveAspectRatio="xMidYMid meet" style="width: 100%; height: 100%; transform: translate3d(0px, 0px, 0px); content-visibility: visible;" data-lottie-id="lottie-store-mreyez-eeeeiemeeeiee"><defs><clipPath id="__lottie_element_154"><rect width="264" height="222" x="0" y="0"></rect></clipPath><mask id="__lottie_element_161" mask-type="alpha"><g transform="matrix(1,0,0,1,131.72799682617188,111)" opacity="1" style="display: block;"><g opacity="1" transform="matrix(1,0,0,1,-34.04499816894531,-9.295000076293945)"><path fill="rgb(255,255,255)" fill-opacity="1" d=" M0,-17.454999923706055 C9.633414268493652,-17.454999923706055 17.454999923706055,-9.633414268493652 17.454999923706055,0 C17.454999923706055,9.633414268493652 9.633414268493652,17.454999923706055 0,17.454999923706055 C-9.633414268493652,17.454999923706055 -17.454999923706055,9.633414268493652 -17.454999923706055,0 C-17.454999923706055,-9.633414268493652 -9.633414268493652,-17.454999923706055 0,-17.454999923706055z"></path><path stroke-linecap="butt" stroke-linejoin="miter" fill-opacity="0" stroke-miterlimit="4" stroke="rgb(28,28,26)" stroke-opacity="1" stroke-width="3" d=" M0,-17.454999923706055 C9.633414268493652,-17.454999923706055 17.454999923706055,-9.633414268493652 17.454999923706055,0 C17.454999923706055,9.633414268493652 9.633414268493652,17.454999923706055 0,17.454999923706055 C-9.633414268493652,17.454999923706055 -17.454999923706055,9.633414268493652 -17.454999923706055,0 C-17.454999923706055,-9.633414268493652 -9.633414268493652,-17.454999923706055 0,-17.454999923706055z"></path></g></g></mask><mask id="__lottie_element_179" mask-type="alpha"><g transform="matrix(1,0,0,1,167.10299682617188,111)" opacity="1" style="display: block;"><g opacity="1" transform="matrix(1,0,0,1,-34.04499816894531,-9.295000076293945)"><path fill="rgb(255,255,255)" fill-opacity="1" d=" M0,-17.454999923706055 C9.633414268493652,-17.454999923706055 17.454999923706055,-9.633414268493652 17.454999923706055,0 C17.454999923706055,9.633414268493652 9.633414268493652,17.454999923706055 0,17.454999923706055 C-9.633414268493652,17.454999923706055 -17.454999923706055,9.633414268493652 -17.454999923706055,0 C-17.454999923706055,-9.633414268493652 -9.633414268493652,-17.454999923706055 0,-17.454999923706055z"></path><path stroke-linecap="butt" stroke-linejoin="miter" fill-opacity="0" stroke-miterlimit="4" stroke="rgb(28,28,26)" stroke-opacity="1" stroke-width="3" d=" M0,-17.454999923706055 C9.633414268493652,-17.454999923706055 17.454999923706055,-9.633414268493652 17.454999923706055,0 C17.454999923706055,9.633414268493652 9.633414268493652,17.454999923706055 0,17.454999923706055 C-9.633414268493652,17.454999923706055 -17.454999923706055,9.633414268493652 -17.454999923706055,0 C-17.454999923706055,-9.633414268493652 -9.633414268493652,-17.454999923706055 0,-17.454999923706055z"></path></g></g></mask></defs><g clip-path="url(#__lottie_element_154)"><g transform="matrix(1,0,0,1,167.10299682617188,111)" opacity="1" style="display: block;"><g opacity="1" transform="matrix(1,0,0,1,-34.04499816894531,-9.295000076293945)"><path fill="rgb(255,255,255)" fill-opacity="1" d=" M0,-17.454999923706055 C9.633414268493652,-17.454999923706055 17.454999923706055,-9.633414268493652 17.454999923706055,0 C17.454999923706055,9.633414268493652 9.633414268493652,17.454999923706055 0,17.454999923706055 C-9.633414268493652,17.454999923706055 -17.454999923706055,9.633414268493652 -17.454999923706055,0 C-17.454999923706055,-9.633414268493652 -9.633414268493652,-17.454999923706055 0,-17.454999923706055z"></path><path stroke-linecap="butt" stroke-linejoin="miter" fill-opacity="0" stroke-miterlimit="4" stroke="rgb(28,28,26)" stroke-opacity="1" stroke-width="3" d=" M0,-17.454999923706055 C9.633414268493652,-17.454999923706055 17.454999923706055,-9.633414268493652 17.454999923706055,0 C17.454999923706055,9.633414268493652 9.633414268493652,17.454999923706055 0,17.454999923706055 C-9.633414268493652,17.454999923706055 -17.454999923706055,9.633414268493652 -17.454999923706055,0 C-17.454999923706055,-9.633414268493652 -9.633414268493652,-17.454999923706055 0,-17.454999923706055z"></path></g></g><g transform="matrix(1,0,0,1,131.72799682617188,111)" opacity="1" style="display: block;"><g opacity="1" transform="matrix(1,0,0,1,-34.04499816894531,-9.295000076293945)"><path fill="rgb(255,255,255)" fill-opacity="1" d=" M0,-17.454999923706055 C9.633414268493652,-17.454999923706055 17.454999923706055,-9.633414268493652 17.454999923706055,0 C17.454999923706055,9.633414268493652 9.633414268493652,17.454999923706055 0,17.454999923706055 C-9.633414268493652,17.454999923706055 -17.454999923706055,9.633414268493652 -17.454999923706055,0 C-17.454999923706055,-9.633414268493652 -9.633414268493652,-17.454999923706055 0,-17.454999923706055z"></path><path stroke-linecap="butt" stroke-linejoin="miter" fill-opacity="0" stroke-miterlimit="4" stroke="rgb(28,28,26)" stroke-opacity="1" stroke-width="3" d=" M0,-17.454999923706055 C9.633414268493652,-17.454999923706055 17.454999923706055,-9.633414268493652 17.454999923706055,0 C17.454999923706055,9.633414268493652 9.633414268493652,17.454999923706055 0,17.454999923706055 C-9.633414268493652,17.454999923706055 -17.454999923706055,9.633414268493652 -17.454999923706055,0 C-17.454999923706055,-9.633414268493652 -9.633414268493652,-17.454999923706055 0,-17.454999923706055z"></path></g></g><g transform="matrix(0.5799999833106995,0,0,0.5799999833106995,152.80409240722656,107.09609985351562)" opacity="1" style="display: block;"><g opacity="1" transform="matrix(1,0,0,1,-34.04499816894531,-9.295000076293945)"><path fill="rgb(29,29,27)" fill-opacity="1" d=" M0,-17.454999923706055 C9.633414268493652,-17.454999923706055 17.454999923706055,-9.633414268493652 17.454999923706055,0 C17.454999923706055,9.633414268493652 9.633414268493652,17.454999923706055 0,17.454999923706055 C-9.633414268493652,17.454999923706055 -17.454999923706055,9.633414268493652 -17.454999923706055,0 C-17.454999923706055,-9.633414268493652 -9.633414268493652,-17.454999923706055 0,-17.454999923706055z" style="transform: translate3d(9.91059px, -1.33421px, 0px);"></path></g></g><g mask="url(#__lottie_element_179)" style="display: block;"><g transform="matrix(1,0,0,1,87.25,95.375)" opacity="1"><g opacity="1" transform="matrix(1,0,0,1,46.529998779296875,-23.628999710083008)"><path fill="rgb(84,196,219)" fill-opacity="1" d=" M22.530500411987305,-12.370499610900879 C22.530500411987305,-12.370499610900879 22.530500411987305,12.370499610900879 22.530500411987305,12.370499610900879 C22.530500411987305,12.370499610900879 -22.530500411987305,12.370499610900879 -22.530500411987305,12.370499610900879 C-22.530500411987305,12.370499610900879 -22.530500411987305,-12.370499610900879 -22.530500411987305,-12.370499610900879 C-22.530500411987305,-12.370499610900879 22.530500411987305,-12.370499610900879 22.530500411987305,-12.370499610900879z"></path><path stroke-linecap="butt" stroke-linejoin="miter" fill-opacity="0" stroke-miterlimit="4" stroke="rgb(28,28,26)" stroke-opacity="1" stroke-width="3" d=" M22.530500411987305,-12.370499610900879 C22.530500411987305,-12.370499610900879 22.530500411987305,12.370499610900879 22.530500411987305,12.370499610900879 C22.530500411987305,12.370499610900879 -22.530500411987305,12.370499610900879 -22.530500411987305,12.370499610900879 C-22.530500411987305,12.370499610900879 -22.530500411987305,-12.370499610900879 -22.530500411987305,-12.370499610900879 C-22.530500411987305,-12.370499610900879 22.530500411987305,-12.370499610900879 22.530500411987305,-12.370499610900879z"></path></g></g></g><g transform="matrix(1,0,0,1,167.10299682617188,111)" opacity="1" style="display: block;"><g opacity="1" transform="matrix(1,0,0,1,-34.04499816894531,-9.295000076293945)"><path stroke-linecap="butt" stroke-linejoin="miter" fill-opacity="0" stroke-miterlimit="4" stroke="rgb(28,28,26)" stroke-opacity="1" stroke-width="3" d=" M0,-17.454999923706055 C9.633414268493652,-17.454999923706055 17.454999923706055,-9.633414268493652 17.454999923706055,0 C17.454999923706055,9.633414268493652 9.633414268493652,17.454999923706055 0,17.454999923706055 C-9.633414268493652,17.454999923706055 -17.454999923706055,9.633414268493652 -17.454999923706055,0 C-17.454999923706055,-9.633414268493652 -9.633414268493652,-17.454999923706055 0,-17.454999923706055z"></path></g></g><g transform="matrix(1,0,0,1,131.625,111)" opacity="1" style="display: block;"><g opacity="1" transform="matrix(1,0,0,1,0,0)"><path stroke-linecap="butt" stroke-linejoin="miter" fill-opacity="0" stroke-miterlimit="4" stroke="rgb(28,28,26)" stroke-opacity="1" stroke-width="3" d=" M-10.631999969482422,10.378000259399414 C-10.631999969482422,13.550000190734863 -13.20300006866455,16.121999740600586 -16.375,16.121999740600586 C-16.375,16.121999740600586 -16.375,16.121999740600586 -16.375,16.121999740600586 C-19.547000885009766,16.121999740600586 -22.118000030517578,13.550000190734863 -22.118000030517578,10.378000259399414"></path></g></g><g transform="matrix(1,0,0,1,132.41799926757812,117.75)" opacity="1" style="display: block;"><g opacity="1" transform="matrix(1,0,0,1,0.6399999856948853,-37.24700164794922)"><path fill="rgb(84,196,219)" fill-opacity="1" d=" M13.88949966430664,0 C13.88949966430664,0 13.88949966430664,0 13.88949966430664,0 C13.88949966430664,2.0712807178497314 12.207779884338379,3.753000020980835 10.136499404907227,3.753000020980835 C10.136499404907227,3.753000020980835 -10.136499404907227,3.753000020980835 -10.136499404907227,3.753000020980835 C-12.207779884338379,3.753000020980835 -13.88949966430664,2.0712807178497314 -13.88949966430664,0 C-13.88949966430664,0 -13.88949966430664,0 -13.88949966430664,0 C-13.88949966430664,-2.0712807178497314 -12.207779884338379,-3.753000020980835 -10.136499404907227,-3.753000020980835 C-10.136499404907227,-3.753000020980835 10.136499404907227,-3.753000020980835 10.136499404907227,-3.753000020980835 C12.207779884338379,-3.753000020980835 13.88949966430664,-2.0712807178497314 13.88949966430664,0z"></path><path stroke-linecap="butt" stroke-linejoin="miter" fill-opacity="0" stroke-miterlimit="4" stroke="rgb(28,28,26)" stroke-opacity="1" stroke-width="3" d=" M13.88949966430664,0 C13.88949966430664,0 13.88949966430664,0 13.88949966430664,0 C13.88949966430664,2.0712807178497314 12.207779884338379,3.753000020980835 10.136499404907227,3.753000020980835 C10.136499404907227,3.753000020980835 -10.136499404907227,3.753000020980835 -10.136499404907227,3.753000020980835 C-12.207779884338379,3.753000020980835 -13.88949966430664,2.0712807178497314 -13.88949966430664,0 C-13.88949966430664,0 -13.88949966430664,0 -13.88949966430664,0 C-13.88949966430664,-2.0712807178497314 -12.207779884338379,-3.753000020980835 -10.136499404907227,-3.753000020980835 C-10.136499404907227,-3.753000020980835 10.136499404907227,-3.753000020980835 10.136499404907227,-3.753000020980835 C12.207779884338379,-3.753000020980835 13.88949966430664,-2.0712807178497314 13.88949966430664,0z"></path></g></g><g transform="matrix(0.5799999833106995,0,0,0.5799999833106995,117.42909240722656,107.09609985351562)" opacity="1" style="display: block;"><g opacity="1" transform="matrix(1,0,0,1,-34.04499816894531,-9.295000076293945)"><path fill="rgb(29,29,27)" fill-opacity="1" d=" M0,-17.454999923706055 C9.633414268493652,-17.454999923706055 17.454999923706055,-9.633414268493652 17.454999923706055,0 C17.454999923706055,9.633414268493652 9.633414268493652,17.454999923706055 0,17.454999923706055 C-9.633414268493652,17.454999923706055 -17.454999923706055,9.633414268493652 -17.454999923706055,0 C-17.454999923706055,-9.633414268493652 -9.633414268493652,-17.454999923706055 0,-17.454999923706055z" style="transform: translate3d(9.90406px, -1.38185px, 0px);"></path></g></g><g mask="url(#__lottie_element_161)" style="display: block;"><g transform="matrix(1,0,0,1,51.875,95)" opacity="1"><g opacity="1" transform="matrix(1,0,0,1,46.529998779296875,-23.628999710083008)"><path fill="rgb(84,196,219)" fill-opacity="1" d=" M22.530500411987305,-12.370499610900879 C22.530500411987305,-12.370499610900879 22.530500411987305,12.370499610900879 22.530500411987305,12.370499610900879 C22.530500411987305,12.370499610900879 -22.530500411987305,12.370499610900879 -22.530500411987305,12.370499610900879 C-22.530500411987305,12.370499610900879 -22.530500411987305,-12.370499610900879 -22.530500411987305,-12.370499610900879 C-22.530500411987305,-12.370499610900879 22.530500411987305,-12.370499610900879 22.530500411987305,-12.370499610900879z"></path><path stroke-linecap="butt" stroke-linejoin="miter" fill-opacity="0" stroke-miterlimit="4" stroke="rgb(28,28,26)" stroke-opacity="1" stroke-width="3" d=" M22.530500411987305,-12.370499610900879 C22.530500411987305,-12.370499610900879 22.530500411987305,12.370499610900879 22.530500411987305,12.370499610900879 C22.530500411987305,12.370499610900879 -22.530500411987305,12.370499610900879 -22.530500411987305,12.370499610900879 C-22.530500411987305,12.370499610900879 -22.530500411987305,-12.370499610900879 -22.530500411987305,-12.370499610900879 C-22.530500411987305,-12.370499610900879 22.530500411987305,-12.370499610900879 22.530500411987305,-12.370499610900879z"></path></g></g></g><g transform="matrix(1,0,0,1,131.72799682617188,111)" opacity="1" style="display: block;"><g opacity="1" transform="matrix(1,0,0,1,-34.04499816894531,-9.295000076293945)"><path stroke-linecap="butt" stroke-linejoin="miter" fill-opacity="0" stroke-miterlimit="4" stroke="rgb(28,28,26)" stroke-opacity="1" stroke-width="3" d=" M0,-17.454999923706055 C9.633414268493652,-17.454999923706055 17.454999923706055,-9.633414268493652 17.454999923706055,0 C17.454999923706055,9.633414268493652 9.633414268493652,17.454999923706055 0,17.454999923706055 C-9.633414268493652,17.454999923706055 -17.454999923706055,9.633414268493652 -17.454999923706055,0 C-17.454999923706055,-9.633414268493652 -9.633414268493652,-17.454999923706055 0,-17.454999923706055z"></path></g></g><g transform="matrix(1,0,0,1,97.04299926757812,117.75)" opacity="1" style="display: block;"><g opacity="1" transform="matrix(1,0,0,1,0.6399999856948853,-37.24700164794922)"><path fill="rgb(84,196,219)" fill-opacity="1" d=" M13.88949966430664,0 C13.88949966430664,0 13.88949966430664,0 13.88949966430664,0 C13.88949966430664,2.0712807178497314 12.207779884338379,3.753000020980835 10.136499404907227,3.753000020980835 C10.136499404907227,3.753000020980835 -10.136499404907227,3.753000020980835 -10.136499404907227,3.753000020980835 C-12.207779884338379,3.753000020980835 -13.88949966430664,2.0712807178497314 -13.88949966430664,0 C-13.88949966430664,0 -13.88949966430664,0 -13.88949966430664,0 C-13.88949966430664,-2.0712807178497314 -12.207779884338379,-3.753000020980835 -10.136499404907227,-3.753000020980835 C-10.136499404907227,-3.753000020980835 10.136499404907227,-3.753000020980835 10.136499404907227,-3.753000020980835 C12.207779884338379,-3.753000020980835 13.88949966430664,-2.0712807178497314 13.88949966430664,0z"></path><path stroke-linecap="butt" stroke-linejoin="miter" fill-opacity="0" stroke-miterlimit="4" stroke="rgb(28,28,26)" stroke-opacity="1" stroke-width="3" d=" M13.88949966430664,0 C13.88949966430664,0 13.88949966430664,0 13.88949966430664,0 C13.88949966430664,2.0712807178497314 12.207779884338379,3.753000020980835 10.136499404907227,3.753000020980835 C10.136499404907227,3.753000020980835 -10.136499404907227,3.753000020980835 -10.136499404907227,3.753000020980835 C-12.207779884338379,3.753000020980835 -13.88949966430664,2.0712807178497314 -13.88949966430664,0 C-13.88949966430664,0 -13.88949966430664,0 -13.88949966430664,0 C-13.88949966430664,-2.0712807178497314 -12.207779884338379,-3.753000020980835 -10.136499404907227,-3.753000020980835 C-10.136499404907227,-3.753000020980835 10.136499404907227,-3.753000020980835 10.136499404907227,-3.753000020980835 C12.207779884338379,-3.753000020980835 13.88949966430664,-2.0712807178497314 13.88949966430664,0z"></path></g></g></g></svg>