<svg xmlns="http://www.w3.org/2000/svg" viewBox="0 0 300 300" width="300" height="300" preserveAspectRatio="xMidYMid meet" style="width: 100%; height: 100%; transform: translate3d(0px, 0px, 0px); content-visibility: visible;" data-lottie-id="lottie-store-track-manager-llrrppppb"><defs><clipPath id="__lottie_element_267"><rect width="300" height="300" x="0" y="0"></rect></clipPath></defs><g clip-path="url(#__lottie_element_267)"><g transform="matrix(1,0,0,1,-148,-267.1090087890625)" opacity="1" style="display: block;"><g opacity="1" transform="matrix(1,0,0,1,276.8819885253906,427.07000732421875)"><path fill="rgb(255,255,255)" fill-opacity="1" d=" M10.614999771118164,21.01300048828125 C10.614999771118164,21.01300048828125 -10.614999771118164,21.01300048828125 -10.614999771118164,21.01300048828125 C-10.614999771118164,21.01300048828125 -10.614999771118164,-21.01300048828125 -10.614999771118164,-21.01300048828125 C-10.614999771118164,-21.01300048828125 10.614999771118164,-21.01300048828125 10.614999771118164,-21.01300048828125 C10.614999771118164,-21.01300048828125 10.614999771118164,21.01300048828125 10.614999771118164,21.01300048828125z"></path><path stroke-linecap="round" stroke-linejoin="round" fill-opacity="0" stroke="rgb(29,29,27)" stroke-opacity="1" stroke-width="3" d=" M10.614999771118164,21.01300048828125 C10.614999771118164,21.01300048828125 -10.614999771118164,21.01300048828125 -10.614999771118164,21.01300048828125 C-10.614999771118164,21.01300048828125 -10.614999771118164,-21.01300048828125 -10.614999771118164,-21.01300048828125 C-10.614999771118164,-21.01300048828125 10.614999771118164,-21.01300048828125 10.614999771118164,-21.01300048828125 C10.614999771118164,-21.01300048828125 10.614999771118164,21.01300048828125 10.614999771118164,21.01300048828125z"></path></g><g opacity="1" transform="matrix(1,0,0,1,298.11199951171875,427.07000732421875)"><path fill="rgb(255,255,255)" fill-opacity="1" d=" M10.614999771118164,21.01300048828125 C10.614999771118164,21.01300048828125 -10.614999771118164,21.01300048828125 -10.614999771118164,21.01300048828125 C-10.614999771118164,21.01300048828125 -10.614999771118164,-21.01300048828125 -10.614999771118164,-21.01300048828125 C-10.614999771118164,-21.01300048828125 10.614999771118164,-21.01300048828125 10.614999771118164,-21.01300048828125 C10.614999771118164,-21.01300048828125 10.614999771118164,21.01300048828125 10.614999771118164,21.01300048828125z"></path><path stroke-linecap="round" stroke-linejoin="round" fill-opacity="0" stroke="rgb(29,29,27)" stroke-opacity="1" stroke-width="3" d=" M10.614999771118164,21.01300048828125 C10.614999771118164,21.01300048828125 -10.614999771118164,21.01300048828125 -10.614999771118164,21.01300048828125 C-10.614999771118164,21.01300048828125 -10.614999771118164,-21.01300048828125 -10.614999771118164,-21.01300048828125 C-10.614999771118164,-21.01300048828125 10.614999771118164,-21.01300048828125 10.614999771118164,-21.01300048828125 C10.614999771118164,-21.01300048828125 10.614999771118164,21.01300048828125 10.614999771118164,21.01300048828125z"></path></g><g opacity="1" transform="matrix(1,0,0,1,319.3420104980469,427.07000732421875)"><path fill="rgb(255,255,255)" fill-opacity="1" d=" M10.614999771118164,21.01300048828125 C10.614999771118164,21.01300048828125 -10.614999771118164,21.01300048828125 -10.614999771118164,21.01300048828125 C-10.614999771118164,21.01300048828125 -10.614999771118164,-21.01300048828125 -10.614999771118164,-21.01300048828125 C-10.614999771118164,-21.01300048828125 10.614999771118164,-21.01300048828125 10.614999771118164,-21.01300048828125 C10.614999771118164,-21.01300048828125 10.614999771118164,21.01300048828125 10.614999771118164,21.01300048828125z"></path><path stroke-linecap="round" stroke-linejoin="round" fill-opacity="0" stroke="rgb(29,29,27)" stroke-opacity="1" stroke-width="3" d=" M10.614999771118164,21.01300048828125 C10.614999771118164,21.01300048828125 -10.614999771118164,21.01300048828125 -10.614999771118164,21.01300048828125 C-10.614999771118164,21.01300048828125 -10.614999771118164,-21.01300048828125 -10.614999771118164,-21.01300048828125 C-10.614999771118164,-21.01300048828125 10.614999771118164,-21.01300048828125 10.614999771118164,-21.01300048828125 C10.614999771118164,-21.01300048828125 10.614999771118164,21.01300048828125 10.614999771118164,21.01300048828125z"></path></g></g><g transform="matrix(-0.3101542592048645,0.9506862163543701,-0.9506862163543701,-0.3101542592048645,628.5153198242188,36.68121337890625)" opacity="1" style="display: block;"><g opacity="1" transform="matrix(1,0,0,1,272.2409973144531,419.7340087890625)"><path fill="rgb(245,203,28)" fill-opacity="1" d=" M1.8919999599456787,5.761000156402588 C1.8919999599456787,5.761000156402588 -4.855000019073486,3.631999969482422 -4.855000019073486,3.631999969482422 C-5.585999965667725,3.4019999504089355 -5.991000175476074,2.622999906539917 -5.760000228881836,1.8919999599456787 C-5.760000228881836,1.8919999599456787 -3.631999969482422,-4.855000019073486 -3.631999969482422,-4.855000019073486 C-3.4010000228881836,-5.585000038146973 -2.621999979019165,-5.991000175476074 -1.8919999599456787,-5.760000228881836 C-1.8919999599456787,-5.760000228881836 4.855000019073486,-3.631999969482422 4.855000019073486,-3.631999969482422 C5.585999965667725,-3.4010000228881836 5.991000175476074,-2.621999979019165 5.761000156402588,-1.8910000324249268 C5.761000156402588,-1.8910000324249268 3.631999969482422,4.855999946594238 3.631999969482422,4.855999946594238 C3.4019999504089355,5.585999965667725 2.622999906539917,5.991000175476074 1.8919999599456787,5.761000156402588z"></path><path stroke-linecap="butt" stroke-linejoin="miter" fill-opacity="0" stroke-miterlimit="10" stroke="rgb(29,29,27)" stroke-opacity="1" stroke-width="3" d=" M1.8919999599456787,5.761000156402588 C1.8919999599456787,5.761000156402588 -4.855000019073486,3.631999969482422 -4.855000019073486,3.631999969482422 C-5.585999965667725,3.4019999504089355 -5.991000175476074,2.622999906539917 -5.760000228881836,1.8919999599456787 C-5.760000228881836,1.8919999599456787 -3.631999969482422,-4.855000019073486 -3.631999969482422,-4.855000019073486 C-3.4010000228881836,-5.585000038146973 -2.621999979019165,-5.991000175476074 -1.8919999599456787,-5.760000228881836 C-1.8919999599456787,-5.760000228881836 4.855000019073486,-3.631999969482422 4.855000019073486,-3.631999969482422 C5.585999965667725,-3.4010000228881836 5.991000175476074,-2.621999979019165 5.761000156402588,-1.8910000324249268 C5.761000156402588,-1.8910000324249268 3.631999969482422,4.855999946594238 3.631999969482422,4.855999946594238 C3.4019999504089355,5.585999965667725 2.622999906539917,5.991000175476074 1.8919999599456787,5.761000156402588z"></path></g></g><g transform="matrix(1,0,0,1,-147.61099243164062,-268.5)" opacity="1" style="display: block;"><g opacity="1" transform="matrix(1,0,0,1,280.7380065917969,437.7460021972656)"><path fill="rgb(245,96,185)" fill-opacity="1" d=" M4.370999813079834,4.202000141143799 C4.370999813079834,4.202000141143799 -2.5869998931884766,5.482999801635742 -2.5869998931884766,5.482999801635742 C-3.3399999141693115,5.622000217437744 -4.064000129699707,5.124000072479248 -4.203000068664551,4.370999813079834 C-4.203000068664551,4.370999813079834 -5.482999801635742,-2.5869998931884766 -5.482999801635742,-2.5869998931884766 C-5.622000217437744,-3.3399999141693115 -5.125,-4.064000129699707 -4.370999813079834,-4.203000068664551 C-4.370999813079834,-4.203000068664551 2.5869998931884766,-5.482999801635742 2.5869998931884766,-5.482999801635742 C3.3399999141693115,-5.622000217437744 4.063000202178955,-5.125 4.202000141143799,-4.370999813079834 C4.202000141143799,-4.370999813079834 5.482999801635742,2.5869998931884766 5.482999801635742,2.5869998931884766 C5.622000217437744,3.3399999141693115 5.124000072479248,4.063000202178955 4.370999813079834,4.202000141143799z"></path><path stroke-linecap="round" stroke-linejoin="round" fill-opacity="0" stroke="rgb(29,29,27)" stroke-opacity="1" stroke-width="3" d=" M4.370999813079834,4.202000141143799 C4.370999813079834,4.202000141143799 -2.5869998931884766,5.482999801635742 -2.5869998931884766,5.482999801635742 C-3.3399999141693115,5.622000217437744 -4.064000129699707,5.124000072479248 -4.203000068664551,4.370999813079834 C-4.203000068664551,4.370999813079834 -5.482999801635742,-2.5869998931884766 -5.482999801635742,-2.5869998931884766 C-5.622000217437744,-3.3399999141693115 -5.125,-4.064000129699707 -4.370999813079834,-4.203000068664551 C-4.370999813079834,-4.203000068664551 2.5869998931884766,-5.482999801635742 2.5869998931884766,-5.482999801635742 C3.3399999141693115,-5.622000217437744 4.063000202178955,-5.125 4.202000141143799,-4.370999813079834 C4.202000141143799,-4.370999813079834 5.482999801635742,2.5869998931884766 5.482999801635742,2.5869998931884766 C5.622000217437744,3.3399999141693115 5.124000072479248,4.063000202178955 4.370999813079834,4.202000141143799z"></path></g></g><g transform="matrix(0.9999994039535522,0.0011136224493384361,-0.0011136224493384361,0.9999994039535522,-147.12109375,-268.83795166015625)" opacity="1" style="display: block;"><g opacity="1" transform="matrix(1,0,0,1,298.4469909667969,429.97698974609375)"><path fill="rgb(245,203,28)" fill-opacity="1" d=" M1.8919999599456787,5.761000156402588 C1.8919999599456787,5.761000156402588 -4.855000019073486,3.631999969482422 -4.855000019073486,3.631999969482422 C-5.585999965667725,3.4019999504089355 -5.991000175476074,2.622999906539917 -5.760000228881836,1.8919999599456787 C-5.760000228881836,1.8919999599456787 -3.631999969482422,-4.855000019073486 -3.631999969482422,-4.855000019073486 C-3.4010000228881836,-5.585000038146973 -2.621999979019165,-5.991000175476074 -1.8919999599456787,-5.760000228881836 C-1.8919999599456787,-5.760000228881836 4.855000019073486,-3.631999969482422 4.855000019073486,-3.631999969482422 C5.585999965667725,-3.4010000228881836 5.991000175476074,-2.621999979019165 5.761000156402588,-1.8910000324249268 C5.761000156402588,-1.8910000324249268 3.631999969482422,4.855999946594238 3.631999969482422,4.855999946594238 C3.4019999504089355,5.585999965667725 2.622999906539917,5.991000175476074 1.8919999599456787,5.761000156402588z"></path><path stroke-linecap="butt" stroke-linejoin="miter" fill-opacity="0" stroke-miterlimit="10" stroke="rgb(29,29,27)" stroke-opacity="1" stroke-width="3" d=" M1.8919999599456787,5.761000156402588 C1.8919999599456787,5.761000156402588 -4.855000019073486,3.631999969482422 -4.855000019073486,3.631999969482422 C-5.585999965667725,3.4019999504089355 -5.991000175476074,2.622999906539917 -5.760000228881836,1.8919999599456787 C-5.760000228881836,1.8919999599456787 -3.631999969482422,-4.855000019073486 -3.631999969482422,-4.855000019073486 C-3.4010000228881836,-5.585000038146973 -2.621999979019165,-5.991000175476074 -1.8919999599456787,-5.760000228881836 C-1.8919999599456787,-5.760000228881836 4.855000019073486,-3.631999969482422 4.855000019073486,-3.631999969482422 C5.585999965667725,-3.4010000228881836 5.991000175476074,-2.621999979019165 5.761000156402588,-1.8910000324249268 C5.761000156402588,-1.8910000324249268 3.631999969482422,4.855999946594238 3.631999969482422,4.855999946594238 C3.4019999504089355,5.585999965667725 2.622999906539917,5.991000175476074 1.8919999599456787,5.761000156402588z"></path></g></g><g transform="matrix(1,0,0,1,-147.61102294921875,-268.5)" opacity="1" style="display: block;"><g opacity="1" transform="matrix(1,0,0,1,324.3340148925781,425.21099853515625)"><path fill="rgb(245,96,185)" fill-opacity="1" d=" M4.370999813079834,4.202000141143799 C4.370999813079834,4.202000141143799 -2.5869998931884766,5.482999801635742 -2.5869998931884766,5.482999801635742 C-3.3399999141693115,5.622000217437744 -4.064000129699707,5.124000072479248 -4.203000068664551,4.370999813079834 C-4.203000068664551,4.370999813079834 -5.482999801635742,-2.5869998931884766 -5.482999801635742,-2.5869998931884766 C-5.622000217437744,-3.3399999141693115 -5.125,-4.064000129699707 -4.370999813079834,-4.203000068664551 C-4.370999813079834,-4.203000068664551 2.5869998931884766,-5.482999801635742 2.5869998931884766,-5.482999801635742 C3.3399999141693115,-5.622000217437744 4.063000202178955,-5.125 4.202000141143799,-4.370999813079834 C4.202000141143799,-4.370999813079834 5.482999801635742,2.5869998931884766 5.482999801635742,2.5869998931884766 C5.622000217437744,3.3399999141693115 5.124000072479248,4.063000202178955 4.370999813079834,4.202000141143799z"></path><path stroke-linecap="round" stroke-linejoin="round" fill-opacity="0" stroke="rgb(29,29,27)" stroke-opacity="1" stroke-width="3" d=" M4.370999813079834,4.202000141143799 C4.370999813079834,4.202000141143799 -2.5869998931884766,5.482999801635742 -2.5869998931884766,5.482999801635742 C-3.3399999141693115,5.622000217437744 -4.064000129699707,5.124000072479248 -4.203000068664551,4.370999813079834 C-4.203000068664551,4.370999813079834 -5.482999801635742,-2.5869998931884766 -5.482999801635742,-2.5869998931884766 C-5.622000217437744,-3.3399999141693115 -5.125,-4.064000129699707 -4.370999813079834,-4.203000068664551 C-4.370999813079834,-4.203000068664551 2.5869998931884766,-5.482999801635742 2.5869998931884766,-5.482999801635742 C3.3399999141693115,-5.622000217437744 4.063000202178955,-5.125 4.202000141143799,-4.370999813079834 C4.202000141143799,-4.370999813079834 5.482999801635742,2.5869998931884766 5.482999801635742,2.5869998931884766 C5.622000217437744,3.3399999141693115 5.124000072479248,4.063000202178955 4.370999813079834,4.202000141143799z"></path></g></g><g transform="matrix(1,0,0,1,148.125,151.531005859375)" opacity="1" style="display: block;"><g opacity="1" transform="matrix(1,0,0,1,11.833000183105469,-13.416999816894531)"><path fill="rgb(255,255,255)" fill-opacity="1" d=" M0,-9.5 C5.2430500984191895,-9.5 9.5,-5.2430500984191895 9.5,0 C9.5,5.2430500984191895 5.2430500984191895,9.5 0,9.5 C-5.2430500984191895,9.5 -9.5,5.2430500984191895 -9.5,0 C-9.5,-5.2430500984191895 -5.2430500984191895,-9.5 0,-9.5z"></path><path stroke-linecap="butt" stroke-linejoin="miter" fill-opacity="0" stroke-miterlimit="4" stroke="rgb(29,29,27)" stroke-opacity="1" stroke-width="3" d=" M0,-9.5 C5.2430500984191895,-9.5 9.5,-5.2430500984191895 9.5,0 C9.5,5.2430500984191895 5.2430500984191895,9.5 0,9.5 C-5.2430500984191895,9.5 -9.5,5.2430500984191895 -9.5,0 C-9.5,-5.2430500984191895 -5.2430500984191895,-9.5 0,-9.5z"></path></g></g><g transform="matrix(0.5199999809265137,0,0,0.5199999809265137,153.80484008789062,145.09083557128906)" opacity="1" style="display: block;"><g opacity="1" transform="matrix(1,0,0,1,11.833000183105469,-13.416999816894531)"><path fill="rgb(29,29,27)" fill-opacity="1" d=" M0,-9.5 C5.2430500984191895,-9.5 9.5,-5.2430500984191895 9.5,0 C9.5,5.2430500984191895 5.2430500984191895,9.5 0,9.5 C-5.2430500984191895,9.5 -9.5,5.2430500984191895 -9.5,0 C-9.5,-5.2430500984191895 -5.2430500984191895,-9.5 0,-9.5z" style="transform: translate3d(0px, 0px, 0px);"></path></g></g><g transform="matrix(1,0,0,1,128.875,151.531005859375)" opacity="1" style="display: block;"><g opacity="1" transform="matrix(1,0,0,1,11.833000183105469,-13.416999816894531)"><path fill="rgb(255,255,255)" fill-opacity="1" d=" M0,-9.5 C5.2430500984191895,-9.5 9.5,-5.2430500984191895 9.5,0 C9.5,5.2430500984191895 5.2430500984191895,9.5 0,9.5 C-5.2430500984191895,9.5 -9.5,5.2430500984191895 -9.5,0 C-9.5,-5.2430500984191895 -5.2430500984191895,-9.5 0,-9.5z"></path><path stroke-linecap="butt" stroke-linejoin="miter" fill-opacity="0" stroke-miterlimit="4" stroke="rgb(29,29,27)" stroke-opacity="1" stroke-width="3" d=" M0,-9.5 C5.2430500984191895,-9.5 9.5,-5.2430500984191895 9.5,0 C9.5,5.2430500984191895 5.2430500984191895,9.5 0,9.5 C-5.2430500984191895,9.5 -9.5,5.2430500984191895 -9.5,0 C-9.5,-5.2430500984191895 -5.2430500984191895,-9.5 0,-9.5z"></path></g></g><g transform="matrix(0.5199999809265137,0,0,0.5199999809265137,134.554443359375,145.09083557128906)" opacity="1" style="display: block;"><g opacity="1" transform="matrix(1,0,0,1,11.833000183105469,-13.416999816894531)"><path fill="rgb(29,29,27)" fill-opacity="1" d=" M0,-9.5 C5.2430500984191895,-9.5 9.5,-5.2430500984191895 9.5,0 C9.5,5.2430500984191895 5.2430500984191895,9.5 0,9.5 C-5.2430500984191895,9.5 -9.5,5.2430500984191895 -9.5,0 C-9.5,-5.2430500984191895 -5.2430500984191895,-9.5 0,-9.5z" style="transform: translate3d(0px, 0px, 0px);"></path></g></g></g></svg>