<svg xmlns="http://www.w3.org/2000/svg" viewBox="0 0 300 300" width="300" height="300" preserveAspectRatio="xMidYMid meet" style="width: 100%; height: 100%; transform: translate3d(0px, 0px, 0px); content-visibility: visible;"><defs><clipPath id="__lottie_element_244"><rect width="300" height="300" x="0" y="0"></rect></clipPath><mask id="__lottie_element_257" mask-type="alpha"><g transform="matrix(1,0,0,1,149.125,150)" opacity="1" style="display: block;"><g opacity="1" transform="matrix(1,0,0,1,0.7459999918937683,13.284000396728516)"><path fill="rgb(29,29,27)" fill-opacity="1" d=" M20.621000289916992,-8.284000396728516 C20.621000289916992,-8.284000396728516 20.621000289916992,8.284000396728516 20.621000289916992,8.284000396728516 C20.621000289916992,8.284000396728516 -20.621000289916992,8.284000396728516 -20.621000289916992,8.284000396728516 C-20.621000289916992,8.284000396728516 -20.621000289916992,-8.284000396728516 -20.621000289916992,-8.284000396728516 C-20.621000289916992,-8.284000396728516 20.621000289916992,-8.284000396728516 20.621000289916992,-8.284000396728516z"></path></g></g></mask></defs><g clip-path="url(#__lottie_element_244)"><g transform="matrix(1,0,0,1,-148,-267.552001953125)" opacity="1" style="display: block;"><g opacity="1" transform="matrix(1,0,0,1,298.11199951171875,426.52801513671875)"><path fill="rgb(84,196,219)" fill-opacity="1" d=" M28.434999465942383,21.99799919128418 C28.434999465942383,21.99799919128418 -28.434999465942383,21.99799919128418 -28.434999465942383,21.99799919128418 C-28.988000869750977,21.99799919128418 -29.434999465942383,21.549999237060547 -29.434999465942383,20.99799919128418 C-29.434999465942383,20.99799919128418 -29.434999465942383,-20.99799919128418 -29.434999465942383,-20.99799919128418 C-29.434999465942383,-21.549999237060547 -28.988000869750977,-21.99799919128418 -28.434999465942383,-21.99799919128418 C-28.434999465942383,-21.99799919128418 28.434999465942383,-21.99799919128418 28.434999465942383,-21.99799919128418 C28.98699951171875,-21.99799919128418 29.434999465942383,-21.549999237060547 29.434999465942383,-20.99799919128418 C29.434999465942383,-20.99799919128418 29.434999465942383,20.99799919128418 29.434999465942383,20.99799919128418 C29.434999465942383,21.549999237060547 28.98699951171875,21.99799919128418 28.434999465942383,21.99799919128418z"></path><path stroke-linecap="butt" stroke-linejoin="miter" fill-opacity="0" stroke-miterlimit="10" stroke="rgb(29,29,27)" stroke-opacity="1" stroke-width="3" d=" M28.434999465942383,21.99799919128418 C28.434999465942383,21.99799919128418 -28.434999465942383,21.99799919128418 -28.434999465942383,21.99799919128418 C-28.988000869750977,21.99799919128418 -29.434999465942383,21.549999237060547 -29.434999465942383,20.99799919128418 C-29.434999465942383,20.99799919128418 -29.434999465942383,-20.99799919128418 -29.434999465942383,-20.99799919128418 C-29.434999465942383,-21.549999237060547 -28.988000869750977,-21.99799919128418 -28.434999465942383,-21.99799919128418 C-28.434999465942383,-21.99799919128418 28.434999465942383,-21.99799919128418 28.434999465942383,-21.99799919128418 C28.98699951171875,-21.99799919128418 29.434999465942383,-21.549999237060547 29.434999465942383,-20.99799919128418 C29.434999465942383,-20.99799919128418 29.434999465942383,20.99799919128418 29.434999465942383,20.99799919128418 C29.434999465942383,21.549999237060547 28.98699951171875,21.99799919128418 28.434999465942383,21.99799919128418z"></path></g><g opacity="1" transform="matrix(1,0,0,1,298.11199951171875,429.9460144042969)"><path fill="rgb(29,29,27)" fill-opacity="1" d=" M20.374000549316406,9.54699993133545 C20.374000549316406,9.54699993133545 -20.374000549316406,9.54699993133545 -20.374000549316406,9.54699993133545 C-20.926000595092773,9.54699993133545 -21.374000549316406,9.098999977111816 -21.374000549316406,8.54699993133545 C-21.374000549316406,8.54699993133545 -21.374000549316406,-8.54699993133545 -21.374000549316406,-8.54699993133545 C-21.374000549316406,-9.098999977111816 -20.926000595092773,-9.54699993133545 -20.374000549316406,-9.54699993133545 C-20.374000549316406,-9.54699993133545 20.374000549316406,-9.54699993133545 20.374000549316406,-9.54699993133545 C20.926000595092773,-9.54699993133545 21.374000549316406,-9.098999977111816 21.374000549316406,-8.54699993133545 C21.374000549316406,-8.54699993133545 21.374000549316406,8.54699993133545 21.374000549316406,8.54699993133545 C21.374000549316406,9.098999977111816 20.926000595092773,9.54699993133545 20.374000549316406,9.54699993133545z"></path><path stroke-linecap="butt" stroke-linejoin="miter" fill-opacity="0" stroke-miterlimit="10" stroke="rgb(29,29,27)" stroke-opacity="1" stroke-width="3" d=" M20.374000549316406,9.54699993133545 C20.374000549316406,9.54699993133545 -20.374000549316406,9.54699993133545 -20.374000549316406,9.54699993133545 C-20.926000595092773,9.54699993133545 -21.374000549316406,9.098999977111816 -21.374000549316406,8.54699993133545 C-21.374000549316406,8.54699993133545 -21.374000549316406,-8.54699993133545 -21.374000549316406,-8.54699993133545 C-21.374000549316406,-9.098999977111816 -20.926000595092773,-9.54699993133545 -20.374000549316406,-9.54699993133545 C-20.374000549316406,-9.54699993133545 20.374000549316406,-9.54699993133545 20.374000549316406,-9.54699993133545 C20.926000595092773,-9.54699993133545 21.374000549316406,-9.098999977111816 21.374000549316406,-8.54699993133545 C21.374000549316406,-8.54699993133545 21.374000549316406,8.54699993133545 21.374000549316406,8.54699993133545 C21.374000549316406,9.098999977111816 20.926000595092773,9.54699993133545 20.374000549316406,9.54699993133545z"></path></g></g><g mask="url(#__lottie_element_257)" style="display: block;"><g transform="matrix(1,0,0,1,-196.7328338623047,-301.052001953125)" opacity="1"><g opacity="1" transform="matrix(1,0,0,1,335.38299560546875,463.4150085449219)"><path stroke-linecap="butt" stroke-linejoin="miter" fill-opacity="0" stroke-miterlimit="10" stroke="rgb(245,203,28)" stroke-opacity="1" stroke-width="3" d=" M-57.21500015258789,-2 C-52.814998626708984,-2 -52.814998626708984,2 -48.415000915527344,2 C-44.01499938964844,2 -44.01599884033203,-2 -39.61600112915039,-2 C-35.215999603271484,-2 -35.215999603271484,2 -30.815000534057617,2 C-26.413999557495117,2 -26.413999557495117,-2 -22.01300048828125,-2 C-17.61199951171875,-2 -17.611000061035156,2 -13.211000442504883,2 C-8.810999870300293,2 -8.810999870300293,-2 -4.410999774932861,-2 C-0.010999999940395355,-2 -0.012000000104308128,2 4.388000011444092,2 C8.788000106811523,2 8.788999557495117,-2 13.189000129699707,-2 C17.59000015258789,-2 17.59000015258789,2 21.990999221801758,2 C26.393999099731445,2 26.393999099731445,-2 30.79599952697754,-2 C35.196998596191406,-2 35.196998596191406,2 39.5989990234375,2 C44.00299835205078,2 44.00199890136719,-2 48.40599822998047,-2 C52.810001373291016,-2 52.81100082397461,2 57.215999603271484,2"></path></g></g></g><g transform="matrix(1,0,0,1,148.125,151.531005859375)" opacity="1" style="display: block;"><g opacity="1" transform="matrix(1,0,0,1,11.833000183105469,-13.416999816894531)"><path fill="rgb(255,255,255)" fill-opacity="1" d=" M0,-9.5 C5.2430500984191895,-9.5 9.5,-5.2430500984191895 9.5,0 C9.5,5.2430500984191895 5.2430500984191895,9.5 0,9.5 C-5.2430500984191895,9.5 -9.5,5.2430500984191895 -9.5,0 C-9.5,-5.2430500984191895 -5.2430500984191895,-9.5 0,-9.5z"></path><path stroke-linecap="butt" stroke-linejoin="miter" fill-opacity="0" stroke-miterlimit="4" stroke="rgb(29,29,27)" stroke-opacity="1" stroke-width="3" d=" M0,-9.5 C5.2430500984191895,-9.5 9.5,-5.2430500984191895 9.5,0 C9.5,5.2430500984191895 5.2430500984191895,9.5 0,9.5 C-5.2430500984191895,9.5 -9.5,5.2430500984191895 -9.5,0 C-9.5,-5.2430500984191895 -5.2430500984191895,-9.5 0,-9.5z"></path></g></g><g transform="matrix(0.5199999809265137,0,0,0.5199999809265137,153.80484008789062,145.09083557128906)" opacity="1" style="display: block;"><g opacity="1" transform="matrix(1,0,0,1,11.833000183105469,-13.416999816894531)"><path fill="rgb(29,29,27)" fill-opacity="1" d=" M0,-9.5 C5.2430500984191895,-9.5 9.5,-5.2430500984191895 9.5,0 C9.5,5.2430500984191895 5.2430500984191895,9.5 0,9.5 C-5.2430500984191895,9.5 -9.5,5.2430500984191895 -9.5,0 C-9.5,-5.2430500984191895 -5.2430500984191895,-9.5 0,-9.5z" style="transform: translate3d(0px, 0px, 0px);"></path></g></g><g transform="matrix(1,0,0,1,128.875,151.531005859375)" opacity="1" style="display: block;"><g opacity="1" transform="matrix(1,0,0,1,11.833000183105469,-13.416999816894531)"><path fill="rgb(255,255,255)" fill-opacity="1" d=" M0,-9.5 C5.2430500984191895,-9.5 9.5,-5.2430500984191895 9.5,0 C9.5,5.2430500984191895 5.2430500984191895,9.5 0,9.5 C-5.2430500984191895,9.5 -9.5,5.2430500984191895 -9.5,0 C-9.5,-5.2430500984191895 -5.2430500984191895,-9.5 0,-9.5z"></path><path stroke-linecap="butt" stroke-linejoin="miter" fill-opacity="0" stroke-miterlimit="4" stroke="rgb(29,29,27)" stroke-opacity="1" stroke-width="3" d=" M0,-9.5 C5.2430500984191895,-9.5 9.5,-5.2430500984191895 9.5,0 C9.5,5.2430500984191895 5.2430500984191895,9.5 0,9.5 C-5.2430500984191895,9.5 -9.5,5.2430500984191895 -9.5,0 C-9.5,-5.2430500984191895 -5.2430500984191895,-9.5 0,-9.5z"></path></g></g><g transform="matrix(0.5199999809265137,0,0,0.5199999809265137,134.554443359375,145.09083557128906)" opacity="1" style="display: block;"><g opacity="1" transform="matrix(1,0,0,1,11.833000183105469,-13.416999816894531)"><path fill="rgb(29,29,27)" fill-opacity="1" d=" M0,-9.5 C5.2430500984191895,-9.5 9.5,-5.2430500984191895 9.5,0 C9.5,5.2430500984191895 5.2430500984191895,9.5 0,9.5 C-5.2430500984191895,9.5 -9.5,5.2430500984191895 -9.5,0 C-9.5,-5.2430500984191895 -5.2430500984191895,-9.5 0,-9.5z" style="transform: translate3d(0px, 0px, 0px);"></path></g></g></g></svg>