<svg xmlns="http://www.w3.org/2000/svg" viewBox="0 0 264 222" width="264" height="222" preserveAspectRatio="xMidYMid meet" style="width: 100%; height: 100%; transform: translate3d(0px, 0px, 0px); content-visibility: visible;"><defs><clipPath id="__lottie_element_195"><rect width="264" height="222" x="0" y="0"></rect></clipPath></defs><g clip-path="url(#__lottie_element_195)"><g transform="matrix(0.9659331440925598,0.2587917745113373,-0.2587917745113373,0.9659331440925598,-47.004783630371094,-382.6774597167969)" opacity="1" style="display: block;"><g opacity="1" transform="matrix(1,0,0,1,249.19700622558594,428.2279968261719)"><path fill="rgb(245,96,185)" fill-opacity="1" d=" M39.13800048828125,8.751999855041504 C39.13800048828125,8.751999855041504 39.13800048828125,-27.577999114990234 39.13800048828125,-27.577999114990234 C39.13800048828125,-27.577999114990234 -2.806999921798706,-27.577999114990234 -2.806999921798706,-27.577999114990234 C-2.806999921798706,-27.577999114990234 -2.806999921798706,-4.515999794006348 -2.806999921798706,-4.515999794006348 C-2.806999921798706,-4.515999794006348 -3.865000009536743,-4.85099983215332 -3.865000009536743,-4.85099983215332 C-3.865000009536743,-4.85099983215332 -3.9639999866485596,-4.5879998207092285 -3.9639999866485596,-4.5879998207092285 C-7.006999969482422,-5.886000156402588 -10.354000091552734,-6.605999946594238 -13.871000289916992,-6.605999946594238 C-27.825000762939453,-6.605999946594238 -39.137001037597656,4.705999851226807 -39.137001037597656,18.65999984741211 C-39.137001037597656,21.799999237060547 -38.560001373291016,24.804000854492188 -37.51300048828125,27.577999114990234 C-37.51300048828125,27.577999114990234 39.13800048828125,27.577999114990234 39.13800048828125,27.577999114990234 C39.13800048828125,27.577999114990234 39.13800048828125,8.751999855041504 39.13800048828125,8.751999855041504z"></path><path stroke-linecap="round" stroke-linejoin="round" fill-opacity="0" stroke="rgb(29,29,27)" stroke-opacity="1" stroke-width="3" d=" M39.13800048828125,8.751999855041504 C39.13800048828125,8.751999855041504 39.13800048828125,-27.577999114990234 39.13800048828125,-27.577999114990234 C39.13800048828125,-27.577999114990234 -2.806999921798706,-27.577999114990234 -2.806999921798706,-27.577999114990234 C-2.806999921798706,-27.577999114990234 -2.806999921798706,-4.515999794006348 -2.806999921798706,-4.515999794006348 C-2.806999921798706,-4.515999794006348 -3.865000009536743,-4.85099983215332 -3.865000009536743,-4.85099983215332 C-3.865000009536743,-4.85099983215332 -3.9639999866485596,-4.5879998207092285 -3.9639999866485596,-4.5879998207092285 C-7.006999969482422,-5.886000156402588 -10.354000091552734,-6.605999946594238 -13.871000289916992,-6.605999946594238 C-27.825000762939453,-6.605999946594238 -39.137001037597656,4.705999851226807 -39.137001037597656,18.65999984741211 C-39.137001037597656,21.799999237060547 -38.560001373291016,24.804000854492188 -37.51300048828125,27.577999114990234 C-37.51300048828125,27.577999114990234 39.13800048828125,27.577999114990234 39.13800048828125,27.577999114990234 C39.13800048828125,27.577999114990234 39.13800048828125,8.751999855041504 39.13800048828125,8.751999855041504z"></path></g><g opacity="1" transform="matrix(1,0,0,1,248.45199584960938,424.9320068359375)"><path fill="rgb(245,96,185)" fill-opacity="1" d=" M-4.544000148773193,-1.809999942779541 C-4.544000148773193,-1.809999942779541 4.543000221252441,1.809999942779541 4.543000221252441,1.809999942779541"></path><path stroke-linecap="round" stroke-linejoin="round" fill-opacity="0" stroke="rgb(29,29,27)" stroke-opacity="1" stroke-width="3" d=" M-4.544000148773193,-1.809999942779541 C-4.544000148773193,-1.809999942779541 4.543000221252441,1.809999942779541 4.543000221252441,1.809999942779541"></path></g><g opacity="1" transform="matrix(1,0,0,1,250.00900268554688,459.4150085449219)"><path fill="rgb(255,255,255)" fill-opacity="1" d=" M38.32600021362305,3.6089999675750732 C38.32600021362305,3.6089999675750732 -38.32600021362305,3.6089999675750732 -38.32600021362305,3.6089999675750732 C-38.32600021362305,3.6089999675750732 -38.32600021362305,-3.6089999675750732 -38.32600021362305,-3.6089999675750732 C-38.32600021362305,-3.6089999675750732 38.32600021362305,-3.6089999675750732 38.32600021362305,-3.6089999675750732 C38.32600021362305,-3.6089999675750732 38.32600021362305,3.6089999675750732 38.32600021362305,3.6089999675750732z"></path><path stroke-linecap="round" stroke-linejoin="round" fill-opacity="0" stroke="rgb(29,29,27)" stroke-opacity="1" stroke-width="3" d=" M38.32600021362305,3.6089999675750732 C38.32600021362305,3.6089999675750732 -38.32600021362305,3.6089999675750732 -38.32600021362305,3.6089999675750732 C-38.32600021362305,3.6089999675750732 -38.32600021362305,-3.6089999675750732 -38.32600021362305,-3.6089999675750732 C-38.32600021362305,-3.6089999675750732 38.32600021362305,-3.6089999675750732 38.32600021362305,-3.6089999675750732 C38.32600021362305,-3.6089999675750732 38.32600021362305,3.6089999675750732 38.32600021362305,3.6089999675750732z"></path></g></g><g transform="matrix(1,0.000028235293939360417,-0.000028235293939360417,1,-154.165771484375,-319.34759521484375)" opacity="1" style="display: block;"><g opacity="1" transform="matrix(1,0,0,1,327.47198486328125,428.2279968261719)"><path fill="rgb(245,96,185)" fill-opacity="1" d=" M-39.137001037597656,8.751999855041504 C-39.137001037597656,8.751999855041504 -39.137001037597656,-27.577999114990234 -39.137001037597656,-27.577999114990234 C-39.137001037597656,-27.577999114990234 2.806999921798706,-27.577999114990234 2.806999921798706,-27.577999114990234 C2.806999921798706,-27.577999114990234 2.806999921798706,-4.515999794006348 2.806999921798706,-4.515999794006348 C2.806999921798706,-4.515999794006348 3.865999937057495,-4.85099983215332 3.865999937057495,-4.85099983215332 C3.865999937057495,-4.85099983215332 3.9649999141693115,-4.5879998207092285 3.9649999141693115,-4.5879998207092285 C7.007999897003174,-5.886000156402588 10.354000091552734,-6.605999946594238 13.871000289916992,-6.605999946594238 C27.825000762939453,-6.605999946594238 39.13800048828125,4.705999851226807 39.13800048828125,18.65999984741211 C39.13800048828125,21.799999237060547 38.56100082397461,24.804000854492188 37.513999938964844,27.577999114990234 C37.513999938964844,27.577999114990234 -39.137001037597656,27.577999114990234 -39.137001037597656,27.577999114990234 C-39.137001037597656,27.577999114990234 -39.137001037597656,8.751999855041504 -39.137001037597656,8.751999855041504z"></path><path stroke-linecap="round" stroke-linejoin="round" fill-opacity="0" stroke="rgb(29,29,27)" stroke-opacity="1" stroke-width="3" d=" M-39.137001037597656,8.751999855041504 C-39.137001037597656,8.751999855041504 -39.137001037597656,-27.577999114990234 -39.137001037597656,-27.577999114990234 C-39.137001037597656,-27.577999114990234 2.806999921798706,-27.577999114990234 2.806999921798706,-27.577999114990234 C2.806999921798706,-27.577999114990234 2.806999921798706,-4.515999794006348 2.806999921798706,-4.515999794006348 C2.806999921798706,-4.515999794006348 3.865999937057495,-4.85099983215332 3.865999937057495,-4.85099983215332 C3.865999937057495,-4.85099983215332 3.9649999141693115,-4.5879998207092285 3.9649999141693115,-4.5879998207092285 C7.007999897003174,-5.886000156402588 10.354000091552734,-6.605999946594238 13.871000289916992,-6.605999946594238 C27.825000762939453,-6.605999946594238 39.13800048828125,4.705999851226807 39.13800048828125,18.65999984741211 C39.13800048828125,21.799999237060547 38.56100082397461,24.804000854492188 37.513999938964844,27.577999114990234 C37.513999938964844,27.577999114990234 -39.137001037597656,27.577999114990234 -39.137001037597656,27.577999114990234 C-39.137001037597656,27.577999114990234 -39.137001037597656,8.751999855041504 -39.137001037597656,8.751999855041504z"></path></g><g opacity="1" transform="matrix(1,0,0,1,328.2179870605469,424.9320068359375)"><path fill="rgb(245,96,185)" fill-opacity="1" d=" M4.544000148773193,-1.809999942779541 C4.544000148773193,-1.809999942779541 -4.543000221252441,1.809999942779541 -4.543000221252441,1.809999942779541"></path><path stroke-linecap="round" stroke-linejoin="round" fill-opacity="0" stroke="rgb(29,29,27)" stroke-opacity="1" stroke-width="3" d=" M4.544000148773193,-1.809999942779541 C4.544000148773193,-1.809999942779541 -4.543000221252441,1.809999942779541 -4.543000221252441,1.809999942779541"></path></g><g opacity="1" transform="matrix(1,0,0,1,326.6600036621094,459.4150085449219)"><path fill="rgb(255,255,255)" fill-opacity="1" d=" M-38.32600021362305,3.6089999675750732 C-38.32600021362305,3.6089999675750732 38.32600021362305,3.6089999675750732 38.32600021362305,3.6089999675750732 C38.32600021362305,3.6089999675750732 38.32600021362305,-3.6089999675750732 38.32600021362305,-3.6089999675750732 C38.32600021362305,-3.6089999675750732 -38.32600021362305,-3.6089999675750732 -38.32600021362305,-3.6089999675750732 C-38.32600021362305,-3.6089999675750732 -38.32600021362305,3.6089999675750732 -38.32600021362305,3.6089999675750732z"></path><path stroke-linecap="round" stroke-linejoin="round" fill-opacity="0" stroke="rgb(29,29,27)" stroke-opacity="1" stroke-width="3" d=" M-38.32600021362305,3.6089999675750732 C-38.32600021362305,3.6089999675750732 38.32600021362305,3.6089999675750732 38.32600021362305,3.6089999675750732 C38.32600021362305,3.6089999675750732 38.32600021362305,-3.6089999675750732 38.32600021362305,-3.6089999675750732 C38.32600021362305,-3.6089999675750732 -38.32600021362305,-3.6089999675750732 -38.32600021362305,-3.6089999675750732 C-38.32600021362305,-3.6089999675750732 -38.32600021362305,3.6089999675750732 -38.32600021362305,3.6089999675750732z"></path></g></g><g transform="matrix(0.9365522265434265,0.000026443827664479613,-0.000029603401344502345,1.0484538078308105,140.86209106445312,111.84347534179688)" opacity="1" style="display: block;"><g opacity="1" transform="matrix(1,0,0,1,51.854000091552734,-0.6759999990463257)"><path fill="rgb(255,255,255)" fill-opacity="1" d=" M0,-5.073999881744385 C5.024221897125244,-5.073999881744385 9.103500366210938,-2.8003406524658203 9.103500366210938,0 C9.103500366210938,2.8003406524658203 5.024221897125244,5.073999881744385 0,5.073999881744385 C-5.024221897125244,5.073999881744385 -9.103500366210938,2.8003406524658203 -9.103500366210938,0 C-9.103500366210938,-2.8003406524658203 -5.024221897125244,-5.073999881744385 0,-5.073999881744385z"></path></g></g><g transform="matrix(0.9004400372505188,0.24124492704868317,-0.23841387033462524,0.889873206615448,21.834245681762695,82.06666564941406)" opacity="1" style="display: block;"><g opacity="1" transform="matrix(1,0,0,1,51.854000091552734,-0.6759999990463257)"><path fill="rgb(255,255,255)" fill-opacity="1" d=" M0,-5.073999881744385 C5.024221897125244,-5.073999881744385 9.103500366210938,-2.8003406524658203 9.103500366210938,0 C9.103500366210938,2.8003406524658203 5.024221897125244,5.073999881744385 0,5.073999881744385 C-5.024221897125244,5.073999881744385 -9.103500366210938,2.8003406524658203 -9.103500366210938,0 C-9.103500366210938,-2.8003406524658203 -5.024221897125244,-5.073999881744385 0,-5.073999881744385z"></path></g></g><g transform="matrix(1,0,0,1,69,165.5)" opacity="1" style="display: none;"><g opacity="1" transform="matrix(0.7071067690849304,-0.7071067690849304,0.7071067690849304,0.7071067690849304,28.012191772460938,-22.372583389282227)"><g opacity="1" transform="matrix(1,0,0,1,0,0)"><path stroke-linecap="round" stroke-linejoin="miter" fill-opacity="0" stroke-miterlimit="4" stroke="rgb(29,29,27)" stroke-opacity="1" stroke-width="3" d=" M-13.125,-54.72200012207031 C-13.125,-55.91600036621094 -13.125,-56.875 -13.125,-56.875"></path></g></g><g opacity="1" transform="matrix(0,-1,1,0,32,-58)"><g opacity="1" transform="matrix(1,0,0,1,0,0)"><path stroke-linecap="round" stroke-linejoin="miter" fill-opacity="0" stroke-miterlimit="4" stroke="rgb(29,29,27)" stroke-opacity="1" stroke-width="3" d=" M-13.125,-54.72200012207031 C-13.125,-55.91600036621094 -13.125,-56.875 -13.125,-56.875"></path></g></g><g opacity="1" transform="matrix(-0.7071067690849304,-0.7071067690849304,0.7071067690849304,-0.7071067690849304,9.627418518066406,-86.01219177246094)"><g opacity="1" transform="matrix(1,0,0,1,0,0)"><path stroke-linecap="round" stroke-linejoin="miter" fill-opacity="0" stroke-miterlimit="4" stroke="rgb(29,29,27)" stroke-opacity="1" stroke-width="3" d=" M-13.125,-54.72200012207031 C-13.125,-55.91600036621094 -13.125,-56.875 -13.125,-56.875"></path></g></g><g opacity="1" transform="matrix(-1,0,0,-1,-25.999998092651367,-90)"><g opacity="1" transform="matrix(1,0,0,1,0,0)"><path stroke-linecap="round" stroke-linejoin="miter" fill-opacity="0" stroke-miterlimit="4" stroke="rgb(29,29,27)" stroke-opacity="1" stroke-width="3" d=" M-13.125,-54.72200012207031 C-13.125,-55.91600036621094 -13.125,-56.875 -13.125,-56.875"></path></g></g><g opacity="1" transform="matrix(-0.7071067690849304,0.7071067690849304,-0.7071067690849304,-0.7071067690849304,-54.01219177246094,-67.6274185180664)"><g opacity="1" transform="matrix(1,0,0,1,0,0)"><path stroke-linecap="round" stroke-linejoin="miter" fill-opacity="0" stroke-miterlimit="4" stroke="rgb(29,29,27)" stroke-opacity="1" stroke-width="3" d=" M-13.125,-54.72200012207031 C-13.125,-55.91600036621094 -13.125,-56.875 -13.125,-56.875"></path></g></g><g opacity="1" transform="matrix(0,1,-1,0,-58,-32)"><g opacity="1" transform="matrix(1,0,0,1,0,0)"><path stroke-linecap="round" stroke-linejoin="miter" fill-opacity="0" stroke-miterlimit="4" stroke="rgb(29,29,27)" stroke-opacity="1" stroke-width="3" d=" M-13.125,-54.72200012207031 C-13.125,-55.91600036621094 -13.125,-56.875 -13.125,-56.875"></path></g></g><g opacity="1" transform="matrix(0.7071067690849304,0.7071067690849304,-0.7071067690849304,0.7071067690849304,-35.627418518066406,-3.9878082275390625)"><g opacity="1" transform="matrix(1,0,0,1,0,0)"><path stroke-linecap="round" stroke-linejoin="miter" fill-opacity="0" stroke-miterlimit="4" stroke="rgb(29,29,27)" stroke-opacity="1" stroke-width="3" d=" M-13.125,-54.72200012207031 C-13.125,-55.91600036621094 -13.125,-56.875 -13.125,-56.875"></path></g></g><g opacity="1" transform="matrix(1,0,0,1,0,0)"><g opacity="1" transform="matrix(1,0,0,1,0,0)"><path stroke-linecap="round" stroke-linejoin="miter" fill-opacity="0" stroke-miterlimit="4" stroke="rgb(29,29,27)" stroke-opacity="1" stroke-width="3" d=" M-13.125,-54.72200012207031 C-13.125,-55.91600036621094 -13.125,-56.875 -13.125,-56.875"></path></g></g></g><g transform="matrix(1,0,0,1,185,124.25)" opacity="1" style="display: none;"><g opacity="1" transform="matrix(0.7071067690849304,-0.7071067690849304,0.7071067690849304,0.7071067690849304,28.012191772460938,-22.372583389282227)"><g opacity="1" transform="matrix(1,0,0,1,0,0)"><path stroke-linecap="round" stroke-linejoin="miter" fill-opacity="0" stroke-miterlimit="4" stroke="rgb(29,29,27)" stroke-opacity="1" stroke-width="3" d=" M-13.125,-53.62900161743164 C-13.125,-53.707000732421875 -13.125,-53.75 -13.125,-53.75"></path></g></g><g opacity="1" transform="matrix(0,-1,1,0,32,-58)"><g opacity="1" transform="matrix(1,0,0,1,0,0)"><path stroke-linecap="round" stroke-linejoin="miter" fill-opacity="0" stroke-miterlimit="4" stroke="rgb(29,29,27)" stroke-opacity="1" stroke-width="3" d=" M-13.125,-53.62900161743164 C-13.125,-53.707000732421875 -13.125,-53.75 -13.125,-53.75"></path></g></g><g opacity="1" transform="matrix(-0.7071067690849304,-0.7071067690849304,0.7071067690849304,-0.7071067690849304,9.627418518066406,-86.01219177246094)"><g opacity="1" transform="matrix(1,0,0,1,0,0)"><path stroke-linecap="round" stroke-linejoin="miter" fill-opacity="0" stroke-miterlimit="4" stroke="rgb(29,29,27)" stroke-opacity="1" stroke-width="3" d=" M-13.125,-53.62900161743164 C-13.125,-53.707000732421875 -13.125,-53.75 -13.125,-53.75"></path></g></g><g opacity="1" transform="matrix(-1,0,0,-1,-25.999998092651367,-90)"><g opacity="1" transform="matrix(1,0,0,1,0,0)"><path stroke-linecap="round" stroke-linejoin="miter" fill-opacity="0" stroke-miterlimit="4" stroke="rgb(29,29,27)" stroke-opacity="1" stroke-width="3" d=" M-13.125,-53.62900161743164 C-13.125,-53.707000732421875 -13.125,-53.75 -13.125,-53.75"></path></g></g><g opacity="1" transform="matrix(-0.7071067690849304,0.7071067690849304,-0.7071067690849304,-0.7071067690849304,-54.01219177246094,-67.6274185180664)"><g opacity="1" transform="matrix(1,0,0,1,0,0)"><path stroke-linecap="round" stroke-linejoin="miter" fill-opacity="0" stroke-miterlimit="4" stroke="rgb(29,29,27)" stroke-opacity="1" stroke-width="3" d=" M-13.125,-53.62900161743164 C-13.125,-53.707000732421875 -13.125,-53.75 -13.125,-53.75"></path></g></g><g opacity="1" transform="matrix(0,1,-1,0,-58,-32)"><g opacity="1" transform="matrix(1,0,0,1,0,0)"><path stroke-linecap="round" stroke-linejoin="miter" fill-opacity="0" stroke-miterlimit="4" stroke="rgb(29,29,27)" stroke-opacity="1" stroke-width="3" d=" M-13.125,-53.62900161743164 C-13.125,-53.707000732421875 -13.125,-53.75 -13.125,-53.75"></path></g></g><g opacity="1" transform="matrix(0.7071067690849304,0.7071067690849304,-0.7071067690849304,0.7071067690849304,-35.627418518066406,-3.9878082275390625)"><g opacity="1" transform="matrix(1,0,0,1,0,0)"><path stroke-linecap="round" stroke-linejoin="miter" fill-opacity="0" stroke-miterlimit="4" stroke="rgb(29,29,27)" stroke-opacity="1" stroke-width="3" d=" M-13.125,-53.62900161743164 C-13.125,-53.707000732421875 -13.125,-53.75 -13.125,-53.75"></path></g></g><g opacity="1" transform="matrix(1,0,0,1,0,0)"><g opacity="1" transform="matrix(1,0,0,1,0,0)"><path stroke-linecap="round" stroke-linejoin="miter" fill-opacity="0" stroke-miterlimit="4" stroke="rgb(29,29,27)" stroke-opacity="1" stroke-width="3" d=" M-13.125,-53.62900161743164 C-13.125,-53.707000732421875 -13.125,-53.75 -13.125,-53.75"></path></g></g></g><g transform="matrix(0,0,0,0,171.25,79.25)" opacity="1" style="display: none;"><g opacity="1" transform="matrix(1,0,0,1,-52,-85.75)"><path fill="rgb(255,255,255)" fill-opacity="1" d=" M1.1110608460891095e-15,-18.145000457763672 C1.1110608460891095e-15,-18.145000457763672 1.6283552646636963,-9.787177085876465 5.707766056060791,-5.707766056060791 C9.787177085876465,-1.6283552646636963 18.145000457763672,0 18.145000457763672,0 C18.145000457763672,0 9.787177085876465,1.6283552646636963 5.707766056060791,5.707766056060791 C1.6283552646636963,9.787177085876465 1.1110608460891095e-15,18.145000457763672 1.1110608460891095e-15,18.145000457763672 C1.1110608460891095e-15,18.145000457763672 -1.6283552646636963,9.787177085876465 -5.707766056060791,5.707766056060791 C-9.787177085876465,1.6283552646636963 -18.145000457763672,2.222121692178219e-15 -18.145000457763672,2.222121692178219e-15 C-18.145000457763672,2.222121692178219e-15 -9.787177085876465,-1.6283552646636963 -5.707766056060791,-5.707766056060791 C-1.6283552646636963,-9.787177085876465 1.1110608460891095e-15,-18.145000457763672 1.1110608460891095e-15,-18.145000457763672z"></path><path stroke-linecap="round" stroke-linejoin="round" fill-opacity="0" stroke="rgb(28,28,26)" stroke-opacity="1" stroke-width="3" d=" M1.1110608460891095e-15,-18.145000457763672 C1.1110608460891095e-15,-18.145000457763672 1.6283552646636963,-9.787177085876465 5.707766056060791,-5.707766056060791 C9.787177085876465,-1.6283552646636963 18.145000457763672,0 18.145000457763672,0 C18.145000457763672,0 9.787177085876465,1.6283552646636963 5.707766056060791,5.707766056060791 C1.6283552646636963,9.787177085876465 1.1110608460891095e-15,18.145000457763672 1.1110608460891095e-15,18.145000457763672 C1.1110608460891095e-15,18.145000457763672 -1.6283552646636963,9.787177085876465 -5.707766056060791,5.707766056060791 C-9.787177085876465,1.6283552646636963 -18.145000457763672,2.222121692178219e-15 -18.145000457763672,2.222121692178219e-15 C-18.145000457763672,2.222121692178219e-15 -9.787177085876465,-1.6283552646636963 -5.707766056060791,-5.707766056060791 C-1.6283552646636963,-9.787177085876465 1.1110608460891095e-15,-18.145000457763672 1.1110608460891095e-15,-18.145000457763672z"></path></g></g><g transform="matrix(0.00010785087943077087,0,0,0.00010785087943077087,56.25560760498047,120.75924682617188)" opacity="1" style="display: block;"><g opacity="1" transform="matrix(1,0,0,1,-52,-85.75)"><path fill="rgb(255,255,255)" fill-opacity="1" d=" M1.1110608460891095e-15,-18.145000457763672 C1.1110608460891095e-15,-18.145000457763672 1.6283552646636963,-9.787177085876465 5.707766056060791,-5.707766056060791 C9.787177085876465,-1.6283552646636963 18.145000457763672,0 18.145000457763672,0 C18.145000457763672,0 9.787177085876465,1.6283552646636963 5.707766056060791,5.707766056060791 C1.6283552646636963,9.787177085876465 1.1110608460891095e-15,18.145000457763672 1.1110608460891095e-15,18.145000457763672 C1.1110608460891095e-15,18.145000457763672 -1.6283552646636963,9.787177085876465 -5.707766056060791,5.707766056060791 C-9.787177085876465,1.6283552646636963 -18.145000457763672,2.222121692178219e-15 -18.145000457763672,2.222121692178219e-15 C-18.145000457763672,2.222121692178219e-15 -9.787177085876465,-1.6283552646636963 -5.707766056060791,-5.707766056060791 C-1.6283552646636963,-9.787177085876465 1.1110608460891095e-15,-18.145000457763672 1.1110608460891095e-15,-18.145000457763672z"></path><path stroke-linecap="round" stroke-linejoin="round" fill-opacity="0" stroke="rgb(28,28,26)" stroke-opacity="1" stroke-width="3" d=" M1.1110608460891095e-15,-18.145000457763672 C1.1110608460891095e-15,-18.145000457763672 1.6283552646636963,-9.787177085876465 5.707766056060791,-5.707766056060791 C9.787177085876465,-1.6283552646636963 18.145000457763672,0 18.145000457763672,0 C18.145000457763672,0 9.787177085876465,1.6283552646636963 5.707766056060791,5.707766056060791 C1.6283552646636963,9.787177085876465 1.1110608460891095e-15,18.145000457763672 1.1110608460891095e-15,18.145000457763672 C1.1110608460891095e-15,18.145000457763672 -1.6283552646636963,9.787177085876465 -5.707766056060791,5.707766056060791 C-9.787177085876465,1.6283552646636963 -18.145000457763672,2.222121692178219e-15 -18.145000457763672,2.222121692178219e-15 C-18.145000457763672,2.222121692178219e-15 -9.787177085876465,-1.6283552646636963 -5.707766056060791,-5.707766056060791 C-1.6283552646636963,-9.787177085876465 1.1110608460891095e-15,-18.145000457763672 1.1110608460891095e-15,-18.145000457763672z"></path></g></g></g></svg>