<svg xmlns="http://www.w3.org/2000/svg" viewBox="0 0 384 392" width="384" height="392" preserveAspectRatio="xMidYMid meet" style="width: 100%; height: 100%; transform: translate3d(0px, 0px, 0px); content-visibility: visible;"><defs><clipPath id="__lottie_element_108"><rect width="384" height="392" x="0" y="0"></rect></clipPath><clipPath id="__lottie_element_113"><path d="M0,0 L384,0 L384,392 L0,392z"></path></clipPath><mask id="__lottie_element_116" mask-type="alpha"><g transform="matrix(0.9781476259231567,0.2079116851091385,-0.2079116851091385,0.9781476259231567,196.51966857910156,214.70423889160156)" opacity="1" style="display: block;"><g opacity="1" transform="matrix(1,0,0,1,-23.246000289916992,4.581999778747559)"><path fill="rgb(255,255,255)" fill-opacity="1" d=" M17.510499954223633,0 C17.510499954223633,0 17.510499954223633,0 17.510499954223633,0 C17.510499954223633,9.664045333862305 9.664045333862305,17.510499954223633 0,17.510499954223633 C0,17.510499954223633 0,17.510499954223633 0,17.510499954223633 C-9.664045333862305,17.510499954223633 -17.510499954223633,9.664045333862305 -17.510499954223633,0 C-17.510499954223633,0 -17.510499954223633,0 -17.510499954223633,0 C-17.510499954223633,-9.664045333862305 -9.664045333862305,-17.510499954223633 0,-17.510499954223633 C0,-17.510499954223633 0,-17.510499954223633 0,-17.510499954223633 C9.664045333862305,-17.510499954223633 17.510499954223633,-9.664045333862305 17.510499954223633,0z"></path><path stroke-linecap="butt" stroke-linejoin="miter" fill-opacity="0" stroke-miterlimit="4" stroke="rgb(28,28,26)" stroke-opacity="1" stroke-width="3" d=" M17.510499954223633,0 C17.510499954223633,0 17.510499954223633,0 17.510499954223633,0 C17.510499954223633,9.664045333862305 9.664045333862305,17.510499954223633 0,17.510499954223633 C0,17.510499954223633 0,17.510499954223633 0,17.510499954223633 C-9.664045333862305,17.510499954223633 -17.510499954223633,9.664045333862305 -17.510499954223633,0 C-17.510499954223633,0 -17.510499954223633,0 -17.510499954223633,0 C-17.510499954223633,-9.664045333862305 -9.664045333862305,-17.510499954223633 0,-17.510499954223633 C0,-17.510499954223633 0,-17.510499954223633 0,-17.510499954223633 C9.664045333862305,-17.510499954223633 17.510499954223633,-9.664045333862305 17.510499954223633,0z"></path></g></g></mask><clipPath id="__lottie_element_126"><path d="M0,0 L384,0 L384,392 L0,392z"></path></clipPath><mask id="__lottie_element_129" mask-type="alpha"><g transform="matrix(0.9781476259231567,0.2079116851091385,-0.2079116851091385,0.9781476259231567,196.51966857910156,214.70423889160156)" opacity="1" style="display: block;"><g opacity="1" transform="matrix(1,0,0,1,-23.246000289916992,4.581999778747559)"><path fill="rgb(255,255,255)" fill-opacity="1" d=" M17.510499954223633,0 C17.510499954223633,0 17.510499954223633,0 17.510499954223633,0 C17.510499954223633,9.664045333862305 9.664045333862305,17.510499954223633 0,17.510499954223633 C0,17.510499954223633 0,17.510499954223633 0,17.510499954223633 C-9.664045333862305,17.510499954223633 -17.510499954223633,9.664045333862305 -17.510499954223633,0 C-17.510499954223633,0 -17.510499954223633,0 -17.510499954223633,0 C-17.510499954223633,-9.664045333862305 -9.664045333862305,-17.510499954223633 0,-17.510499954223633 C0,-17.510499954223633 0,-17.510499954223633 0,-17.510499954223633 C9.664045333862305,-17.510499954223633 17.510499954223633,-9.664045333862305 17.510499954223633,0z"></path><path stroke-linecap="butt" stroke-linejoin="miter" fill-opacity="0" stroke-miterlimit="4" stroke="rgb(28,28,26)" stroke-opacity="1" stroke-width="3" d=" M17.510499954223633,0 C17.510499954223633,0 17.510499954223633,0 17.510499954223633,0 C17.510499954223633,9.664045333862305 9.664045333862305,17.510499954223633 0,17.510499954223633 C0,17.510499954223633 0,17.510499954223633 0,17.510499954223633 C-9.664045333862305,17.510499954223633 -17.510499954223633,9.664045333862305 -17.510499954223633,0 C-17.510499954223633,0 -17.510499954223633,0 -17.510499954223633,0 C-17.510499954223633,-9.664045333862305 -9.664045333862305,-17.510499954223633 0,-17.510499954223633 C0,-17.510499954223633 0,-17.510499954223633 0,-17.510499954223633 C9.664045333862305,-17.510499954223633 17.510499954223633,-9.664045333862305 17.510499954223633,0z"></path></g></g></mask></defs><g clip-path="url(#__lottie_element_108)"><g transform="matrix(0.9909810423851013,0.13400207459926605,-0.13400207459926605,0.9909810423851013,-62.505882263183594,-221.57725524902344)" opacity="1" style="display: block;"><g opacity="1" transform="matrix(1,0,0,1,186.6820068359375,423.95098876953125)"><path fill="rgb(110,212,119)" fill-opacity="1" d=" M24.92799949645996,-20.81399917602539 C24.92799949645996,-20.81399917602539 6.158999919891357,-15.619000434875488 6.158999919891357,-15.619000434875488 C3.367000102996826,-14.845999717712402 1.7300000190734863,-11.956000328063965 2.503000020980835,-9.163999557495117 C2.503000020980835,-9.163999557495117 3.187999963760376,-6.686999797821045 3.187999963760376,-6.686999797821045 C3.187999963760376,-6.686999797821045 -6.172999858856201,-4.0960001945495605 -6.172999858856201,-4.0960001945495605 C-6.172999858856201,-4.0960001945495605 -6.859000205993652,-6.572999954223633 -6.859000205993652,-6.572999954223633 C-7.631999969482422,-9.364999771118164 -10.520999908447266,-11.001999855041504 -13.312999725341797,-10.229000091552734 C-13.312999725341797,-10.229000091552734 -32.08300018310547,-5.033999919891357 -32.08300018310547,-5.033999919891357 C-34.875,-4.261000156402588 -36.512001037597656,-1.371999979019165 -35.73899841308594,1.4199999570846558 C-35.73899841308594,1.4199999570846558 -31.382999420166016,17.159000396728516 -31.382999420166016,17.159000396728516 C-30.610000610351562,19.950000762939453 -27.719999313354492,21.586999893188477 -24.92799949645996,20.815000534057617 C-24.92799949645996,20.815000534057617 -6.158999919891357,15.619000434875488 -6.158999919891357,15.619000434875488 C-3.367000102996826,14.847000122070312 -1.7300000190734863,11.956999778747559 -2.503000020980835,9.164999961853027 C-2.503000020980835,9.164999961853027 -4.681000232696533,1.2960000038146973 -4.681000232696533,1.2960000038146973 C-4.681000232696533,1.2960000038146973 4.681000232696533,-1.2949999570846558 4.681000232696533,-1.2949999570846558 C4.681000232696533,-1.2949999570846558 6.859000205993652,6.573999881744385 6.859000205993652,6.573999881744385 C7.63100004196167,9.366000175476074 10.520999908447266,11.003000259399414 13.312999725341797,10.229999542236328 C13.312999725341797,10.229999542236328 32.08300018310547,5.034999847412109 32.08300018310547,5.034999847412109 C34.875,4.26200008392334 36.51100158691406,1.371999979019165 35.73899841308594,-1.4199999570846558 C35.73899841308594,-1.4199999570846558 31.382999420166016,-17.158000946044922 31.382999420166016,-17.158000946044922 C30.610000610351562,-19.950000762939453 27.719999313354492,-21.586999893188477 24.92799949645996,-20.81399917602539z"></path><path stroke-linecap="butt" stroke-linejoin="miter" fill-opacity="0" stroke-miterlimit="10" stroke="rgb(29,29,27)" stroke-opacity="1" stroke-width="3" d=" M24.92799949645996,-20.81399917602539 C24.92799949645996,-20.81399917602539 6.158999919891357,-15.619000434875488 6.158999919891357,-15.619000434875488 C3.367000102996826,-14.845999717712402 1.7300000190734863,-11.956000328063965 2.503000020980835,-9.163999557495117 C2.503000020980835,-9.163999557495117 3.187999963760376,-6.686999797821045 3.187999963760376,-6.686999797821045 C3.187999963760376,-6.686999797821045 -6.172999858856201,-4.0960001945495605 -6.172999858856201,-4.0960001945495605 C-6.172999858856201,-4.0960001945495605 -6.859000205993652,-6.572999954223633 -6.859000205993652,-6.572999954223633 C-7.631999969482422,-9.364999771118164 -10.520999908447266,-11.001999855041504 -13.312999725341797,-10.229000091552734 C-13.312999725341797,-10.229000091552734 -32.08300018310547,-5.033999919891357 -32.08300018310547,-5.033999919891357 C-34.875,-4.261000156402588 -36.512001037597656,-1.371999979019165 -35.73899841308594,1.4199999570846558 C-35.73899841308594,1.4199999570846558 -31.382999420166016,17.159000396728516 -31.382999420166016,17.159000396728516 C-30.610000610351562,19.950000762939453 -27.719999313354492,21.586999893188477 -24.92799949645996,20.815000534057617 C-24.92799949645996,20.815000534057617 -6.158999919891357,15.619000434875488 -6.158999919891357,15.619000434875488 C-3.367000102996826,14.847000122070312 -1.7300000190734863,11.956999778747559 -2.503000020980835,9.164999961853027 C-2.503000020980835,9.164999961853027 -4.681000232696533,1.2960000038146973 -4.681000232696533,1.2960000038146973 C-4.681000232696533,1.2960000038146973 4.681000232696533,-1.2949999570846558 4.681000232696533,-1.2949999570846558 C4.681000232696533,-1.2949999570846558 6.859000205993652,6.573999881744385 6.859000205993652,6.573999881744385 C7.63100004196167,9.366000175476074 10.520999908447266,11.003000259399414 13.312999725341797,10.229999542236328 C13.312999725341797,10.229999542236328 32.08300018310547,5.034999847412109 32.08300018310547,5.034999847412109 C34.875,4.26200008392334 36.51100158691406,1.371999979019165 35.73899841308594,-1.4199999570846558 C35.73899841308594,-1.4199999570846558 31.382999420166016,-17.158000946044922 31.382999420166016,-17.158000946044922 C30.610000610351562,-19.950000762939453 27.719999313354492,-21.586999893188477 24.92799949645996,-20.81399917602539z"></path></g><g opacity="1" transform="matrix(1,0,0,1,167.56100463867188,429.2439880371094)"><path fill="rgb(29,29,27)" fill-opacity="1" d=" M-5.8470001220703125,9.85099983215332 C-6.381999969482422,9.99899959564209 -6.935999870300293,9.6850004196167 -7.084000110626221,9.149999618530273 C-7.084000110626221,9.149999618530273 -10.781000137329102,-4.204999923706055 -10.781000137329102,-4.204999923706055 C-10.928999900817871,-4.738999843597412 -10.614999771118164,-5.294000148773193 -10.079999923706055,-5.441999912261963 C-10.079999923706055,-5.441999912261963 5.8470001220703125,-9.85099983215332 5.8470001220703125,-9.85099983215332 C6.381999969482422,-9.99899959564209 6.936999797821045,-9.684000015258789 7.085000038146973,-9.149999618530273 C7.085000038146973,-9.149999618530273 10.781000137329102,4.204999923706055 10.781000137329102,4.204999923706055 C10.928999900817871,4.739999771118164 10.614999771118164,5.295000076293945 10.079999923706055,5.442999839782715 C10.079999923706055,5.442999839782715 -5.8470001220703125,9.85099983215332 -5.8470001220703125,9.85099983215332z"></path><path stroke-linecap="butt" stroke-linejoin="miter" fill-opacity="0" stroke-miterlimit="10" stroke="rgb(29,29,27)" stroke-opacity="1" stroke-width="3" d=" M-5.8470001220703125,9.85099983215332 C-6.381999969482422,9.99899959564209 -6.935999870300293,9.6850004196167 -7.084000110626221,9.149999618530273 C-7.084000110626221,9.149999618530273 -10.781000137329102,-4.204999923706055 -10.781000137329102,-4.204999923706055 C-10.928999900817871,-4.738999843597412 -10.614999771118164,-5.294000148773193 -10.079999923706055,-5.441999912261963 C-10.079999923706055,-5.441999912261963 5.8470001220703125,-9.85099983215332 5.8470001220703125,-9.85099983215332 C6.381999969482422,-9.99899959564209 6.936999797821045,-9.684000015258789 7.085000038146973,-9.149999618530273 C7.085000038146973,-9.149999618530273 10.781000137329102,4.204999923706055 10.781000137329102,4.204999923706055 C10.928999900817871,4.739999771118164 10.614999771118164,5.295000076293945 10.079999923706055,5.442999839782715 C10.079999923706055,5.442999839782715 -5.8470001220703125,9.85099983215332 -5.8470001220703125,9.85099983215332z"></path></g><g opacity="1" transform="matrix(1,0,0,1,205.802001953125,418.65899658203125)"><path fill="rgb(29,29,27)" fill-opacity="1" d=" M-5.90500020980835,9.949000358581543 C-6.445000171661377,10.097999572753906 -7.005000114440918,9.781000137329102 -7.15500020980835,9.241000175476074 C-7.15500020980835,9.241000175476074 -10.887999534606934,-4.248000144958496 -10.887999534606934,-4.248000144958496 C-11.038000106811523,-4.7870001792907715 -10.720000267028809,-5.3480000495910645 -10.180000305175781,-5.497000217437744 C-10.180000305175781,-5.497000217437744 5.906000137329102,-9.949999809265137 5.906000137329102,-9.949999809265137 C6.446000099182129,-10.098999977111816 7.00600004196167,-9.781999588012695 7.156000137329102,-9.241999626159668 C7.156000137329102,-9.241999626159668 10.888999938964844,4.247000217437744 10.888999938964844,4.247000217437744 C11.038999557495117,4.7870001792907715 10.720999717712402,5.3470001220703125 10.182000160217285,5.495999813079834 C10.182000160217285,5.495999813079834 -5.90500020980835,9.949000358581543 -5.90500020980835,9.949000358581543z"></path><path stroke-linecap="butt" stroke-linejoin="miter" fill-opacity="0" stroke-miterlimit="10" stroke="rgb(29,29,27)" stroke-opacity="1" stroke-width="3" d=" M-5.90500020980835,9.949000358581543 C-6.445000171661377,10.097999572753906 -7.005000114440918,9.781000137329102 -7.15500020980835,9.241000175476074 C-7.15500020980835,9.241000175476074 -10.887999534606934,-4.248000144958496 -10.887999534606934,-4.248000144958496 C-11.038000106811523,-4.7870001792907715 -10.720000267028809,-5.3480000495910645 -10.180000305175781,-5.497000217437744 C-10.180000305175781,-5.497000217437744 5.906000137329102,-9.949999809265137 5.906000137329102,-9.949999809265137 C6.446000099182129,-10.098999977111816 7.00600004196167,-9.781999588012695 7.156000137329102,-9.241999626159668 C7.156000137329102,-9.241999626159668 10.888999938964844,4.247000217437744 10.888999938964844,4.247000217437744 C11.038999557495117,4.7870001792907715 10.720999717712402,5.3470001220703125 10.182000160217285,5.495999813079834 C10.182000160217285,5.495999813079834 -5.90500020980835,9.949000358581543 -5.90500020980835,9.949000358581543z"></path></g></g><g transform="matrix(0.9953098297119141,-0.0967383086681366,0.0967383086681366,0.9953098297119141,-160.32553100585938,-167.2069549560547)" opacity="1" style="display: block;"><g opacity="1" transform="matrix(1,0,0,1,328.2959899902344,466.62200927734375)"><path fill="rgb(245,203,28)" fill-opacity="1" d=" M61.082000732421875,6.382999897003174 C61.082000732421875,6.382999897003174 -61.082000732421875,6.382999897003174 -61.082000732421875,6.382999897003174 C-61.082000732421875,6.382999897003174 -61.082000732421875,-6.382999897003174 -61.082000732421875,-6.382999897003174 C-61.082000732421875,-6.382999897003174 61.082000732421875,-6.382999897003174 61.082000732421875,-6.382999897003174 C61.082000732421875,-6.382999897003174 61.082000732421875,6.382999897003174 61.082000732421875,6.382999897003174z"></path><path stroke-linecap="butt" stroke-linejoin="miter" fill-opacity="0" stroke-miterlimit="10" stroke="rgb(29,29,27)" stroke-opacity="1" stroke-width="3" d=" M61.082000732421875,6.382999897003174 C61.082000732421875,6.382999897003174 -61.082000732421875,6.382999897003174 -61.082000732421875,6.382999897003174 C-61.082000732421875,6.382999897003174 -61.082000732421875,-6.382999897003174 -61.082000732421875,-6.382999897003174 C-61.082000732421875,-6.382999897003174 61.082000732421875,-6.382999897003174 61.082000732421875,-6.382999897003174 C61.082000732421875,-6.382999897003174 61.082000732421875,6.382999897003174 61.082000732421875,6.382999897003174z"></path></g><g opacity="1" transform="matrix(1,0,0,1,267.2139892578125,466.62200927734375)"><path fill="rgb(245,203,28)" fill-opacity="1" d=" M56.27799987792969,6.382999897003174 C56.27799987792969,6.382999897003174 -56.27799987792969,6.382999897003174 -56.27799987792969,6.382999897003174 C-56.27799987792969,6.382999897003174 -56.27799987792969,-6.382999897003174 -56.27799987792969,-6.382999897003174 C-56.27799987792969,-6.382999897003174 56.27799987792969,-6.382999897003174 56.27799987792969,-6.382999897003174 C56.27799987792969,-6.382999897003174 56.27799987792969,6.382999897003174 56.27799987792969,6.382999897003174z"></path><path stroke-linecap="butt" stroke-linejoin="miter" fill-opacity="0" stroke-miterlimit="10" stroke="rgb(29,29,27)" stroke-opacity="1" stroke-width="3" d=" M56.27799987792969,6.382999897003174 C56.27799987792969,6.382999897003174 -56.27799987792969,6.382999897003174 -56.27799987792969,6.382999897003174 C-56.27799987792969,6.382999897003174 -56.27799987792969,-6.382999897003174 -56.27799987792969,-6.382999897003174 C-56.27799987792969,-6.382999897003174 56.27799987792969,-6.382999897003174 56.27799987792969,-6.382999897003174 C56.27799987792969,-6.382999897003174 56.27799987792969,6.382999897003174 56.27799987792969,6.382999897003174z"></path></g><g opacity="1" transform="matrix(1,0,0,1,312.26800537109375,408.51800537109375)"><path fill="rgb(245,203,28)" fill-opacity="1" d=" M67.64299774169922,-51.72100067138672 C67.64299774169922,-51.72100067138672 -67.64199829101562,-51.72100067138672 -67.64199829101562,-51.72100067138672 C-67.64199829101562,-51.72100067138672 -67.64199829101562,51.72100067138672 -67.64199829101562,51.72100067138672 C-67.64199829101562,51.72100067138672 67.64299774169922,51.72100067138672 67.64299774169922,51.72100067138672 C67.64299774169922,51.72100067138672 67.64299774169922,-51.72100067138672 67.64299774169922,-51.72100067138672z"></path><path stroke-linecap="butt" stroke-linejoin="miter" fill-opacity="0" stroke-miterlimit="10" stroke="rgb(29,29,27)" stroke-opacity="1" stroke-width="3" d=" M67.64299774169922,-51.72100067138672 C67.64299774169922,-51.72100067138672 -67.64199829101562,-51.72100067138672 -67.64199829101562,-51.72100067138672 C-67.64199829101562,-51.72100067138672 -67.64199829101562,51.72100067138672 -67.64199829101562,51.72100067138672 C-67.64199829101562,51.72100067138672 67.64299774169922,51.72100067138672 67.64299774169922,51.72100067138672 C67.64299774169922,51.72100067138672 67.64299774169922,-51.72100067138672 67.64299774169922,-51.72100067138672z"></path></g><g opacity="1" transform="matrix(1,0,0,1,312.26800537109375,408.51800537109375)"><path fill="rgb(255,255,255)" fill-opacity="1" d=" M-60.452999114990234,-44.53099822998047 C-60.452999114990234,-44.53099822998047 60.452999114990234,-44.53099822998047 60.452999114990234,-44.53099822998047 C60.452999114990234,-44.53099822998047 60.452999114990234,44.53099822998047 60.452999114990234,44.53099822998047 C60.452999114990234,44.53099822998047 -60.452999114990234,44.53099822998047 -60.452999114990234,44.53099822998047 C-60.452999114990234,44.53099822998047 -60.452999114990234,-44.53099822998047 -60.452999114990234,-44.53099822998047z"></path><path stroke-linecap="round" stroke-linejoin="round" fill-opacity="0" stroke="rgb(29,29,27)" stroke-opacity="1" stroke-width="3" d=" M-60.452999114990234,-44.53099822998047 C-60.452999114990234,-44.53099822998047 60.452999114990234,-44.53099822998047 60.452999114990234,-44.53099822998047 C60.452999114990234,-44.53099822998047 60.452999114990234,44.53099822998047 60.452999114990234,44.53099822998047 C60.452999114990234,44.53099822998047 -60.452999114990234,44.53099822998047 -60.452999114990234,44.53099822998047 C-60.452999114990234,44.53099822998047 -60.452999114990234,-44.53099822998047 -60.452999114990234,-44.53099822998047z"></path></g><g opacity="1" transform="matrix(1,0,0,1,266.79400634765625,428.97198486328125)"><path fill="rgb(245,96,185)" fill-opacity="1" d=" M5.892000198364258,0 C5.892000198364258,3.253999948501587 3.253000020980835,5.890999794006348 0,5.890999794006348 C-3.253999948501587,5.890999794006348 -5.892000198364258,3.253999948501587 -5.892000198364258,0 C-5.892000198364258,-3.253999948501587 -3.253999948501587,-5.890999794006348 0,-5.890999794006348 C3.253000020980835,-5.890999794006348 5.892000198364258,-3.253999948501587 5.892000198364258,0z"></path></g><g opacity="1" transform="matrix(1,0,0,1,357.7409973144531,428.97198486328125)"><path fill="rgb(245,96,185)" fill-opacity="1" d=" M5.892000198364258,0 C5.892000198364258,3.253999948501587 3.253000020980835,5.890999794006348 0,5.890999794006348 C-3.253999948501587,5.890999794006348 -5.892000198364258,3.253999948501587 -5.892000198364258,0 C-5.892000198364258,-3.253999948501587 -3.253999948501587,-5.890999794006348 0,-5.890999794006348 C3.253000020980835,-5.890999794006348 5.892000198364258,-3.253999948501587 5.892000198364258,0z"></path></g><g opacity="1" transform="matrix(1,0,0,1,312.26800537109375,421.1419982910156)"><path stroke-linecap="round" stroke-linejoin="round" fill-opacity="0" stroke="rgb(29,29,27)" stroke-opacity="1" stroke-width="3" d=" M2.809999942779541,-2.809999942779541 C2.809999942779541,-2.809999942779541 2.809999942779541,0 2.809999942779541,0 C2.809999942779541,1.5520000457763672 1.5520000457763672,2.809999942779541 0,2.809999942779541 C-1.5520000457763672,2.809999942779541 -2.809999942779541,1.5520000457763672 -2.809999942779541,0 C-2.809999942779541,0 -2.809999942779541,-2.809999942779541 -2.809999942779541,-2.809999942779541"></path></g><g opacity="1" transform="matrix(1,0,0,1,384.5740051269531,408.51800537109375)"><path fill="rgb(245,203,28)" fill-opacity="1" d=" M4.803999900817871,-51.72100067138672 C4.803999900817871,-51.72100067138672 -4.803999900817871,-51.72100067138672 -4.803999900817871,-51.72100067138672 C-4.803999900817871,-51.72100067138672 -4.803999900817871,51.72100067138672 -4.803999900817871,51.72100067138672 C-4.803999900817871,51.72100067138672 4.803999900817871,51.72100067138672 4.803999900817871,51.72100067138672 C4.803999900817871,51.72100067138672 4.803999900817871,-51.72100067138672 4.803999900817871,-51.72100067138672z"></path><path stroke-linecap="butt" stroke-linejoin="miter" fill-opacity="0" stroke-miterlimit="10" stroke="rgb(29,29,27)" stroke-opacity="1" stroke-width="3" d=" M4.803999900817871,-51.72100067138672 C4.803999900817871,-51.72100067138672 -4.803999900817871,-51.72100067138672 -4.803999900817871,-51.72100067138672 C-4.803999900817871,-51.72100067138672 -4.803999900817871,51.72100067138672 -4.803999900817871,51.72100067138672 C-4.803999900817871,51.72100067138672 4.803999900817871,51.72100067138672 4.803999900817871,51.72100067138672 C4.803999900817871,51.72100067138672 4.803999900817871,-51.72100067138672 4.803999900817871,-51.72100067138672z"></path></g></g><g transform="matrix(0.9953098297119141,-0.0967383086681366,0.0967383086681366,0.9953098297119141,-180.75836181640625,-136.45745849609375)" opacity="1" style="display: block;"><g opacity="1" transform="matrix(1,0,0,1,436.7690124511719,466.1809997558594)"><path fill="rgb(84,196,219)" fill-opacity="1" d=" M-5.854000091552734,23.216999053955078 C-5.854000091552734,23.216999053955078 -23.216999053955078,5.854000091552734 -23.216999053955078,5.854000091552734 C-24.871000289916992,4.199999809265137 -24.871000289916992,1.5180000066757202 -23.216999053955078,-0.13699999451637268 C-23.216999053955078,-0.13699999451637268 -4.931000232696533,-18.42300033569336 -4.931000232696533,-18.42300033569336 C1.5180000066757202,-24.871999740600586 11.972999572753906,-24.871999740600586 18.422000885009766,-18.42300033569336 C24.871000289916992,-11.973999977111816 24.871000289916992,-1.5190000534057617 18.422000885009766,4.929999828338623 C18.422000885009766,4.929999828338623 0.13699999451637268,23.216999053955078 0.13699999451637268,23.216999053955078 C-1.5180000066757202,24.871000289916992 -4.199999809265137,24.871000289916992 -5.854000091552734,23.216999053955078z"></path><path stroke-linecap="round" stroke-linejoin="round" fill-opacity="0" stroke="rgb(29,29,27)" stroke-opacity="1" stroke-width="3" d=" M-5.854000091552734,23.216999053955078 C-5.854000091552734,23.216999053955078 -23.216999053955078,5.854000091552734 -23.216999053955078,5.854000091552734 C-24.871000289916992,4.199999809265137 -24.871000289916992,1.5180000066757202 -23.216999053955078,-0.13699999451637268 C-23.216999053955078,-0.13699999451637268 -4.931000232696533,-18.42300033569336 -4.931000232696533,-18.42300033569336 C1.5180000066757202,-24.871999740600586 11.972999572753906,-24.871999740600586 18.422000885009766,-18.42300033569336 C24.871000289916992,-11.973999977111816 24.871000289916992,-1.5190000534057617 18.422000885009766,4.929999828338623 C18.422000885009766,4.929999828338623 0.13699999451637268,23.216999053955078 0.13699999451637268,23.216999053955078 C-1.5180000066757202,24.871000289916992 -4.199999809265137,24.871000289916992 -5.854000091552734,23.216999053955078z"></path></g><g opacity="1" transform="matrix(1,0,0,1,415.1709899902344,487.7799987792969)"><path fill="rgb(29,29,27)" fill-opacity="1" d=" M-8.63700008392334,8.63700008392334 C-8.63700008392334,8.63700008392334 -8.63700008392334,8.63700008392334 -8.63700008392334,8.63700008392334 C-10.859999656677246,6.414000034332275 -10.859999656677246,2.809000015258789 -8.63700008392334,0.5860000252723694 C-8.63700008392334,0.5860000252723694 2.808000087738037,-10.859999656677246 2.808000087738037,-10.859999656677246 C2.808000087738037,-10.859999656677246 10.859999656677246,-2.808000087738037 10.859999656677246,-2.808000087738037 C10.859999656677246,-2.808000087738037 -0.5860000252723694,8.63700008392334 -0.5860000252723694,8.63700008392334 C-2.809000015258789,10.859999656677246 -6.414000034332275,10.859999656677246 -8.63700008392334,8.63700008392334z"></path><path stroke-linecap="butt" stroke-linejoin="miter" fill-opacity="0" stroke-miterlimit="10" stroke="rgb(29,29,27)" stroke-opacity="1" stroke-width="3" d=" M-8.63700008392334,8.63700008392334 C-8.63700008392334,8.63700008392334 -8.63700008392334,8.63700008392334 -8.63700008392334,8.63700008392334 C-10.859999656677246,6.414000034332275 -10.859999656677246,2.809000015258789 -8.63700008392334,0.5860000252723694 C-8.63700008392334,0.5860000252723694 2.808000087738037,-10.859999656677246 2.808000087738037,-10.859999656677246 C2.808000087738037,-10.859999656677246 10.859999656677246,-2.808000087738037 10.859999656677246,-2.808000087738037 C10.859999656677246,-2.808000087738037 -0.5860000252723694,8.63700008392334 -0.5860000252723694,8.63700008392334 C-2.809000015258789,10.859999656677246 -6.414000034332275,10.859999656677246 -8.63700008392334,8.63700008392334z"></path></g><g opacity="1" transform="matrix(1,0,0,1,413.12200927734375,489.4010009765625)"><path fill="rgb(245,203,28)" fill-opacity="1" d=" M-8.42300033569336,8.85099983215332 C-8.42300033569336,8.85099983215332 -8.42300033569336,8.85099983215332 -8.42300033569336,8.85099983215332 C-10.645999908447266,6.627999782562256 -10.645999908447266,3.0230000019073486 -8.42300033569336,0.800000011920929 C-8.42300033569336,0.800000011920929 3.450000047683716,-11.074000358581543 3.450000047683716,-11.074000358581543 C3.450000047683716,-11.074000358581543 10.645999908447266,-2.1670000553131104 10.645999908447266,-2.1670000553131104 C10.645999908447266,-2.1670000553131104 -0.3720000088214874,8.85099983215332 -0.3720000088214874,8.85099983215332 C-2.5950000286102295,11.074000358581543 -6.199999809265137,11.074000358581543 -8.42300033569336,8.85099983215332z"></path><path stroke-linecap="butt" stroke-linejoin="miter" fill-opacity="0" stroke-miterlimit="10" stroke="rgb(29,29,27)" stroke-opacity="1" stroke-width="3" d=" M-8.42300033569336,8.85099983215332 C-8.42300033569336,8.85099983215332 -8.42300033569336,8.85099983215332 -8.42300033569336,8.85099983215332 C-10.645999908447266,6.627999782562256 -10.645999908447266,3.0230000019073486 -8.42300033569336,0.800000011920929 C-8.42300033569336,0.800000011920929 3.450000047683716,-11.074000358581543 3.450000047683716,-11.074000358581543 C3.450000047683716,-11.074000358581543 10.645999908447266,-2.1670000553131104 10.645999908447266,-2.1670000553131104 C10.645999908447266,-2.1670000553131104 -0.3720000088214874,8.85099983215332 -0.3720000088214874,8.85099983215332 C-2.5950000286102295,11.074000358581543 -6.199999809265137,11.074000358581543 -8.42300033569336,8.85099983215332z"></path></g><g opacity="1" transform="matrix(1,0,0,1,446.510986328125,478.4020080566406)"><path fill="rgb(84,196,219)" fill-opacity="1" d=" M5.693999767303467,-4.302999973297119 C5.693999767303467,-4.302999973297119 -2.1429998874664307,3.5339999198913574 -2.1429998874664307,3.5339999198913574 C-2.9119999408721924,4.302999973297119 -4.1570000648498535,4.302999973297119 -4.926000118255615,3.5339999198913574 C-5.693999767303467,2.7660000324249268 -5.693999767303467,1.5199999809265137 -4.926000118255615,0.7509999871253967 C-4.926000118255615,0.7509999871253967 -2.0799999237060547,-2.0950000286102295 -2.0799999237060547,-2.0950000286102295"></path><path stroke-linecap="round" stroke-linejoin="round" fill-opacity="0" stroke="rgb(29,29,27)" stroke-opacity="1" stroke-width="3" d=" M5.693999767303467,-4.302999973297119 C5.693999767303467,-4.302999973297119 -2.1429998874664307,3.5339999198913574 -2.1429998874664307,3.5339999198913574 C-2.9119999408721924,4.302999973297119 -4.1570000648498535,4.302999973297119 -4.926000118255615,3.5339999198913574 C-5.693999767303467,2.7660000324249268 -5.693999767303467,1.5199999809265137 -4.926000118255615,0.7509999871253967 C-4.926000118255615,0.7509999871253967 -2.0799999237060547,-2.0950000286102295 -2.0799999237060547,-2.0950000286102295"></path></g></g><g transform="matrix(0.9953098297119141,-0.0967383086681366,0.0967383086681366,0.9953098297119141,-157.98068237304688,-159.9046173095703)" opacity="1" style="display: block;"><g opacity="1" transform="matrix(1,0,0,1,433.9939880371094,382.072998046875)"><path fill="rgb(29,29,27)" fill-opacity="1" d=" M-9.616000175476074,21.059999465942383 C-9.616000175476074,21.059999465942383 -10.444000244140625,20.37700080871582 -10.444000244140625,20.37700080871582 C-20.777000427246094,11.862000465393066 -24.358999252319336,-2.7060000896453857 -19.155000686645508,-15.048999786376953 C-18.742000579833984,-16.030000686645508 -18.268999099731445,-17.0049991607666 -17.749000549316406,-17.948999404907227 C-17.749000549316406,-17.948999404907227 -17.135000228881836,-19.06100082397461 -17.135000228881836,-19.06100082397461 C-17.135000228881836,-19.06100082397461 -15.958999633789062,-19.541000366210938 -15.958999633789062,-19.541000366210938 C-8.395000457763672,-22.628999710083008 -0.08100000023841858,-22.58099937438965 7.447000026702881,-19.406999588012695 C14.973999977111816,-16.233999252319336 20.81100082397461,-10.315999984741211 23.881999969482422,-2.74399995803833 C23.881999969482422,-2.74399995803833 24.357999801635742,-1.5670000314712524 24.357999801635742,-1.5670000314712524 C24.357999801635742,-1.5670000314712524 23.989999771118164,-0.35100001096725464 23.989999771118164,-0.35100001096725464 C23.67799949645996,0.6800000071525574 23.309999465942383,1.7000000476837158 22.89699935913086,2.680000066757202 C17.69300079345703,15.02400016784668 4.76200008392334,22.628999710083008 -8.548999786376953,21.176000595092773 C-8.548999786376953,21.176000595092773 -9.616000175476074,21.059999465942383 -9.616000175476074,21.059999465942383z M-12.039999961853027,-13.336999893188477 C-12.213000297546387,-12.979000091552734 -12.378000259399414,-12.618000030517578 -12.529999732971191,-12.255999565124512 C-16.368999481201172,-3.1519999504089355 -13.956999778747559,7.533999919891357 -6.690000057220459,14.121000289916992 C3.0989999771118164,14.723999977111816 12.432999610900879,8.991000175476074 16.27199935913086,-0.11299999803304672 C16.423999786376953,-0.4749999940395355 16.56800079345703,-0.843999981880188 16.70400047302246,-1.218000054359436 C14.25,-6.443999767303467 10.012999534606934,-10.52299976348877 4.6539998054504395,-12.781999588012695 C-0.7070000171661377,-15.041999816894531 -6.585999965667725,-15.229000091552734 -12.039999961853027,-13.336999893188477z"></path><path stroke-linecap="round" stroke-linejoin="round" fill-opacity="0" stroke="rgb(29,29,27)" stroke-opacity="1" stroke-width="3" d=" M-9.616000175476074,21.059999465942383 C-9.616000175476074,21.059999465942383 -10.444000244140625,20.37700080871582 -10.444000244140625,20.37700080871582 C-20.777000427246094,11.862000465393066 -24.358999252319336,-2.7060000896453857 -19.155000686645508,-15.048999786376953 C-18.742000579833984,-16.030000686645508 -18.268999099731445,-17.0049991607666 -17.749000549316406,-17.948999404907227 C-17.749000549316406,-17.948999404907227 -17.135000228881836,-19.06100082397461 -17.135000228881836,-19.06100082397461 C-17.135000228881836,-19.06100082397461 -15.958999633789062,-19.541000366210938 -15.958999633789062,-19.541000366210938 C-8.395000457763672,-22.628999710083008 -0.08100000023841858,-22.58099937438965 7.447000026702881,-19.406999588012695 C14.973999977111816,-16.233999252319336 20.81100082397461,-10.315999984741211 23.881999969482422,-2.74399995803833 C23.881999969482422,-2.74399995803833 24.357999801635742,-1.5670000314712524 24.357999801635742,-1.5670000314712524 C24.357999801635742,-1.5670000314712524 23.989999771118164,-0.35100001096725464 23.989999771118164,-0.35100001096725464 C23.67799949645996,0.6800000071525574 23.309999465942383,1.7000000476837158 22.89699935913086,2.680000066757202 C17.69300079345703,15.02400016784668 4.76200008392334,22.628999710083008 -8.548999786376953,21.176000595092773 C-8.548999786376953,21.176000595092773 -9.616000175476074,21.059999465942383 -9.616000175476074,21.059999465942383z M-12.039999961853027,-13.336999893188477 C-12.213000297546387,-12.979000091552734 -12.378000259399414,-12.618000030517578 -12.529999732971191,-12.255999565124512 C-16.368999481201172,-3.1519999504089355 -13.956999778747559,7.533999919891357 -6.690000057220459,14.121000289916992 C3.0989999771118164,14.723999977111816 12.432999610900879,8.991000175476074 16.27199935913086,-0.11299999803304672 C16.423999786376953,-0.4749999940395355 16.56800079345703,-0.843999981880188 16.70400047302246,-1.218000054359436 C14.25,-6.443999767303467 10.012999534606934,-10.52299976348877 4.6539998054504395,-12.781999588012695 C-0.7070000171661377,-15.041999816894531 -6.585999965667725,-15.229000091552734 -12.039999961853027,-13.336999893188477z"></path></g><g opacity="1" transform="matrix(1,0,0,1,435.6700134277344,378.0979919433594)"><path fill="rgb(245,96,185)" fill-opacity="1" d=" M-9.616000175476074,21.059999465942383 C-9.616000175476074,21.059999465942383 -10.444000244140625,20.37700080871582 -10.444000244140625,20.37700080871582 C-20.777000427246094,11.862000465393066 -24.358999252319336,-2.7060000896453857 -19.155000686645508,-15.048999786376953 C-18.742000579833984,-16.030000686645508 -18.268999099731445,-17.0049991607666 -17.749000549316406,-17.948999404907227 C-17.749000549316406,-17.948999404907227 -17.135000228881836,-19.06100082397461 -17.135000228881836,-19.06100082397461 C-17.135000228881836,-19.06100082397461 -15.958999633789062,-19.541000366210938 -15.958999633789062,-19.541000366210938 C-8.395000457763672,-22.628999710083008 -0.0820000022649765,-22.58099937438965 7.446000099182129,-19.406999588012695 C14.972999572753906,-16.233999252319336 20.809999465942383,-10.315999984741211 23.881000518798828,-2.74399995803833 C23.881000518798828,-2.74399995803833 24.358999252319336,-1.5670000314712524 24.358999252319336,-1.5670000314712524 C24.358999252319336,-1.5670000314712524 23.989999771118164,-0.35100001096725464 23.989999771118164,-0.35100001096725464 C23.67799949645996,0.6800000071525574 23.309999465942383,1.7000000476837158 22.89699935913086,2.680000066757202 C17.69300079345703,15.02400016784668 4.76200008392334,22.628999710083008 -8.548999786376953,21.176000595092773 C-8.548999786376953,21.176000595092773 -9.616000175476074,21.059999465942383 -9.616000175476074,21.059999465942383z M-12.041000366210938,-13.336999893188477 C-12.21399974822998,-12.979000091552734 -12.378000259399414,-12.618000030517578 -12.529999732971191,-12.255999565124512 C-16.368999481201172,-3.1519999504089355 -13.956999778747559,7.533999919891357 -6.690000057220459,14.121000289916992 C3.0989999771118164,14.723999977111816 12.432999610900879,8.991000175476074 16.27199935913086,-0.11299999803304672 C16.423999786376953,-0.4749999940395355 16.56800079345703,-0.843999981880188 16.70400047302246,-1.218000054359436 C14.25,-6.443999767303467 10.01200008392334,-10.52299976348877 4.6529998779296875,-12.781999588012695 C-0.7080000042915344,-15.041999816894531 -6.586999893188477,-15.229000091552734 -12.041000366210938,-13.336999893188477z"></path><path stroke-linecap="round" stroke-linejoin="round" fill-opacity="0" stroke="rgb(29,29,27)" stroke-opacity="1" stroke-width="3" d=" M-9.616000175476074,21.059999465942383 C-9.616000175476074,21.059999465942383 -10.444000244140625,20.37700080871582 -10.444000244140625,20.37700080871582 C-20.777000427246094,11.862000465393066 -24.358999252319336,-2.7060000896453857 -19.155000686645508,-15.048999786376953 C-18.742000579833984,-16.030000686645508 -18.268999099731445,-17.0049991607666 -17.749000549316406,-17.948999404907227 C-17.749000549316406,-17.948999404907227 -17.135000228881836,-19.06100082397461 -17.135000228881836,-19.06100082397461 C-17.135000228881836,-19.06100082397461 -15.958999633789062,-19.541000366210938 -15.958999633789062,-19.541000366210938 C-8.395000457763672,-22.628999710083008 -0.0820000022649765,-22.58099937438965 7.446000099182129,-19.406999588012695 C14.972999572753906,-16.233999252319336 20.809999465942383,-10.315999984741211 23.881000518798828,-2.74399995803833 C23.881000518798828,-2.74399995803833 24.358999252319336,-1.5670000314712524 24.358999252319336,-1.5670000314712524 C24.358999252319336,-1.5670000314712524 23.989999771118164,-0.35100001096725464 23.989999771118164,-0.35100001096725464 C23.67799949645996,0.6800000071525574 23.309999465942383,1.7000000476837158 22.89699935913086,2.680000066757202 C17.69300079345703,15.02400016784668 4.76200008392334,22.628999710083008 -8.548999786376953,21.176000595092773 C-8.548999786376953,21.176000595092773 -9.616000175476074,21.059999465942383 -9.616000175476074,21.059999465942383z M-12.041000366210938,-13.336999893188477 C-12.21399974822998,-12.979000091552734 -12.378000259399414,-12.618000030517578 -12.529999732971191,-12.255999565124512 C-16.368999481201172,-3.1519999504089355 -13.956999778747559,7.533999919891357 -6.690000057220459,14.121000289916992 C3.0989999771118164,14.723999977111816 12.432999610900879,8.991000175476074 16.27199935913086,-0.11299999803304672 C16.423999786376953,-0.4749999940395355 16.56800079345703,-0.843999981880188 16.70400047302246,-1.218000054359436 C14.25,-6.443999767303467 10.01200008392334,-10.52299976348877 4.6529998779296875,-12.781999588012695 C-0.7080000042915344,-15.041999816894531 -6.586999893188477,-15.229000091552734 -12.041000366210938,-13.336999893188477z"></path></g></g><g transform="matrix(0.9953098297119141,-0.0967383086681366,0.0967383086681366,0.9953098297119141,-190.7650604248047,-161.75094604492188)" opacity="1" style="display: block;"><g opacity="1" transform="matrix(1,0,0,1,363.31201171875,319.7139892578125)"><path fill="rgb(29,29,27)" fill-opacity="1" d=" M17.048999786376953,-9.449999809265137 C17.048999786376953,-9.449999809265137 -0.16099999845027924,-17.023000717163086 -0.16099999845027924,-17.023000717163086 C-0.16099999845027924,-17.023000717163086 -3.009999990463257,-18.275999069213867 -3.009999990463257,-18.275999069213867 C-3.009999990463257,-18.275999069213867 -6.192999839782715,-11.048999786376953 -6.192999839782715,-11.048999786376953 C-6.192999839782715,-11.048999786376953 -11.37399959564209,0.7289999723434448 -11.37399959564209,0.7289999723434448 C-11.751999855041504,0.3720000088214874 -12.192000389099121,0.07000000029802322 -12.694000244140625,-0.1509999930858612 C-15.057999610900879,-1.190999984741211 -17.81800079345703,-0.11900000274181366 -18.857999801635742,2.244999885559082 C-19.898000717163086,4.607999801635742 -18.825000762939453,7.36899995803833 -16.461000442504883,8.409000396728516 C-14.097000122070312,9.449000358581543 -11.338000297546387,8.37600040435791 -10.29800033569336,6.013000011444092 C-10.29800033569336,6.013000011444092 -3.3420000076293945,-9.793999671936035 -3.3420000076293945,-9.793999671936035 C-3.3420000076293945,-9.793999671936035 13.866999626159668,-2.2209999561309814 13.866999626159668,-2.2209999561309814 C13.866999626159668,-2.2209999561309814 8.685999870300293,9.555000305175781 8.685999870300293,9.555000305175781 C8.307999610900879,9.199000358581543 7.868000030517578,8.895999908447266 7.364999771118164,8.675000190734863 C5.000999927520752,7.635000228881836 2.242000102996826,8.708000183105469 1.2020000219345093,11.071999549865723 C0.16200000047683716,13.435999870300293 1.2350000143051147,16.195999145507812 3.5980000495910645,17.236000061035156 C5.961999893188477,18.277000427246094 8.722000122070312,17.202999114990234 9.76200008392334,14.83899974822998 C9.76200008392334,14.83899974822998 16.716999053955078,-0.9660000205039978 16.716999053955078,-0.9660000205039978 C16.716999053955078,-0.9660000205039978 19.898000717163086,-8.194999694824219 19.898000717163086,-8.194999694824219 C19.898000717163086,-8.194999694824219 17.048999786376953,-9.449999809265137 17.048999786376953,-9.449999809265137z"></path></g></g><g transform="matrix(0.9953098297119141,-0.0967383086681366,0.0967383086681366,0.9953098297119141,-133.92318725585938,-186.40745544433594)" opacity="1" style="display: block;"><g opacity="1" transform="matrix(1,0,0,1,202.7270050048828,356.09698486328125)"><path fill="rgb(245,203,28)" fill-opacity="1" d=" M-12.555999755859375,24.97100067138672 C-12.555999755859375,24.97100067138672 -17.232999801635742,22.0049991607666 -17.232999801635742,22.0049991607666 C-17.232999801635742,22.0049991607666 12.557000160217285,-24.97100067138672 12.557000160217285,-24.97100067138672 C12.557000160217285,-24.97100067138672 17.233999252319336,-22.0049991607666 17.233999252319336,-22.0049991607666 C17.233999252319336,-22.0049991607666 -12.555999755859375,24.97100067138672 -12.555999755859375,24.97100067138672z"></path><path stroke-linecap="round" stroke-linejoin="round" fill-opacity="0" stroke="rgb(29,29,27)" stroke-opacity="1" stroke-width="3" d=" M-12.555999755859375,24.97100067138672 C-12.555999755859375,24.97100067138672 -17.232999801635742,22.0049991607666 -17.232999801635742,22.0049991607666 C-17.232999801635742,22.0049991607666 12.557000160217285,-24.97100067138672 12.557000160217285,-24.97100067138672 C12.557000160217285,-24.97100067138672 17.233999252319336,-22.0049991607666 17.233999252319336,-22.0049991607666 C17.233999252319336,-22.0049991607666 -12.555999755859375,24.97100067138672 -12.555999755859375,24.97100067138672z"></path></g><g opacity="1" transform="matrix(1,0,0,1,216.58999633789062,334.23699951171875)"><path fill="rgb(29,29,27)" fill-opacity="1" d=" M-3.369999885559082,0.14399999380111694 C-2.6600000858306885,0.7210000157356262 -1.9149999618530273,1.2669999599456787 -1.1230000257492065,1.7690000534057617 C-0.3310000002384186,2.2709999084472656 0.48100000619888306,2.7139999866485596 1.305999994277954,3.109999895095825 C1.305999994277954,3.109999895095825 3.369999885559082,-0.14499999582767487 3.369999885559082,-0.14499999582767487 C3.369999885559082,-0.14499999582767487 -1.3070000410079956,-3.1110000610351562 -1.3070000410079956,-3.1110000610351562 C-1.3070000410079956,-3.1110000610351562 -3.369999885559082,0.14399999380111694 -3.369999885559082,0.14399999380111694z"></path><path stroke-linecap="round" stroke-linejoin="round" fill-opacity="0" stroke="rgb(29,29,27)" stroke-opacity="1" stroke-width="3" d=" M-3.369999885559082,0.14399999380111694 C-2.6600000858306885,0.7210000157356262 -1.9149999618530273,1.2669999599456787 -1.1230000257492065,1.7690000534057617 C-0.3310000002384186,2.2709999084472656 0.48100000619888306,2.7139999866485596 1.305999994277954,3.109999895095825 C1.305999994277954,3.109999895095825 3.369999885559082,-0.14499999582767487 3.369999885559082,-0.14499999582767487 C3.369999885559082,-0.14499999582767487 -1.3070000410079956,-3.1110000610351562 -1.3070000410079956,-3.1110000610351562 C-1.3070000410079956,-3.1110000610351562 -3.369999885559082,0.14399999380111694 -3.369999885559082,0.14399999380111694z"></path></g><g opacity="1" transform="matrix(1,0,0,1,228.00399780273438,316.2359924316406)"><path fill="rgb(245,96,185)" fill-opacity="1" d=" M16.59000015258789,10.520000457763672 C10.779999732971191,19.68199920654297 -1.3580000400543213,22.399999618530273 -10.520000457763672,16.589000701904297 C-19.68199920654297,10.779000282287598 -22.399999618530273,-1.3580000400543213 -16.589000701904297,-10.520999908447266 C-10.779000282287598,-19.683000564575195 1.3580000400543213,-22.399999618530273 10.520999908447266,-16.59000015258789 C19.683000564575195,-10.779999732971191 22.399999618530273,1.3580000400543213 16.59000015258789,10.520000457763672z"></path><path stroke-linecap="round" stroke-linejoin="round" fill-opacity="0" stroke="rgb(29,29,27)" stroke-opacity="1" stroke-width="3" d=" M16.59000015258789,10.520000457763672 C10.779999732971191,19.68199920654297 -1.3580000400543213,22.399999618530273 -10.520000457763672,16.589000701904297 C-19.68199920654297,10.779000282287598 -22.399999618530273,-1.3580000400543213 -16.589000701904297,-10.520999908447266 C-10.779000282287598,-19.683000564575195 1.3580000400543213,-22.399999618530273 10.520999908447266,-16.59000015258789 C19.683000564575195,-10.779999732971191 22.399999618530273,1.3580000400543213 16.59000015258789,10.520000457763672z"></path></g><g opacity="1" transform="matrix(1,0,0,1,228.00399780273438,316.2359924316406)"><path fill="rgb(245,96,185)" fill-opacity="1" d=" M-18.070999145507812,-11.460000038146973 C-19.06800079345703,-9.887999534606934 -19.83300018310547,-8.236000061035156 -20.378000259399414,-6.543000221252441 C-20.378000259399414,-6.543000221252441 14.607999801635742,15.642999649047852 14.607999801635742,15.642999649047852 C15.906999588012695,14.428999900817871 17.076000213623047,13.031999588012695 18.07200050354004,11.460000038146973 C19.069000244140625,9.887999534606934 19.833999633789062,8.236000061035156 20.378999710083008,6.543000221252441 C20.378999710083008,6.543000221252441 -14.607000350952148,-15.642999649047852 -14.607000350952148,-15.642999649047852 C-15.906000137329102,-14.428000450134277 -17.073999404907227,-13.031999588012695 -18.070999145507812,-11.460000038146973z"></path><path stroke-linecap="round" stroke-linejoin="round" fill-opacity="0" stroke="rgb(29,29,27)" stroke-opacity="1" stroke-width="3" d=" M-18.070999145507812,-11.460000038146973 C-19.06800079345703,-9.887999534606934 -19.83300018310547,-8.236000061035156 -20.378000259399414,-6.543000221252441 C-20.378000259399414,-6.543000221252441 14.607999801635742,15.642999649047852 14.607999801635742,15.642999649047852 C15.906999588012695,14.428999900817871 17.076000213623047,13.031999588012695 18.07200050354004,11.460000038146973 C19.069000244140625,9.887999534606934 19.833999633789062,8.236000061035156 20.378999710083008,6.543000221252441 C20.378999710083008,6.543000221252441 -14.607000350952148,-15.642999649047852 -14.607000350952148,-15.642999649047852 C-15.906000137329102,-14.428000450134277 -17.073999404907227,-13.031999588012695 -18.070999145507812,-11.460000038146973z"></path></g></g><g clip-path="url(#__lottie_element_126)" transform="matrix(0.9534469246864319,-0.3015608787536621,0.3015608787536621,0.9534469246864319,-62.44921112060547,52.791595458984375)" opacity="1" style="display: block;"><g transform="matrix(0.9781476259231567,0.2079116851091385,-0.2079116851091385,0.9781476259231567,196.51966857910156,214.70423889160156)" opacity="1" style="display: block;"><g opacity="1" transform="matrix(1,0,0,1,-23.246000289916992,4.581999778747559)"><path fill="rgb(255,255,255)" fill-opacity="1" d=" M17.510499954223633,0 C17.510499954223633,0 17.510499954223633,0 17.510499954223633,0 C17.510499954223633,9.664045333862305 9.664045333862305,17.510499954223633 0,17.510499954223633 C0,17.510499954223633 0,17.510499954223633 0,17.510499954223633 C-9.664045333862305,17.510499954223633 -17.510499954223633,9.664045333862305 -17.510499954223633,0 C-17.510499954223633,0 -17.510499954223633,0 -17.510499954223633,0 C-17.510499954223633,-9.664045333862305 -9.664045333862305,-17.510499954223633 0,-17.510499954223633 C0,-17.510499954223633 0,-17.510499954223633 0,-17.510499954223633 C9.664045333862305,-17.510499954223633 17.510499954223633,-9.664045333862305 17.510499954223633,0z"></path><path stroke-linecap="butt" stroke-linejoin="miter" fill-opacity="0" stroke-miterlimit="4" stroke="rgb(28,28,26)" stroke-opacity="1" stroke-width="3" d=" M17.510499954223633,0 C17.510499954223633,0 17.510499954223633,0 17.510499954223633,0 C17.510499954223633,9.664045333862305 9.664045333862305,17.510499954223633 0,17.510499954223633 C0,17.510499954223633 0,17.510499954223633 0,17.510499954223633 C-9.664045333862305,17.510499954223633 -17.510499954223633,9.664045333862305 -17.510499954223633,0 C-17.510499954223633,0 -17.510499954223633,0 -17.510499954223633,0 C-17.510499954223633,-9.664045333862305 -9.664045333862305,-17.510499954223633 0,-17.510499954223633 C0,-17.510499954223633 0,-17.510499954223633 0,-17.510499954223633 C9.664045333862305,-17.510499954223633 17.510499954223633,-9.664045333862305 17.510499954223633,0z"></path></g></g><g mask="url(#__lottie_element_129)" style="display: block;"><g transform="matrix(0.9781476259231567,0.2079116851091385,-0.2079116851091385,0.9781476259231567,197.6856689453125,205.91024780273438)" opacity="1"><g opacity="1" transform="matrix(1,0,0,1,-23.246000289916992,4.581999778747559)"><path fill="rgb(29,29,27)" fill-opacity="1" d=" M17.510499954223633,0 C17.510499954223633,0 17.510499954223633,0 17.510499954223633,0 C17.510499954223633,9.664045333862305 9.664045333862305,17.510499954223633 0,17.510499954223633 C0,17.510499954223633 0,17.510499954223633 0,17.510499954223633 C-9.664045333862305,17.510499954223633 -17.510499954223633,9.664045333862305 -17.510499954223633,0 C-17.510499954223633,0 -17.510499954223633,0 -17.510499954223633,0 C-17.510499954223633,-9.664045333862305 -9.664045333862305,-17.510499954223633 0,-17.510499954223633 C0,-17.510499954223633 0,-17.510499954223633 0,-17.510499954223633 C9.664045333862305,-17.510499954223633 17.510499954223633,-9.664045333862305 17.510499954223633,0z"></path><path stroke-linecap="butt" stroke-linejoin="miter" fill-opacity="0" stroke-miterlimit="4" stroke="rgb(28,28,26)" stroke-opacity="1" stroke-width="3" d=" M17.510499954223633,0 C17.510499954223633,0 17.510499954223633,0 17.510499954223633,0 C17.510499954223633,9.664045333862305 9.664045333862305,17.510499954223633 0,17.510499954223633 C0,17.510499954223633 0,17.510499954223633 0,17.510499954223633 C-9.664045333862305,17.510499954223633 -17.510499954223633,9.664045333862305 -17.510499954223633,0 C-17.510499954223633,0 -17.510499954223633,0 -17.510499954223633,0 C-17.510499954223633,-9.664045333862305 -9.664045333862305,-17.510499954223633 0,-17.510499954223633 C0,-17.510499954223633 0,-17.510499954223633 0,-17.510499954223633 C9.664045333862305,-17.510499954223633 17.510499954223633,-9.664045333862305 17.510499954223633,0z"></path></g></g></g></g><g clip-path="url(#__lottie_element_113)" transform="matrix(0.9534469246864319,-0.3015608787536621,0.3015608787536621,0.9534469246864319,-17.660268783569336,48.43837356567383)" opacity="1" style="display: block;"><g transform="matrix(0.9781476259231567,0.2079116851091385,-0.2079116851091385,0.9781476259231567,196.51966857910156,214.70423889160156)" opacity="1" style="display: block;"><g opacity="1" transform="matrix(1,0,0,1,-23.246000289916992,4.581999778747559)"><path fill="rgb(255,255,255)" fill-opacity="1" d=" M17.510499954223633,0 C17.510499954223633,0 17.510499954223633,0 17.510499954223633,0 C17.510499954223633,9.664045333862305 9.664045333862305,17.510499954223633 0,17.510499954223633 C0,17.510499954223633 0,17.510499954223633 0,17.510499954223633 C-9.664045333862305,17.510499954223633 -17.510499954223633,9.664045333862305 -17.510499954223633,0 C-17.510499954223633,0 -17.510499954223633,0 -17.510499954223633,0 C-17.510499954223633,-9.664045333862305 -9.664045333862305,-17.510499954223633 0,-17.510499954223633 C0,-17.510499954223633 0,-17.510499954223633 0,-17.510499954223633 C9.664045333862305,-17.510499954223633 17.510499954223633,-9.664045333862305 17.510499954223633,0z"></path><path stroke-linecap="butt" stroke-linejoin="miter" fill-opacity="0" stroke-miterlimit="4" stroke="rgb(28,28,26)" stroke-opacity="1" stroke-width="3" d=" M17.510499954223633,0 C17.510499954223633,0 17.510499954223633,0 17.510499954223633,0 C17.510499954223633,9.664045333862305 9.664045333862305,17.510499954223633 0,17.510499954223633 C0,17.510499954223633 0,17.510499954223633 0,17.510499954223633 C-9.664045333862305,17.510499954223633 -17.510499954223633,9.664045333862305 -17.510499954223633,0 C-17.510499954223633,0 -17.510499954223633,0 -17.510499954223633,0 C-17.510499954223633,-9.664045333862305 -9.664045333862305,-17.510499954223633 0,-17.510499954223633 C0,-17.510499954223633 0,-17.510499954223633 0,-17.510499954223633 C9.664045333862305,-17.510499954223633 17.510499954223633,-9.664045333862305 17.510499954223633,0z"></path></g></g><g mask="url(#__lottie_element_116)" style="display: block;"><g transform="matrix(0.9781476259231567,0.2079116851091385,-0.2079116851091385,0.9781476259231567,197.6856689453125,205.91024780273438)" opacity="1"><g opacity="1" transform="matrix(1,0,0,1,-23.246000289916992,4.581999778747559)"><path fill="rgb(29,29,27)" fill-opacity="1" d=" M17.510499954223633,0 C17.510499954223633,0 17.510499954223633,0 17.510499954223633,0 C17.510499954223633,9.664045333862305 9.664045333862305,17.510499954223633 0,17.510499954223633 C0,17.510499954223633 0,17.510499954223633 0,17.510499954223633 C-9.664045333862305,17.510499954223633 -17.510499954223633,9.664045333862305 -17.510499954223633,0 C-17.510499954223633,0 -17.510499954223633,0 -17.510499954223633,0 C-17.510499954223633,-9.664045333862305 -9.664045333862305,-17.510499954223633 0,-17.510499954223633 C0,-17.510499954223633 0,-17.510499954223633 0,-17.510499954223633 C9.664045333862305,-17.510499954223633 17.510499954223633,-9.664045333862305 17.510499954223633,0z"></path><path stroke-linecap="butt" stroke-linejoin="miter" fill-opacity="0" stroke-miterlimit="4" stroke="rgb(28,28,26)" stroke-opacity="1" stroke-width="3" d=" M17.510499954223633,0 C17.510499954223633,0 17.510499954223633,0 17.510499954223633,0 C17.510499954223633,9.664045333862305 9.664045333862305,17.510499954223633 0,17.510499954223633 C0,17.510499954223633 0,17.510499954223633 0,17.510499954223633 C-9.664045333862305,17.510499954223633 -17.510499954223633,9.664045333862305 -17.510499954223633,0 C-17.510499954223633,0 -17.510499954223633,0 -17.510499954223633,0 C-17.510499954223633,-9.664045333862305 -9.664045333862305,-17.510499954223633 0,-17.510499954223633 C0,-17.510499954223633 0,-17.510499954223633 0,-17.510499954223633 C9.664045333862305,-17.510499954223633 17.510499954223633,-9.664045333862305 17.510499954223633,0z"></path></g></g></g></g></g></svg>