<svg xmlns="http://www.w3.org/2000/svg" viewBox="0 0 384 392" width="384" height="392" preserveAspectRatio="xMidYMid meet" style="width: 100%; height: 100%; transform: translate3d(0px, 0px, 0px); content-visibility: visible;" data-lottie-id="lottie-store-swingygremlin-SSmllhhttreebllh"><defs><clipPath id="__lottie_element_377"><rect width="384" height="392" x="0" y="0"></rect></clipPath></defs><g clip-path="url(#__lottie_element_377)"><g transform="matrix(0.8757011890411377,0.48285341262817383,-0.48285341262817383,0.8757011890411377,157.33819580078125,212.04920959472656)" opacity="1" style="display: block;"><g opacity="1" transform="matrix(1,0,0,1,0,0)"><path stroke-linecap="butt" stroke-linejoin="miter" fill-opacity="0" stroke-miterlimit="4" stroke="rgb(29,29,27)" stroke-opacity="1" stroke-width="16" d=" M23.75,-9.75 C23.75,-9.75 23.44099998474121,-99.49800109863281 23.44099998474121,-99.49800109863281"></path><path stroke-linecap="butt" stroke-linejoin="miter" fill-opacity="0" stroke-miterlimit="4" stroke="rgb(84,196,219)" stroke-opacity="1" stroke-width="10" d=" M23.75,-9.75 C23.75,-9.75 23.44099998474121,-99.49800109863281 23.44099998474121,-99.49800109863281"></path></g></g><g transform="matrix(0.4788452684879303,0.8778992891311646,-0.8778992891311646,0.4788452684879303,193.47320556640625,235.94651794433594)" opacity="1" style="display: block;"><g opacity="1" transform="matrix(1,0,0,1,0,0)"><path stroke-linecap="round" stroke-linejoin="round" fill-opacity="0" stroke="rgb(29,29,27)" stroke-opacity="1" stroke-width="16" d=" M7.875,41.625 C7.875,41.625 6.551051616668701,65.77523040771484 6.551051616668701,65.77523040771484 C6.551051616668701,65.77523040771484 5.7459235191345215,101.31150817871094 5.7459235191345215,101.31150817871094 C5.7459235191345215,101.31150817871094 -4.010674476623535,99.42041778564453 -4.010674476623535,99.42041778564453"></path><path stroke-linecap="round" stroke-linejoin="round" fill-opacity="0" stroke="rgb(84,196,219)" stroke-opacity="1" stroke-width="10" d=" M7.875,41.625 C7.875,41.625 6.551051616668701,65.77523040771484 6.551051616668701,65.77523040771484 C6.551051616668701,65.77523040771484 5.7459235191345215,101.31150817871094 5.7459235191345215,101.31150817871094 C5.7459235191345215,101.31150817871094 -4.010674476623535,99.42041778564453 -4.010674476623535,99.42041778564453"></path></g></g><g transform="matrix(0.8417847752571106,0.5398132801055908,-0.5398132801055908,0.8417847752571106,157.05233764648438,-224.9751739501953)" opacity="1" style="display: block;"><g opacity="1" transform="matrix(1,0,0,1,239.46800231933594,376.7040100097656)"><path fill="rgb(84,196,219)" fill-opacity="1" d=" M10.993000030517578,5.452000141143799 C9.03499984741211,9.14900016784668 5.1519999504089355,11.670999526977539 0.6769999861717224,11.670999526977539 C-5.769000053405762,11.670999526977539 -10.993000030517578,6.446000099182129 -10.993000030517578,0 C-10.993000030517578,-6.446000099182129 -5.769000053405762,-11.670999526977539 0.6769999861717224,-11.670999526977539 C5.1519999504089355,-11.670999526977539 9.03499984741211,-9.14900016784668 10.993000030517578,-5.452000141143799"></path><path stroke-linecap="round" stroke-linejoin="round" fill-opacity="0" stroke="rgb(29,29,27)" stroke-opacity="1" stroke-width="3" d=" M10.993000030517578,5.452000141143799 C9.03499984741211,9.14900016784668 5.1519999504089355,11.670999526977539 0.6769999861717224,11.670999526977539 C-5.769000053405762,11.670999526977539 -10.993000030517578,6.446000099182129 -10.993000030517578,0 C-10.993000030517578,-6.446000099182129 -5.769000053405762,-11.670999526977539 0.6769999861717224,-11.670999526977539 C5.1519999504089355,-11.670999526977539 9.03499984741211,-9.14900016784668 10.993000030517578,-5.452000141143799"></path></g></g><g transform="matrix(0.8417847752571106,0.5398132801055908,-0.5398132801055908,0.8417847752571106,157.05233764648438,-224.9751739501953)" opacity="1" style="display: block;"><g opacity="1" transform="matrix(1,0,0,1,278.70001220703125,371.5889892578125)"><path fill="rgb(84,196,219)" fill-opacity="1" d=" M44.58700180053711,0 C44.58700180053711,24.625 24.625,44.58700180053711 0,44.58700180053711 C-24.625,44.58700180053711 -44.58700180053711,24.625 -44.58700180053711,0 C-44.58700180053711,-24.625 -24.625,-44.58700180053711 0,-44.58700180053711 C24.625,-44.58700180053711 44.58700180053711,-24.625 44.58700180053711,0z"></path><path stroke-linecap="round" stroke-linejoin="round" fill-opacity="0" stroke="rgb(29,29,27)" stroke-opacity="1" stroke-width="3" d=" M44.58700180053711,0 C44.58700180053711,24.625 24.625,44.58700180053711 0,44.58700180053711 C-24.625,44.58700180053711 -44.58700180053711,24.625 -44.58700180053711,0 C-44.58700180053711,-24.625 -24.625,-44.58700180053711 0,-44.58700180053711 C24.625,-44.58700180053711 44.58700180053711,-24.625 44.58700180053711,0z"></path></g></g><g transform="matrix(0.8843028545379639,-0.46691375970840454,0.46691375970840454,0.8843028545379639,-152.8782501220703,43.010528564453125)" opacity="1" style="display: none;"><g opacity="1" transform="matrix(1,0,0,1,271.8739929199219,368.1210021972656)"><path fill="rgb(29,29,27)" fill-opacity="1" d=" M2.1470000743865967,0 C2.1470000743865967,1.1859999895095825 1.1859999895095825,2.1470000743865967 0,2.1470000743865967 C-1.184999942779541,2.1470000743865967 -2.1470000743865967,1.1859999895095825 -2.1470000743865967,0 C-2.1470000743865967,-1.1859999895095825 -1.184999942779541,-2.1470000743865967 0,-2.1470000743865967 C1.1859999895095825,-2.1470000743865967 2.1470000743865967,-1.1859999895095825 2.1470000743865967,0z"></path></g><g opacity="1" transform="matrix(1,0,0,1,252.60800170898438,368.1210021972656)"><path fill="rgb(29,29,27)" fill-opacity="1" d=" M2.1470000743865967,0 C2.1470000743865967,1.1859999895095825 1.1859999895095825,2.1470000743865967 0,2.1470000743865967 C-1.184999942779541,2.1470000743865967 -2.1470000743865967,1.1859999895095825 -2.1470000743865967,0 C-2.1470000743865967,-1.1859999895095825 -1.184999942779541,-2.1470000743865967 0,-2.1470000743865967 C1.1859999895095825,-2.1470000743865967 2.1470000743865967,-1.1859999895095825 2.1470000743865967,0z"></path></g></g><g transform="matrix(0.8223227262496948,-0.5690214037895203,0.5690214037895203,0.8223227262496948,-165.8373260498047,89.81957244873047)" opacity="1" style="display: none;"><g opacity="1" transform="matrix(1,0,0,1,271.8739929199219,368.1210021972656)"><path fill="rgb(29,29,27)" fill-opacity="1" d=" M2.1470000743865967,0 C2.1470000743865967,1.1859999895095825 1.1859999895095825,2.1470000743865967 0,2.1470000743865967 C-1.184999942779541,2.1470000743865967 -2.1470000743865967,1.1859999895095825 -2.1470000743865967,0 C-2.1470000743865967,-1.1859999895095825 -1.184999942779541,-2.1470000743865967 0,-2.1470000743865967 C1.1859999895095825,-2.1470000743865967 2.1470000743865967,-1.1859999895095825 2.1470000743865967,0z"></path></g><g opacity="1" transform="matrix(1,0,0,1,252.60800170898438,368.1210021972656)"><path fill="rgb(29,29,27)" fill-opacity="1" d=" M2.1470000743865967,0 C2.1470000743865967,1.1859999895095825 1.1859999895095825,2.1470000743865967 0,2.1470000743865967 C-1.184999942779541,2.1470000743865967 -2.1470000743865967,1.1859999895095825 -2.1470000743865967,0 C-2.1470000743865967,-1.1859999895095825 -1.184999942779541,-2.1470000743865967 0,-2.1470000743865967 C1.1859999895095825,-2.1470000743865967 2.1470000743865967,-1.1859999895095825 2.1470000743865967,0z"></path></g></g><g transform="matrix(0.8417847752571106,0.5398132801055908,-0.5398132801055908,0.8417847752571106,157.05233764648438,-224.9751739501953)" opacity="1" style="display: block;"><g opacity="1" transform="matrix(1,0,0,1,315.4339904785156,376.7040100097656)"><path fill="rgb(84,196,219)" fill-opacity="1" d=" M-10.993000030517578,5.452000141143799 C-9.03499984741211,9.14900016784668 -5.1529998779296875,11.670999526977539 -0.6779999732971191,11.670999526977539 C5.76800012588501,11.670999526977539 10.993000030517578,6.446000099182129 10.993000030517578,0 C10.993000030517578,-6.446000099182129 5.76800012588501,-11.670999526977539 -0.6779999732971191,-11.670999526977539 C-5.1529998779296875,-11.670999526977539 -9.03499984741211,-9.14900016784668 -10.993000030517578,-5.452000141143799"></path><path stroke-linecap="round" stroke-linejoin="round" fill-opacity="0" stroke="rgb(29,29,27)" stroke-opacity="1" stroke-width="3" d=" M-10.993000030517578,5.452000141143799 C-9.03499984741211,9.14900016784668 -5.1529998779296875,11.670999526977539 -0.6779999732971191,11.670999526977539 C5.76800012588501,11.670999526977539 10.993000030517578,6.446000099182129 10.993000030517578,0 C10.993000030517578,-6.446000099182129 5.76800012588501,-11.670999526977539 -0.6779999732971191,-11.670999526977539 C-5.1529998779296875,-11.670999526977539 -9.03499984741211,-9.14900016784668 -10.993000030517578,-5.452000141143799"></path></g><g opacity="1" transform="matrix(1,0,0,1,314.22198486328125,376.7040100097656)"><path fill="rgb(84,196,219)" fill-opacity="1" d=" M4.9679999351501465,2.4639999866485596 C4.083000183105469,4.135000228881836 2.3289999961853027,5.27400016784668 0.3059999942779541,5.27400016784668 C-2.6070001125335693,5.27400016784668 -4.9679999351501465,2.9130001068115234 -4.9679999351501465,0 C-4.9679999351501465,-2.9130001068115234 -2.6070001125335693,-5.27400016784668 0.3059999942779541,-5.27400016784668 C2.3289999961853027,-5.27400016784668 4.083000183105469,-4.133999824523926 4.9679999351501465,-2.4639999866485596"></path><path stroke-linecap="round" stroke-linejoin="round" fill-opacity="0" stroke="rgb(29,29,27)" stroke-opacity="1" stroke-width="3" d=" M4.9679999351501465,2.4639999866485596 C4.083000183105469,4.135000228881836 2.3289999961853027,5.27400016784668 0.3059999942779541,5.27400016784668 C-2.6070001125335693,5.27400016784668 -4.9679999351501465,2.9130001068115234 -4.9679999351501465,0 C-4.9679999351501465,-2.9130001068115234 -2.6070001125335693,-5.27400016784668 0.3059999942779541,-5.27400016784668 C2.3289999961853027,-5.27400016784668 4.083000183105469,-4.133999824523926 4.9679999351501465,-2.4639999866485596"></path></g></g><g transform="matrix(0.6863608956336975,0.7272610664367676,-0.7272610664367676,0.6863608956336975,262.70050048828125,-226.24432373046875)" opacity="1" style="display: block;"><g opacity="1" transform="matrix(1,0,0,1,283.072998046875,324.093994140625)"><path fill="rgb(84,196,219)" fill-opacity="1" d=" M-5.210000038146973,4.230000019073486 C-5.145999908447266,2.8299999237060547 -4.770999908447266,1.2330000400543213 -4.060999870300293,-0.36899998784065247 C-2.305000066757202,-4.327000141143799 0.8009999990463257,-6.7870001792907715 2.875999927520752,-5.867000102996826 C4.952000141143799,-4.946000099182129 5.210000038146973,-0.9919999837875366 3.4539999961853027,2.9660000801086426 C2.7720000743865967,4.504000186920166 1.8860000371932983,5.810999870300293 0.9350000023841858,6.7870001792907715"></path><path stroke-linecap="round" stroke-linejoin="round" fill-opacity="0" stroke="rgb(29,29,27)" stroke-opacity="1" stroke-width="3" d=" M-5.210000038146973,4.230000019073486 C-5.145999908447266,2.8299999237060547 -4.770999908447266,1.2330000400543213 -4.060999870300293,-0.36899998784065247 C-2.305000066757202,-4.327000141143799 0.8009999990463257,-6.7870001792907715 2.875999927520752,-5.867000102996826 C4.952000141143799,-4.946000099182129 5.210000038146973,-0.9919999837875366 3.4539999961853027,2.9660000801086426 C2.7720000743865967,4.504000186920166 1.8860000371932983,5.810999870300293 0.9350000023841858,6.7870001792907715"></path></g></g><g transform="matrix(0.3748641014099121,0.9270797371864319,-0.9270797371864319,0.3748641014099121,414.5338134765625,-176.27163696289062)" opacity="1" style="display: block;"><g opacity="1" transform="matrix(1,0,0,1,272.6940002441406,325.5450134277344)"><path fill="rgb(84,196,219)" fill-opacity="1" d=" M6,4.872000217437744 C5.927000045776367,3.259999990463257 5.494999885559082,1.4210000038146973 4.677000045776367,-0.4230000078678131 C2.6549999713897705,-4.980999946594238 -0.921999990940094,-7.815999984741211 -3.312000036239624,-6.75600004196167 C-5.701000213623047,-5.695000171661377 -6,-1.1410000324249268 -3.9779999256134033,3.4159998893737793 C-3.191999912261963,5.186999797821045 -2.1710000038146973,6.692999839782715 -1.0759999752044678,7.815999984741211"></path><path stroke-linecap="round" stroke-linejoin="round" fill-opacity="0" stroke="rgb(29,29,27)" stroke-opacity="1" stroke-width="3" d=" M6,4.872000217437744 C5.927000045776367,3.259999990463257 5.494999885559082,1.4210000038146973 4.677000045776367,-0.4230000078678131 C2.6549999713897705,-4.980999946594238 -0.921999990940094,-7.815999984741211 -3.312000036239624,-6.75600004196167 C-5.701000213623047,-5.695000171661377 -6,-1.1410000324249268 -3.9779999256134033,3.4159998893737793 C-3.191999912261963,5.186999797821045 -2.1710000038146973,6.692999839782715 -1.0759999752044678,7.815999984741211"></path></g></g><g transform="matrix(0.8757011890411377,0.48285341262817383,-0.48285341262817383,0.8757011890411377,200.46658325195312,235.8299560546875)" opacity="1" style="display: block;"><g opacity="1" transform="matrix(1,0,0,1,0,0)"><path stroke-linecap="butt" stroke-linejoin="miter" fill-opacity="0" stroke-miterlimit="4" stroke="rgb(29,29,27)" stroke-opacity="1" stroke-width="16" d=" M23.75,-9.75 C23.75,-9.75 23.44099998474121,-99.49800109863281 23.44099998474121,-99.49800109863281"></path><path stroke-linecap="butt" stroke-linejoin="miter" fill-opacity="0" stroke-miterlimit="4" stroke="rgb(84,196,219)" stroke-opacity="1" stroke-width="10" d=" M23.75,-9.75 C23.75,-9.75 23.44099998474121,-99.49800109863281 23.44099998474121,-99.49800109863281"></path></g></g><g transform="matrix(0.8757011890411377,0.48285341262817383,-0.48285341262817383,0.8757011890411377,200.46658325195312,235.8299560546875)" opacity="1" style="display: block;"><g opacity="1" transform="matrix(1,0,0,1,0,0)"><path stroke-linecap="butt" stroke-linejoin="miter" fill-opacity="0" stroke-miterlimit="4" stroke="rgb(84,196,219)" stroke-opacity="1" stroke-width="10" d=" M23.589000701904297,-7.75600004196167 C23.589000701904297,-7.75600004196167 23.44099998474121,-99.49800109863281 23.44099998474121,-99.49800109863281"></path></g></g><g transform="matrix(0.48562031984329224,0.8741698265075684,-0.8741698265075684,0.48562031984329224,212.2047576904297,247.83966064453125)" opacity="1" style="display: block;"><g opacity="1" transform="matrix(1,0,0,1,0,0)"><path stroke-linecap="round" stroke-linejoin="round" fill-opacity="0" stroke="rgb(29,29,27)" stroke-opacity="1" stroke-width="16" d=" M7.875,41.625 C7.875,41.625 6.571478843688965,65.7576675415039 6.571478843688965,65.7576675415039 C6.571478843688965,65.7576675415039 6.206668853759766,100.91178894042969 6.206668853759766,100.91178894042969 C6.206668853759766,100.91178894042969 -3.4373648166656494,99.19432830810547 -3.4373648166656494,99.19432830810547"></path><path stroke-linecap="round" stroke-linejoin="round" fill-opacity="0" stroke="rgb(84,196,219)" stroke-opacity="1" stroke-width="10" d=" M7.875,41.625 C7.875,41.625 6.571478843688965,65.7576675415039 6.571478843688965,65.7576675415039 C6.571478843688965,65.7576675415039 6.206668853759766,100.91178894042969 6.206668853759766,100.91178894042969 C6.206668853759766,100.91178894042969 -3.4373648166656494,99.19432830810547 -3.4373648166656494,99.19432830810547"></path></g></g><g transform="matrix(0.48562031984329224,0.8741698265075684,-0.8741698265075684,0.48562031984329224,212.2047576904297,247.83966064453125)" opacity="1" style="display: block;"><g opacity="1" transform="matrix(1,0,0,1,0,0)"><path stroke-linecap="round" stroke-linejoin="round" fill-opacity="0" stroke="rgb(84,196,219)" stroke-opacity="1" stroke-width="10" d=" M7.9025983810424805,35.09706497192383 C7.9025983810424805,35.09706497192383 6.571478843688965,65.7576675415039 6.571478843688965,65.7576675415039 C6.571478843688965,65.7576675415039 6.206668853759766,100.91178894042969 6.206668853759766,100.91178894042969 C6.206668853759766,100.91178894042969 -3.4373648166656494,99.19432830810547 -3.4373648166656494,99.19432830810547"></path></g></g><g transform="matrix(0.8417847752571106,0.5398132801055908,-0.5398132801055908,0.8417847752571106,157.05233764648438,-224.9751739501953)" opacity="1" style="display: block;"><g opacity="1" transform="matrix(1,0,0,1,263.8380126953125,385.95599365234375)"><path fill="rgb(29,29,27)" fill-opacity="1" d=" M0,11.395000457763672 C0,11.395000457763672 0,11.395000457763672 0,11.395000457763672 C-8.755000114440918,11.395000457763672 -15.852999687194824,4.296999931335449 -15.852999687194824,-4.458000183105469 C-15.852999687194824,-4.458000183105469 -15.852999687194824,-11.394000053405762 -15.852999687194824,-11.394000053405762 C-15.852999687194824,-11.394000053405762 15.852999687194824,-11.394000053405762 15.852999687194824,-11.394000053405762 C15.852999687194824,-11.394000053405762 15.852999687194824,-4.458000183105469 15.852999687194824,-4.458000183105469 C15.852999687194824,4.296999931335449 8.755000114440918,11.395000457763672 0,11.395000457763672z"></path><path stroke-linecap="round" stroke-linejoin="round" fill-opacity="0" stroke="rgb(29,29,27)" stroke-opacity="1" stroke-width="3" d=" M0,11.395000457763672 C0,11.395000457763672 0,11.395000457763672 0,11.395000457763672 C-8.755000114440918,11.395000457763672 -15.852999687194824,4.296999931335449 -15.852999687194824,-4.458000183105469 C-15.852999687194824,-4.458000183105469 -15.852999687194824,-11.394000053405762 -15.852999687194824,-11.394000053405762 C-15.852999687194824,-11.394000053405762 15.852999687194824,-11.394000053405762 15.852999687194824,-11.394000053405762 C15.852999687194824,-11.394000053405762 15.852999687194824,-4.458000183105469 15.852999687194824,-4.458000183105469 C15.852999687194824,4.296999931335449 8.755000114440918,11.395000457763672 0,11.395000457763672z"></path></g><g opacity="1" transform="matrix(1,0,0,1,257.56298828125,379.3800048828125)"><path fill="rgb(255,255,255)" fill-opacity="1" d=" M1.9170000553131104,4.817999839782715 C1.9170000553131104,4.817999839782715 -1.9170000553131104,4.817999839782715 -1.9170000553131104,4.817999839782715 C-3.359999895095825,4.817999839782715 -4.53000020980835,3.6489999294281006 -4.53000020980835,2.2060000896453857 C-4.53000020980835,2.2060000896453857 -4.53000020980835,-4.818999767303467 -4.53000020980835,-4.818999767303467 C-4.53000020980835,-4.818999767303467 4.5289998054504395,-4.818999767303467 4.5289998054504395,-4.818999767303467 C4.5289998054504395,-4.818999767303467 4.5289998054504395,2.2060000896453857 4.5289998054504395,2.2060000896453857 C4.5289998054504395,3.6489999294281006 3.359999895095825,4.817999839782715 1.9170000553131104,4.817999839782715z"></path><path stroke-linecap="round" stroke-linejoin="round" fill-opacity="0" stroke="rgb(29,29,27)" stroke-opacity="1" stroke-width="3" d=" M1.9170000553131104,4.817999839782715 C1.9170000553131104,4.817999839782715 -1.9170000553131104,4.817999839782715 -1.9170000553131104,4.817999839782715 C-3.359999895095825,4.817999839782715 -4.53000020980835,3.6489999294281006 -4.53000020980835,2.2060000896453857 C-4.53000020980835,2.2060000896453857 -4.53000020980835,-4.818999767303467 -4.53000020980835,-4.818999767303467 C-4.53000020980835,-4.818999767303467 4.5289998054504395,-4.818999767303467 4.5289998054504395,-4.818999767303467 C4.5289998054504395,-4.818999767303467 4.5289998054504395,2.2060000896453857 4.5289998054504395,2.2060000896453857 C4.5289998054504395,3.6489999294281006 3.359999895095825,4.817999839782715 1.9170000553131104,4.817999839782715z"></path></g><g opacity="1" transform="matrix(1,0,0,1,266.6449890136719,379.3800048828125)"><path fill="rgb(255,255,255)" fill-opacity="1" d=" M1.9170000553131104,4.817999839782715 C1.9170000553131104,4.817999839782715 -1.9170000553131104,4.817999839782715 -1.9170000553131104,4.817999839782715 C-3.359999895095825,4.817999839782715 -4.53000020980835,3.6489999294281006 -4.53000020980835,2.2060000896453857 C-4.53000020980835,2.2060000896453857 -4.53000020980835,-4.818999767303467 -4.53000020980835,-4.818999767303467 C-4.53000020980835,-4.818999767303467 4.5289998054504395,-4.818999767303467 4.5289998054504395,-4.818999767303467 C4.5289998054504395,-4.818999767303467 4.5289998054504395,2.2060000896453857 4.5289998054504395,2.2060000896453857 C4.5289998054504395,3.6489999294281006 3.359999895095825,4.817999839782715 1.9170000553131104,4.817999839782715z"></path><path stroke-linecap="round" stroke-linejoin="round" fill-opacity="0" stroke="rgb(29,29,27)" stroke-opacity="1" stroke-width="3" d=" M1.9170000553131104,4.817999839782715 C1.9170000553131104,4.817999839782715 -1.9170000553131104,4.817999839782715 -1.9170000553131104,4.817999839782715 C-3.359999895095825,4.817999839782715 -4.53000020980835,3.6489999294281006 -4.53000020980835,2.2060000896453857 C-4.53000020980835,2.2060000896453857 -4.53000020980835,-4.818999767303467 -4.53000020980835,-4.818999767303467 C-4.53000020980835,-4.818999767303467 4.5289998054504395,-4.818999767303467 4.5289998054504395,-4.818999767303467 C4.5289998054504395,-4.818999767303467 4.5289998054504395,2.2060000896453857 4.5289998054504395,2.2060000896453857 C4.5289998054504395,3.6489999294281006 3.359999895095825,4.817999839782715 1.9170000553131104,4.817999839782715z"></path></g><g opacity="1" transform="matrix(1,0,0,1,267.1390075683594,391.65301513671875)"><path fill="rgb(245,96,185)" fill-opacity="1" d=" M-3.3010001182556152,5.697000026702881 C2.635999917984009,5.697000026702881 7.802999973297119,2.427999973297119 10.519000053405762,-2.4019999504089355 C8.26200008392334,-4.439000129699707 5.198999881744385,-5.697999954223633 1.8179999589920044,-5.697999954223633 C-4.3429999351501465,-5.697999954223633 -9.456000328063965,-1.5360000133514404 -10.519000053405762,3.947000026702881 C-8.352999687194824,5.058000087738037 -5.9039998054504395,5.697000026702881 -3.3010001182556152,5.697000026702881z"></path><path stroke-linecap="round" stroke-linejoin="round" fill-opacity="0" stroke="rgb(29,29,27)" stroke-opacity="1" stroke-width="3" d=" M-3.3010001182556152,5.697000026702881 C2.635999917984009,5.697000026702881 7.802999973297119,2.427999973297119 10.519000053405762,-2.4019999504089355 C8.26200008392334,-4.439000129699707 5.198999881744385,-5.697999954223633 1.8179999589920044,-5.697999954223633 C-4.3429999351501465,-5.697999954223633 -9.456000328063965,-1.5360000133514404 -10.519000053405762,3.947000026702881 C-8.352999687194824,5.058000087738037 -5.9039998054504395,5.697000026702881 -3.3010001182556152,5.697000026702881z"></path></g></g><g transform="matrix(0.8804283142089844,0.47417932748794556,-0.47417932748794556,0.8804283142089844,171.50991821289062,220.6415557861328)" opacity="1" style="display: block;"><g opacity="1" transform="matrix(1,0,0,1,0,0)"><path stroke-linecap="round" stroke-linejoin="miter" fill-opacity="0" stroke-miterlimit="4" stroke="rgb(29,29,27)" stroke-opacity="1" stroke-width="3" d=" M-3.5739998817443848,1.7869999408721924 C-3.5739998817443848,-0.18700000643730164 -1.9739999771118164,-1.7869999408721924 0,-1.7869999408721924 C1.9739999771118164,-1.7869999408721924 3.5739998817443848,-0.18700000643730164 3.5739998817443848,1.7869999408721924"></path></g></g><g transform="matrix(0.8804283142089844,0.47417932748794556,-0.47417932748794556,0.8804283142089844,187.36569213867188,230.74290466308594)" opacity="1" style="display: block;"><g opacity="1" transform="matrix(1,0,0,1,0,0)"><path stroke-linecap="round" stroke-linejoin="miter" fill-opacity="0" stroke-miterlimit="4" stroke="rgb(29,29,27)" stroke-opacity="1" stroke-width="3" d=" M-3.5739998817443848,1.7869999408721924 C-3.5739998817443848,-0.18700000643730164 -1.9739999771118164,-1.7869999408721924 0,-1.7869999408721924 C1.9739999771118164,-1.7869999408721924 3.5739998817443848,-0.18700000643730164 3.5739998817443848,1.7869999408721924"></path></g></g></g></svg>